%TF.GenerationSoftware,KiCad,Pcbnew,9.0.7*%
%TF.CreationDate,2026-07-10T19:39:02+01:00*%
%TF.ProjectId,rocket flight computer v1.0,726f636b-6574-4206-966c-696768742063,rev?*%
%TF.SameCoordinates,Original*%
%TF.FileFunction,Copper,L3,Inr*%
%TF.FilePolarity,Positive*%
%FSLAX46Y46*%
G04 Gerber Fmt 4.6, Leading zero omitted, Abs format (unit mm)*
G04 Created by KiCad (PCBNEW 9.0.7) date 2026-07-10 19:39:02*
%MOMM*%
%LPD*%
G01*
G04 APERTURE LIST*
G04 Aperture macros list*
%AMRoundRect*
0 Rectangle with rounded corners*
0 $1 Rounding radius*
0 $2 $3 $4 $5 $6 $7 $8 $9 X,Y pos of 4 corners*
0 Add a 4 corners polygon primitive as box body*
4,1,4,$2,$3,$4,$5,$6,$7,$8,$9,$2,$3,0*
0 Add four circle primitives for the rounded corners*
1,1,$1+$1,$2,$3*
1,1,$1+$1,$4,$5*
1,1,$1+$1,$6,$7*
1,1,$1+$1,$8,$9*
0 Add four rect primitives between the rounded corners*
20,1,$1+$1,$2,$3,$4,$5,0*
20,1,$1+$1,$4,$5,$6,$7,0*
20,1,$1+$1,$6,$7,$8,$9,0*
20,1,$1+$1,$8,$9,$2,$3,0*%
G04 Aperture macros list end*
%TA.AperFunction,ComponentPad*%
%ADD10R,1.700000X1.700000*%
%TD*%
%TA.AperFunction,ComponentPad*%
%ADD11C,1.700000*%
%TD*%
%TA.AperFunction,ComponentPad*%
%ADD12O,1.200000X1.750000*%
%TD*%
%TA.AperFunction,ComponentPad*%
%ADD13RoundRect,0.250000X-0.350000X-0.625000X0.350000X-0.625000X0.350000X0.625000X-0.350000X0.625000X0*%
%TD*%
%TA.AperFunction,HeatsinkPad*%
%ADD14C,0.500000*%
%TD*%
%TA.AperFunction,HeatsinkPad*%
%ADD15O,1.600000X1.000000*%
%TD*%
%TA.AperFunction,HeatsinkPad*%
%ADD16O,2.100000X1.000000*%
%TD*%
%TA.AperFunction,ViaPad*%
%ADD17C,0.500000*%
%TD*%
%TA.AperFunction,ViaPad*%
%ADD18C,0.300000*%
%TD*%
%TA.AperFunction,ViaPad*%
%ADD19C,0.450000*%
%TD*%
%TA.AperFunction,Conductor*%
%ADD20C,0.100000*%
%TD*%
G04 APERTURE END LIST*
D10*
%TO.N,+3.3V*%
%TO.C,J4*%
X162500000Y-54920000D03*
D11*
%TO.N,GND*%
X162500000Y-57460000D03*
%TO.N,Net-(J4-Pin_3)*%
X162500000Y-60000000D03*
%TO.N,Net-(J4-Pin_4)*%
X162500000Y-62540000D03*
%TD*%
D12*
%TO.N,GND*%
%TO.C,J2*%
X177000000Y-55500000D03*
D13*
%TO.N,Net-(J2-Pin_1)*%
X175000000Y-55500000D03*
%TD*%
D14*
%TO.N,GND*%
%TO.C,U5*%
X146700000Y-74200000D03*
X146700000Y-73000000D03*
X146700000Y-71800000D03*
X145300000Y-74200000D03*
X145300000Y-73000000D03*
X145300000Y-71800000D03*
%TD*%
D15*
%TO.N,GND*%
%TO.C,J1*%
X177000000Y-71500000D03*
D16*
X172820000Y-71500000D03*
D15*
X177000000Y-80140000D03*
D16*
X172820000Y-80140000D03*
%TD*%
D10*
%TO.N,GND*%
%TO.C,J5*%
X174500000Y-85960000D03*
D11*
%TO.N,+5V*%
X174500000Y-88500000D03*
%TO.N,Net-(J5-Pin_3)*%
X174500000Y-91040000D03*
%TD*%
D17*
%TO.N,Net-(AE1-A)*%
X151100000Y-81400000D03*
X158200000Y-80900000D03*
X162200000Y-92600000D03*
X160500000Y-84900000D03*
%TO.N,Net-(U6-V_{FB})*%
X170700000Y-83300000D03*
X171500000Y-82500000D03*
X172400000Y-82400000D03*
%TO.N,Net-(J2-Pin_1)*%
X175800000Y-65300000D03*
X175800000Y-67099999D03*
%TO.N,Net-(SW1-B)*%
X164600000Y-69000000D03*
X156400000Y-73600000D03*
X154700000Y-77300000D03*
X155300000Y-77900000D03*
%TO.N,+5V*%
X169700000Y-66800000D03*
X170600000Y-67300000D03*
X170500000Y-82500000D03*
X172200000Y-83000000D03*
X175200000Y-92200000D03*
%TO.N,VBUS*%
X173300000Y-76100000D03*
X173300000Y-74900000D03*
X142700000Y-74400000D03*
X141900000Y-74400000D03*
X169500000Y-71200000D03*
X169300000Y-70300000D03*
X158900000Y-68200000D03*
X156500000Y-68200000D03*
%TO.N,Net-(U4-XTAL_P)*%
X153700000Y-87700000D03*
X154100000Y-90300000D03*
%TO.N,Net-(U4-GPIO19)*%
X158700000Y-83800000D03*
X164300000Y-78200000D03*
%TO.N,Net-(U4-GPIO18)*%
X159200000Y-84300000D03*
X164800000Y-78700000D03*
%TO.N,+3.3V*%
X153900000Y-81100000D03*
X151600000Y-83400000D03*
X164200000Y-87900000D03*
X170200000Y-85500000D03*
X169000000Y-85500000D03*
X166200000Y-86300000D03*
X165400000Y-86600000D03*
X165500000Y-88200000D03*
X165000000Y-93400000D03*
X147100000Y-92600000D03*
X151100000Y-93400000D03*
X153300000Y-92100000D03*
X160300000Y-102800000D03*
X160900000Y-102200000D03*
X155800000Y-92400000D03*
X152100000Y-87100000D03*
X164000000Y-92400000D03*
X164800000Y-89500000D03*
D18*
X159850000Y-89150000D03*
D19*
X156750000Y-89950000D03*
D17*
X155200000Y-86400000D03*
X155600000Y-85200000D03*
X156500000Y-73000000D03*
X158600000Y-73000000D03*
X160200000Y-83900000D03*
X162400000Y-78400000D03*
X162000000Y-76500000D03*
X162900000Y-71200000D03*
X164300000Y-70000000D03*
%TO.N,GND*%
X169400000Y-67800000D03*
X156400000Y-81800000D03*
X158600000Y-77500000D03*
X156500000Y-77500000D03*
X153200000Y-71500000D03*
X153200000Y-72400000D03*
X152100000Y-84500000D03*
X152500000Y-88700000D03*
X155900000Y-87500000D03*
X159100000Y-87900000D03*
X161400000Y-87900000D03*
X166300000Y-92500000D03*
X166300000Y-93400000D03*
X163900000Y-104400000D03*
X163900000Y-103500000D03*
%TO.N,Net-(U5-PROG)*%
X152400000Y-81400000D03*
X168200000Y-88900000D03*
%TO.N,Net-(J1-CC2)*%
X170900000Y-81000000D03*
X169300000Y-82600000D03*
%TO.N,Net-(U1-SCL)*%
X161500000Y-84000000D03*
X163400000Y-89500000D03*
X156200000Y-93300000D03*
X156227000Y-90200000D03*
%TO.N,Net-(U1-SDA)*%
X158100000Y-92400000D03*
X161400000Y-84700000D03*
X161000000Y-89500000D03*
X155684000Y-89890000D03*
%TO.N,Net-(J3-DAT3{slash}CD)*%
X163600000Y-71200000D03*
X163600000Y-70000000D03*
%TO.N,Net-(J3-CMD)*%
X157500000Y-90800000D03*
X159800000Y-81200000D03*
X158500000Y-71600000D03*
X158500000Y-70300000D03*
%TO.N,Net-(J4-Pin_3)*%
X158200000Y-83400000D03*
X163300000Y-77500000D03*
X165000000Y-71200000D03*
X165000000Y-70000000D03*
%TO.N,Net-(U4-LNA_IN)*%
X157300000Y-81200000D03*
X159900000Y-91500000D03*
X155100000Y-85700000D03*
%TO.N,Net-(J5-Pin_3)*%
X160100000Y-93500000D03*
X153500000Y-86000000D03*
X153000000Y-89600000D03*
X153700000Y-91600000D03*
X160700000Y-91400000D03*
%TO.N,Net-(J3-DAT0)*%
X155100000Y-89300000D03*
X157900000Y-80000000D03*
X156800000Y-79600000D03*
X156500000Y-71300000D03*
X156500000Y-70200000D03*
%TO.N,Net-(U1-REGOUT)*%
X164900000Y-84000000D03*
X154600000Y-82900000D03*
%TO.N,Net-(D1-K)*%
X170000000Y-70300000D03*
X170000000Y-78900000D03*
%TO.N,Net-(J4-Pin_4)*%
X158000000Y-71200000D03*
X158600000Y-69400000D03*
%TO.N,Net-(J3-CLK)*%
X154300000Y-89700000D03*
X153200000Y-88100000D03*
X157100000Y-71200000D03*
X157100000Y-70300000D03*
%TD*%
D20*
%TO.N,Net-(U4-XTAL_P)*%
X153700000Y-89900000D02*
X153700000Y-87700000D01*
X154100000Y-90300000D02*
X153700000Y-89900000D01*
%TO.N,+3.3V*%
X155600000Y-86000000D02*
X155200000Y-86400000D01*
X155600000Y-85200000D02*
X155600000Y-86000000D01*
X160200000Y-81400000D02*
X160200000Y-83900000D01*
X162400000Y-79200000D02*
X160200000Y-81400000D01*
X162400000Y-78400000D02*
X162400000Y-79200000D01*
%TO.N,Net-(U1-SCL)*%
X161900000Y-84400000D02*
X161500000Y-84000000D01*
X161900000Y-90000000D02*
X161900000Y-84400000D01*
X162900000Y-90000000D02*
X163400000Y-89500000D01*
X160700000Y-90000000D02*
X162900000Y-90000000D01*
X159400000Y-91300000D02*
X160700000Y-90000000D01*
X156200000Y-91300000D02*
X159400000Y-91300000D01*
X156200000Y-90200000D02*
X156200000Y-93300000D01*
%TO.N,Net-(U1-SDA)*%
X160900000Y-85200000D02*
X161400000Y-84700000D01*
X160900000Y-88000000D02*
X160900000Y-85200000D01*
X161000000Y-88100000D02*
X160900000Y-88000000D01*
X161000000Y-89500000D02*
X161000000Y-88100000D01*
%TO.N,Net-(J3-CMD)*%
X159800000Y-88500000D02*
X157500000Y-90800000D01*
X159800000Y-81200000D02*
X159800000Y-88500000D01*
%TO.N,Net-(J3-DAT0)*%
X156800000Y-87600000D02*
X155100000Y-89300000D01*
X156800000Y-79600000D02*
X156800000Y-87600000D01*
%TO.N,Net-(J4-Pin_4)*%
X158000000Y-70000000D02*
X158000000Y-71200000D01*
X158600000Y-69400000D02*
X158000000Y-70000000D01*
%TD*%
%TA.AperFunction,Conductor*%
%TO.N,+3.3V*%
G36*
X160368834Y-88812205D02*
G01*
X160424767Y-88854077D01*
X160449184Y-88919541D01*
X160449500Y-88928387D01*
X160449500Y-88937770D01*
X160429815Y-89004809D01*
X160420419Y-89016468D01*
X160420914Y-89016874D01*
X160417048Y-89021584D01*
X160334919Y-89144498D01*
X160334912Y-89144511D01*
X160278343Y-89281082D01*
X160278340Y-89281092D01*
X160249500Y-89426079D01*
X160249500Y-89426082D01*
X160249500Y-89573918D01*
X160249500Y-89573920D01*
X160249499Y-89573920D01*
X160252838Y-89590704D01*
X160246609Y-89660296D01*
X160218901Y-89702573D01*
X159208294Y-90713181D01*
X159146971Y-90746666D01*
X159120613Y-90749500D01*
X158628387Y-90749500D01*
X158561348Y-90729815D01*
X158515593Y-90677011D01*
X158505649Y-90607853D01*
X158534674Y-90544297D01*
X158540706Y-90537819D01*
X160237819Y-88840706D01*
X160299142Y-88807221D01*
X160368834Y-88812205D01*
G37*
%TD.AperFunction*%
%TA.AperFunction,Conductor*%
G36*
X157491007Y-83765695D02*
G01*
X157492147Y-83765532D01*
X157522967Y-83779607D01*
X157554018Y-83793123D01*
X157555029Y-83794249D01*
X157555703Y-83794557D01*
X157577600Y-83819377D01*
X157601271Y-83854803D01*
X157617050Y-83878418D01*
X157721580Y-83982948D01*
X157721584Y-83982951D01*
X157844498Y-84065080D01*
X157844511Y-84065087D01*
X157986715Y-84123989D01*
X157985892Y-84125974D01*
X158036208Y-84158934D01*
X158044892Y-84170426D01*
X158117045Y-84278411D01*
X158117051Y-84278419D01*
X158221580Y-84382948D01*
X158221584Y-84382951D01*
X158344498Y-84465080D01*
X158344504Y-84465083D01*
X158344505Y-84465084D01*
X158431692Y-84501198D01*
X158486095Y-84545039D01*
X158498800Y-84568305D01*
X158534916Y-84655494D01*
X158534919Y-84655501D01*
X158617048Y-84778415D01*
X158617051Y-84778419D01*
X158721580Y-84882948D01*
X158721584Y-84882951D01*
X158844498Y-84965080D01*
X158844511Y-84965087D01*
X158934876Y-85002517D01*
X158981087Y-85021658D01*
X158981091Y-85021658D01*
X158981092Y-85021659D01*
X159126079Y-85050500D01*
X159132142Y-85051097D01*
X159132012Y-85052412D01*
X159192539Y-85070185D01*
X159238294Y-85122989D01*
X159249500Y-85174500D01*
X159249500Y-87025500D01*
X159229815Y-87092539D01*
X159177011Y-87138294D01*
X159125500Y-87149500D01*
X159026080Y-87149500D01*
X158881092Y-87178340D01*
X158881082Y-87178343D01*
X158744511Y-87234912D01*
X158744498Y-87234919D01*
X158621584Y-87317048D01*
X158621580Y-87317051D01*
X158517051Y-87421580D01*
X158517048Y-87421584D01*
X158434919Y-87544498D01*
X158434912Y-87544511D01*
X158378343Y-87681082D01*
X158378340Y-87681092D01*
X158349500Y-87826079D01*
X158349500Y-87826082D01*
X158349500Y-87973918D01*
X158349500Y-87973920D01*
X158349499Y-87973920D01*
X158378340Y-88118907D01*
X158378343Y-88118917D01*
X158434912Y-88255488D01*
X158434919Y-88255501D01*
X158517048Y-88378415D01*
X158517051Y-88378419D01*
X158621580Y-88482948D01*
X158621584Y-88482951D01*
X158745890Y-88566010D01*
X158790695Y-88619622D01*
X158799402Y-88688947D01*
X158769248Y-88751975D01*
X158764680Y-88756793D01*
X157508294Y-90013181D01*
X157446971Y-90046666D01*
X157432079Y-90048267D01*
X157432142Y-90048903D01*
X157426079Y-90049499D01*
X157281092Y-90078340D01*
X157281082Y-90078343D01*
X157144499Y-90134917D01*
X157142579Y-90135944D01*
X157141459Y-90136177D01*
X157138876Y-90137247D01*
X157138672Y-90136756D01*
X157074174Y-90150179D01*
X157008933Y-90125172D01*
X156967569Y-90068863D01*
X156962520Y-90050772D01*
X156948659Y-89981092D01*
X156948658Y-89981091D01*
X156948658Y-89981087D01*
X156938060Y-89955501D01*
X156892087Y-89844511D01*
X156892080Y-89844498D01*
X156809951Y-89721584D01*
X156809948Y-89721580D01*
X156705419Y-89617051D01*
X156705415Y-89617048D01*
X156582501Y-89534919D01*
X156582488Y-89534912D01*
X156445917Y-89478343D01*
X156445907Y-89478340D01*
X156341025Y-89457477D01*
X156282241Y-89428007D01*
X156271404Y-89418248D01*
X156266951Y-89411584D01*
X156162416Y-89307049D01*
X156106200Y-89269487D01*
X156099554Y-89263502D01*
X156085731Y-89241064D01*
X156068834Y-89220845D01*
X156067696Y-89211786D01*
X156062908Y-89204014D01*
X156063410Y-89177665D01*
X156060127Y-89151520D01*
X156064066Y-89143285D01*
X156064241Y-89134157D01*
X156078907Y-89112264D01*
X156090281Y-89088493D01*
X156094829Y-89083694D01*
X157240510Y-87938015D01*
X157312984Y-87812485D01*
X157325957Y-87764069D01*
X157350500Y-87672475D01*
X157350500Y-83888270D01*
X157360039Y-83855783D01*
X157369005Y-83823102D01*
X157369861Y-83822332D01*
X157370185Y-83821231D01*
X157395753Y-83799075D01*
X157420984Y-83776413D01*
X157422120Y-83776228D01*
X157422989Y-83775476D01*
X157456520Y-83770654D01*
X157489954Y-83765237D01*
X157491007Y-83765695D01*
G37*
%TD.AperFunction*%
%TA.AperFunction,Conductor*%
G36*
X180442539Y-52520185D02*
G01*
X180488294Y-52572989D01*
X180499500Y-52624500D01*
X180499500Y-112875500D01*
X180479815Y-112942539D01*
X180427011Y-112988294D01*
X180375500Y-112999500D01*
X140624500Y-112999500D01*
X140557461Y-112979815D01*
X140511706Y-112927011D01*
X140500500Y-112875500D01*
X140500500Y-103573920D01*
X163149499Y-103573920D01*
X163178340Y-103718907D01*
X163178343Y-103718917D01*
X163234914Y-103855493D01*
X163234915Y-103855495D01*
X163252031Y-103881111D01*
X163272908Y-103947789D01*
X163254422Y-104015169D01*
X163252031Y-104018889D01*
X163234915Y-104044504D01*
X163234914Y-104044506D01*
X163178343Y-104181082D01*
X163178340Y-104181092D01*
X163149500Y-104326079D01*
X163149500Y-104326082D01*
X163149500Y-104473918D01*
X163149500Y-104473920D01*
X163149499Y-104473920D01*
X163178340Y-104618907D01*
X163178343Y-104618917D01*
X163234912Y-104755488D01*
X163234919Y-104755501D01*
X163317048Y-104878415D01*
X163317051Y-104878419D01*
X163421580Y-104982948D01*
X163421584Y-104982951D01*
X163544498Y-105065080D01*
X163544511Y-105065087D01*
X163681082Y-105121656D01*
X163681087Y-105121658D01*
X163681091Y-105121658D01*
X163681092Y-105121659D01*
X163826079Y-105150500D01*
X163826082Y-105150500D01*
X163973920Y-105150500D01*
X164071462Y-105131096D01*
X164118913Y-105121658D01*
X164255495Y-105065084D01*
X164378416Y-104982951D01*
X164482951Y-104878416D01*
X164565084Y-104755495D01*
X164621658Y-104618913D01*
X164650500Y-104473918D01*
X164650500Y-104326082D01*
X164650500Y-104326079D01*
X164621659Y-104181092D01*
X164621658Y-104181091D01*
X164621658Y-104181087D01*
X164565084Y-104044505D01*
X164547967Y-104018889D01*
X164527090Y-103952216D01*
X164545573Y-103884835D01*
X164547933Y-103881161D01*
X164565084Y-103855495D01*
X164621658Y-103718913D01*
X164650500Y-103573918D01*
X164650500Y-103426082D01*
X164650500Y-103426079D01*
X164621659Y-103281092D01*
X164621658Y-103281091D01*
X164621658Y-103281087D01*
X164621656Y-103281082D01*
X164565087Y-103144511D01*
X164565080Y-103144498D01*
X164482951Y-103021584D01*
X164482948Y-103021580D01*
X164378419Y-102917051D01*
X164378415Y-102917048D01*
X164255501Y-102834919D01*
X164255488Y-102834912D01*
X164118917Y-102778343D01*
X164118907Y-102778340D01*
X163973920Y-102749500D01*
X163973918Y-102749500D01*
X163826082Y-102749500D01*
X163826080Y-102749500D01*
X163681092Y-102778340D01*
X163681082Y-102778343D01*
X163544511Y-102834912D01*
X163544498Y-102834919D01*
X163421584Y-102917048D01*
X163421580Y-102917051D01*
X163317051Y-103021580D01*
X163317048Y-103021584D01*
X163234919Y-103144498D01*
X163234912Y-103144511D01*
X163178343Y-103281082D01*
X163178340Y-103281092D01*
X163149500Y-103426079D01*
X163149500Y-103426082D01*
X163149500Y-103573918D01*
X163149500Y-103573920D01*
X163149499Y-103573920D01*
X140500500Y-103573920D01*
X140500500Y-88773920D01*
X151749499Y-88773920D01*
X151778340Y-88918907D01*
X151778343Y-88918917D01*
X151834912Y-89055488D01*
X151834919Y-89055501D01*
X151917048Y-89178415D01*
X151917051Y-89178419D01*
X152021580Y-89282948D01*
X152021584Y-89282951D01*
X152144505Y-89365084D01*
X152177075Y-89378574D01*
X152231478Y-89422415D01*
X152253544Y-89488709D01*
X152251242Y-89517321D01*
X152249500Y-89526080D01*
X152249500Y-89526082D01*
X152249500Y-89673918D01*
X152249500Y-89673920D01*
X152249499Y-89673920D01*
X152278340Y-89818907D01*
X152278343Y-89818917D01*
X152334912Y-89955488D01*
X152334919Y-89955501D01*
X152417048Y-90078415D01*
X152417051Y-90078419D01*
X152521580Y-90182948D01*
X152521584Y-90182951D01*
X152644498Y-90265080D01*
X152644511Y-90265087D01*
X152758794Y-90312424D01*
X152781087Y-90321658D01*
X152781091Y-90321658D01*
X152781092Y-90321659D01*
X152926079Y-90350500D01*
X152926082Y-90350500D01*
X153073920Y-90350500D01*
X153212912Y-90322852D01*
X153282504Y-90329079D01*
X153337681Y-90371942D01*
X153358721Y-90420277D01*
X153378340Y-90518907D01*
X153378343Y-90518917D01*
X153434912Y-90655488D01*
X153434919Y-90655501D01*
X153477604Y-90719383D01*
X153498482Y-90786061D01*
X153479997Y-90853441D01*
X153428019Y-90900131D01*
X153421955Y-90902835D01*
X153344507Y-90934914D01*
X153344498Y-90934919D01*
X153221584Y-91017048D01*
X153221580Y-91017051D01*
X153117051Y-91121580D01*
X153117048Y-91121584D01*
X153034919Y-91244498D01*
X153034912Y-91244511D01*
X152978343Y-91381082D01*
X152978340Y-91381092D01*
X152949500Y-91526079D01*
X152949500Y-91526082D01*
X152949500Y-91673918D01*
X152949500Y-91673920D01*
X152949499Y-91673920D01*
X152978340Y-91818907D01*
X152978343Y-91818917D01*
X153034912Y-91955488D01*
X153034919Y-91955501D01*
X153117048Y-92078415D01*
X153117051Y-92078419D01*
X153221580Y-92182948D01*
X153221584Y-92182951D01*
X153344498Y-92265080D01*
X153344511Y-92265087D01*
X153481082Y-92321656D01*
X153481087Y-92321658D01*
X153481091Y-92321658D01*
X153481092Y-92321659D01*
X153626079Y-92350500D01*
X153626082Y-92350500D01*
X153773920Y-92350500D01*
X153871462Y-92331096D01*
X153918913Y-92321658D01*
X154055495Y-92265084D01*
X154178416Y-92182951D01*
X154282951Y-92078416D01*
X154365084Y-91955495D01*
X154421658Y-91818913D01*
X154434274Y-91755488D01*
X154450500Y-91673920D01*
X154450500Y-91526079D01*
X154421659Y-91381092D01*
X154421658Y-91381091D01*
X154421658Y-91381087D01*
X154398873Y-91326079D01*
X154365087Y-91244511D01*
X154365080Y-91244498D01*
X154322395Y-91180616D01*
X154301517Y-91113939D01*
X154320001Y-91046559D01*
X154371980Y-90999868D01*
X154378003Y-90997182D01*
X154455495Y-90965084D01*
X154578416Y-90882951D01*
X154682951Y-90778416D01*
X154765084Y-90655495D01*
X154821658Y-90518913D01*
X154850417Y-90374334D01*
X154882802Y-90312424D01*
X154943518Y-90277850D01*
X155013287Y-90281589D01*
X155069959Y-90322456D01*
X155075136Y-90329635D01*
X155101048Y-90368415D01*
X155101051Y-90368419D01*
X155205580Y-90472948D01*
X155205584Y-90472951D01*
X155328498Y-90555080D01*
X155328511Y-90555087D01*
X155455901Y-90607853D01*
X155465087Y-90611658D01*
X155549691Y-90628487D01*
X155611602Y-90660871D01*
X155646176Y-90721587D01*
X155649500Y-90750104D01*
X155649500Y-92737770D01*
X155629815Y-92804809D01*
X155620419Y-92816468D01*
X155620914Y-92816874D01*
X155617048Y-92821584D01*
X155534919Y-92944498D01*
X155534912Y-92944511D01*
X155478343Y-93081082D01*
X155478340Y-93081092D01*
X155449500Y-93226079D01*
X155449500Y-93226082D01*
X155449500Y-93373918D01*
X155449500Y-93373920D01*
X155449499Y-93373920D01*
X155478340Y-93518907D01*
X155478343Y-93518917D01*
X155534912Y-93655488D01*
X155534919Y-93655501D01*
X155617048Y-93778415D01*
X155617051Y-93778419D01*
X155721580Y-93882948D01*
X155721584Y-93882951D01*
X155844498Y-93965080D01*
X155844511Y-93965087D01*
X155981082Y-94021656D01*
X155981087Y-94021658D01*
X155981091Y-94021658D01*
X155981092Y-94021659D01*
X156126079Y-94050500D01*
X156126082Y-94050500D01*
X156273920Y-94050500D01*
X156371462Y-94031096D01*
X156418913Y-94021658D01*
X156555495Y-93965084D01*
X156678416Y-93882951D01*
X156782951Y-93778416D01*
X156865084Y-93655495D01*
X156898873Y-93573920D01*
X159349499Y-93573920D01*
X159378340Y-93718907D01*
X159378343Y-93718917D01*
X159434912Y-93855488D01*
X159434919Y-93855501D01*
X159517048Y-93978415D01*
X159517051Y-93978419D01*
X159621580Y-94082948D01*
X159621584Y-94082951D01*
X159744498Y-94165080D01*
X159744511Y-94165087D01*
X159881082Y-94221656D01*
X159881087Y-94221658D01*
X159881091Y-94221658D01*
X159881092Y-94221659D01*
X160026079Y-94250500D01*
X160026082Y-94250500D01*
X160173920Y-94250500D01*
X160271462Y-94231096D01*
X160318913Y-94221658D01*
X160455495Y-94165084D01*
X160578416Y-94082951D01*
X160682951Y-93978416D01*
X160765084Y-93855495D01*
X160821658Y-93718913D01*
X160850500Y-93573918D01*
X160850500Y-93426082D01*
X160850500Y-93426079D01*
X160821659Y-93281092D01*
X160821658Y-93281091D01*
X160821658Y-93281087D01*
X160780235Y-93181082D01*
X160765087Y-93144511D01*
X160765080Y-93144498D01*
X160682951Y-93021584D01*
X160682948Y-93021580D01*
X160578419Y-92917051D01*
X160578415Y-92917048D01*
X160455501Y-92834919D01*
X160455488Y-92834912D01*
X160318917Y-92778343D01*
X160318907Y-92778340D01*
X160173920Y-92749500D01*
X160173918Y-92749500D01*
X160026082Y-92749500D01*
X160026080Y-92749500D01*
X159881092Y-92778340D01*
X159881082Y-92778343D01*
X159744511Y-92834912D01*
X159744498Y-92834919D01*
X159621584Y-92917048D01*
X159621580Y-92917051D01*
X159517051Y-93021580D01*
X159517048Y-93021584D01*
X159434919Y-93144498D01*
X159434912Y-93144511D01*
X159378343Y-93281082D01*
X159378340Y-93281092D01*
X159349500Y-93426079D01*
X159349500Y-93426082D01*
X159349500Y-93573918D01*
X159349500Y-93573920D01*
X159349499Y-93573920D01*
X156898873Y-93573920D01*
X156921658Y-93518913D01*
X156950500Y-93373918D01*
X156950500Y-93226082D01*
X156950500Y-93226079D01*
X156921659Y-93081092D01*
X156921658Y-93081091D01*
X156921658Y-93081087D01*
X156915028Y-93065080D01*
X156865087Y-92944511D01*
X156865080Y-92944498D01*
X156782951Y-92821584D01*
X156779086Y-92816874D01*
X156781191Y-92815145D01*
X156753334Y-92764128D01*
X156750500Y-92737770D01*
X156750500Y-91974500D01*
X156770185Y-91907461D01*
X156822989Y-91861706D01*
X156874500Y-91850500D01*
X157332558Y-91850500D01*
X157399597Y-91870185D01*
X157445352Y-91922989D01*
X157455296Y-91992147D01*
X157437376Y-92038909D01*
X157437789Y-92039130D01*
X157436032Y-92042415D01*
X157435658Y-92043394D01*
X157434918Y-92044500D01*
X157434912Y-92044511D01*
X157378343Y-92181082D01*
X157378340Y-92181092D01*
X157349500Y-92326079D01*
X157349500Y-92326082D01*
X157349500Y-92473918D01*
X157349500Y-92473920D01*
X157349499Y-92473920D01*
X157378340Y-92618907D01*
X157378343Y-92618917D01*
X157434912Y-92755488D01*
X157434919Y-92755501D01*
X157517048Y-92878415D01*
X157517051Y-92878419D01*
X157621580Y-92982948D01*
X157621584Y-92982951D01*
X157744498Y-93065080D01*
X157744511Y-93065087D01*
X157881082Y-93121656D01*
X157881087Y-93121658D01*
X157881091Y-93121658D01*
X157881092Y-93121659D01*
X158026079Y-93150500D01*
X158026082Y-93150500D01*
X158173920Y-93150500D01*
X158271462Y-93131096D01*
X158318913Y-93121658D01*
X158455495Y-93065084D01*
X158578416Y-92982951D01*
X158682951Y-92878416D01*
X158765084Y-92755495D01*
X158798873Y-92673920D01*
X161449499Y-92673920D01*
X161478340Y-92818907D01*
X161478343Y-92818917D01*
X161534912Y-92955488D01*
X161534919Y-92955501D01*
X161617048Y-93078415D01*
X161617051Y-93078419D01*
X161721580Y-93182948D01*
X161721584Y-93182951D01*
X161844498Y-93265080D01*
X161844511Y-93265087D01*
X161981082Y-93321656D01*
X161981087Y-93321658D01*
X161981091Y-93321658D01*
X161981092Y-93321659D01*
X162126079Y-93350500D01*
X162126082Y-93350500D01*
X162273920Y-93350500D01*
X162371462Y-93331096D01*
X162418913Y-93321658D01*
X162555495Y-93265084D01*
X162678416Y-93182951D01*
X162782951Y-93078416D01*
X162865084Y-92955495D01*
X162921658Y-92818913D01*
X162934274Y-92755488D01*
X162950500Y-92673920D01*
X162950500Y-92573920D01*
X165549499Y-92573920D01*
X165578340Y-92718907D01*
X165578343Y-92718917D01*
X165634914Y-92855493D01*
X165634915Y-92855495D01*
X165652031Y-92881111D01*
X165672908Y-92947789D01*
X165654422Y-93015169D01*
X165652031Y-93018889D01*
X165634915Y-93044504D01*
X165634914Y-93044506D01*
X165578343Y-93181082D01*
X165578340Y-93181092D01*
X165549500Y-93326079D01*
X165549500Y-93326082D01*
X165549500Y-93473918D01*
X165549500Y-93473920D01*
X165549499Y-93473920D01*
X165578340Y-93618907D01*
X165578343Y-93618917D01*
X165634912Y-93755488D01*
X165634919Y-93755501D01*
X165717048Y-93878415D01*
X165717051Y-93878419D01*
X165821580Y-93982948D01*
X165821584Y-93982951D01*
X165944498Y-94065080D01*
X165944511Y-94065087D01*
X166081082Y-94121656D01*
X166081087Y-94121658D01*
X166081091Y-94121658D01*
X166081092Y-94121659D01*
X166226079Y-94150500D01*
X166226082Y-94150500D01*
X166373920Y-94150500D01*
X166471462Y-94131096D01*
X166518913Y-94121658D01*
X166655495Y-94065084D01*
X166778416Y-93982951D01*
X166882951Y-93878416D01*
X166965084Y-93755495D01*
X167021658Y-93618913D01*
X167050500Y-93473918D01*
X167050500Y-93326082D01*
X167050500Y-93326079D01*
X167021659Y-93181092D01*
X167021658Y-93181091D01*
X167021658Y-93181087D01*
X167008988Y-93150500D01*
X166965086Y-93044510D01*
X166965084Y-93044505D01*
X166947967Y-93018889D01*
X166927090Y-92952216D01*
X166945573Y-92884835D01*
X166947933Y-92881161D01*
X166965084Y-92855495D01*
X167021658Y-92718913D01*
X167050500Y-92573918D01*
X167050500Y-92426082D01*
X167050500Y-92426079D01*
X167021659Y-92281092D01*
X167021658Y-92281091D01*
X167021658Y-92281087D01*
X167015028Y-92265080D01*
X166965087Y-92144511D01*
X166965080Y-92144498D01*
X166882951Y-92021584D01*
X166882948Y-92021580D01*
X166778419Y-91917051D01*
X166778415Y-91917048D01*
X166655501Y-91834919D01*
X166655488Y-91834912D01*
X166518917Y-91778343D01*
X166518907Y-91778340D01*
X166373920Y-91749500D01*
X166373918Y-91749500D01*
X166226082Y-91749500D01*
X166226080Y-91749500D01*
X166081092Y-91778340D01*
X166081082Y-91778343D01*
X165944511Y-91834912D01*
X165944498Y-91834919D01*
X165821584Y-91917048D01*
X165821580Y-91917051D01*
X165717051Y-92021580D01*
X165717048Y-92021584D01*
X165634919Y-92144498D01*
X165634912Y-92144511D01*
X165578343Y-92281082D01*
X165578340Y-92281092D01*
X165549500Y-92426079D01*
X165549500Y-92426082D01*
X165549500Y-92573918D01*
X165549500Y-92573920D01*
X165549499Y-92573920D01*
X162950500Y-92573920D01*
X162950500Y-92526079D01*
X162934209Y-92444182D01*
X162921659Y-92381092D01*
X162921658Y-92381091D01*
X162921658Y-92381087D01*
X162911783Y-92357246D01*
X162865087Y-92244511D01*
X162865080Y-92244498D01*
X162782951Y-92121584D01*
X162782948Y-92121580D01*
X162678419Y-92017051D01*
X162678415Y-92017048D01*
X162555501Y-91934919D01*
X162555488Y-91934912D01*
X162418917Y-91878343D01*
X162418907Y-91878340D01*
X162273920Y-91849500D01*
X162273918Y-91849500D01*
X162126082Y-91849500D01*
X162126080Y-91849500D01*
X161981092Y-91878340D01*
X161981082Y-91878343D01*
X161844511Y-91934912D01*
X161844498Y-91934919D01*
X161721584Y-92017048D01*
X161721580Y-92017051D01*
X161617051Y-92121580D01*
X161617048Y-92121584D01*
X161534919Y-92244498D01*
X161534912Y-92244511D01*
X161478343Y-92381082D01*
X161478340Y-92381092D01*
X161449500Y-92526079D01*
X161449500Y-92526082D01*
X161449500Y-92673918D01*
X161449500Y-92673920D01*
X161449499Y-92673920D01*
X158798873Y-92673920D01*
X158821658Y-92618913D01*
X158850500Y-92473918D01*
X158850500Y-92326082D01*
X158850500Y-92326079D01*
X158821659Y-92181092D01*
X158821658Y-92181091D01*
X158821658Y-92181087D01*
X158815028Y-92165080D01*
X158765087Y-92044511D01*
X158765081Y-92044500D01*
X158764342Y-92043394D01*
X158764132Y-92042725D01*
X158762211Y-92039130D01*
X158762892Y-92038765D01*
X158743462Y-91976718D01*
X158761944Y-91909337D01*
X158813921Y-91862645D01*
X158867442Y-91850500D01*
X159165298Y-91850500D01*
X159232337Y-91870185D01*
X159268400Y-91905609D01*
X159317048Y-91978415D01*
X159317051Y-91978419D01*
X159421580Y-92082948D01*
X159421584Y-92082951D01*
X159544498Y-92165080D01*
X159544511Y-92165087D01*
X159681082Y-92221656D01*
X159681087Y-92221658D01*
X159681091Y-92221658D01*
X159681092Y-92221659D01*
X159826079Y-92250500D01*
X159826082Y-92250500D01*
X159973920Y-92250500D01*
X160071462Y-92231096D01*
X160118913Y-92221658D01*
X160255495Y-92165084D01*
X160326838Y-92117413D01*
X160393512Y-92096537D01*
X160443178Y-92105955D01*
X160481087Y-92121658D01*
X160481091Y-92121658D01*
X160481092Y-92121659D01*
X160626079Y-92150500D01*
X160626082Y-92150500D01*
X160773920Y-92150500D01*
X160871462Y-92131096D01*
X160918913Y-92121658D01*
X161055495Y-92065084D01*
X161178416Y-91982951D01*
X161282951Y-91878416D01*
X161365084Y-91755495D01*
X161421658Y-91618913D01*
X161450500Y-91473918D01*
X161450500Y-91326082D01*
X161450500Y-91326079D01*
X161421659Y-91181092D01*
X161421658Y-91181091D01*
X161421658Y-91181087D01*
X161421463Y-91180616D01*
X161365087Y-91044511D01*
X161365080Y-91044498D01*
X161282951Y-90921584D01*
X161282948Y-90921580D01*
X161178419Y-90817051D01*
X161178415Y-90817048D01*
X161119380Y-90777602D01*
X161074575Y-90723990D01*
X161065868Y-90654665D01*
X161096022Y-90591637D01*
X161155465Y-90554918D01*
X161188271Y-90550500D01*
X162972472Y-90550500D01*
X162972474Y-90550500D01*
X162972475Y-90550500D01*
X163112485Y-90512984D01*
X163120898Y-90508127D01*
X163238015Y-90440510D01*
X163391706Y-90286819D01*
X163453029Y-90253334D01*
X163467920Y-90251732D01*
X163467858Y-90251097D01*
X163473920Y-90250500D01*
X163571462Y-90231096D01*
X163618913Y-90221658D01*
X163755495Y-90165084D01*
X163878416Y-90082951D01*
X163982951Y-89978416D01*
X164065084Y-89855495D01*
X164121658Y-89718913D01*
X164133473Y-89659516D01*
X164150500Y-89573920D01*
X164150500Y-89426079D01*
X164121659Y-89281092D01*
X164121658Y-89281091D01*
X164121658Y-89281087D01*
X164111060Y-89255501D01*
X164065087Y-89144511D01*
X164065080Y-89144498D01*
X163982951Y-89021584D01*
X163982948Y-89021580D01*
X163935288Y-88973920D01*
X167449499Y-88973920D01*
X167478340Y-89118907D01*
X167478343Y-89118917D01*
X167534912Y-89255488D01*
X167534919Y-89255501D01*
X167617048Y-89378415D01*
X167617051Y-89378419D01*
X167721580Y-89482948D01*
X167721584Y-89482951D01*
X167844498Y-89565080D01*
X167844511Y-89565087D01*
X167981082Y-89621656D01*
X167981087Y-89621658D01*
X167981091Y-89621658D01*
X167981092Y-89621659D01*
X168126079Y-89650500D01*
X168126082Y-89650500D01*
X168273920Y-89650500D01*
X168371462Y-89631096D01*
X168418913Y-89621658D01*
X168555495Y-89565084D01*
X168678416Y-89482951D01*
X168782951Y-89378416D01*
X168865084Y-89255495D01*
X168865203Y-89255209D01*
X168897011Y-89178416D01*
X168921658Y-89118913D01*
X168934274Y-89055488D01*
X168950500Y-88973920D01*
X168950500Y-88826079D01*
X168921659Y-88681092D01*
X168921658Y-88681091D01*
X168921658Y-88681087D01*
X168902535Y-88634919D01*
X168865087Y-88544511D01*
X168865080Y-88544498D01*
X168782951Y-88421584D01*
X168782948Y-88421580D01*
X168678419Y-88317051D01*
X168678415Y-88317048D01*
X168555501Y-88234919D01*
X168555488Y-88234912D01*
X168418917Y-88178343D01*
X168418907Y-88178340D01*
X168273920Y-88149500D01*
X168273918Y-88149500D01*
X168126082Y-88149500D01*
X168126080Y-88149500D01*
X167981092Y-88178340D01*
X167981082Y-88178343D01*
X167844511Y-88234912D01*
X167844498Y-88234919D01*
X167721584Y-88317048D01*
X167721580Y-88317051D01*
X167617051Y-88421580D01*
X167617048Y-88421584D01*
X167534919Y-88544498D01*
X167534912Y-88544511D01*
X167478343Y-88681082D01*
X167478340Y-88681092D01*
X167449500Y-88826079D01*
X167449500Y-88826082D01*
X167449500Y-88973918D01*
X167449500Y-88973920D01*
X167449499Y-88973920D01*
X163935288Y-88973920D01*
X163878418Y-88917050D01*
X163755501Y-88834919D01*
X163755488Y-88834912D01*
X163618917Y-88778343D01*
X163618907Y-88778340D01*
X163473920Y-88749500D01*
X163473918Y-88749500D01*
X163326082Y-88749500D01*
X163326080Y-88749500D01*
X163181092Y-88778340D01*
X163181082Y-88778343D01*
X163044511Y-88834912D01*
X163044498Y-88834919D01*
X162921584Y-88917048D01*
X162921580Y-88917051D01*
X162817051Y-89021580D01*
X162817048Y-89021584D01*
X162734919Y-89144498D01*
X162734914Y-89144507D01*
X162689061Y-89255209D01*
X162645220Y-89309612D01*
X162578926Y-89331677D01*
X162511227Y-89314398D01*
X162463616Y-89263261D01*
X162450500Y-89207756D01*
X162450500Y-85062135D01*
X173149500Y-85062135D01*
X173149500Y-86857870D01*
X173149501Y-86857876D01*
X173155908Y-86917483D01*
X173206202Y-87052328D01*
X173206206Y-87052335D01*
X173292452Y-87167544D01*
X173292455Y-87167547D01*
X173407664Y-87253793D01*
X173407671Y-87253797D01*
X173539082Y-87302810D01*
X173595016Y-87344681D01*
X173619433Y-87410145D01*
X173604582Y-87478418D01*
X173583431Y-87506673D01*
X173469889Y-87620215D01*
X173344951Y-87792179D01*
X173248444Y-87981585D01*
X173182753Y-88183760D01*
X173161642Y-88317049D01*
X173149500Y-88393713D01*
X173149500Y-88606287D01*
X173154035Y-88634919D01*
X173176750Y-88778340D01*
X173182754Y-88816243D01*
X173247943Y-89016874D01*
X173248444Y-89018414D01*
X173344951Y-89207820D01*
X173469890Y-89379786D01*
X173620213Y-89530109D01*
X173792182Y-89655050D01*
X173800946Y-89659516D01*
X173851742Y-89707491D01*
X173868536Y-89775312D01*
X173845998Y-89841447D01*
X173800946Y-89880484D01*
X173792182Y-89884949D01*
X173620213Y-90009890D01*
X173469890Y-90160213D01*
X173344951Y-90332179D01*
X173248444Y-90521585D01*
X173182753Y-90723760D01*
X173162214Y-90853441D01*
X173149500Y-90933713D01*
X173149500Y-91146287D01*
X173182754Y-91356243D01*
X173248442Y-91558410D01*
X173248444Y-91558414D01*
X173344951Y-91747820D01*
X173469890Y-91919786D01*
X173620213Y-92070109D01*
X173792179Y-92195048D01*
X173792181Y-92195049D01*
X173792184Y-92195051D01*
X173981588Y-92291557D01*
X174183757Y-92357246D01*
X174393713Y-92390500D01*
X174393714Y-92390500D01*
X174398525Y-92391262D01*
X174398345Y-92392396D01*
X174458568Y-92415353D01*
X174498107Y-92466631D01*
X174534912Y-92555488D01*
X174534919Y-92555501D01*
X174617048Y-92678415D01*
X174617051Y-92678419D01*
X174721580Y-92782948D01*
X174721584Y-92782951D01*
X174844498Y-92865080D01*
X174844511Y-92865087D01*
X174981082Y-92921656D01*
X174981087Y-92921658D01*
X174981091Y-92921658D01*
X174981092Y-92921659D01*
X175126079Y-92950500D01*
X175126082Y-92950500D01*
X175273920Y-92950500D01*
X175371462Y-92931096D01*
X175418913Y-92921658D01*
X175555495Y-92865084D01*
X175678416Y-92782951D01*
X175782951Y-92678416D01*
X175865084Y-92555495D01*
X175921658Y-92418913D01*
X175940124Y-92326079D01*
X175950500Y-92273920D01*
X175950500Y-92126079D01*
X175921659Y-91981092D01*
X175921658Y-91981091D01*
X175921658Y-91981087D01*
X175911060Y-91955501D01*
X175865087Y-91844511D01*
X175865080Y-91844498D01*
X175782951Y-91721584D01*
X175782948Y-91721580D01*
X175770781Y-91709413D01*
X175737296Y-91648090D01*
X175742280Y-91578398D01*
X175747974Y-91565442D01*
X175751557Y-91558412D01*
X175817246Y-91356243D01*
X175850500Y-91146287D01*
X175850500Y-90933713D01*
X175817246Y-90723757D01*
X175751557Y-90521588D01*
X175655051Y-90332184D01*
X175655049Y-90332181D01*
X175655048Y-90332179D01*
X175530109Y-90160213D01*
X175379786Y-90009890D01*
X175207820Y-89884951D01*
X175207115Y-89884591D01*
X175199054Y-89880485D01*
X175148259Y-89832512D01*
X175131463Y-89764692D01*
X175153999Y-89698556D01*
X175199054Y-89659515D01*
X175207816Y-89655051D01*
X175229789Y-89639086D01*
X175379786Y-89530109D01*
X175379788Y-89530106D01*
X175379792Y-89530104D01*
X175530104Y-89379792D01*
X175530106Y-89379788D01*
X175530109Y-89379786D01*
X175655048Y-89207820D01*
X175655047Y-89207820D01*
X175655051Y-89207816D01*
X175751557Y-89018412D01*
X175817246Y-88816243D01*
X175850500Y-88606287D01*
X175850500Y-88393713D01*
X175817246Y-88183757D01*
X175751557Y-87981588D01*
X175655051Y-87792184D01*
X175655049Y-87792181D01*
X175655048Y-87792179D01*
X175530109Y-87620213D01*
X175416569Y-87506673D01*
X175383084Y-87445350D01*
X175388068Y-87375658D01*
X175429940Y-87319725D01*
X175460915Y-87302810D01*
X175592331Y-87253796D01*
X175707546Y-87167546D01*
X175793796Y-87052331D01*
X175844091Y-86917483D01*
X175850500Y-86857873D01*
X175850499Y-85062128D01*
X175844091Y-85002517D01*
X175835074Y-84978342D01*
X175793797Y-84867671D01*
X175793793Y-84867664D01*
X175707547Y-84752455D01*
X175707544Y-84752452D01*
X175592335Y-84666206D01*
X175592328Y-84666202D01*
X175457482Y-84615908D01*
X175457483Y-84615908D01*
X175397883Y-84609501D01*
X175397881Y-84609500D01*
X175397873Y-84609500D01*
X175397864Y-84609500D01*
X173602129Y-84609500D01*
X173602123Y-84609501D01*
X173542516Y-84615908D01*
X173407671Y-84666202D01*
X173407664Y-84666206D01*
X173292455Y-84752452D01*
X173292452Y-84752455D01*
X173206206Y-84867664D01*
X173206202Y-84867671D01*
X173155908Y-85002517D01*
X173149501Y-85062116D01*
X173149501Y-85062123D01*
X173149500Y-85062135D01*
X162450500Y-85062135D01*
X162450500Y-84327527D01*
X162450500Y-84327525D01*
X162412984Y-84187515D01*
X162394497Y-84155495D01*
X162347401Y-84073920D01*
X164149499Y-84073920D01*
X164178340Y-84218907D01*
X164178343Y-84218917D01*
X164234912Y-84355488D01*
X164234919Y-84355501D01*
X164317048Y-84478415D01*
X164317051Y-84478419D01*
X164421580Y-84582948D01*
X164421584Y-84582951D01*
X164544498Y-84665080D01*
X164544511Y-84665087D01*
X164681082Y-84721656D01*
X164681087Y-84721658D01*
X164681091Y-84721658D01*
X164681092Y-84721659D01*
X164826079Y-84750500D01*
X164826082Y-84750500D01*
X164973920Y-84750500D01*
X165071462Y-84731096D01*
X165118913Y-84721658D01*
X165255495Y-84665084D01*
X165378416Y-84582951D01*
X165482951Y-84478416D01*
X165565084Y-84355495D01*
X165621658Y-84218913D01*
X165634273Y-84155495D01*
X165650500Y-84073920D01*
X165650500Y-83926079D01*
X165621659Y-83781092D01*
X165621658Y-83781091D01*
X165621658Y-83781087D01*
X165617337Y-83770654D01*
X165565087Y-83644511D01*
X165565080Y-83644498D01*
X165482951Y-83521584D01*
X165482948Y-83521580D01*
X165378419Y-83417051D01*
X165378415Y-83417048D01*
X165255501Y-83334919D01*
X165255488Y-83334912D01*
X165118917Y-83278343D01*
X165118907Y-83278340D01*
X164973920Y-83249500D01*
X164973918Y-83249500D01*
X164826082Y-83249500D01*
X164826080Y-83249500D01*
X164681092Y-83278340D01*
X164681082Y-83278343D01*
X164544511Y-83334912D01*
X164544498Y-83334919D01*
X164421584Y-83417048D01*
X164421580Y-83417051D01*
X164317051Y-83521580D01*
X164317048Y-83521584D01*
X164234919Y-83644498D01*
X164234912Y-83644511D01*
X164178343Y-83781082D01*
X164178340Y-83781092D01*
X164149500Y-83926079D01*
X164149500Y-83926082D01*
X164149500Y-84073918D01*
X164149500Y-84073920D01*
X164149499Y-84073920D01*
X162347401Y-84073920D01*
X162340510Y-84061985D01*
X162280213Y-84001688D01*
X162274673Y-83994169D01*
X162269829Y-83980875D01*
X162261706Y-83971501D01*
X162256809Y-83953336D01*
X162253334Y-83946971D01*
X162252166Y-83936108D01*
X162251097Y-83932142D01*
X162250500Y-83926079D01*
X162221659Y-83781092D01*
X162221658Y-83781091D01*
X162221658Y-83781087D01*
X162217337Y-83770654D01*
X162165087Y-83644511D01*
X162165080Y-83644498D01*
X162082951Y-83521584D01*
X162082948Y-83521580D01*
X161978419Y-83417051D01*
X161978415Y-83417048D01*
X161855501Y-83334919D01*
X161855488Y-83334912D01*
X161718917Y-83278343D01*
X161718907Y-83278340D01*
X161573920Y-83249500D01*
X161573918Y-83249500D01*
X161426082Y-83249500D01*
X161426080Y-83249500D01*
X161281092Y-83278340D01*
X161281082Y-83278343D01*
X161144511Y-83334912D01*
X161144498Y-83334919D01*
X161021584Y-83417048D01*
X161021580Y-83417051D01*
X160917051Y-83521580D01*
X160917048Y-83521584D01*
X160834919Y-83644498D01*
X160834912Y-83644511D01*
X160778343Y-83781082D01*
X160778340Y-83781092D01*
X160749500Y-83926079D01*
X160749500Y-84033330D01*
X160729815Y-84100369D01*
X160677011Y-84146124D01*
X160619079Y-84157164D01*
X160610108Y-84156698D01*
X160573918Y-84149500D01*
X160471280Y-84149500D01*
X160468079Y-84149334D01*
X160438014Y-84138786D01*
X160407461Y-84129815D01*
X160405285Y-84127304D01*
X160402149Y-84126204D01*
X160382558Y-84101075D01*
X160361706Y-84077011D01*
X160360896Y-84073291D01*
X160359189Y-84071101D01*
X160358299Y-84061352D01*
X160350500Y-84025500D01*
X160350500Y-82673920D01*
X168549499Y-82673920D01*
X168578340Y-82818907D01*
X168578343Y-82818917D01*
X168634912Y-82955488D01*
X168634919Y-82955501D01*
X168717048Y-83078415D01*
X168717051Y-83078419D01*
X168821580Y-83182948D01*
X168821584Y-83182951D01*
X168944498Y-83265080D01*
X168944511Y-83265087D01*
X169000150Y-83288133D01*
X169081087Y-83321658D01*
X169081091Y-83321658D01*
X169081092Y-83321659D01*
X169226079Y-83350500D01*
X169226082Y-83350500D01*
X169373920Y-83350500D01*
X169471462Y-83331096D01*
X169518913Y-83321658D01*
X169655495Y-83265084D01*
X169756609Y-83197522D01*
X169823286Y-83176644D01*
X169890667Y-83195128D01*
X169937357Y-83247107D01*
X169949500Y-83300624D01*
X169949500Y-83373918D01*
X169949500Y-83373920D01*
X169949499Y-83373920D01*
X169978340Y-83518907D01*
X169978343Y-83518917D01*
X170034912Y-83655488D01*
X170034919Y-83655501D01*
X170117048Y-83778415D01*
X170117051Y-83778419D01*
X170221580Y-83882948D01*
X170221584Y-83882951D01*
X170344498Y-83965080D01*
X170344511Y-83965087D01*
X170480899Y-84021580D01*
X170481087Y-84021658D01*
X170481091Y-84021658D01*
X170481092Y-84021659D01*
X170626079Y-84050500D01*
X170626082Y-84050500D01*
X170773920Y-84050500D01*
X170899598Y-84025500D01*
X170918913Y-84021658D01*
X171055495Y-83965084D01*
X171178416Y-83882951D01*
X171282951Y-83778416D01*
X171365084Y-83655495D01*
X171419731Y-83523563D01*
X171463569Y-83469165D01*
X171529863Y-83447099D01*
X171597562Y-83464378D01*
X171621971Y-83483339D01*
X171721580Y-83582948D01*
X171721584Y-83582951D01*
X171844498Y-83665080D01*
X171844511Y-83665087D01*
X171981082Y-83721656D01*
X171981087Y-83721658D01*
X171981091Y-83721658D01*
X171981092Y-83721659D01*
X172126079Y-83750500D01*
X172126082Y-83750500D01*
X172273920Y-83750500D01*
X172371462Y-83731096D01*
X172418913Y-83721658D01*
X172555495Y-83665084D01*
X172678416Y-83582951D01*
X172782951Y-83478416D01*
X172865084Y-83355495D01*
X172921658Y-83218913D01*
X172936291Y-83145351D01*
X172950500Y-83073920D01*
X172950500Y-82962229D01*
X172970185Y-82895190D01*
X172979586Y-82883536D01*
X172979086Y-82883126D01*
X172982945Y-82878421D01*
X172982951Y-82878416D01*
X173065084Y-82755495D01*
X173121658Y-82618913D01*
X173136459Y-82544505D01*
X173150500Y-82473920D01*
X173150500Y-82326079D01*
X173121659Y-82181092D01*
X173121658Y-82181091D01*
X173121658Y-82181087D01*
X173111060Y-82155501D01*
X173065087Y-82044511D01*
X173065080Y-82044498D01*
X172982951Y-81921584D01*
X172982948Y-81921580D01*
X172878419Y-81817051D01*
X172878415Y-81817048D01*
X172755501Y-81734919D01*
X172755488Y-81734912D01*
X172618917Y-81678343D01*
X172618907Y-81678340D01*
X172473920Y-81649500D01*
X172473918Y-81649500D01*
X172326082Y-81649500D01*
X172326080Y-81649500D01*
X172181092Y-81678340D01*
X172181082Y-81678343D01*
X172044511Y-81734912D01*
X172044493Y-81734922D01*
X171934894Y-81808154D01*
X171868217Y-81829032D01*
X171818552Y-81819613D01*
X171718917Y-81778343D01*
X171718907Y-81778340D01*
X171573920Y-81749500D01*
X171573918Y-81749500D01*
X171511230Y-81749500D01*
X171444191Y-81729815D01*
X171398436Y-81677011D01*
X171388492Y-81607853D01*
X171417517Y-81544297D01*
X171423549Y-81537819D01*
X171482948Y-81478419D01*
X171482951Y-81478416D01*
X171565084Y-81355495D01*
X171621658Y-81218913D01*
X171638366Y-81134919D01*
X171640795Y-81122708D01*
X171673180Y-81060797D01*
X171733896Y-81026223D01*
X171803665Y-81029963D01*
X171809851Y-81032334D01*
X171978165Y-81102051D01*
X171978169Y-81102051D01*
X171978170Y-81102052D01*
X172171456Y-81140500D01*
X172171459Y-81140500D01*
X173468543Y-81140500D01*
X173598582Y-81114632D01*
X173661835Y-81102051D01*
X173843914Y-81026632D01*
X174007782Y-80917139D01*
X174147139Y-80777782D01*
X174256632Y-80613914D01*
X174332051Y-80431835D01*
X174351330Y-80334916D01*
X174370500Y-80238543D01*
X175699499Y-80238543D01*
X175737947Y-80431829D01*
X175737950Y-80431839D01*
X175813364Y-80613907D01*
X175813371Y-80613920D01*
X175922860Y-80777781D01*
X175922863Y-80777785D01*
X176062214Y-80917136D01*
X176062218Y-80917139D01*
X176226079Y-81026628D01*
X176226092Y-81026635D01*
X176408160Y-81102049D01*
X176408165Y-81102051D01*
X176408169Y-81102051D01*
X176408170Y-81102052D01*
X176601456Y-81140500D01*
X176601459Y-81140500D01*
X177398543Y-81140500D01*
X177528582Y-81114632D01*
X177591835Y-81102051D01*
X177773914Y-81026632D01*
X177937782Y-80917139D01*
X178077139Y-80777782D01*
X178186632Y-80613914D01*
X178262051Y-80431835D01*
X178281330Y-80334916D01*
X178300500Y-80238543D01*
X178300500Y-80041456D01*
X178262052Y-79848170D01*
X178262051Y-79848169D01*
X178262051Y-79848165D01*
X178189877Y-79673920D01*
X178186635Y-79666092D01*
X178186628Y-79666079D01*
X178077139Y-79502218D01*
X178077136Y-79502214D01*
X177937785Y-79362863D01*
X177937781Y-79362860D01*
X177773920Y-79253371D01*
X177773907Y-79253364D01*
X177591839Y-79177950D01*
X177591829Y-79177947D01*
X177398543Y-79139500D01*
X177398541Y-79139500D01*
X176601459Y-79139500D01*
X176601457Y-79139500D01*
X176408170Y-79177947D01*
X176408160Y-79177950D01*
X176226092Y-79253364D01*
X176226079Y-79253371D01*
X176062218Y-79362860D01*
X176062214Y-79362863D01*
X175922863Y-79502214D01*
X175922860Y-79502218D01*
X175813371Y-79666079D01*
X175813364Y-79666092D01*
X175737950Y-79848160D01*
X175737947Y-79848170D01*
X175699500Y-80041456D01*
X175699500Y-80041459D01*
X175699500Y-80238541D01*
X175699500Y-80238543D01*
X175699499Y-80238543D01*
X174370500Y-80238543D01*
X174370500Y-80041456D01*
X174332052Y-79848170D01*
X174332051Y-79848169D01*
X174332051Y-79848165D01*
X174259877Y-79673920D01*
X174256635Y-79666092D01*
X174256628Y-79666079D01*
X174147139Y-79502218D01*
X174147136Y-79502214D01*
X174007785Y-79362863D01*
X174007781Y-79362860D01*
X173843920Y-79253371D01*
X173843907Y-79253364D01*
X173707397Y-79196821D01*
X173652993Y-79152980D01*
X173630928Y-79086686D01*
X173648207Y-79018987D01*
X173667162Y-78994585D01*
X173690485Y-78971263D01*
X173746503Y-78874237D01*
X173775500Y-78766018D01*
X173775500Y-78653982D01*
X173746503Y-78545763D01*
X173690485Y-78448737D01*
X173611263Y-78369515D01*
X173514237Y-78313497D01*
X173406018Y-78284500D01*
X173293982Y-78284500D01*
X173185763Y-78313497D01*
X173185760Y-78313498D01*
X173088740Y-78369513D01*
X173088734Y-78369517D01*
X173009517Y-78448734D01*
X173009513Y-78448740D01*
X172953498Y-78545760D01*
X172953497Y-78545763D01*
X172924500Y-78653982D01*
X172924500Y-78766018D01*
X172951045Y-78865084D01*
X172953497Y-78874236D01*
X172953498Y-78874239D01*
X172964737Y-78893706D01*
X172980411Y-78920854D01*
X172999260Y-78953500D01*
X173015733Y-79021400D01*
X172992881Y-79087427D01*
X172937960Y-79130617D01*
X172891873Y-79139500D01*
X172171457Y-79139500D01*
X171978170Y-79177947D01*
X171978160Y-79177950D01*
X171796092Y-79253364D01*
X171796079Y-79253371D01*
X171632218Y-79362860D01*
X171632214Y-79362863D01*
X171492863Y-79502214D01*
X171492860Y-79502218D01*
X171383371Y-79666079D01*
X171383364Y-79666092D01*
X171307950Y-79848160D01*
X171307947Y-79848170D01*
X171269500Y-80041456D01*
X171269500Y-80157201D01*
X171249815Y-80224240D01*
X171197011Y-80269995D01*
X171127853Y-80279939D01*
X171121308Y-80278818D01*
X170973920Y-80249500D01*
X170973918Y-80249500D01*
X170826082Y-80249500D01*
X170826080Y-80249500D01*
X170681092Y-80278340D01*
X170681082Y-80278343D01*
X170544511Y-80334912D01*
X170544498Y-80334919D01*
X170421584Y-80417048D01*
X170421580Y-80417051D01*
X170317051Y-80521580D01*
X170317048Y-80521584D01*
X170234919Y-80644498D01*
X170234912Y-80644511D01*
X170178343Y-80781082D01*
X170178340Y-80781092D01*
X170149500Y-80926079D01*
X170149500Y-80926082D01*
X170149500Y-81073918D01*
X170149500Y-81073920D01*
X170149499Y-81073920D01*
X170178340Y-81218907D01*
X170178343Y-81218917D01*
X170234912Y-81355488D01*
X170234919Y-81355501D01*
X170317048Y-81478415D01*
X170317051Y-81478419D01*
X170397206Y-81558574D01*
X170430691Y-81619897D01*
X170425707Y-81689589D01*
X170383835Y-81745522D01*
X170333718Y-81767872D01*
X170281091Y-81778340D01*
X170281082Y-81778343D01*
X170144511Y-81834912D01*
X170144498Y-81834919D01*
X170021584Y-81917048D01*
X170021580Y-81917051D01*
X169936197Y-82002435D01*
X169874874Y-82035920D01*
X169805182Y-82030936D01*
X169779625Y-82017856D01*
X169655501Y-81934919D01*
X169655488Y-81934912D01*
X169518917Y-81878343D01*
X169518907Y-81878340D01*
X169373920Y-81849500D01*
X169373918Y-81849500D01*
X169226082Y-81849500D01*
X169226080Y-81849500D01*
X169081092Y-81878340D01*
X169081082Y-81878343D01*
X168944511Y-81934912D01*
X168944498Y-81934919D01*
X168821584Y-82017048D01*
X168821580Y-82017051D01*
X168717051Y-82121580D01*
X168717048Y-82121584D01*
X168634919Y-82244498D01*
X168634912Y-82244511D01*
X168578343Y-82381082D01*
X168578340Y-82381092D01*
X168549500Y-82526079D01*
X168549500Y-82526082D01*
X168549500Y-82673918D01*
X168549500Y-82673920D01*
X168549499Y-82673920D01*
X160350500Y-82673920D01*
X160350500Y-81762229D01*
X160370185Y-81695190D01*
X160379586Y-81683536D01*
X160379086Y-81683126D01*
X160382946Y-81678420D01*
X160382951Y-81678416D01*
X160465084Y-81555495D01*
X160521658Y-81418913D01*
X160534274Y-81355488D01*
X160550500Y-81273920D01*
X160550500Y-81126079D01*
X160521659Y-80981092D01*
X160521658Y-80981091D01*
X160521658Y-80981087D01*
X160497011Y-80921584D01*
X160465087Y-80844511D01*
X160465080Y-80844498D01*
X160382951Y-80721584D01*
X160382948Y-80721580D01*
X160278419Y-80617051D01*
X160278415Y-80617048D01*
X160155501Y-80534919D01*
X160155488Y-80534912D01*
X160018917Y-80478343D01*
X160018907Y-80478340D01*
X159873920Y-80449500D01*
X159873918Y-80449500D01*
X159726082Y-80449500D01*
X159726080Y-80449500D01*
X159581092Y-80478340D01*
X159581082Y-80478343D01*
X159444511Y-80534912D01*
X159444498Y-80534919D01*
X159321584Y-80617048D01*
X159321580Y-80617051D01*
X159217051Y-80721580D01*
X159161945Y-80804052D01*
X159108332Y-80848856D01*
X159039007Y-80857563D01*
X158975980Y-80827408D01*
X158939261Y-80767965D01*
X158937226Y-80759351D01*
X158932366Y-80734919D01*
X158921658Y-80681087D01*
X158906505Y-80644505D01*
X158865087Y-80544511D01*
X158865080Y-80544498D01*
X158782951Y-80421584D01*
X158782948Y-80421580D01*
X158678419Y-80317051D01*
X158673708Y-80313185D01*
X158674780Y-80311878D01*
X158635165Y-80264463D01*
X158626467Y-80195137D01*
X158627251Y-80190797D01*
X158650500Y-80073920D01*
X158650500Y-79926079D01*
X158621659Y-79781092D01*
X158621658Y-79781091D01*
X158621658Y-79781087D01*
X158577268Y-79673920D01*
X158565087Y-79644511D01*
X158565080Y-79644498D01*
X158482951Y-79521584D01*
X158482948Y-79521580D01*
X158378419Y-79417051D01*
X158378415Y-79417048D01*
X158255501Y-79334919D01*
X158255488Y-79334912D01*
X158118917Y-79278343D01*
X158118907Y-79278340D01*
X157973920Y-79249500D01*
X157973918Y-79249500D01*
X157826082Y-79249500D01*
X157826080Y-79249500D01*
X157681092Y-79278340D01*
X157681087Y-79278342D01*
X157622876Y-79302453D01*
X157553407Y-79309920D01*
X157490928Y-79278645D01*
X157468522Y-79249534D01*
X157468469Y-79249570D01*
X157467935Y-79248771D01*
X157466064Y-79246340D01*
X157465086Y-79244511D01*
X157465084Y-79244505D01*
X157420924Y-79178415D01*
X157382954Y-79121588D01*
X157382948Y-79121580D01*
X157278419Y-79017051D01*
X157278415Y-79017048D01*
X157155501Y-78934919D01*
X157155488Y-78934912D01*
X157018917Y-78878343D01*
X157018907Y-78878340D01*
X156873920Y-78849500D01*
X156873918Y-78849500D01*
X156726082Y-78849500D01*
X156726080Y-78849500D01*
X156581092Y-78878340D01*
X156581082Y-78878343D01*
X156444511Y-78934912D01*
X156444498Y-78934919D01*
X156321584Y-79017048D01*
X156321580Y-79017051D01*
X156217051Y-79121580D01*
X156217048Y-79121584D01*
X156134919Y-79244498D01*
X156134912Y-79244511D01*
X156078343Y-79381082D01*
X156078340Y-79381092D01*
X156049500Y-79526079D01*
X156049500Y-79526082D01*
X156049500Y-79673918D01*
X156049500Y-79673920D01*
X156049499Y-79673920D01*
X156078340Y-79818907D01*
X156078343Y-79818917D01*
X156134912Y-79955488D01*
X156134919Y-79955501D01*
X156217048Y-80078415D01*
X156220914Y-80083126D01*
X156218787Y-80084870D01*
X156246636Y-80135733D01*
X156249500Y-80162229D01*
X156249500Y-80967150D01*
X156229815Y-81034189D01*
X156177011Y-81079944D01*
X156172953Y-81081711D01*
X156044507Y-81134914D01*
X156044498Y-81134919D01*
X155921584Y-81217048D01*
X155921580Y-81217051D01*
X155817051Y-81321580D01*
X155817048Y-81321584D01*
X155734919Y-81444498D01*
X155734912Y-81444511D01*
X155678343Y-81581082D01*
X155678340Y-81581092D01*
X155649500Y-81726079D01*
X155649500Y-81726082D01*
X155649500Y-81873918D01*
X155649500Y-81873920D01*
X155649499Y-81873920D01*
X155678340Y-82018907D01*
X155678343Y-82018917D01*
X155734912Y-82155488D01*
X155734919Y-82155501D01*
X155817048Y-82278415D01*
X155817051Y-82278419D01*
X155921580Y-82382948D01*
X155921584Y-82382951D01*
X156044498Y-82465080D01*
X156044511Y-82465087D01*
X156118432Y-82495705D01*
X156172952Y-82518288D01*
X156227356Y-82562128D01*
X156249421Y-82628422D01*
X156249500Y-82632849D01*
X156249500Y-86653222D01*
X156229815Y-86720261D01*
X156177011Y-86766016D01*
X156107853Y-86775960D01*
X156101309Y-86774839D01*
X155973921Y-86749500D01*
X155973918Y-86749500D01*
X155826082Y-86749500D01*
X155826080Y-86749500D01*
X155681092Y-86778340D01*
X155681082Y-86778343D01*
X155544511Y-86834912D01*
X155544498Y-86834919D01*
X155421584Y-86917048D01*
X155421580Y-86917051D01*
X155317051Y-87021580D01*
X155317048Y-87021584D01*
X155234919Y-87144498D01*
X155234912Y-87144511D01*
X155178343Y-87281082D01*
X155178340Y-87281092D01*
X155149500Y-87426079D01*
X155149500Y-87426082D01*
X155149500Y-87573918D01*
X155149500Y-87573920D01*
X155149499Y-87573920D01*
X155178340Y-87718907D01*
X155178343Y-87718917D01*
X155234912Y-87855488D01*
X155234919Y-87855501D01*
X155317048Y-87978415D01*
X155317051Y-87978419D01*
X155392372Y-88053740D01*
X155425857Y-88115063D01*
X155420873Y-88184755D01*
X155392372Y-88229102D01*
X155108294Y-88513181D01*
X155046971Y-88546666D01*
X155032079Y-88548267D01*
X155032142Y-88548903D01*
X155026079Y-88549499D01*
X154881092Y-88578340D01*
X154881082Y-88578343D01*
X154744511Y-88634912D01*
X154744498Y-88634919D01*
X154621584Y-88717048D01*
X154621580Y-88717051D01*
X154517051Y-88821580D01*
X154517048Y-88821584D01*
X154477602Y-88880620D01*
X154423990Y-88925425D01*
X154354665Y-88934132D01*
X154291637Y-88903978D01*
X154254918Y-88844535D01*
X154250500Y-88811729D01*
X154250500Y-88262229D01*
X154270185Y-88195190D01*
X154279586Y-88183536D01*
X154279086Y-88183126D01*
X154282946Y-88178420D01*
X154282951Y-88178416D01*
X154365084Y-88055495D01*
X154421658Y-87918913D01*
X154440124Y-87826079D01*
X154450500Y-87773920D01*
X154450500Y-87626079D01*
X154421659Y-87481092D01*
X154421658Y-87481091D01*
X154421658Y-87481087D01*
X154421656Y-87481082D01*
X154365087Y-87344511D01*
X154365080Y-87344498D01*
X154282951Y-87221584D01*
X154282948Y-87221580D01*
X154178419Y-87117051D01*
X154178415Y-87117048D01*
X154055501Y-87034919D01*
X154055488Y-87034912D01*
X153918917Y-86978343D01*
X153918907Y-86978340D01*
X153767943Y-86948311D01*
X153768382Y-86946100D01*
X153712944Y-86923709D01*
X153672590Y-86866671D01*
X153669478Y-86796871D01*
X153704598Y-86736469D01*
X153742439Y-86711913D01*
X153792112Y-86691337D01*
X153855489Y-86665087D01*
X153855492Y-86665085D01*
X153855495Y-86665084D01*
X153978416Y-86582951D01*
X154082951Y-86478416D01*
X154165084Y-86355495D01*
X154221658Y-86218913D01*
X154237226Y-86140647D01*
X154269610Y-86078737D01*
X154330326Y-86044163D01*
X154400095Y-86047902D01*
X154456768Y-86088768D01*
X154461945Y-86095948D01*
X154517048Y-86178415D01*
X154517051Y-86178419D01*
X154621580Y-86282948D01*
X154621584Y-86282951D01*
X154744498Y-86365080D01*
X154744511Y-86365087D01*
X154881082Y-86421656D01*
X154881087Y-86421658D01*
X154881091Y-86421658D01*
X154881092Y-86421659D01*
X155026079Y-86450500D01*
X155026082Y-86450500D01*
X155173920Y-86450500D01*
X155271462Y-86431096D01*
X155318913Y-86421658D01*
X155455495Y-86365084D01*
X155578416Y-86282951D01*
X155682951Y-86178416D01*
X155765084Y-86055495D01*
X155821658Y-85918913D01*
X155850500Y-85773918D01*
X155850500Y-85626082D01*
X155850500Y-85626079D01*
X155821659Y-85481092D01*
X155821658Y-85481091D01*
X155821658Y-85481087D01*
X155821656Y-85481082D01*
X155765087Y-85344511D01*
X155765080Y-85344498D01*
X155682951Y-85221584D01*
X155682948Y-85221580D01*
X155578419Y-85117051D01*
X155578415Y-85117048D01*
X155455501Y-85034919D01*
X155455488Y-85034912D01*
X155318917Y-84978343D01*
X155318907Y-84978340D01*
X155173920Y-84949500D01*
X155173918Y-84949500D01*
X155026082Y-84949500D01*
X155026080Y-84949500D01*
X154881092Y-84978340D01*
X154881082Y-84978343D01*
X154744511Y-85034912D01*
X154744498Y-85034919D01*
X154621584Y-85117048D01*
X154621580Y-85117051D01*
X154517051Y-85221580D01*
X154517048Y-85221584D01*
X154434919Y-85344498D01*
X154434912Y-85344511D01*
X154378343Y-85481082D01*
X154378340Y-85481092D01*
X154362773Y-85559352D01*
X154330387Y-85621263D01*
X154269671Y-85655837D01*
X154199902Y-85652096D01*
X154143230Y-85611229D01*
X154138054Y-85604051D01*
X154082951Y-85521584D01*
X154082948Y-85521580D01*
X153978419Y-85417051D01*
X153978415Y-85417048D01*
X153855501Y-85334919D01*
X153855488Y-85334912D01*
X153718917Y-85278343D01*
X153718907Y-85278340D01*
X153573920Y-85249500D01*
X153573918Y-85249500D01*
X153426082Y-85249500D01*
X153426080Y-85249500D01*
X153281092Y-85278340D01*
X153281082Y-85278343D01*
X153144511Y-85334912D01*
X153144498Y-85334919D01*
X153021584Y-85417048D01*
X153021580Y-85417051D01*
X152917051Y-85521580D01*
X152917048Y-85521584D01*
X152834919Y-85644498D01*
X152834912Y-85644511D01*
X152778343Y-85781082D01*
X152778340Y-85781092D01*
X152749500Y-85926079D01*
X152749500Y-85926082D01*
X152749500Y-86073918D01*
X152749500Y-86073920D01*
X152749499Y-86073920D01*
X152778340Y-86218907D01*
X152778343Y-86218917D01*
X152834912Y-86355488D01*
X152834919Y-86355501D01*
X152917048Y-86478415D01*
X152917051Y-86478419D01*
X153021580Y-86582948D01*
X153021584Y-86582951D01*
X153144498Y-86665080D01*
X153144511Y-86665087D01*
X153257558Y-86711912D01*
X153281087Y-86721658D01*
X153281091Y-86721658D01*
X153281092Y-86721659D01*
X153432057Y-86751689D01*
X153431615Y-86753908D01*
X153487016Y-86776259D01*
X153527393Y-86833281D01*
X153530533Y-86903080D01*
X153495437Y-86963496D01*
X153457559Y-86988087D01*
X153344508Y-87034914D01*
X153344498Y-87034919D01*
X153221584Y-87117048D01*
X153221580Y-87117051D01*
X153117051Y-87221580D01*
X153117048Y-87221584D01*
X153044892Y-87329573D01*
X152991279Y-87374378D01*
X152985678Y-87376439D01*
X152844511Y-87434912D01*
X152844498Y-87434919D01*
X152721584Y-87517048D01*
X152721580Y-87517051D01*
X152617051Y-87621580D01*
X152617048Y-87621584D01*
X152534919Y-87744498D01*
X152534914Y-87744508D01*
X152477516Y-87883080D01*
X152433675Y-87937483D01*
X152387147Y-87957244D01*
X152281092Y-87978340D01*
X152281082Y-87978343D01*
X152144511Y-88034912D01*
X152144498Y-88034919D01*
X152021584Y-88117048D01*
X152021580Y-88117051D01*
X151917051Y-88221580D01*
X151917048Y-88221584D01*
X151834919Y-88344498D01*
X151834912Y-88344511D01*
X151778343Y-88481082D01*
X151778340Y-88481092D01*
X151749500Y-88626079D01*
X151749500Y-88626082D01*
X151749500Y-88773918D01*
X151749500Y-88773920D01*
X151749499Y-88773920D01*
X140500500Y-88773920D01*
X140500500Y-84573920D01*
X151349499Y-84573920D01*
X151378340Y-84718907D01*
X151378343Y-84718917D01*
X151434912Y-84855488D01*
X151434919Y-84855501D01*
X151517048Y-84978415D01*
X151517051Y-84978419D01*
X151621580Y-85082948D01*
X151621584Y-85082951D01*
X151744498Y-85165080D01*
X151744511Y-85165087D01*
X151880899Y-85221580D01*
X151881087Y-85221658D01*
X151881091Y-85221658D01*
X151881092Y-85221659D01*
X152026079Y-85250500D01*
X152026082Y-85250500D01*
X152173920Y-85250500D01*
X152271462Y-85231096D01*
X152318913Y-85221658D01*
X152455495Y-85165084D01*
X152578416Y-85082951D01*
X152682951Y-84978416D01*
X152765084Y-84855495D01*
X152821658Y-84718913D01*
X152842147Y-84615909D01*
X152850500Y-84573920D01*
X152850500Y-84426079D01*
X152821659Y-84281092D01*
X152821658Y-84281091D01*
X152821658Y-84281087D01*
X152820550Y-84278411D01*
X152765087Y-84144511D01*
X152765080Y-84144498D01*
X152682951Y-84021584D01*
X152682948Y-84021580D01*
X152578419Y-83917051D01*
X152578415Y-83917048D01*
X152455501Y-83834919D01*
X152455488Y-83834912D01*
X152318917Y-83778343D01*
X152318907Y-83778340D01*
X152173920Y-83749500D01*
X152173918Y-83749500D01*
X152026082Y-83749500D01*
X152026080Y-83749500D01*
X151881092Y-83778340D01*
X151881082Y-83778343D01*
X151744511Y-83834912D01*
X151744498Y-83834919D01*
X151621584Y-83917048D01*
X151621580Y-83917051D01*
X151517051Y-84021580D01*
X151517048Y-84021584D01*
X151434919Y-84144498D01*
X151434912Y-84144511D01*
X151378343Y-84281082D01*
X151378340Y-84281092D01*
X151349500Y-84426079D01*
X151349500Y-84426082D01*
X151349500Y-84573918D01*
X151349500Y-84573920D01*
X151349499Y-84573920D01*
X140500500Y-84573920D01*
X140500500Y-82973920D01*
X153849499Y-82973920D01*
X153878340Y-83118907D01*
X153878343Y-83118917D01*
X153934912Y-83255488D01*
X153934919Y-83255501D01*
X154017048Y-83378415D01*
X154017051Y-83378419D01*
X154121580Y-83482948D01*
X154121584Y-83482951D01*
X154244498Y-83565080D01*
X154244511Y-83565087D01*
X154374460Y-83618913D01*
X154381087Y-83621658D01*
X154381091Y-83621658D01*
X154381092Y-83621659D01*
X154526079Y-83650500D01*
X154526082Y-83650500D01*
X154673920Y-83650500D01*
X154771462Y-83631096D01*
X154818913Y-83621658D01*
X154955495Y-83565084D01*
X155078416Y-83482951D01*
X155182951Y-83378416D01*
X155265084Y-83255495D01*
X155321658Y-83118913D01*
X155337153Y-83041017D01*
X155350500Y-82973920D01*
X155350500Y-82826079D01*
X155321659Y-82681092D01*
X155321658Y-82681091D01*
X155321658Y-82681087D01*
X155301677Y-82632849D01*
X155265087Y-82544511D01*
X155265080Y-82544498D01*
X155182951Y-82421584D01*
X155182948Y-82421580D01*
X155078419Y-82317051D01*
X155078415Y-82317048D01*
X154955501Y-82234919D01*
X154955488Y-82234912D01*
X154818917Y-82178343D01*
X154818907Y-82178340D01*
X154673920Y-82149500D01*
X154673918Y-82149500D01*
X154526082Y-82149500D01*
X154526080Y-82149500D01*
X154381092Y-82178340D01*
X154381082Y-82178343D01*
X154244511Y-82234912D01*
X154244498Y-82234919D01*
X154121584Y-82317048D01*
X154121580Y-82317051D01*
X154017051Y-82421580D01*
X154017048Y-82421584D01*
X153934919Y-82544498D01*
X153934912Y-82544511D01*
X153878343Y-82681082D01*
X153878340Y-82681092D01*
X153849500Y-82826079D01*
X153849500Y-82826082D01*
X153849500Y-82973918D01*
X153849500Y-82973920D01*
X153849499Y-82973920D01*
X140500500Y-82973920D01*
X140500500Y-81473920D01*
X150349499Y-81473920D01*
X150378340Y-81618907D01*
X150378343Y-81618917D01*
X150434912Y-81755488D01*
X150434919Y-81755501D01*
X150517048Y-81878415D01*
X150517051Y-81878419D01*
X150621580Y-81982948D01*
X150621584Y-81982951D01*
X150744498Y-82065080D01*
X150744511Y-82065087D01*
X150833553Y-82101969D01*
X150881087Y-82121658D01*
X150881091Y-82121658D01*
X150881092Y-82121659D01*
X151026079Y-82150500D01*
X151026082Y-82150500D01*
X151173920Y-82150500D01*
X151271462Y-82131096D01*
X151318913Y-82121658D01*
X151455495Y-82065084D01*
X151578416Y-81982951D01*
X151617239Y-81944128D01*
X151662319Y-81899049D01*
X151723642Y-81865564D01*
X151793334Y-81870548D01*
X151837681Y-81899049D01*
X151921580Y-81982948D01*
X151921584Y-81982951D01*
X152044498Y-82065080D01*
X152044511Y-82065087D01*
X152133553Y-82101969D01*
X152181087Y-82121658D01*
X152181091Y-82121658D01*
X152181092Y-82121659D01*
X152326079Y-82150500D01*
X152326082Y-82150500D01*
X152473920Y-82150500D01*
X152571462Y-82131096D01*
X152618913Y-82121658D01*
X152755495Y-82065084D01*
X152878416Y-81982951D01*
X152982951Y-81878416D01*
X153065084Y-81755495D01*
X153121658Y-81618913D01*
X153132366Y-81565080D01*
X153150500Y-81473920D01*
X153150500Y-81326079D01*
X153121659Y-81181092D01*
X153121658Y-81181091D01*
X153121658Y-81181087D01*
X153121656Y-81181082D01*
X153065087Y-81044511D01*
X153065080Y-81044498D01*
X152982951Y-80921584D01*
X152982948Y-80921580D01*
X152878419Y-80817051D01*
X152878415Y-80817048D01*
X152755501Y-80734919D01*
X152755488Y-80734912D01*
X152618917Y-80678343D01*
X152618907Y-80678340D01*
X152473920Y-80649500D01*
X152473918Y-80649500D01*
X152326082Y-80649500D01*
X152326080Y-80649500D01*
X152181092Y-80678340D01*
X152181082Y-80678343D01*
X152044511Y-80734912D01*
X152044498Y-80734919D01*
X151921584Y-80817048D01*
X151921580Y-80817051D01*
X151837681Y-80900951D01*
X151776358Y-80934436D01*
X151706666Y-80929452D01*
X151662319Y-80900951D01*
X151578419Y-80817051D01*
X151578415Y-80817048D01*
X151455501Y-80734919D01*
X151455488Y-80734912D01*
X151318917Y-80678343D01*
X151318907Y-80678340D01*
X151173920Y-80649500D01*
X151173918Y-80649500D01*
X151026082Y-80649500D01*
X151026080Y-80649500D01*
X150881092Y-80678340D01*
X150881082Y-80678343D01*
X150744511Y-80734912D01*
X150744498Y-80734919D01*
X150621584Y-80817048D01*
X150621580Y-80817051D01*
X150517051Y-80921580D01*
X150517048Y-80921584D01*
X150434919Y-81044498D01*
X150434912Y-81044511D01*
X150378343Y-81181082D01*
X150378340Y-81181092D01*
X150349500Y-81326079D01*
X150349500Y-81326082D01*
X150349500Y-81473918D01*
X150349500Y-81473920D01*
X150349499Y-81473920D01*
X140500500Y-81473920D01*
X140500500Y-77373920D01*
X153949499Y-77373920D01*
X153978340Y-77518907D01*
X153978343Y-77518917D01*
X154034912Y-77655488D01*
X154034919Y-77655501D01*
X154117048Y-77778415D01*
X154117051Y-77778419D01*
X154221580Y-77882948D01*
X154221584Y-77882951D01*
X154344498Y-77965080D01*
X154344511Y-77965087D01*
X154378451Y-77979145D01*
X154481087Y-78021658D01*
X154481094Y-78021659D01*
X154486920Y-78023427D01*
X154486571Y-78024576D01*
X154542845Y-78054004D01*
X154576505Y-78113101D01*
X154576573Y-78113081D01*
X154576663Y-78113378D01*
X154577425Y-78114716D01*
X154578328Y-78118867D01*
X154578343Y-78118917D01*
X154634912Y-78255488D01*
X154634919Y-78255501D01*
X154717048Y-78378415D01*
X154717051Y-78378419D01*
X154821580Y-78482948D01*
X154821584Y-78482951D01*
X154944498Y-78565080D01*
X154944511Y-78565087D01*
X155081082Y-78621656D01*
X155081087Y-78621658D01*
X155081091Y-78621658D01*
X155081092Y-78621659D01*
X155226079Y-78650500D01*
X155226082Y-78650500D01*
X155373920Y-78650500D01*
X155471462Y-78631096D01*
X155518913Y-78621658D01*
X155655495Y-78565084D01*
X155778416Y-78482951D01*
X155882951Y-78378416D01*
X155965084Y-78255495D01*
X155975912Y-78229353D01*
X156019750Y-78174951D01*
X156086044Y-78152884D01*
X156137976Y-78164925D01*
X156138876Y-78162753D01*
X156280899Y-78221580D01*
X156281087Y-78221658D01*
X156281091Y-78221658D01*
X156281092Y-78221659D01*
X156426079Y-78250500D01*
X156426082Y-78250500D01*
X156573920Y-78250500D01*
X156671462Y-78231096D01*
X156718913Y-78221658D01*
X156855495Y-78165084D01*
X156978416Y-78082951D01*
X157082951Y-77978416D01*
X157165084Y-77855495D01*
X157221658Y-77718913D01*
X157250500Y-77573920D01*
X157849499Y-77573920D01*
X157878340Y-77718907D01*
X157878343Y-77718917D01*
X157934912Y-77855488D01*
X157934919Y-77855501D01*
X158017048Y-77978415D01*
X158017051Y-77978419D01*
X158121580Y-78082948D01*
X158121584Y-78082951D01*
X158244498Y-78165080D01*
X158244511Y-78165087D01*
X158380899Y-78221580D01*
X158381087Y-78221658D01*
X158381091Y-78221658D01*
X158381092Y-78221659D01*
X158526079Y-78250500D01*
X158526082Y-78250500D01*
X158673920Y-78250500D01*
X158771462Y-78231096D01*
X158818913Y-78221658D01*
X158955495Y-78165084D01*
X159078416Y-78082951D01*
X159182951Y-77978416D01*
X159265084Y-77855495D01*
X159321658Y-77718913D01*
X159350500Y-77573920D01*
X162549499Y-77573920D01*
X162578340Y-77718907D01*
X162578343Y-77718917D01*
X162634912Y-77855488D01*
X162634919Y-77855501D01*
X162717048Y-77978415D01*
X162717051Y-77978419D01*
X162821580Y-78082948D01*
X162821584Y-78082951D01*
X162944498Y-78165080D01*
X162944511Y-78165087D01*
X163080899Y-78221580D01*
X163081087Y-78221658D01*
X163081091Y-78221658D01*
X163081092Y-78221659D01*
X163226079Y-78250500D01*
X163226082Y-78250500D01*
X163373918Y-78250500D01*
X163416718Y-78241986D01*
X163486308Y-78248212D01*
X163541486Y-78291074D01*
X163562527Y-78339411D01*
X163578340Y-78418907D01*
X163578343Y-78418917D01*
X163634912Y-78555488D01*
X163634919Y-78555501D01*
X163717048Y-78678415D01*
X163717051Y-78678419D01*
X163821580Y-78782948D01*
X163821584Y-78782951D01*
X163944498Y-78865080D01*
X163944504Y-78865083D01*
X163944505Y-78865084D01*
X164031692Y-78901198D01*
X164086095Y-78945039D01*
X164098800Y-78968305D01*
X164134913Y-79055488D01*
X164134916Y-79055494D01*
X164134919Y-79055501D01*
X164217048Y-79178415D01*
X164217051Y-79178419D01*
X164321580Y-79282948D01*
X164321584Y-79282951D01*
X164444498Y-79365080D01*
X164444511Y-79365087D01*
X164581082Y-79421656D01*
X164581087Y-79421658D01*
X164581091Y-79421658D01*
X164581092Y-79421659D01*
X164726079Y-79450500D01*
X164726082Y-79450500D01*
X164873920Y-79450500D01*
X164971462Y-79431096D01*
X165018913Y-79421658D01*
X165155495Y-79365084D01*
X165278416Y-79282951D01*
X165382951Y-79178416D01*
X165465084Y-79055495D01*
X165498873Y-78973920D01*
X169249499Y-78973920D01*
X169278340Y-79118907D01*
X169278343Y-79118917D01*
X169334912Y-79255488D01*
X169334919Y-79255501D01*
X169417048Y-79378415D01*
X169417051Y-79378419D01*
X169521580Y-79482948D01*
X169521584Y-79482951D01*
X169644498Y-79565080D01*
X169644511Y-79565087D01*
X169781082Y-79621656D01*
X169781087Y-79621658D01*
X169781091Y-79621658D01*
X169781092Y-79621659D01*
X169926079Y-79650500D01*
X169926082Y-79650500D01*
X170073920Y-79650500D01*
X170171462Y-79631096D01*
X170218913Y-79621658D01*
X170355495Y-79565084D01*
X170478416Y-79482951D01*
X170582951Y-79378416D01*
X170665084Y-79255495D01*
X170721658Y-79118913D01*
X170750500Y-78973918D01*
X170750500Y-78826082D01*
X170750500Y-78826079D01*
X170721659Y-78681092D01*
X170721658Y-78681091D01*
X170721658Y-78681087D01*
X170710431Y-78653982D01*
X170665087Y-78544511D01*
X170665080Y-78544498D01*
X170582951Y-78421584D01*
X170582948Y-78421580D01*
X170478419Y-78317051D01*
X170478415Y-78317048D01*
X170355501Y-78234919D01*
X170355488Y-78234912D01*
X170218917Y-78178343D01*
X170218907Y-78178340D01*
X170073920Y-78149500D01*
X170073918Y-78149500D01*
X169926082Y-78149500D01*
X169926080Y-78149500D01*
X169781092Y-78178340D01*
X169781082Y-78178343D01*
X169644511Y-78234912D01*
X169644498Y-78234919D01*
X169521584Y-78317048D01*
X169521580Y-78317051D01*
X169417051Y-78421580D01*
X169417048Y-78421584D01*
X169334919Y-78544498D01*
X169334912Y-78544511D01*
X169278343Y-78681082D01*
X169278340Y-78681092D01*
X169249500Y-78826079D01*
X169249500Y-78826082D01*
X169249500Y-78973918D01*
X169249500Y-78973920D01*
X169249499Y-78973920D01*
X165498873Y-78973920D01*
X165521658Y-78918913D01*
X165532366Y-78865080D01*
X165546148Y-78795798D01*
X165550500Y-78773920D01*
X165550500Y-78626079D01*
X165521659Y-78481092D01*
X165521658Y-78481091D01*
X165521658Y-78481087D01*
X165521656Y-78481082D01*
X165465087Y-78344511D01*
X165465080Y-78344498D01*
X165382951Y-78221584D01*
X165382948Y-78221580D01*
X165278419Y-78117051D01*
X165278415Y-78117048D01*
X165155501Y-78034919D01*
X165155496Y-78034917D01*
X165155495Y-78034916D01*
X165068305Y-77998800D01*
X165013902Y-77954958D01*
X165001198Y-77931692D01*
X164965085Y-77844507D01*
X164965080Y-77844498D01*
X164882951Y-77721584D01*
X164882948Y-77721580D01*
X164778419Y-77617051D01*
X164778415Y-77617048D01*
X164655501Y-77534919D01*
X164655488Y-77534912D01*
X164518917Y-77478343D01*
X164518907Y-77478340D01*
X164373920Y-77449500D01*
X164373918Y-77449500D01*
X164226082Y-77449500D01*
X164226077Y-77449500D01*
X164183280Y-77458013D01*
X164113688Y-77451786D01*
X164058511Y-77408922D01*
X164037472Y-77360587D01*
X164021659Y-77281094D01*
X164021659Y-77281092D01*
X164021658Y-77281087D01*
X164021656Y-77281082D01*
X163965087Y-77144511D01*
X163965080Y-77144498D01*
X163882951Y-77021584D01*
X163882948Y-77021580D01*
X163778419Y-76917051D01*
X163778415Y-76917048D01*
X163655501Y-76834919D01*
X163655488Y-76834912D01*
X163518917Y-76778343D01*
X163518907Y-76778340D01*
X163373920Y-76749500D01*
X163373918Y-76749500D01*
X163226082Y-76749500D01*
X163226080Y-76749500D01*
X163081092Y-76778340D01*
X163081082Y-76778343D01*
X162944511Y-76834912D01*
X162944498Y-76834919D01*
X162821584Y-76917048D01*
X162821580Y-76917051D01*
X162717051Y-77021580D01*
X162717048Y-77021584D01*
X162634919Y-77144498D01*
X162634912Y-77144511D01*
X162578343Y-77281082D01*
X162578340Y-77281092D01*
X162549500Y-77426079D01*
X162549500Y-77426082D01*
X162549500Y-77573918D01*
X162549500Y-77573920D01*
X162549499Y-77573920D01*
X159350500Y-77573920D01*
X159350500Y-77573918D01*
X159350500Y-77426082D01*
X159350500Y-77426079D01*
X159321659Y-77281092D01*
X159321658Y-77281091D01*
X159321658Y-77281087D01*
X159321656Y-77281082D01*
X159265087Y-77144511D01*
X159265080Y-77144498D01*
X159182951Y-77021584D01*
X159182948Y-77021580D01*
X159078419Y-76917051D01*
X159078415Y-76917048D01*
X158955501Y-76834919D01*
X158955488Y-76834912D01*
X158818917Y-76778343D01*
X158818907Y-76778340D01*
X158673920Y-76749500D01*
X158673918Y-76749500D01*
X158526082Y-76749500D01*
X158526080Y-76749500D01*
X158381092Y-76778340D01*
X158381082Y-76778343D01*
X158244511Y-76834912D01*
X158244498Y-76834919D01*
X158121584Y-76917048D01*
X158121580Y-76917051D01*
X158017051Y-77021580D01*
X158017048Y-77021584D01*
X157934919Y-77144498D01*
X157934912Y-77144511D01*
X157878343Y-77281082D01*
X157878340Y-77281092D01*
X157849500Y-77426079D01*
X157849500Y-77426082D01*
X157849500Y-77573918D01*
X157849500Y-77573920D01*
X157849499Y-77573920D01*
X157250500Y-77573920D01*
X157250500Y-77573918D01*
X157250500Y-77426082D01*
X157250500Y-77426079D01*
X157221659Y-77281092D01*
X157221658Y-77281091D01*
X157221658Y-77281087D01*
X157221656Y-77281082D01*
X157165087Y-77144511D01*
X157165080Y-77144498D01*
X157082951Y-77021584D01*
X157082948Y-77021580D01*
X156978419Y-76917051D01*
X156978415Y-76917048D01*
X156855501Y-76834919D01*
X156855488Y-76834912D01*
X156718917Y-76778343D01*
X156718907Y-76778340D01*
X156573920Y-76749500D01*
X156573918Y-76749500D01*
X156426082Y-76749500D01*
X156426080Y-76749500D01*
X156281092Y-76778340D01*
X156281082Y-76778343D01*
X156144511Y-76834912D01*
X156144498Y-76834919D01*
X156021584Y-76917048D01*
X156021580Y-76917051D01*
X155917051Y-77021580D01*
X155917048Y-77021584D01*
X155834919Y-77144498D01*
X155834916Y-77144505D01*
X155824087Y-77170648D01*
X155818898Y-77177086D01*
X155816954Y-77185124D01*
X155797298Y-77203889D01*
X155780245Y-77225051D01*
X155772398Y-77227662D01*
X155766418Y-77233372D01*
X155739737Y-77238532D01*
X155713950Y-77247115D01*
X155704164Y-77245412D01*
X155697820Y-77246640D01*
X155679541Y-77241129D01*
X155663515Y-77238342D01*
X155656319Y-77235466D01*
X155655495Y-77234916D01*
X155518913Y-77178342D01*
X155507849Y-77176141D01*
X155497235Y-77171900D01*
X155478377Y-77157089D01*
X155457133Y-77145974D01*
X155451399Y-77135902D01*
X155442286Y-77128745D01*
X155434429Y-77106092D01*
X155423501Y-77086897D01*
X155423427Y-77086920D01*
X155423327Y-77086591D01*
X155422566Y-77085254D01*
X155421666Y-77081118D01*
X155421659Y-77081092D01*
X155421658Y-77081087D01*
X155397009Y-77021580D01*
X155365087Y-76944511D01*
X155365080Y-76944498D01*
X155282951Y-76821584D01*
X155282948Y-76821580D01*
X155178419Y-76717051D01*
X155178415Y-76717048D01*
X155055501Y-76634919D01*
X155055488Y-76634912D01*
X154918917Y-76578343D01*
X154918907Y-76578340D01*
X154773920Y-76549500D01*
X154773918Y-76549500D01*
X154626082Y-76549500D01*
X154626080Y-76549500D01*
X154481092Y-76578340D01*
X154481082Y-76578343D01*
X154344511Y-76634912D01*
X154344498Y-76634919D01*
X154221584Y-76717048D01*
X154221580Y-76717051D01*
X154117051Y-76821580D01*
X154117048Y-76821584D01*
X154034919Y-76944498D01*
X154034912Y-76944511D01*
X153978343Y-77081082D01*
X153978340Y-77081092D01*
X153949500Y-77226079D01*
X153949500Y-77226082D01*
X153949500Y-77373918D01*
X153949500Y-77373920D01*
X153949499Y-77373920D01*
X140500500Y-77373920D01*
X140500500Y-74473920D01*
X141149499Y-74473920D01*
X141178340Y-74618907D01*
X141178343Y-74618917D01*
X141234912Y-74755488D01*
X141234919Y-74755501D01*
X141317048Y-74878415D01*
X141317051Y-74878419D01*
X141421580Y-74982948D01*
X141421584Y-74982951D01*
X141544498Y-75065080D01*
X141544511Y-75065087D01*
X141681082Y-75121656D01*
X141681087Y-75121658D01*
X141681091Y-75121658D01*
X141681092Y-75121659D01*
X141826079Y-75150500D01*
X141826082Y-75150500D01*
X141973920Y-75150500D01*
X142071462Y-75131096D01*
X142118913Y-75121658D01*
X142252547Y-75066304D01*
X142322017Y-75058836D01*
X142347452Y-75066304D01*
X142481087Y-75121658D01*
X142481091Y-75121658D01*
X142481092Y-75121659D01*
X142626079Y-75150500D01*
X142626082Y-75150500D01*
X142773920Y-75150500D01*
X142871462Y-75131096D01*
X142918913Y-75121658D01*
X143055495Y-75065084D01*
X143178416Y-74982951D01*
X143187447Y-74973920D01*
X172549499Y-74973920D01*
X172578340Y-75118907D01*
X172578343Y-75118917D01*
X172634912Y-75255488D01*
X172634919Y-75255501D01*
X172717048Y-75378415D01*
X172717051Y-75378419D01*
X172750951Y-75412319D01*
X172784436Y-75473642D01*
X172779452Y-75543334D01*
X172750951Y-75587681D01*
X172717051Y-75621580D01*
X172717048Y-75621584D01*
X172634919Y-75744498D01*
X172634912Y-75744511D01*
X172578343Y-75881082D01*
X172578340Y-75881092D01*
X172549500Y-76026079D01*
X172549500Y-76026082D01*
X172549500Y-76173918D01*
X172549500Y-76173920D01*
X172549499Y-76173920D01*
X172578340Y-76318907D01*
X172578343Y-76318917D01*
X172634912Y-76455488D01*
X172634919Y-76455501D01*
X172717048Y-76578415D01*
X172717051Y-76578419D01*
X172821580Y-76682948D01*
X172821584Y-76682951D01*
X172944498Y-76765080D01*
X172944511Y-76765087D01*
X173080899Y-76821580D01*
X173081087Y-76821658D01*
X173081091Y-76821658D01*
X173081092Y-76821659D01*
X173226079Y-76850500D01*
X173226082Y-76850500D01*
X173373920Y-76850500D01*
X173471462Y-76831096D01*
X173518913Y-76821658D01*
X173655495Y-76765084D01*
X173778416Y-76682951D01*
X173882951Y-76578416D01*
X173965084Y-76455495D01*
X174021658Y-76318913D01*
X174050500Y-76173918D01*
X174050500Y-76026082D01*
X174050500Y-76026079D01*
X174021659Y-75881092D01*
X174021658Y-75881091D01*
X174021658Y-75881087D01*
X174021656Y-75881082D01*
X173965087Y-75744511D01*
X173965080Y-75744498D01*
X173882951Y-75621584D01*
X173882948Y-75621580D01*
X173849049Y-75587681D01*
X173815564Y-75526358D01*
X173820548Y-75456666D01*
X173849049Y-75412319D01*
X173882948Y-75378419D01*
X173882951Y-75378416D01*
X173965084Y-75255495D01*
X174021658Y-75118913D01*
X174038281Y-75035346D01*
X174050500Y-74973920D01*
X174050500Y-74826079D01*
X174021659Y-74681092D01*
X174021658Y-74681091D01*
X174021658Y-74681087D01*
X174020553Y-74678419D01*
X173965087Y-74544511D01*
X173965080Y-74544498D01*
X173882951Y-74421584D01*
X173882948Y-74421580D01*
X173778419Y-74317051D01*
X173778415Y-74317048D01*
X173655501Y-74234919D01*
X173655488Y-74234912D01*
X173518917Y-74178343D01*
X173518907Y-74178340D01*
X173373920Y-74149500D01*
X173373918Y-74149500D01*
X173226082Y-74149500D01*
X173226080Y-74149500D01*
X173081092Y-74178340D01*
X173081082Y-74178343D01*
X172944511Y-74234912D01*
X172944498Y-74234919D01*
X172821584Y-74317048D01*
X172821580Y-74317051D01*
X172717051Y-74421580D01*
X172717048Y-74421584D01*
X172634919Y-74544498D01*
X172634912Y-74544511D01*
X172578343Y-74681082D01*
X172578340Y-74681092D01*
X172549500Y-74826079D01*
X172549500Y-74826082D01*
X172549500Y-74973918D01*
X172549500Y-74973920D01*
X172549499Y-74973920D01*
X143187447Y-74973920D01*
X143282951Y-74878416D01*
X143365084Y-74755495D01*
X143421658Y-74618913D01*
X143436459Y-74544505D01*
X143450500Y-74473920D01*
X143450500Y-74326079D01*
X143421659Y-74181092D01*
X143421658Y-74181091D01*
X143421658Y-74181087D01*
X143379132Y-74078419D01*
X143365087Y-74044511D01*
X143365080Y-74044498D01*
X143282951Y-73921584D01*
X143282948Y-73921580D01*
X143178419Y-73817051D01*
X143178415Y-73817048D01*
X143055501Y-73734919D01*
X143055488Y-73734912D01*
X142918917Y-73678343D01*
X142918907Y-73678340D01*
X142773920Y-73649500D01*
X142773918Y-73649500D01*
X142626082Y-73649500D01*
X142626080Y-73649500D01*
X142481092Y-73678340D01*
X142481082Y-73678343D01*
X142347452Y-73733694D01*
X142277982Y-73741163D01*
X142252548Y-73733694D01*
X142118917Y-73678343D01*
X142118907Y-73678340D01*
X141973920Y-73649500D01*
X141973918Y-73649500D01*
X141826082Y-73649500D01*
X141826080Y-73649500D01*
X141681092Y-73678340D01*
X141681082Y-73678343D01*
X141544511Y-73734912D01*
X141544498Y-73734919D01*
X141421584Y-73817048D01*
X141421580Y-73817051D01*
X141317051Y-73921580D01*
X141317048Y-73921584D01*
X141234919Y-74044498D01*
X141234912Y-74044511D01*
X141178343Y-74181082D01*
X141178340Y-74181092D01*
X141149500Y-74326079D01*
X141149500Y-74326082D01*
X141149500Y-74473918D01*
X141149500Y-74473920D01*
X141149499Y-74473920D01*
X140500500Y-74473920D01*
X140500500Y-71873920D01*
X144549499Y-71873920D01*
X144578340Y-72018907D01*
X144578343Y-72018917D01*
X144634912Y-72155488D01*
X144634919Y-72155501D01*
X144717048Y-72278415D01*
X144717051Y-72278419D01*
X144750951Y-72312319D01*
X144784436Y-72373642D01*
X144779452Y-72443334D01*
X144750951Y-72487681D01*
X144717051Y-72521580D01*
X144717048Y-72521584D01*
X144634919Y-72644498D01*
X144634912Y-72644511D01*
X144578343Y-72781082D01*
X144578340Y-72781092D01*
X144549500Y-72926079D01*
X144549500Y-72926082D01*
X144549500Y-73073918D01*
X144549500Y-73073920D01*
X144549499Y-73073920D01*
X144578340Y-73218907D01*
X144578343Y-73218917D01*
X144634912Y-73355488D01*
X144634919Y-73355500D01*
X144717048Y-73478415D01*
X144717051Y-73478419D01*
X144750951Y-73512319D01*
X144784436Y-73573642D01*
X144779452Y-73643334D01*
X144750951Y-73687681D01*
X144717051Y-73721580D01*
X144717048Y-73721584D01*
X144634919Y-73844498D01*
X144634912Y-73844511D01*
X144578343Y-73981082D01*
X144578340Y-73981092D01*
X144549500Y-74126079D01*
X144549500Y-74126082D01*
X144549500Y-74273918D01*
X144549500Y-74273920D01*
X144549499Y-74273920D01*
X144578340Y-74418907D01*
X144578343Y-74418917D01*
X144634912Y-74555488D01*
X144634919Y-74555501D01*
X144717048Y-74678415D01*
X144717051Y-74678419D01*
X144821580Y-74782948D01*
X144821584Y-74782951D01*
X144944498Y-74865080D01*
X144944511Y-74865087D01*
X145081082Y-74921656D01*
X145081087Y-74921658D01*
X145081091Y-74921658D01*
X145081092Y-74921659D01*
X145226079Y-74950500D01*
X145226082Y-74950500D01*
X145373920Y-74950500D01*
X145471462Y-74931096D01*
X145518913Y-74921658D01*
X145655495Y-74865084D01*
X145778416Y-74782951D01*
X145882951Y-74678416D01*
X145896897Y-74657543D01*
X145950509Y-74612738D01*
X146019834Y-74604031D01*
X146082862Y-74634185D01*
X146103103Y-74657544D01*
X146117050Y-74678418D01*
X146221580Y-74782948D01*
X146221584Y-74782951D01*
X146344498Y-74865080D01*
X146344511Y-74865087D01*
X146481082Y-74921656D01*
X146481087Y-74921658D01*
X146481091Y-74921658D01*
X146481092Y-74921659D01*
X146626079Y-74950500D01*
X146626082Y-74950500D01*
X146773920Y-74950500D01*
X146871462Y-74931096D01*
X146918913Y-74921658D01*
X147055495Y-74865084D01*
X147178416Y-74782951D01*
X147178419Y-74782948D01*
X147229059Y-74732309D01*
X147282948Y-74678419D01*
X147282949Y-74678418D01*
X147282951Y-74678416D01*
X147365084Y-74555495D01*
X147421658Y-74418913D01*
X147440124Y-74326079D01*
X147450500Y-74273920D01*
X147450500Y-74126079D01*
X147421659Y-73981092D01*
X147421658Y-73981091D01*
X147421658Y-73981087D01*
X147411060Y-73955501D01*
X147365087Y-73844511D01*
X147365080Y-73844498D01*
X147282951Y-73721584D01*
X147282948Y-73721580D01*
X147249049Y-73687681D01*
X147247245Y-73684377D01*
X147244052Y-73682382D01*
X147240057Y-73673920D01*
X155649499Y-73673920D01*
X155678340Y-73818907D01*
X155678343Y-73818917D01*
X155734912Y-73955488D01*
X155734919Y-73955501D01*
X155817048Y-74078415D01*
X155817051Y-74078419D01*
X155921580Y-74182948D01*
X155921584Y-74182951D01*
X156044498Y-74265080D01*
X156044511Y-74265087D01*
X156181082Y-74321656D01*
X156181087Y-74321658D01*
X156181091Y-74321658D01*
X156181092Y-74321659D01*
X156326079Y-74350500D01*
X156326082Y-74350500D01*
X156473920Y-74350500D01*
X156571462Y-74331096D01*
X156618913Y-74321658D01*
X156755495Y-74265084D01*
X156878416Y-74182951D01*
X156982951Y-74078416D01*
X157065084Y-73955495D01*
X157121658Y-73818913D01*
X157138366Y-73734919D01*
X157150500Y-73673920D01*
X157150500Y-73526079D01*
X157121659Y-73381092D01*
X157121658Y-73381091D01*
X157121658Y-73381087D01*
X157111059Y-73355499D01*
X157065087Y-73244511D01*
X157065080Y-73244498D01*
X156982951Y-73121584D01*
X156982948Y-73121580D01*
X156878419Y-73017051D01*
X156878415Y-73017048D01*
X156755501Y-72934919D01*
X156755488Y-72934912D01*
X156618917Y-72878343D01*
X156618907Y-72878340D01*
X156473920Y-72849500D01*
X156473918Y-72849500D01*
X156326082Y-72849500D01*
X156326080Y-72849500D01*
X156181092Y-72878340D01*
X156181082Y-72878343D01*
X156044511Y-72934912D01*
X156044498Y-72934919D01*
X155921584Y-73017048D01*
X155921580Y-73017051D01*
X155817051Y-73121580D01*
X155817048Y-73121584D01*
X155734919Y-73244498D01*
X155734912Y-73244511D01*
X155678343Y-73381082D01*
X155678340Y-73381092D01*
X155649500Y-73526079D01*
X155649500Y-73526082D01*
X155649500Y-73673918D01*
X155649500Y-73673920D01*
X155649499Y-73673920D01*
X147240057Y-73673920D01*
X147230628Y-73653947D01*
X147215564Y-73626358D01*
X147215832Y-73622603D01*
X147214225Y-73619198D01*
X147218305Y-73588024D01*
X147220548Y-73556666D01*
X147222946Y-73552563D01*
X147223293Y-73549920D01*
X147231499Y-73537939D01*
X147241997Y-73519989D01*
X147245360Y-73516006D01*
X147282951Y-73478416D01*
X147365084Y-73355495D01*
X147421658Y-73218913D01*
X147435267Y-73150500D01*
X147450500Y-73073920D01*
X147450500Y-72926079D01*
X147421659Y-72781092D01*
X147421658Y-72781091D01*
X147421658Y-72781087D01*
X147411060Y-72755501D01*
X147365087Y-72644511D01*
X147365080Y-72644498D01*
X147282951Y-72521584D01*
X147282948Y-72521580D01*
X147249049Y-72487681D01*
X147215564Y-72426358D01*
X147220548Y-72356666D01*
X147249049Y-72312319D01*
X147282948Y-72278419D01*
X147282951Y-72278416D01*
X147365084Y-72155495D01*
X147421658Y-72018913D01*
X147439287Y-71930288D01*
X147450500Y-71873920D01*
X147450500Y-71726079D01*
X147421659Y-71581092D01*
X147421658Y-71581091D01*
X147421658Y-71581087D01*
X147418689Y-71573920D01*
X152449499Y-71573920D01*
X152478340Y-71718907D01*
X152478343Y-71718917D01*
X152534914Y-71855493D01*
X152534915Y-71855495D01*
X152552031Y-71881111D01*
X152572908Y-71947789D01*
X152554422Y-72015169D01*
X152552031Y-72018889D01*
X152534915Y-72044504D01*
X152534914Y-72044506D01*
X152478343Y-72181082D01*
X152478340Y-72181092D01*
X152449500Y-72326079D01*
X152449500Y-72326082D01*
X152449500Y-72473918D01*
X152449500Y-72473920D01*
X152449499Y-72473920D01*
X152478340Y-72618907D01*
X152478343Y-72618917D01*
X152534912Y-72755488D01*
X152534919Y-72755501D01*
X152617048Y-72878415D01*
X152617051Y-72878419D01*
X152721580Y-72982948D01*
X152721584Y-72982951D01*
X152844498Y-73065080D01*
X152844511Y-73065087D01*
X152980899Y-73121580D01*
X152981087Y-73121658D01*
X152981091Y-73121658D01*
X152981092Y-73121659D01*
X153126079Y-73150500D01*
X153126082Y-73150500D01*
X153273920Y-73150500D01*
X153371462Y-73131096D01*
X153418913Y-73121658D01*
X153555495Y-73065084D01*
X153678416Y-72982951D01*
X153782951Y-72878416D01*
X153865084Y-72755495D01*
X153921658Y-72618913D01*
X153938649Y-72533497D01*
X153950500Y-72473920D01*
X153950500Y-72326079D01*
X153921659Y-72181092D01*
X153921658Y-72181091D01*
X153921658Y-72181087D01*
X153911057Y-72155495D01*
X153865086Y-72044510D01*
X153865084Y-72044505D01*
X153847967Y-72018889D01*
X153827090Y-71952216D01*
X153845573Y-71884835D01*
X153847933Y-71881161D01*
X153865084Y-71855495D01*
X153921658Y-71718913D01*
X153949074Y-71581087D01*
X153950500Y-71573920D01*
X153950500Y-71426079D01*
X153921659Y-71281092D01*
X153921658Y-71281091D01*
X153921658Y-71281087D01*
X153906505Y-71244505D01*
X153865087Y-71144511D01*
X153865080Y-71144498D01*
X153782951Y-71021584D01*
X153782948Y-71021580D01*
X153678419Y-70917051D01*
X153678415Y-70917048D01*
X153555501Y-70834919D01*
X153555488Y-70834912D01*
X153418917Y-70778343D01*
X153418907Y-70778340D01*
X153273920Y-70749500D01*
X153273918Y-70749500D01*
X153126082Y-70749500D01*
X153126080Y-70749500D01*
X152981092Y-70778340D01*
X152981082Y-70778343D01*
X152844511Y-70834912D01*
X152844498Y-70834919D01*
X152721584Y-70917048D01*
X152721580Y-70917051D01*
X152617051Y-71021580D01*
X152617048Y-71021584D01*
X152534919Y-71144498D01*
X152534912Y-71144511D01*
X152478343Y-71281082D01*
X152478340Y-71281092D01*
X152449500Y-71426079D01*
X152449500Y-71426082D01*
X152449500Y-71573918D01*
X152449500Y-71573920D01*
X152449499Y-71573920D01*
X147418689Y-71573920D01*
X147365084Y-71444505D01*
X147365080Y-71444498D01*
X147282951Y-71321584D01*
X147282948Y-71321580D01*
X147178419Y-71217051D01*
X147178415Y-71217048D01*
X147055501Y-71134919D01*
X147055488Y-71134912D01*
X146918917Y-71078343D01*
X146918907Y-71078340D01*
X146773920Y-71049500D01*
X146773918Y-71049500D01*
X146626082Y-71049500D01*
X146626080Y-71049500D01*
X146481092Y-71078340D01*
X146481082Y-71078343D01*
X146344511Y-71134912D01*
X146344498Y-71134919D01*
X146221584Y-71217048D01*
X146221580Y-71217051D01*
X146117051Y-71321580D01*
X146117046Y-71321586D01*
X146103101Y-71342457D01*
X146049489Y-71387261D01*
X145980164Y-71395968D01*
X145917136Y-71365813D01*
X145896899Y-71342457D01*
X145882953Y-71321586D01*
X145882948Y-71321580D01*
X145778419Y-71217051D01*
X145778415Y-71217048D01*
X145655501Y-71134919D01*
X145655488Y-71134912D01*
X145518917Y-71078343D01*
X145518907Y-71078340D01*
X145373920Y-71049500D01*
X145373918Y-71049500D01*
X145226082Y-71049500D01*
X145226080Y-71049500D01*
X145081092Y-71078340D01*
X145081082Y-71078343D01*
X144944511Y-71134912D01*
X144944498Y-71134919D01*
X144821584Y-71217048D01*
X144821580Y-71217051D01*
X144717051Y-71321580D01*
X144717048Y-71321584D01*
X144634919Y-71444498D01*
X144634912Y-71444511D01*
X144578343Y-71581082D01*
X144578340Y-71581092D01*
X144549500Y-71726079D01*
X144549500Y-71726082D01*
X144549500Y-71873918D01*
X144549500Y-71873920D01*
X144549499Y-71873920D01*
X140500500Y-71873920D01*
X140500500Y-70273920D01*
X155749499Y-70273920D01*
X155778340Y-70418907D01*
X155778343Y-70418917D01*
X155834912Y-70555488D01*
X155834919Y-70555501D01*
X155918848Y-70681109D01*
X155939726Y-70747787D01*
X155921241Y-70815167D01*
X155918848Y-70818891D01*
X155834919Y-70944498D01*
X155834912Y-70944511D01*
X155778343Y-71081082D01*
X155778340Y-71081092D01*
X155749500Y-71226079D01*
X155749500Y-71226082D01*
X155749500Y-71373918D01*
X155749500Y-71373920D01*
X155749499Y-71373920D01*
X155778340Y-71518907D01*
X155778343Y-71518917D01*
X155834912Y-71655488D01*
X155834919Y-71655501D01*
X155917048Y-71778415D01*
X155917051Y-71778419D01*
X156021580Y-71882948D01*
X156021584Y-71882951D01*
X156144498Y-71965080D01*
X156144511Y-71965087D01*
X156281082Y-72021656D01*
X156281087Y-72021658D01*
X156281091Y-72021658D01*
X156281092Y-72021659D01*
X156426079Y-72050500D01*
X156426082Y-72050500D01*
X156573920Y-72050500D01*
X156671462Y-72031096D01*
X156718913Y-72021658D01*
X156855495Y-71965084D01*
X156868739Y-71956234D01*
X156935410Y-71935354D01*
X156961815Y-71937716D01*
X157026082Y-71950500D01*
X157173920Y-71950500D01*
X157275528Y-71930288D01*
X157318913Y-71921658D01*
X157455495Y-71865084D01*
X157481110Y-71847967D01*
X157547784Y-71827090D01*
X157601831Y-71838422D01*
X157610732Y-71842517D01*
X157644505Y-71865084D01*
X157781087Y-71921658D01*
X157783985Y-71922234D01*
X157793621Y-71926668D01*
X157813807Y-71944260D01*
X157836208Y-71958934D01*
X157844892Y-71970426D01*
X157917045Y-72078411D01*
X157917051Y-72078419D01*
X158021580Y-72182948D01*
X158021584Y-72182951D01*
X158144498Y-72265080D01*
X158144511Y-72265087D01*
X158281082Y-72321656D01*
X158281087Y-72321658D01*
X158281091Y-72321658D01*
X158281092Y-72321659D01*
X158426079Y-72350500D01*
X158426082Y-72350500D01*
X158573920Y-72350500D01*
X158671462Y-72331096D01*
X158718913Y-72321658D01*
X158855495Y-72265084D01*
X158978416Y-72182951D01*
X159082951Y-72078416D01*
X159165084Y-71955495D01*
X159221658Y-71818913D01*
X159249605Y-71678418D01*
X159250500Y-71673920D01*
X159250500Y-71526079D01*
X159221659Y-71381092D01*
X159221658Y-71381091D01*
X159221658Y-71381087D01*
X159197011Y-71321584D01*
X159165087Y-71244511D01*
X159165080Y-71244498D01*
X159082951Y-71121584D01*
X159082948Y-71121580D01*
X158999049Y-71037681D01*
X158965564Y-70976358D01*
X158970548Y-70906666D01*
X158999049Y-70862319D01*
X159082948Y-70778419D01*
X159082951Y-70778416D01*
X159165084Y-70655495D01*
X159221658Y-70518913D01*
X159250500Y-70373918D01*
X159250500Y-70226082D01*
X159250500Y-70226079D01*
X159221659Y-70081092D01*
X159221658Y-70081091D01*
X159221658Y-70081087D01*
X159218689Y-70073920D01*
X162849499Y-70073920D01*
X162878340Y-70218907D01*
X162878343Y-70218917D01*
X162934912Y-70355488D01*
X162934919Y-70355501D01*
X163017048Y-70478415D01*
X163017051Y-70478419D01*
X163050951Y-70512319D01*
X163084436Y-70573642D01*
X163079452Y-70643334D01*
X163050951Y-70687681D01*
X163017051Y-70721580D01*
X163017048Y-70721584D01*
X162934919Y-70844498D01*
X162934912Y-70844511D01*
X162878343Y-70981082D01*
X162878340Y-70981092D01*
X162849500Y-71126079D01*
X162849500Y-71126082D01*
X162849500Y-71273918D01*
X162849500Y-71273920D01*
X162849499Y-71273920D01*
X162878340Y-71418907D01*
X162878343Y-71418917D01*
X162934912Y-71555488D01*
X162934919Y-71555501D01*
X163017048Y-71678415D01*
X163017051Y-71678419D01*
X163121580Y-71782948D01*
X163121584Y-71782951D01*
X163244498Y-71865080D01*
X163244511Y-71865087D01*
X163381082Y-71921656D01*
X163381087Y-71921658D01*
X163381091Y-71921658D01*
X163381092Y-71921659D01*
X163526079Y-71950500D01*
X163526082Y-71950500D01*
X163673920Y-71950500D01*
X163775528Y-71930288D01*
X163818913Y-71921658D01*
X163955495Y-71865084D01*
X164078416Y-71782951D01*
X164182951Y-71678416D01*
X164196897Y-71657543D01*
X164250509Y-71612738D01*
X164319834Y-71604031D01*
X164382862Y-71634185D01*
X164403103Y-71657544D01*
X164417050Y-71678418D01*
X164521580Y-71782948D01*
X164521584Y-71782951D01*
X164644498Y-71865080D01*
X164644511Y-71865087D01*
X164781082Y-71921656D01*
X164781087Y-71921658D01*
X164781091Y-71921658D01*
X164781092Y-71921659D01*
X164926079Y-71950500D01*
X164926082Y-71950500D01*
X165073920Y-71950500D01*
X165175528Y-71930288D01*
X165218913Y-71921658D01*
X165355495Y-71865084D01*
X165478416Y-71782951D01*
X165582951Y-71678416D01*
X165665084Y-71555495D01*
X165721658Y-71418913D01*
X165732221Y-71365813D01*
X165750500Y-71273920D01*
X165750500Y-71126079D01*
X165721659Y-70981092D01*
X165721658Y-70981091D01*
X165721658Y-70981087D01*
X165715029Y-70965084D01*
X165665087Y-70844511D01*
X165665080Y-70844498D01*
X165582951Y-70721584D01*
X165582948Y-70721580D01*
X165549049Y-70687681D01*
X165515564Y-70626358D01*
X165520548Y-70556666D01*
X165549049Y-70512319D01*
X165582948Y-70478419D01*
X165582951Y-70478416D01*
X165652773Y-70373920D01*
X168549499Y-70373920D01*
X168578340Y-70518907D01*
X168578343Y-70518917D01*
X168634912Y-70655488D01*
X168634919Y-70655501D01*
X168717048Y-70778415D01*
X168717051Y-70778419D01*
X168761163Y-70822531D01*
X168794648Y-70883854D01*
X168789664Y-70953546D01*
X168788045Y-70957660D01*
X168778342Y-70981086D01*
X168778340Y-70981093D01*
X168749500Y-71126079D01*
X168749500Y-71126082D01*
X168749500Y-71273918D01*
X168749500Y-71273920D01*
X168749499Y-71273920D01*
X168778340Y-71418907D01*
X168778343Y-71418917D01*
X168834912Y-71555488D01*
X168834919Y-71555501D01*
X168917048Y-71678415D01*
X168917051Y-71678419D01*
X169021580Y-71782948D01*
X169021584Y-71782951D01*
X169144498Y-71865080D01*
X169144511Y-71865087D01*
X169281082Y-71921656D01*
X169281087Y-71921658D01*
X169281091Y-71921658D01*
X169281092Y-71921659D01*
X169426079Y-71950500D01*
X169426082Y-71950500D01*
X169573920Y-71950500D01*
X169675528Y-71930288D01*
X169718913Y-71921658D01*
X169855495Y-71865084D01*
X169978416Y-71782951D01*
X170082951Y-71678416D01*
X170136320Y-71598543D01*
X171269499Y-71598543D01*
X171307947Y-71791829D01*
X171307950Y-71791839D01*
X171383364Y-71973907D01*
X171383371Y-71973920D01*
X171492860Y-72137781D01*
X171492863Y-72137785D01*
X171632214Y-72277136D01*
X171632218Y-72277139D01*
X171796079Y-72386628D01*
X171796092Y-72386635D01*
X171969524Y-72458472D01*
X171978165Y-72462051D01*
X171978169Y-72462051D01*
X171978170Y-72462052D01*
X172171456Y-72500500D01*
X172891873Y-72500500D01*
X172958912Y-72520185D01*
X173004667Y-72572989D01*
X173014611Y-72642147D01*
X172999260Y-72686500D01*
X172953498Y-72765760D01*
X172953497Y-72765763D01*
X172924500Y-72873982D01*
X172924500Y-72986018D01*
X172953497Y-73094237D01*
X173009515Y-73191263D01*
X173088737Y-73270485D01*
X173185763Y-73326503D01*
X173293982Y-73355500D01*
X173293984Y-73355500D01*
X173406016Y-73355500D01*
X173406018Y-73355500D01*
X173514237Y-73326503D01*
X173611263Y-73270485D01*
X173690485Y-73191263D01*
X173746503Y-73094237D01*
X173775500Y-72986018D01*
X173775500Y-72873982D01*
X173746503Y-72765763D01*
X173690485Y-72668737D01*
X173667168Y-72645420D01*
X173633683Y-72584097D01*
X173638667Y-72514405D01*
X173680539Y-72458472D01*
X173707385Y-72443183D01*
X173843914Y-72386632D01*
X174007782Y-72277139D01*
X174147139Y-72137782D01*
X174256632Y-71973914D01*
X174260290Y-71965084D01*
X174295072Y-71881111D01*
X174332051Y-71791835D01*
X174355506Y-71673920D01*
X174370500Y-71598543D01*
X175699499Y-71598543D01*
X175737947Y-71791829D01*
X175737950Y-71791839D01*
X175813364Y-71973907D01*
X175813371Y-71973920D01*
X175922860Y-72137781D01*
X175922863Y-72137785D01*
X176062214Y-72277136D01*
X176062218Y-72277139D01*
X176226079Y-72386628D01*
X176226092Y-72386635D01*
X176399524Y-72458472D01*
X176408165Y-72462051D01*
X176408169Y-72462051D01*
X176408170Y-72462052D01*
X176601456Y-72500500D01*
X176601459Y-72500500D01*
X177398543Y-72500500D01*
X177532176Y-72473918D01*
X177591835Y-72462051D01*
X177773914Y-72386632D01*
X177937782Y-72277139D01*
X178077139Y-72137782D01*
X178186632Y-71973914D01*
X178190290Y-71965084D01*
X178225072Y-71881111D01*
X178262051Y-71791835D01*
X178285506Y-71673920D01*
X178300500Y-71598543D01*
X178300500Y-71401456D01*
X178262052Y-71208170D01*
X178262051Y-71208169D01*
X178262051Y-71208165D01*
X178235685Y-71144511D01*
X178186635Y-71026092D01*
X178186628Y-71026079D01*
X178077139Y-70862218D01*
X178077136Y-70862214D01*
X177937785Y-70722863D01*
X177937781Y-70722860D01*
X177773920Y-70613371D01*
X177773907Y-70613364D01*
X177591839Y-70537950D01*
X177591829Y-70537947D01*
X177398543Y-70499500D01*
X177398541Y-70499500D01*
X176601459Y-70499500D01*
X176601457Y-70499500D01*
X176408170Y-70537947D01*
X176408160Y-70537950D01*
X176226092Y-70613364D01*
X176226079Y-70613371D01*
X176062218Y-70722860D01*
X176062214Y-70722863D01*
X175922863Y-70862214D01*
X175922860Y-70862218D01*
X175813371Y-71026079D01*
X175813364Y-71026092D01*
X175737950Y-71208160D01*
X175737947Y-71208170D01*
X175699500Y-71401456D01*
X175699500Y-71401459D01*
X175699500Y-71598541D01*
X175699500Y-71598543D01*
X175699499Y-71598543D01*
X174370500Y-71598543D01*
X174370500Y-71401456D01*
X174332052Y-71208170D01*
X174332051Y-71208169D01*
X174332051Y-71208165D01*
X174305685Y-71144511D01*
X174256635Y-71026092D01*
X174256628Y-71026079D01*
X174147139Y-70862218D01*
X174147136Y-70862214D01*
X174007785Y-70722863D01*
X174007781Y-70722860D01*
X173843920Y-70613371D01*
X173843907Y-70613364D01*
X173661839Y-70537950D01*
X173661829Y-70537947D01*
X173468543Y-70499500D01*
X173468541Y-70499500D01*
X172171459Y-70499500D01*
X172171457Y-70499500D01*
X171978170Y-70537947D01*
X171978160Y-70537950D01*
X171796092Y-70613364D01*
X171796079Y-70613371D01*
X171632218Y-70722860D01*
X171632214Y-70722863D01*
X171492863Y-70862214D01*
X171492860Y-70862218D01*
X171383371Y-71026079D01*
X171383364Y-71026092D01*
X171307950Y-71208160D01*
X171307947Y-71208170D01*
X171269500Y-71401456D01*
X171269500Y-71401459D01*
X171269500Y-71598541D01*
X171269500Y-71598543D01*
X171269499Y-71598543D01*
X170136320Y-71598543D01*
X170165084Y-71555495D01*
X170221658Y-71418913D01*
X170230608Y-71373920D01*
X170231154Y-71371176D01*
X170231154Y-71371175D01*
X170250500Y-71273920D01*
X170250500Y-71126082D01*
X170248759Y-71117331D01*
X170254985Y-71047739D01*
X170297846Y-70992560D01*
X170322919Y-70978576D01*
X170355495Y-70965084D01*
X170478416Y-70882951D01*
X170582951Y-70778416D01*
X170665084Y-70655495D01*
X170721658Y-70518913D01*
X170750500Y-70373918D01*
X170750500Y-70226082D01*
X170750500Y-70226079D01*
X170721659Y-70081092D01*
X170721658Y-70081091D01*
X170721658Y-70081087D01*
X170677117Y-69973555D01*
X170665087Y-69944511D01*
X170665080Y-69944498D01*
X170582951Y-69821584D01*
X170582948Y-69821580D01*
X170478419Y-69717051D01*
X170478415Y-69717048D01*
X170355501Y-69634919D01*
X170355488Y-69634912D01*
X170218917Y-69578343D01*
X170218907Y-69578340D01*
X170073920Y-69549500D01*
X170073918Y-69549500D01*
X169926082Y-69549500D01*
X169926080Y-69549500D01*
X169781093Y-69578340D01*
X169781085Y-69578342D01*
X169697452Y-69612984D01*
X169627982Y-69620453D01*
X169602548Y-69612984D01*
X169518914Y-69578342D01*
X169518906Y-69578340D01*
X169373920Y-69549500D01*
X169373918Y-69549500D01*
X169226082Y-69549500D01*
X169226080Y-69549500D01*
X169081092Y-69578340D01*
X169081082Y-69578343D01*
X168944511Y-69634912D01*
X168944498Y-69634919D01*
X168821584Y-69717048D01*
X168821580Y-69717051D01*
X168717051Y-69821580D01*
X168717048Y-69821584D01*
X168634919Y-69944498D01*
X168634912Y-69944511D01*
X168578343Y-70081082D01*
X168578340Y-70081092D01*
X168549500Y-70226079D01*
X168549500Y-70226082D01*
X168549500Y-70373918D01*
X168549500Y-70373920D01*
X168549499Y-70373920D01*
X165652773Y-70373920D01*
X165665084Y-70355495D01*
X165721658Y-70218913D01*
X165749074Y-70081087D01*
X165750500Y-70073920D01*
X165750500Y-69926079D01*
X165721659Y-69781092D01*
X165721658Y-69781091D01*
X165721658Y-69781087D01*
X165711060Y-69755501D01*
X165665087Y-69644511D01*
X165665080Y-69644498D01*
X165582951Y-69521584D01*
X165582948Y-69521580D01*
X165478419Y-69417051D01*
X165478415Y-69417048D01*
X165374150Y-69347380D01*
X165329345Y-69293768D01*
X165320638Y-69224443D01*
X165321424Y-69220085D01*
X165321656Y-69218916D01*
X165321658Y-69218913D01*
X165350500Y-69073918D01*
X165350500Y-68926082D01*
X165350500Y-68926079D01*
X165321659Y-68781092D01*
X165321658Y-68781091D01*
X165321658Y-68781087D01*
X165321656Y-68781082D01*
X165265087Y-68644511D01*
X165265080Y-68644498D01*
X165182951Y-68521584D01*
X165182948Y-68521580D01*
X165078419Y-68417051D01*
X165078415Y-68417048D01*
X164955501Y-68334919D01*
X164955488Y-68334912D01*
X164818917Y-68278343D01*
X164818907Y-68278340D01*
X164673920Y-68249500D01*
X164673918Y-68249500D01*
X164526082Y-68249500D01*
X164526080Y-68249500D01*
X164381092Y-68278340D01*
X164381082Y-68278343D01*
X164244511Y-68334912D01*
X164244498Y-68334919D01*
X164121584Y-68417048D01*
X164121580Y-68417051D01*
X164017051Y-68521580D01*
X164017048Y-68521584D01*
X163934919Y-68644498D01*
X163934912Y-68644511D01*
X163878343Y-68781082D01*
X163878340Y-68781092D01*
X163849500Y-68926079D01*
X163849500Y-69073922D01*
X163856892Y-69111084D01*
X163850665Y-69180676D01*
X163807802Y-69235853D01*
X163741912Y-69259097D01*
X163711084Y-69256892D01*
X163673922Y-69249500D01*
X163673918Y-69249500D01*
X163526082Y-69249500D01*
X163526080Y-69249500D01*
X163381092Y-69278340D01*
X163381082Y-69278343D01*
X163244511Y-69334912D01*
X163244498Y-69334919D01*
X163121584Y-69417048D01*
X163121580Y-69417051D01*
X163017051Y-69521580D01*
X163017048Y-69521584D01*
X162934919Y-69644498D01*
X162934912Y-69644511D01*
X162878343Y-69781082D01*
X162878340Y-69781092D01*
X162849500Y-69926079D01*
X162849500Y-69926082D01*
X162849500Y-70073918D01*
X162849500Y-70073920D01*
X162849499Y-70073920D01*
X159218689Y-70073920D01*
X159180385Y-69981446D01*
X159179537Y-69973555D01*
X159175364Y-69966799D01*
X159175855Y-69939310D01*
X159172917Y-69911980D01*
X159176502Y-69903099D01*
X159176613Y-69896940D01*
X159191846Y-69865103D01*
X159201205Y-69851097D01*
X159201205Y-69851096D01*
X159265084Y-69755495D01*
X159321658Y-69618913D01*
X159334162Y-69556054D01*
X159350500Y-69473920D01*
X159350500Y-69326079D01*
X159321659Y-69181092D01*
X159321658Y-69181091D01*
X159321658Y-69181087D01*
X159277268Y-69073919D01*
X159265087Y-69044511D01*
X159265079Y-69044497D01*
X159248134Y-69019137D01*
X159227255Y-68952460D01*
X159245739Y-68885080D01*
X159282341Y-68847146D01*
X159378416Y-68782951D01*
X159482951Y-68678416D01*
X159565084Y-68555495D01*
X159621658Y-68418913D01*
X159638366Y-68334919D01*
X159650500Y-68273920D01*
X159650500Y-68126079D01*
X159621659Y-67981092D01*
X159621658Y-67981091D01*
X159621658Y-67981087D01*
X159577268Y-67873920D01*
X168649499Y-67873920D01*
X168678340Y-68018907D01*
X168678343Y-68018917D01*
X168734912Y-68155488D01*
X168734919Y-68155501D01*
X168817048Y-68278415D01*
X168817051Y-68278419D01*
X168921580Y-68382948D01*
X168921584Y-68382951D01*
X169044498Y-68465080D01*
X169044511Y-68465087D01*
X169180899Y-68521580D01*
X169181087Y-68521658D01*
X169181091Y-68521658D01*
X169181092Y-68521659D01*
X169326079Y-68550500D01*
X169326082Y-68550500D01*
X169473920Y-68550500D01*
X169571462Y-68531096D01*
X169618913Y-68521658D01*
X169755495Y-68465084D01*
X169878416Y-68382951D01*
X169982951Y-68278416D01*
X170065084Y-68155495D01*
X170111227Y-68044094D01*
X170155067Y-67989691D01*
X170221361Y-67967626D01*
X170273237Y-67976985D01*
X170381087Y-68021658D01*
X170381091Y-68021658D01*
X170381092Y-68021659D01*
X170526079Y-68050500D01*
X170526082Y-68050500D01*
X170673920Y-68050500D01*
X170771462Y-68031096D01*
X170818913Y-68021658D01*
X170955495Y-67965084D01*
X171078416Y-67882951D01*
X171182951Y-67778416D01*
X171265084Y-67655495D01*
X171321658Y-67518913D01*
X171334275Y-67455487D01*
X171350500Y-67373920D01*
X171350500Y-67226079D01*
X171340124Y-67173919D01*
X175049499Y-67173919D01*
X175078340Y-67318906D01*
X175078343Y-67318916D01*
X175134912Y-67455487D01*
X175134919Y-67455500D01*
X175217048Y-67578414D01*
X175217051Y-67578418D01*
X175321580Y-67682947D01*
X175321584Y-67682950D01*
X175444498Y-67765079D01*
X175444511Y-67765086D01*
X175581082Y-67821655D01*
X175581087Y-67821657D01*
X175581091Y-67821657D01*
X175581092Y-67821658D01*
X175726079Y-67850499D01*
X175726082Y-67850499D01*
X175873920Y-67850499D01*
X175971462Y-67831095D01*
X176018913Y-67821657D01*
X176155495Y-67765083D01*
X176278416Y-67682950D01*
X176382951Y-67578415D01*
X176465084Y-67455494D01*
X176521658Y-67318912D01*
X176531096Y-67271461D01*
X176550500Y-67173919D01*
X176550500Y-67026078D01*
X176521659Y-66881091D01*
X176521658Y-66881090D01*
X176521658Y-66881086D01*
X176503818Y-66838017D01*
X176465087Y-66744510D01*
X176465080Y-66744497D01*
X176382951Y-66621583D01*
X176382948Y-66621579D01*
X176278416Y-66517047D01*
X176155501Y-66434918D01*
X176155488Y-66434911D01*
X176137656Y-66427525D01*
X176949500Y-66427525D01*
X176949500Y-66572475D01*
X176987016Y-66712485D01*
X176987017Y-66712488D01*
X177059488Y-66838011D01*
X177059490Y-66838013D01*
X177059491Y-66838015D01*
X177161985Y-66940509D01*
X177161986Y-66940510D01*
X177161988Y-66940511D01*
X177287511Y-67012982D01*
X177287512Y-67012982D01*
X177287515Y-67012984D01*
X177427525Y-67050500D01*
X177427528Y-67050500D01*
X177572472Y-67050500D01*
X177572475Y-67050500D01*
X177712485Y-67012984D01*
X177838015Y-66940509D01*
X177940509Y-66838015D01*
X178012984Y-66712485D01*
X178050500Y-66572475D01*
X178050500Y-66427525D01*
X178012984Y-66287515D01*
X177972301Y-66217051D01*
X177940511Y-66161988D01*
X177940506Y-66161982D01*
X177838017Y-66059493D01*
X177838011Y-66059488D01*
X177712488Y-65987017D01*
X177712489Y-65987017D01*
X177701006Y-65983940D01*
X177572475Y-65949500D01*
X177427525Y-65949500D01*
X177298993Y-65983940D01*
X177287511Y-65987017D01*
X177161988Y-66059488D01*
X177161982Y-66059493D01*
X177059493Y-66161982D01*
X177059488Y-66161988D01*
X176987017Y-66287511D01*
X176987016Y-66287515D01*
X176949500Y-66427525D01*
X176137656Y-66427525D01*
X176018917Y-66378342D01*
X176018907Y-66378339D01*
X175873920Y-66349499D01*
X175873918Y-66349499D01*
X175726082Y-66349499D01*
X175726080Y-66349499D01*
X175581092Y-66378339D01*
X175581082Y-66378342D01*
X175444511Y-66434911D01*
X175444498Y-66434918D01*
X175321584Y-66517047D01*
X175321580Y-66517050D01*
X175217051Y-66621579D01*
X175217048Y-66621583D01*
X175134919Y-66744497D01*
X175134912Y-66744510D01*
X175078343Y-66881081D01*
X175078340Y-66881091D01*
X175049500Y-67026078D01*
X175049500Y-67026081D01*
X175049500Y-67173917D01*
X175049500Y-67173919D01*
X175049499Y-67173919D01*
X171340124Y-67173919D01*
X171321659Y-67081092D01*
X171321658Y-67081091D01*
X171321658Y-67081087D01*
X171316006Y-67067441D01*
X171265087Y-66944511D01*
X171265080Y-66944498D01*
X171182951Y-66821584D01*
X171182948Y-66821580D01*
X171078419Y-66717051D01*
X171078415Y-66717048D01*
X170955501Y-66634919D01*
X170955488Y-66634912D01*
X170818917Y-66578343D01*
X170818907Y-66578340D01*
X170673920Y-66549500D01*
X170673918Y-66549500D01*
X170526082Y-66549500D01*
X170526081Y-66549500D01*
X170517321Y-66551242D01*
X170447730Y-66545010D01*
X170392555Y-66502145D01*
X170378574Y-66477074D01*
X170365086Y-66444511D01*
X170365084Y-66444505D01*
X170353738Y-66427525D01*
X170282954Y-66321588D01*
X170282948Y-66321580D01*
X170178419Y-66217051D01*
X170178415Y-66217048D01*
X170055501Y-66134919D01*
X170055488Y-66134912D01*
X169918917Y-66078343D01*
X169918907Y-66078340D01*
X169773920Y-66049500D01*
X169773918Y-66049500D01*
X169626082Y-66049500D01*
X169626080Y-66049500D01*
X169481092Y-66078340D01*
X169481082Y-66078343D01*
X169344511Y-66134912D01*
X169344498Y-66134919D01*
X169221584Y-66217048D01*
X169221580Y-66217051D01*
X169117051Y-66321580D01*
X169117048Y-66321584D01*
X169034919Y-66444498D01*
X169034912Y-66444511D01*
X168978343Y-66581082D01*
X168978340Y-66581092D01*
X168949500Y-66726079D01*
X168949500Y-66726082D01*
X168949500Y-66873918D01*
X168949500Y-66873920D01*
X168949499Y-66873920D01*
X168978340Y-67018907D01*
X168978342Y-67018912D01*
X168991375Y-67050378D01*
X168998842Y-67119847D01*
X168967567Y-67182326D01*
X168945707Y-67200929D01*
X168921585Y-67217047D01*
X168921580Y-67217051D01*
X168817051Y-67321580D01*
X168817048Y-67321584D01*
X168734919Y-67444498D01*
X168734912Y-67444511D01*
X168678343Y-67581082D01*
X168678340Y-67581092D01*
X168649500Y-67726079D01*
X168649500Y-67726082D01*
X168649500Y-67873918D01*
X168649500Y-67873920D01*
X168649499Y-67873920D01*
X159577268Y-67873920D01*
X159565087Y-67844511D01*
X159565080Y-67844498D01*
X159527918Y-67788881D01*
X159482951Y-67721584D01*
X159482948Y-67721580D01*
X159378419Y-67617051D01*
X159378415Y-67617048D01*
X159255501Y-67534919D01*
X159255488Y-67534912D01*
X159118917Y-67478343D01*
X159118907Y-67478340D01*
X158973920Y-67449500D01*
X158973918Y-67449500D01*
X158826082Y-67449500D01*
X158826080Y-67449500D01*
X158681092Y-67478340D01*
X158681082Y-67478343D01*
X158544511Y-67534912D01*
X158544498Y-67534919D01*
X158421584Y-67617048D01*
X158421580Y-67617051D01*
X158317051Y-67721580D01*
X158317048Y-67721584D01*
X158234919Y-67844498D01*
X158234912Y-67844511D01*
X158178343Y-67981082D01*
X158178340Y-67981092D01*
X158149500Y-68126079D01*
X158149500Y-68126082D01*
X158149500Y-68273918D01*
X158149500Y-68273920D01*
X158149499Y-68273920D01*
X158178340Y-68418907D01*
X158178343Y-68418917D01*
X158234912Y-68555488D01*
X158234919Y-68555500D01*
X158251866Y-68580863D01*
X158272744Y-68647540D01*
X158254260Y-68714920D01*
X158217655Y-68752856D01*
X158121584Y-68817048D01*
X158121580Y-68817051D01*
X158017051Y-68921580D01*
X158017048Y-68921584D01*
X157934919Y-69044498D01*
X157934912Y-69044511D01*
X157878343Y-69181082D01*
X157878340Y-69181092D01*
X157849499Y-69326079D01*
X157848903Y-69332142D01*
X157846192Y-69331875D01*
X157829815Y-69387651D01*
X157813181Y-69408293D01*
X157605934Y-69615539D01*
X157544611Y-69649024D01*
X157474919Y-69644040D01*
X157459804Y-69637218D01*
X157455498Y-69634916D01*
X157318917Y-69578343D01*
X157318907Y-69578340D01*
X157173920Y-69549500D01*
X157173918Y-69549500D01*
X157026082Y-69549500D01*
X156961822Y-69562281D01*
X156892231Y-69556054D01*
X156868744Y-69543768D01*
X156855501Y-69534920D01*
X156855500Y-69534919D01*
X156855495Y-69534916D01*
X156855492Y-69534915D01*
X156855491Y-69534914D01*
X156718913Y-69478342D01*
X156718907Y-69478340D01*
X156573920Y-69449500D01*
X156573918Y-69449500D01*
X156426082Y-69449500D01*
X156426080Y-69449500D01*
X156281092Y-69478340D01*
X156281082Y-69478343D01*
X156144511Y-69534912D01*
X156144498Y-69534919D01*
X156021584Y-69617048D01*
X156021580Y-69617051D01*
X155917051Y-69721580D01*
X155917048Y-69721584D01*
X155834919Y-69844498D01*
X155834912Y-69844511D01*
X155778343Y-69981082D01*
X155778340Y-69981092D01*
X155749500Y-70126079D01*
X155749500Y-70126082D01*
X155749500Y-70273918D01*
X155749500Y-70273920D01*
X155749499Y-70273920D01*
X140500500Y-70273920D01*
X140500500Y-68273920D01*
X155749499Y-68273920D01*
X155778340Y-68418907D01*
X155778343Y-68418917D01*
X155834912Y-68555488D01*
X155834919Y-68555501D01*
X155917048Y-68678415D01*
X155917051Y-68678419D01*
X156021580Y-68782948D01*
X156021584Y-68782951D01*
X156144498Y-68865080D01*
X156144511Y-68865087D01*
X156280899Y-68921580D01*
X156281087Y-68921658D01*
X156281091Y-68921658D01*
X156281092Y-68921659D01*
X156426079Y-68950500D01*
X156426082Y-68950500D01*
X156573920Y-68950500D01*
X156671462Y-68931096D01*
X156718913Y-68921658D01*
X156855495Y-68865084D01*
X156978416Y-68782951D01*
X157082951Y-68678416D01*
X157165084Y-68555495D01*
X157221658Y-68418913D01*
X157238366Y-68334919D01*
X157250500Y-68273920D01*
X157250500Y-68126079D01*
X157221659Y-67981092D01*
X157221658Y-67981091D01*
X157221658Y-67981087D01*
X157177268Y-67873920D01*
X157165087Y-67844511D01*
X157165080Y-67844498D01*
X157082951Y-67721584D01*
X157082948Y-67721580D01*
X156978419Y-67617051D01*
X156978415Y-67617048D01*
X156855501Y-67534919D01*
X156855488Y-67534912D01*
X156718917Y-67478343D01*
X156718907Y-67478340D01*
X156573920Y-67449500D01*
X156573918Y-67449500D01*
X156426082Y-67449500D01*
X156426080Y-67449500D01*
X156281092Y-67478340D01*
X156281082Y-67478343D01*
X156144511Y-67534912D01*
X156144498Y-67534919D01*
X156021584Y-67617048D01*
X156021580Y-67617051D01*
X155917051Y-67721580D01*
X155917048Y-67721584D01*
X155834919Y-67844498D01*
X155834912Y-67844511D01*
X155778343Y-67981082D01*
X155778340Y-67981092D01*
X155749500Y-68126079D01*
X155749500Y-68126082D01*
X155749500Y-68273918D01*
X155749500Y-68273920D01*
X155749499Y-68273920D01*
X140500500Y-68273920D01*
X140500500Y-65373920D01*
X175049499Y-65373920D01*
X175078340Y-65518907D01*
X175078343Y-65518917D01*
X175134912Y-65655488D01*
X175134919Y-65655501D01*
X175217048Y-65778415D01*
X175217051Y-65778419D01*
X175321580Y-65882948D01*
X175321584Y-65882951D01*
X175444498Y-65965080D01*
X175444511Y-65965087D01*
X175581082Y-66021656D01*
X175581087Y-66021658D01*
X175581091Y-66021658D01*
X175581092Y-66021659D01*
X175726079Y-66050500D01*
X175726082Y-66050500D01*
X175873920Y-66050500D01*
X175971462Y-66031096D01*
X176018913Y-66021658D01*
X176155495Y-65965084D01*
X176278416Y-65882951D01*
X176382951Y-65778416D01*
X176465084Y-65655495D01*
X176521658Y-65518913D01*
X176550500Y-65373918D01*
X176550500Y-65226082D01*
X176550500Y-65226079D01*
X176521659Y-65081092D01*
X176521658Y-65081091D01*
X176521658Y-65081087D01*
X176521656Y-65081082D01*
X176465087Y-64944511D01*
X176465080Y-64944498D01*
X176382951Y-64821584D01*
X176382948Y-64821580D01*
X176278419Y-64717051D01*
X176278415Y-64717048D01*
X176155501Y-64634919D01*
X176155488Y-64634912D01*
X176018917Y-64578343D01*
X176018907Y-64578340D01*
X175873920Y-64549500D01*
X175873918Y-64549500D01*
X175726082Y-64549500D01*
X175726080Y-64549500D01*
X175581092Y-64578340D01*
X175581082Y-64578343D01*
X175444511Y-64634912D01*
X175444498Y-64634919D01*
X175321584Y-64717048D01*
X175321580Y-64717051D01*
X175217051Y-64821580D01*
X175217048Y-64821584D01*
X175134919Y-64944498D01*
X175134912Y-64944511D01*
X175078343Y-65081082D01*
X175078340Y-65081092D01*
X175049500Y-65226079D01*
X175049500Y-65226082D01*
X175049500Y-65373918D01*
X175049500Y-65373920D01*
X175049499Y-65373920D01*
X140500500Y-65373920D01*
X140500500Y-57353713D01*
X161149500Y-57353713D01*
X161149500Y-57566286D01*
X161182753Y-57776239D01*
X161248444Y-57978414D01*
X161344951Y-58167820D01*
X161469890Y-58339786D01*
X161620213Y-58490109D01*
X161792182Y-58615050D01*
X161800946Y-58619516D01*
X161851742Y-58667491D01*
X161868536Y-58735312D01*
X161845998Y-58801447D01*
X161800946Y-58840484D01*
X161792182Y-58844949D01*
X161620213Y-58969890D01*
X161469890Y-59120213D01*
X161344951Y-59292179D01*
X161248444Y-59481585D01*
X161182753Y-59683760D01*
X161149500Y-59893713D01*
X161149500Y-60106286D01*
X161182753Y-60316239D01*
X161248444Y-60518414D01*
X161344951Y-60707820D01*
X161469890Y-60879786D01*
X161620213Y-61030109D01*
X161792182Y-61155050D01*
X161800946Y-61159516D01*
X161851742Y-61207491D01*
X161868536Y-61275312D01*
X161845998Y-61341447D01*
X161800946Y-61380484D01*
X161792182Y-61384949D01*
X161620213Y-61509890D01*
X161469890Y-61660213D01*
X161344951Y-61832179D01*
X161248444Y-62021585D01*
X161182753Y-62223760D01*
X161149500Y-62433713D01*
X161149500Y-62646287D01*
X161182754Y-62856243D01*
X161225245Y-62987017D01*
X161248444Y-63058414D01*
X161344951Y-63247820D01*
X161469890Y-63419786D01*
X161620213Y-63570109D01*
X161792179Y-63695048D01*
X161792181Y-63695049D01*
X161792184Y-63695051D01*
X161981588Y-63791557D01*
X162183757Y-63857246D01*
X162393713Y-63890500D01*
X162393714Y-63890500D01*
X162606286Y-63890500D01*
X162606287Y-63890500D01*
X162816243Y-63857246D01*
X163018412Y-63791557D01*
X163207816Y-63695051D01*
X163376529Y-63572475D01*
X163379786Y-63570109D01*
X163379788Y-63570106D01*
X163379792Y-63570104D01*
X163522371Y-63427525D01*
X176949500Y-63427525D01*
X176949500Y-63572475D01*
X176982344Y-63695048D01*
X176987017Y-63712488D01*
X177059488Y-63838011D01*
X177059490Y-63838013D01*
X177059491Y-63838015D01*
X177161985Y-63940509D01*
X177161986Y-63940510D01*
X177161988Y-63940511D01*
X177287511Y-64012982D01*
X177287512Y-64012982D01*
X177287515Y-64012984D01*
X177427525Y-64050500D01*
X177427528Y-64050500D01*
X177572472Y-64050500D01*
X177572475Y-64050500D01*
X177712485Y-64012984D01*
X177838015Y-63940509D01*
X177940509Y-63838015D01*
X178012984Y-63712485D01*
X178050500Y-63572475D01*
X178050500Y-63427525D01*
X178012984Y-63287515D01*
X177940509Y-63161985D01*
X177838015Y-63059491D01*
X177838013Y-63059490D01*
X177838011Y-63059488D01*
X177712488Y-62987017D01*
X177712489Y-62987017D01*
X177701006Y-62983940D01*
X177572475Y-62949500D01*
X177427525Y-62949500D01*
X177298993Y-62983940D01*
X177287511Y-62987017D01*
X177161988Y-63059488D01*
X177161982Y-63059493D01*
X177059493Y-63161982D01*
X177059488Y-63161988D01*
X176987017Y-63287511D01*
X176987016Y-63287515D01*
X176949500Y-63427525D01*
X163522371Y-63427525D01*
X163530104Y-63419792D01*
X163655051Y-63247816D01*
X163751557Y-63058412D01*
X163817246Y-62856243D01*
X163850500Y-62646287D01*
X163850500Y-62433713D01*
X163817246Y-62223757D01*
X163751557Y-62021588D01*
X163655051Y-61832184D01*
X163655049Y-61832181D01*
X163655048Y-61832179D01*
X163530109Y-61660213D01*
X163379786Y-61509890D01*
X163207820Y-61384951D01*
X163207115Y-61384591D01*
X163199054Y-61380485D01*
X163148259Y-61332512D01*
X163131463Y-61264692D01*
X163153999Y-61198556D01*
X163199054Y-61159515D01*
X163207816Y-61155051D01*
X163229789Y-61139086D01*
X163379786Y-61030109D01*
X163379788Y-61030106D01*
X163379792Y-61030104D01*
X163530104Y-60879792D01*
X163530106Y-60879788D01*
X163530109Y-60879786D01*
X163655048Y-60707820D01*
X163655047Y-60707820D01*
X163655051Y-60707816D01*
X163751557Y-60518412D01*
X163817246Y-60316243D01*
X163850500Y-60106287D01*
X163850500Y-59893713D01*
X163817246Y-59683757D01*
X163751557Y-59481588D01*
X163655051Y-59292184D01*
X163655049Y-59292181D01*
X163655048Y-59292179D01*
X163530109Y-59120213D01*
X163379786Y-58969890D01*
X163207820Y-58844951D01*
X163207115Y-58844591D01*
X163199054Y-58840485D01*
X163148259Y-58792512D01*
X163131463Y-58724692D01*
X163153999Y-58658556D01*
X163199054Y-58619515D01*
X163207816Y-58615051D01*
X163229789Y-58599086D01*
X163379786Y-58490109D01*
X163379788Y-58490106D01*
X163379792Y-58490104D01*
X163530104Y-58339792D01*
X163530106Y-58339788D01*
X163530109Y-58339786D01*
X163655048Y-58167820D01*
X163655047Y-58167820D01*
X163655051Y-58167816D01*
X163751557Y-57978412D01*
X163817246Y-57776243D01*
X163850500Y-57566287D01*
X163850500Y-57353713D01*
X163817246Y-57143757D01*
X163751557Y-56941588D01*
X163655051Y-56752184D01*
X163655049Y-56752181D01*
X163655048Y-56752179D01*
X163530109Y-56580213D01*
X163416181Y-56466285D01*
X163382696Y-56404962D01*
X163387680Y-56335270D01*
X163429552Y-56279337D01*
X163460529Y-56262422D01*
X163592086Y-56213354D01*
X163592093Y-56213350D01*
X163707187Y-56127190D01*
X163707190Y-56127187D01*
X163793350Y-56012093D01*
X163793354Y-56012086D01*
X163843596Y-55877379D01*
X163843598Y-55877372D01*
X163849999Y-55817844D01*
X163850000Y-55817827D01*
X163850000Y-55170000D01*
X162933012Y-55170000D01*
X162965925Y-55112993D01*
X163000000Y-54985826D01*
X163000000Y-54854174D01*
X162992178Y-54824983D01*
X173899500Y-54824983D01*
X173899500Y-56175001D01*
X173899501Y-56175018D01*
X173910000Y-56277796D01*
X173910001Y-56277799D01*
X173965185Y-56444331D01*
X173965187Y-56444336D01*
X173988870Y-56482732D01*
X174057288Y-56593656D01*
X174181344Y-56717712D01*
X174330666Y-56809814D01*
X174497203Y-56864999D01*
X174599991Y-56875500D01*
X175400008Y-56875499D01*
X175400016Y-56875498D01*
X175400019Y-56875498D01*
X175456302Y-56869748D01*
X175502797Y-56864999D01*
X175669334Y-56809814D01*
X175818656Y-56717712D01*
X175942712Y-56593656D01*
X175982310Y-56529456D01*
X176034258Y-56482732D01*
X176103220Y-56471509D01*
X176167303Y-56499352D01*
X176175530Y-56506872D01*
X176283072Y-56614414D01*
X176423212Y-56716232D01*
X176577555Y-56794873D01*
X176742299Y-56848402D01*
X176913389Y-56875500D01*
X176913390Y-56875500D01*
X177086610Y-56875500D01*
X177086611Y-56875500D01*
X177257701Y-56848402D01*
X177422445Y-56794873D01*
X177576788Y-56716232D01*
X177716928Y-56614414D01*
X177839414Y-56491928D01*
X177941232Y-56351788D01*
X178019873Y-56197445D01*
X178073402Y-56032701D01*
X178100500Y-55861611D01*
X178100500Y-55138389D01*
X178073402Y-54967299D01*
X178019873Y-54802555D01*
X177941232Y-54648212D01*
X177839414Y-54508072D01*
X177716928Y-54385586D01*
X177576788Y-54283768D01*
X177422445Y-54205127D01*
X177257701Y-54151598D01*
X177257699Y-54151597D01*
X177257698Y-54151597D01*
X177126271Y-54130781D01*
X177086611Y-54124500D01*
X176913389Y-54124500D01*
X176873728Y-54130781D01*
X176742302Y-54151597D01*
X176577552Y-54205128D01*
X176423211Y-54283768D01*
X176283073Y-54385585D01*
X176175530Y-54493128D01*
X176114207Y-54526612D01*
X176044515Y-54521628D01*
X175988582Y-54479756D01*
X175982310Y-54470543D01*
X175942712Y-54406344D01*
X175818656Y-54282288D01*
X175693559Y-54205128D01*
X175669336Y-54190187D01*
X175669331Y-54190185D01*
X175667862Y-54189698D01*
X175502797Y-54135001D01*
X175502795Y-54135000D01*
X175400010Y-54124500D01*
X174599998Y-54124500D01*
X174599980Y-54124501D01*
X174497203Y-54135000D01*
X174497200Y-54135001D01*
X174330668Y-54190185D01*
X174330663Y-54190187D01*
X174181342Y-54282289D01*
X174057289Y-54406342D01*
X173965187Y-54555663D01*
X173965186Y-54555666D01*
X173910001Y-54722203D01*
X173910001Y-54722204D01*
X173910000Y-54722204D01*
X173899500Y-54824983D01*
X162992178Y-54824983D01*
X162965925Y-54727007D01*
X162933012Y-54670000D01*
X163850000Y-54670000D01*
X163850000Y-54022172D01*
X163849999Y-54022155D01*
X163843598Y-53962627D01*
X163843596Y-53962620D01*
X163793354Y-53827913D01*
X163793350Y-53827906D01*
X163707190Y-53712812D01*
X163707187Y-53712809D01*
X163592093Y-53626649D01*
X163592086Y-53626645D01*
X163457379Y-53576403D01*
X163457372Y-53576401D01*
X163397844Y-53570000D01*
X162750000Y-53570000D01*
X162750000Y-54486988D01*
X162692993Y-54454075D01*
X162565826Y-54420000D01*
X162434174Y-54420000D01*
X162307007Y-54454075D01*
X162250000Y-54486988D01*
X162250000Y-53570000D01*
X161602155Y-53570000D01*
X161542627Y-53576401D01*
X161542620Y-53576403D01*
X161407913Y-53626645D01*
X161407906Y-53626649D01*
X161292812Y-53712809D01*
X161292809Y-53712812D01*
X161206649Y-53827906D01*
X161206645Y-53827913D01*
X161156403Y-53962620D01*
X161156401Y-53962627D01*
X161150000Y-54022155D01*
X161150000Y-54670000D01*
X162066988Y-54670000D01*
X162034075Y-54727007D01*
X162000000Y-54854174D01*
X162000000Y-54985826D01*
X162034075Y-55112993D01*
X162066988Y-55170000D01*
X161150000Y-55170000D01*
X161150000Y-55817844D01*
X161156401Y-55877372D01*
X161156403Y-55877379D01*
X161206645Y-56012086D01*
X161206649Y-56012093D01*
X161292809Y-56127187D01*
X161292812Y-56127190D01*
X161407906Y-56213350D01*
X161407913Y-56213354D01*
X161539470Y-56262422D01*
X161595404Y-56304293D01*
X161619821Y-56369758D01*
X161604969Y-56438031D01*
X161583819Y-56466285D01*
X161469889Y-56580215D01*
X161344951Y-56752179D01*
X161248444Y-56941585D01*
X161182753Y-57143760D01*
X161149500Y-57353713D01*
X140500500Y-57353713D01*
X140500500Y-52624500D01*
X140520185Y-52557461D01*
X140572989Y-52511706D01*
X140624500Y-52500500D01*
X180375500Y-52500500D01*
X180442539Y-52520185D01*
G37*
%TD.AperFunction*%
%TD*%
M02*
