%TF.GenerationSoftware,KiCad,Pcbnew,9.0.7*%
%TF.CreationDate,2026-07-10T19:39:02+01:00*%
%TF.ProjectId,rocket flight computer v1.0,726f636b-6574-4206-966c-696768742063,rev?*%
%TF.SameCoordinates,Original*%
%TF.FileFunction,Legend,Top*%
%TF.FilePolarity,Positive*%
%FSLAX46Y46*%
G04 Gerber Fmt 4.6, Leading zero omitted, Abs format (unit mm)*
G04 Created by KiCad (PCBNEW 9.0.7) date 2026-07-10 19:39:02*
%MOMM*%
%LPD*%
G01*
G04 APERTURE LIST*
%ADD10C,0.187500*%
%ADD11C,0.300000*%
%ADD12C,0.150000*%
%ADD13C,0.120000*%
%ADD14C,0.100000*%
G04 APERTURE END LIST*
D10*
X141801926Y-111806678D02*
X141801926Y-110306678D01*
X141801926Y-110878107D02*
X141873355Y-110806678D01*
X141873355Y-110806678D02*
X142016212Y-110806678D01*
X142016212Y-110806678D02*
X142087640Y-110878107D01*
X142087640Y-110878107D02*
X142123355Y-110949535D01*
X142123355Y-110949535D02*
X142159069Y-111092392D01*
X142159069Y-111092392D02*
X142159069Y-111520964D01*
X142159069Y-111520964D02*
X142123355Y-111663821D01*
X142123355Y-111663821D02*
X142087640Y-111735250D01*
X142087640Y-111735250D02*
X142016212Y-111806678D01*
X142016212Y-111806678D02*
X141873355Y-111806678D01*
X141873355Y-111806678D02*
X141801926Y-111735250D01*
X142409068Y-110806678D02*
X142587640Y-111806678D01*
X142766211Y-110806678D02*
X142587640Y-111806678D01*
X142587640Y-111806678D02*
X142516211Y-112163821D01*
X142516211Y-112163821D02*
X142480497Y-112235250D01*
X142480497Y-112235250D02*
X142409068Y-112306678D01*
X143730498Y-111806678D02*
X143659069Y-111735250D01*
X143659069Y-111735250D02*
X143623355Y-111592392D01*
X143623355Y-111592392D02*
X143623355Y-110306678D01*
X144301926Y-111735250D02*
X144230498Y-111806678D01*
X144230498Y-111806678D02*
X144087641Y-111806678D01*
X144087641Y-111806678D02*
X144016212Y-111735250D01*
X144016212Y-111735250D02*
X143980498Y-111592392D01*
X143980498Y-111592392D02*
X143980498Y-111020964D01*
X143980498Y-111020964D02*
X144016212Y-110878107D01*
X144016212Y-110878107D02*
X144087641Y-110806678D01*
X144087641Y-110806678D02*
X144230498Y-110806678D01*
X144230498Y-110806678D02*
X144301926Y-110878107D01*
X144301926Y-110878107D02*
X144337641Y-111020964D01*
X144337641Y-111020964D02*
X144337641Y-111163821D01*
X144337641Y-111163821D02*
X143980498Y-111306678D01*
X144659069Y-111806678D02*
X144659069Y-110806678D01*
X144659069Y-110306678D02*
X144623355Y-110378107D01*
X144623355Y-110378107D02*
X144659069Y-110449535D01*
X144659069Y-110449535D02*
X144694783Y-110378107D01*
X144694783Y-110378107D02*
X144659069Y-110306678D01*
X144659069Y-110306678D02*
X144659069Y-110449535D01*
X145337641Y-110806678D02*
X145337641Y-112020964D01*
X145337641Y-112020964D02*
X145301926Y-112163821D01*
X145301926Y-112163821D02*
X145266212Y-112235250D01*
X145266212Y-112235250D02*
X145194783Y-112306678D01*
X145194783Y-112306678D02*
X145087641Y-112306678D01*
X145087641Y-112306678D02*
X145016212Y-112235250D01*
X145337641Y-111735250D02*
X145266212Y-111806678D01*
X145266212Y-111806678D02*
X145123355Y-111806678D01*
X145123355Y-111806678D02*
X145051926Y-111735250D01*
X145051926Y-111735250D02*
X145016212Y-111663821D01*
X145016212Y-111663821D02*
X144980498Y-111520964D01*
X144980498Y-111520964D02*
X144980498Y-111092392D01*
X144980498Y-111092392D02*
X145016212Y-110949535D01*
X145016212Y-110949535D02*
X145051926Y-110878107D01*
X145051926Y-110878107D02*
X145123355Y-110806678D01*
X145123355Y-110806678D02*
X145266212Y-110806678D01*
X145266212Y-110806678D02*
X145337641Y-110878107D01*
X145694783Y-111806678D02*
X145694783Y-110306678D01*
X146016212Y-111806678D02*
X146016212Y-111020964D01*
X146016212Y-111020964D02*
X145980497Y-110878107D01*
X145980497Y-110878107D02*
X145909069Y-110806678D01*
X145909069Y-110806678D02*
X145801926Y-110806678D01*
X145801926Y-110806678D02*
X145730497Y-110878107D01*
X145730497Y-110878107D02*
X145694783Y-110949535D01*
X146266211Y-110806678D02*
X146551925Y-110806678D01*
X146373354Y-110306678D02*
X146373354Y-111592392D01*
X146373354Y-111592392D02*
X146409068Y-111735250D01*
X146409068Y-111735250D02*
X146480497Y-111806678D01*
X146480497Y-111806678D02*
X146551925Y-111806678D01*
X146909068Y-111806678D02*
X146837639Y-111735250D01*
X146837639Y-111735250D02*
X146801925Y-111663821D01*
X146801925Y-111663821D02*
X146766211Y-111520964D01*
X146766211Y-111520964D02*
X146766211Y-111092392D01*
X146766211Y-111092392D02*
X146801925Y-110949535D01*
X146801925Y-110949535D02*
X146837639Y-110878107D01*
X146837639Y-110878107D02*
X146909068Y-110806678D01*
X146909068Y-110806678D02*
X147016211Y-110806678D01*
X147016211Y-110806678D02*
X147087639Y-110878107D01*
X147087639Y-110878107D02*
X147123354Y-110949535D01*
X147123354Y-110949535D02*
X147159068Y-111092392D01*
X147159068Y-111092392D02*
X147159068Y-111520964D01*
X147159068Y-111520964D02*
X147123354Y-111663821D01*
X147123354Y-111663821D02*
X147087639Y-111735250D01*
X147087639Y-111735250D02*
X147016211Y-111806678D01*
X147016211Y-111806678D02*
X146909068Y-111806678D01*
X147480496Y-110806678D02*
X147480496Y-111806678D01*
X147480496Y-110949535D02*
X147516210Y-110878107D01*
X147516210Y-110878107D02*
X147587639Y-110806678D01*
X147587639Y-110806678D02*
X147694782Y-110806678D01*
X147694782Y-110806678D02*
X147766210Y-110878107D01*
X147766210Y-110878107D02*
X147801925Y-111020964D01*
X147801925Y-111020964D02*
X147801925Y-111806678D01*
D11*
X142697368Y-109300828D02*
X142697368Y-108515114D01*
X142697368Y-108515114D02*
X142625939Y-108372257D01*
X142625939Y-108372257D02*
X142483082Y-108300828D01*
X142483082Y-108300828D02*
X142197368Y-108300828D01*
X142197368Y-108300828D02*
X142054510Y-108372257D01*
X142697368Y-109229400D02*
X142554510Y-109300828D01*
X142554510Y-109300828D02*
X142197368Y-109300828D01*
X142197368Y-109300828D02*
X142054510Y-109229400D01*
X142054510Y-109229400D02*
X141983082Y-109086542D01*
X141983082Y-109086542D02*
X141983082Y-108943685D01*
X141983082Y-108943685D02*
X142054510Y-108800828D01*
X142054510Y-108800828D02*
X142197368Y-108729400D01*
X142197368Y-108729400D02*
X142554510Y-108729400D01*
X142554510Y-108729400D02*
X142697368Y-108657971D01*
X143411653Y-109300828D02*
X143411653Y-108300828D01*
X143411653Y-108586542D02*
X143483082Y-108443685D01*
X143483082Y-108443685D02*
X143554511Y-108372257D01*
X143554511Y-108372257D02*
X143697368Y-108300828D01*
X143697368Y-108300828D02*
X143840225Y-108300828D01*
X144983082Y-109229400D02*
X144840224Y-109300828D01*
X144840224Y-109300828D02*
X144554510Y-109300828D01*
X144554510Y-109300828D02*
X144411653Y-109229400D01*
X144411653Y-109229400D02*
X144340224Y-109157971D01*
X144340224Y-109157971D02*
X144268796Y-109015114D01*
X144268796Y-109015114D02*
X144268796Y-108586542D01*
X144268796Y-108586542D02*
X144340224Y-108443685D01*
X144340224Y-108443685D02*
X144411653Y-108372257D01*
X144411653Y-108372257D02*
X144554510Y-108300828D01*
X144554510Y-108300828D02*
X144840224Y-108300828D01*
X144840224Y-108300828D02*
X144983082Y-108372257D01*
X145411653Y-108300828D02*
X145983081Y-108300828D01*
X145625938Y-107800828D02*
X145625938Y-109086542D01*
X145625938Y-109086542D02*
X145697367Y-109229400D01*
X145697367Y-109229400D02*
X145840224Y-109300828D01*
X145840224Y-109300828D02*
X145983081Y-109300828D01*
X146483081Y-109300828D02*
X146483081Y-108300828D01*
X146483081Y-108586542D02*
X146554510Y-108443685D01*
X146554510Y-108443685D02*
X146625939Y-108372257D01*
X146625939Y-108372257D02*
X146768796Y-108300828D01*
X146768796Y-108300828D02*
X146911653Y-108300828D01*
X148054510Y-109300828D02*
X148054510Y-108515114D01*
X148054510Y-108515114D02*
X147983081Y-108372257D01*
X147983081Y-108372257D02*
X147840224Y-108300828D01*
X147840224Y-108300828D02*
X147554510Y-108300828D01*
X147554510Y-108300828D02*
X147411652Y-108372257D01*
X148054510Y-109229400D02*
X147911652Y-109300828D01*
X147911652Y-109300828D02*
X147554510Y-109300828D01*
X147554510Y-109300828D02*
X147411652Y-109229400D01*
X147411652Y-109229400D02*
X147340224Y-109086542D01*
X147340224Y-109086542D02*
X147340224Y-108943685D01*
X147340224Y-108943685D02*
X147411652Y-108800828D01*
X147411652Y-108800828D02*
X147554510Y-108729400D01*
X147554510Y-108729400D02*
X147911652Y-108729400D01*
X147911652Y-108729400D02*
X148054510Y-108657971D01*
X149411653Y-109229400D02*
X149268795Y-109300828D01*
X149268795Y-109300828D02*
X148983081Y-109300828D01*
X148983081Y-109300828D02*
X148840224Y-109229400D01*
X148840224Y-109229400D02*
X148768795Y-109157971D01*
X148768795Y-109157971D02*
X148697367Y-109015114D01*
X148697367Y-109015114D02*
X148697367Y-108586542D01*
X148697367Y-108586542D02*
X148768795Y-108443685D01*
X148768795Y-108443685D02*
X148840224Y-108372257D01*
X148840224Y-108372257D02*
X148983081Y-108300828D01*
X148983081Y-108300828D02*
X149268795Y-108300828D01*
X149268795Y-108300828D02*
X149411653Y-108372257D01*
X150054509Y-109300828D02*
X150054509Y-107800828D01*
X150197367Y-108729400D02*
X150625938Y-109300828D01*
X150625938Y-108300828D02*
X150054509Y-108872257D01*
X152268795Y-108300828D02*
X152625938Y-109300828D01*
X152625938Y-109300828D02*
X152983081Y-108300828D01*
X154340224Y-109300828D02*
X153483081Y-109300828D01*
X153911652Y-109300828D02*
X153911652Y-107800828D01*
X153911652Y-107800828D02*
X153768795Y-108015114D01*
X153768795Y-108015114D02*
X153625938Y-108157971D01*
X153625938Y-108157971D02*
X153483081Y-108229400D01*
X154983080Y-109157971D02*
X155054509Y-109229400D01*
X155054509Y-109229400D02*
X154983080Y-109300828D01*
X154983080Y-109300828D02*
X154911652Y-109229400D01*
X154911652Y-109229400D02*
X154983080Y-109157971D01*
X154983080Y-109157971D02*
X154983080Y-109300828D01*
X155554509Y-107800828D02*
X156483081Y-107800828D01*
X156483081Y-107800828D02*
X155983081Y-108372257D01*
X155983081Y-108372257D02*
X156197366Y-108372257D01*
X156197366Y-108372257D02*
X156340224Y-108443685D01*
X156340224Y-108443685D02*
X156411652Y-108515114D01*
X156411652Y-108515114D02*
X156483081Y-108657971D01*
X156483081Y-108657971D02*
X156483081Y-109015114D01*
X156483081Y-109015114D02*
X156411652Y-109157971D01*
X156411652Y-109157971D02*
X156340224Y-109229400D01*
X156340224Y-109229400D02*
X156197366Y-109300828D01*
X156197366Y-109300828D02*
X155768795Y-109300828D01*
X155768795Y-109300828D02*
X155625938Y-109229400D01*
X155625938Y-109229400D02*
X155554509Y-109157971D01*
D12*
X162166666Y-51994819D02*
X162166666Y-52709104D01*
X162166666Y-52709104D02*
X162119047Y-52851961D01*
X162119047Y-52851961D02*
X162023809Y-52947200D01*
X162023809Y-52947200D02*
X161880952Y-52994819D01*
X161880952Y-52994819D02*
X161785714Y-52994819D01*
X163071428Y-52328152D02*
X163071428Y-52994819D01*
X162833333Y-51947200D02*
X162595238Y-52661485D01*
X162595238Y-52661485D02*
X163214285Y-52661485D01*
X159479819Y-61258333D02*
X160194104Y-61258333D01*
X160194104Y-61258333D02*
X160336961Y-61305952D01*
X160336961Y-61305952D02*
X160432200Y-61401190D01*
X160432200Y-61401190D02*
X160479819Y-61544047D01*
X160479819Y-61544047D02*
X160479819Y-61639285D01*
X159479819Y-60877380D02*
X159479819Y-60258333D01*
X159479819Y-60258333D02*
X159860771Y-60591666D01*
X159860771Y-60591666D02*
X159860771Y-60448809D01*
X159860771Y-60448809D02*
X159908390Y-60353571D01*
X159908390Y-60353571D02*
X159956009Y-60305952D01*
X159956009Y-60305952D02*
X160051247Y-60258333D01*
X160051247Y-60258333D02*
X160289342Y-60258333D01*
X160289342Y-60258333D02*
X160384580Y-60305952D01*
X160384580Y-60305952D02*
X160432200Y-60353571D01*
X160432200Y-60353571D02*
X160479819Y-60448809D01*
X160479819Y-60448809D02*
X160479819Y-60734523D01*
X160479819Y-60734523D02*
X160432200Y-60829761D01*
X160432200Y-60829761D02*
X160384580Y-60877380D01*
X145119104Y-83816666D02*
X145119104Y-83340476D01*
X145404819Y-83911904D02*
X144404819Y-83578571D01*
X144404819Y-83578571D02*
X145404819Y-83245238D01*
X144881009Y-82911904D02*
X144881009Y-82578571D01*
X145404819Y-82435714D02*
X145404819Y-82911904D01*
X145404819Y-82911904D02*
X144404819Y-82911904D01*
X144404819Y-82911904D02*
X144404819Y-82435714D01*
X145404819Y-81483333D02*
X145404819Y-82054761D01*
X145404819Y-81769047D02*
X144404819Y-81769047D01*
X144404819Y-81769047D02*
X144547676Y-81864285D01*
X144547676Y-81864285D02*
X144642914Y-81959523D01*
X144642914Y-81959523D02*
X144690533Y-82054761D01*
X148818333Y-79419819D02*
X148485000Y-78943628D01*
X148246905Y-79419819D02*
X148246905Y-78419819D01*
X148246905Y-78419819D02*
X148627857Y-78419819D01*
X148627857Y-78419819D02*
X148723095Y-78467438D01*
X148723095Y-78467438D02*
X148770714Y-78515057D01*
X148770714Y-78515057D02*
X148818333Y-78610295D01*
X148818333Y-78610295D02*
X148818333Y-78753152D01*
X148818333Y-78753152D02*
X148770714Y-78848390D01*
X148770714Y-78848390D02*
X148723095Y-78896009D01*
X148723095Y-78896009D02*
X148627857Y-78943628D01*
X148627857Y-78943628D02*
X148246905Y-78943628D01*
X149151667Y-78419819D02*
X149818333Y-78419819D01*
X149818333Y-78419819D02*
X149389762Y-79419819D01*
X157444819Y-81652857D02*
X156968628Y-81986190D01*
X157444819Y-82224285D02*
X156444819Y-82224285D01*
X156444819Y-82224285D02*
X156444819Y-81843333D01*
X156444819Y-81843333D02*
X156492438Y-81748095D01*
X156492438Y-81748095D02*
X156540057Y-81700476D01*
X156540057Y-81700476D02*
X156635295Y-81652857D01*
X156635295Y-81652857D02*
X156778152Y-81652857D01*
X156778152Y-81652857D02*
X156873390Y-81700476D01*
X156873390Y-81700476D02*
X156921009Y-81748095D01*
X156921009Y-81748095D02*
X156968628Y-81843333D01*
X156968628Y-81843333D02*
X156968628Y-82224285D01*
X157444819Y-80700476D02*
X157444819Y-81271904D01*
X157444819Y-80986190D02*
X156444819Y-80986190D01*
X156444819Y-80986190D02*
X156587676Y-81081428D01*
X156587676Y-81081428D02*
X156682914Y-81176666D01*
X156682914Y-81176666D02*
X156730533Y-81271904D01*
X156444819Y-80081428D02*
X156444819Y-79986190D01*
X156444819Y-79986190D02*
X156492438Y-79890952D01*
X156492438Y-79890952D02*
X156540057Y-79843333D01*
X156540057Y-79843333D02*
X156635295Y-79795714D01*
X156635295Y-79795714D02*
X156825771Y-79748095D01*
X156825771Y-79748095D02*
X157063866Y-79748095D01*
X157063866Y-79748095D02*
X157254342Y-79795714D01*
X157254342Y-79795714D02*
X157349580Y-79843333D01*
X157349580Y-79843333D02*
X157397200Y-79890952D01*
X157397200Y-79890952D02*
X157444819Y-79986190D01*
X157444819Y-79986190D02*
X157444819Y-80081428D01*
X157444819Y-80081428D02*
X157397200Y-80176666D01*
X157397200Y-80176666D02*
X157349580Y-80224285D01*
X157349580Y-80224285D02*
X157254342Y-80271904D01*
X157254342Y-80271904D02*
X157063866Y-80319523D01*
X157063866Y-80319523D02*
X156825771Y-80319523D01*
X156825771Y-80319523D02*
X156635295Y-80271904D01*
X156635295Y-80271904D02*
X156540057Y-80224285D01*
X156540057Y-80224285D02*
X156492438Y-80176666D01*
X156492438Y-80176666D02*
X156444819Y-80081428D01*
X150853333Y-84019580D02*
X150805714Y-84067200D01*
X150805714Y-84067200D02*
X150662857Y-84114819D01*
X150662857Y-84114819D02*
X150567619Y-84114819D01*
X150567619Y-84114819D02*
X150424762Y-84067200D01*
X150424762Y-84067200D02*
X150329524Y-83971961D01*
X150329524Y-83971961D02*
X150281905Y-83876723D01*
X150281905Y-83876723D02*
X150234286Y-83686247D01*
X150234286Y-83686247D02*
X150234286Y-83543390D01*
X150234286Y-83543390D02*
X150281905Y-83352914D01*
X150281905Y-83352914D02*
X150329524Y-83257676D01*
X150329524Y-83257676D02*
X150424762Y-83162438D01*
X150424762Y-83162438D02*
X150567619Y-83114819D01*
X150567619Y-83114819D02*
X150662857Y-83114819D01*
X150662857Y-83114819D02*
X150805714Y-83162438D01*
X150805714Y-83162438D02*
X150853333Y-83210057D01*
X151234286Y-83210057D02*
X151281905Y-83162438D01*
X151281905Y-83162438D02*
X151377143Y-83114819D01*
X151377143Y-83114819D02*
X151615238Y-83114819D01*
X151615238Y-83114819D02*
X151710476Y-83162438D01*
X151710476Y-83162438D02*
X151758095Y-83210057D01*
X151758095Y-83210057D02*
X151805714Y-83305295D01*
X151805714Y-83305295D02*
X151805714Y-83400533D01*
X151805714Y-83400533D02*
X151758095Y-83543390D01*
X151758095Y-83543390D02*
X151186667Y-84114819D01*
X151186667Y-84114819D02*
X151805714Y-84114819D01*
X167566666Y-43404819D02*
X167566666Y-44119104D01*
X167566666Y-44119104D02*
X167519047Y-44261961D01*
X167519047Y-44261961D02*
X167423809Y-44357200D01*
X167423809Y-44357200D02*
X167280952Y-44404819D01*
X167280952Y-44404819D02*
X167185714Y-44404819D01*
X167995238Y-43500057D02*
X168042857Y-43452438D01*
X168042857Y-43452438D02*
X168138095Y-43404819D01*
X168138095Y-43404819D02*
X168376190Y-43404819D01*
X168376190Y-43404819D02*
X168471428Y-43452438D01*
X168471428Y-43452438D02*
X168519047Y-43500057D01*
X168519047Y-43500057D02*
X168566666Y-43595295D01*
X168566666Y-43595295D02*
X168566666Y-43690533D01*
X168566666Y-43690533D02*
X168519047Y-43833390D01*
X168519047Y-43833390D02*
X167947619Y-44404819D01*
X167947619Y-44404819D02*
X168566666Y-44404819D01*
X156848333Y-80284819D02*
X156372143Y-80284819D01*
X156372143Y-80284819D02*
X156372143Y-79284819D01*
X157705476Y-80284819D02*
X157134048Y-80284819D01*
X157419762Y-80284819D02*
X157419762Y-79284819D01*
X157419762Y-79284819D02*
X157324524Y-79427676D01*
X157324524Y-79427676D02*
X157229286Y-79522914D01*
X157229286Y-79522914D02*
X157134048Y-79570533D01*
X157088095Y-67954819D02*
X157088095Y-68764342D01*
X157088095Y-68764342D02*
X157135714Y-68859580D01*
X157135714Y-68859580D02*
X157183333Y-68907200D01*
X157183333Y-68907200D02*
X157278571Y-68954819D01*
X157278571Y-68954819D02*
X157469047Y-68954819D01*
X157469047Y-68954819D02*
X157564285Y-68907200D01*
X157564285Y-68907200D02*
X157611904Y-68859580D01*
X157611904Y-68859580D02*
X157659523Y-68764342D01*
X157659523Y-68764342D02*
X157659523Y-67954819D01*
X158040476Y-67954819D02*
X158659523Y-67954819D01*
X158659523Y-67954819D02*
X158326190Y-68335771D01*
X158326190Y-68335771D02*
X158469047Y-68335771D01*
X158469047Y-68335771D02*
X158564285Y-68383390D01*
X158564285Y-68383390D02*
X158611904Y-68431009D01*
X158611904Y-68431009D02*
X158659523Y-68526247D01*
X158659523Y-68526247D02*
X158659523Y-68764342D01*
X158659523Y-68764342D02*
X158611904Y-68859580D01*
X158611904Y-68859580D02*
X158564285Y-68907200D01*
X158564285Y-68907200D02*
X158469047Y-68954819D01*
X158469047Y-68954819D02*
X158183333Y-68954819D01*
X158183333Y-68954819D02*
X158088095Y-68907200D01*
X158088095Y-68907200D02*
X158040476Y-68859580D01*
X155274819Y-93186666D02*
X154798628Y-93519999D01*
X155274819Y-93758094D02*
X154274819Y-93758094D01*
X154274819Y-93758094D02*
X154274819Y-93377142D01*
X154274819Y-93377142D02*
X154322438Y-93281904D01*
X154322438Y-93281904D02*
X154370057Y-93234285D01*
X154370057Y-93234285D02*
X154465295Y-93186666D01*
X154465295Y-93186666D02*
X154608152Y-93186666D01*
X154608152Y-93186666D02*
X154703390Y-93234285D01*
X154703390Y-93234285D02*
X154751009Y-93281904D01*
X154751009Y-93281904D02*
X154798628Y-93377142D01*
X154798628Y-93377142D02*
X154798628Y-93758094D01*
X154703390Y-92615237D02*
X154655771Y-92710475D01*
X154655771Y-92710475D02*
X154608152Y-92758094D01*
X154608152Y-92758094D02*
X154512914Y-92805713D01*
X154512914Y-92805713D02*
X154465295Y-92805713D01*
X154465295Y-92805713D02*
X154370057Y-92758094D01*
X154370057Y-92758094D02*
X154322438Y-92710475D01*
X154322438Y-92710475D02*
X154274819Y-92615237D01*
X154274819Y-92615237D02*
X154274819Y-92424761D01*
X154274819Y-92424761D02*
X154322438Y-92329523D01*
X154322438Y-92329523D02*
X154370057Y-92281904D01*
X154370057Y-92281904D02*
X154465295Y-92234285D01*
X154465295Y-92234285D02*
X154512914Y-92234285D01*
X154512914Y-92234285D02*
X154608152Y-92281904D01*
X154608152Y-92281904D02*
X154655771Y-92329523D01*
X154655771Y-92329523D02*
X154703390Y-92424761D01*
X154703390Y-92424761D02*
X154703390Y-92615237D01*
X154703390Y-92615237D02*
X154751009Y-92710475D01*
X154751009Y-92710475D02*
X154798628Y-92758094D01*
X154798628Y-92758094D02*
X154893866Y-92805713D01*
X154893866Y-92805713D02*
X155084342Y-92805713D01*
X155084342Y-92805713D02*
X155179580Y-92758094D01*
X155179580Y-92758094D02*
X155227200Y-92710475D01*
X155227200Y-92710475D02*
X155274819Y-92615237D01*
X155274819Y-92615237D02*
X155274819Y-92424761D01*
X155274819Y-92424761D02*
X155227200Y-92329523D01*
X155227200Y-92329523D02*
X155179580Y-92281904D01*
X155179580Y-92281904D02*
X155084342Y-92234285D01*
X155084342Y-92234285D02*
X154893866Y-92234285D01*
X154893866Y-92234285D02*
X154798628Y-92281904D01*
X154798628Y-92281904D02*
X154751009Y-92329523D01*
X154751009Y-92329523D02*
X154703390Y-92424761D01*
X164357142Y-95359580D02*
X164309523Y-95407200D01*
X164309523Y-95407200D02*
X164166666Y-95454819D01*
X164166666Y-95454819D02*
X164071428Y-95454819D01*
X164071428Y-95454819D02*
X163928571Y-95407200D01*
X163928571Y-95407200D02*
X163833333Y-95311961D01*
X163833333Y-95311961D02*
X163785714Y-95216723D01*
X163785714Y-95216723D02*
X163738095Y-95026247D01*
X163738095Y-95026247D02*
X163738095Y-94883390D01*
X163738095Y-94883390D02*
X163785714Y-94692914D01*
X163785714Y-94692914D02*
X163833333Y-94597676D01*
X163833333Y-94597676D02*
X163928571Y-94502438D01*
X163928571Y-94502438D02*
X164071428Y-94454819D01*
X164071428Y-94454819D02*
X164166666Y-94454819D01*
X164166666Y-94454819D02*
X164309523Y-94502438D01*
X164309523Y-94502438D02*
X164357142Y-94550057D01*
X165309523Y-95454819D02*
X164738095Y-95454819D01*
X165023809Y-95454819D02*
X165023809Y-94454819D01*
X165023809Y-94454819D02*
X164928571Y-94597676D01*
X164928571Y-94597676D02*
X164833333Y-94692914D01*
X164833333Y-94692914D02*
X164738095Y-94740533D01*
X165785714Y-95454819D02*
X165976190Y-95454819D01*
X165976190Y-95454819D02*
X166071428Y-95407200D01*
X166071428Y-95407200D02*
X166119047Y-95359580D01*
X166119047Y-95359580D02*
X166214285Y-95216723D01*
X166214285Y-95216723D02*
X166261904Y-95026247D01*
X166261904Y-95026247D02*
X166261904Y-94645295D01*
X166261904Y-94645295D02*
X166214285Y-94550057D01*
X166214285Y-94550057D02*
X166166666Y-94502438D01*
X166166666Y-94502438D02*
X166071428Y-94454819D01*
X166071428Y-94454819D02*
X165880952Y-94454819D01*
X165880952Y-94454819D02*
X165785714Y-94502438D01*
X165785714Y-94502438D02*
X165738095Y-94550057D01*
X165738095Y-94550057D02*
X165690476Y-94645295D01*
X165690476Y-94645295D02*
X165690476Y-94883390D01*
X165690476Y-94883390D02*
X165738095Y-94978628D01*
X165738095Y-94978628D02*
X165785714Y-95026247D01*
X165785714Y-95026247D02*
X165880952Y-95073866D01*
X165880952Y-95073866D02*
X166071428Y-95073866D01*
X166071428Y-95073866D02*
X166166666Y-95026247D01*
X166166666Y-95026247D02*
X166214285Y-94978628D01*
X166214285Y-94978628D02*
X166261904Y-94883390D01*
X156898809Y-84853628D02*
X156898809Y-85329819D01*
X156565476Y-84329819D02*
X156898809Y-84853628D01*
X156898809Y-84853628D02*
X157232142Y-84329819D01*
X158089285Y-85329819D02*
X157517857Y-85329819D01*
X157803571Y-85329819D02*
X157803571Y-84329819D01*
X157803571Y-84329819D02*
X157708333Y-84472676D01*
X157708333Y-84472676D02*
X157613095Y-84567914D01*
X157613095Y-84567914D02*
X157517857Y-84615533D01*
X167634819Y-91166666D02*
X167158628Y-91499999D01*
X167634819Y-91738094D02*
X166634819Y-91738094D01*
X166634819Y-91738094D02*
X166634819Y-91357142D01*
X166634819Y-91357142D02*
X166682438Y-91261904D01*
X166682438Y-91261904D02*
X166730057Y-91214285D01*
X166730057Y-91214285D02*
X166825295Y-91166666D01*
X166825295Y-91166666D02*
X166968152Y-91166666D01*
X166968152Y-91166666D02*
X167063390Y-91214285D01*
X167063390Y-91214285D02*
X167111009Y-91261904D01*
X167111009Y-91261904D02*
X167158628Y-91357142D01*
X167158628Y-91357142D02*
X167158628Y-91738094D01*
X166634819Y-90309523D02*
X166634819Y-90499999D01*
X166634819Y-90499999D02*
X166682438Y-90595237D01*
X166682438Y-90595237D02*
X166730057Y-90642856D01*
X166730057Y-90642856D02*
X166872914Y-90738094D01*
X166872914Y-90738094D02*
X167063390Y-90785713D01*
X167063390Y-90785713D02*
X167444342Y-90785713D01*
X167444342Y-90785713D02*
X167539580Y-90738094D01*
X167539580Y-90738094D02*
X167587200Y-90690475D01*
X167587200Y-90690475D02*
X167634819Y-90595237D01*
X167634819Y-90595237D02*
X167634819Y-90404761D01*
X167634819Y-90404761D02*
X167587200Y-90309523D01*
X167587200Y-90309523D02*
X167539580Y-90261904D01*
X167539580Y-90261904D02*
X167444342Y-90214285D01*
X167444342Y-90214285D02*
X167206247Y-90214285D01*
X167206247Y-90214285D02*
X167111009Y-90261904D01*
X167111009Y-90261904D02*
X167063390Y-90309523D01*
X167063390Y-90309523D02*
X167015771Y-90404761D01*
X167015771Y-90404761D02*
X167015771Y-90595237D01*
X167015771Y-90595237D02*
X167063390Y-90690475D01*
X167063390Y-90690475D02*
X167111009Y-90738094D01*
X167111009Y-90738094D02*
X167206247Y-90785713D01*
X147699580Y-88642857D02*
X147747200Y-88690476D01*
X147747200Y-88690476D02*
X147794819Y-88833333D01*
X147794819Y-88833333D02*
X147794819Y-88928571D01*
X147794819Y-88928571D02*
X147747200Y-89071428D01*
X147747200Y-89071428D02*
X147651961Y-89166666D01*
X147651961Y-89166666D02*
X147556723Y-89214285D01*
X147556723Y-89214285D02*
X147366247Y-89261904D01*
X147366247Y-89261904D02*
X147223390Y-89261904D01*
X147223390Y-89261904D02*
X147032914Y-89214285D01*
X147032914Y-89214285D02*
X146937676Y-89166666D01*
X146937676Y-89166666D02*
X146842438Y-89071428D01*
X146842438Y-89071428D02*
X146794819Y-88928571D01*
X146794819Y-88928571D02*
X146794819Y-88833333D01*
X146794819Y-88833333D02*
X146842438Y-88690476D01*
X146842438Y-88690476D02*
X146890057Y-88642857D01*
X147794819Y-87690476D02*
X147794819Y-88261904D01*
X147794819Y-87976190D02*
X146794819Y-87976190D01*
X146794819Y-87976190D02*
X146937676Y-88071428D01*
X146937676Y-88071428D02*
X147032914Y-88166666D01*
X147032914Y-88166666D02*
X147080533Y-88261904D01*
X146794819Y-87071428D02*
X146794819Y-86976190D01*
X146794819Y-86976190D02*
X146842438Y-86880952D01*
X146842438Y-86880952D02*
X146890057Y-86833333D01*
X146890057Y-86833333D02*
X146985295Y-86785714D01*
X146985295Y-86785714D02*
X147175771Y-86738095D01*
X147175771Y-86738095D02*
X147413866Y-86738095D01*
X147413866Y-86738095D02*
X147604342Y-86785714D01*
X147604342Y-86785714D02*
X147699580Y-86833333D01*
X147699580Y-86833333D02*
X147747200Y-86880952D01*
X147747200Y-86880952D02*
X147794819Y-86976190D01*
X147794819Y-86976190D02*
X147794819Y-87071428D01*
X147794819Y-87071428D02*
X147747200Y-87166666D01*
X147747200Y-87166666D02*
X147699580Y-87214285D01*
X147699580Y-87214285D02*
X147604342Y-87261904D01*
X147604342Y-87261904D02*
X147413866Y-87309523D01*
X147413866Y-87309523D02*
X147175771Y-87309523D01*
X147175771Y-87309523D02*
X146985295Y-87261904D01*
X146985295Y-87261904D02*
X146890057Y-87214285D01*
X146890057Y-87214285D02*
X146842438Y-87166666D01*
X146842438Y-87166666D02*
X146794819Y-87071428D01*
X156377142Y-81199580D02*
X156329523Y-81247200D01*
X156329523Y-81247200D02*
X156186666Y-81294819D01*
X156186666Y-81294819D02*
X156091428Y-81294819D01*
X156091428Y-81294819D02*
X155948571Y-81247200D01*
X155948571Y-81247200D02*
X155853333Y-81151961D01*
X155853333Y-81151961D02*
X155805714Y-81056723D01*
X155805714Y-81056723D02*
X155758095Y-80866247D01*
X155758095Y-80866247D02*
X155758095Y-80723390D01*
X155758095Y-80723390D02*
X155805714Y-80532914D01*
X155805714Y-80532914D02*
X155853333Y-80437676D01*
X155853333Y-80437676D02*
X155948571Y-80342438D01*
X155948571Y-80342438D02*
X156091428Y-80294819D01*
X156091428Y-80294819D02*
X156186666Y-80294819D01*
X156186666Y-80294819D02*
X156329523Y-80342438D01*
X156329523Y-80342438D02*
X156377142Y-80390057D01*
X157329523Y-81294819D02*
X156758095Y-81294819D01*
X157043809Y-81294819D02*
X157043809Y-80294819D01*
X157043809Y-80294819D02*
X156948571Y-80437676D01*
X156948571Y-80437676D02*
X156853333Y-80532914D01*
X156853333Y-80532914D02*
X156758095Y-80580533D01*
X158281904Y-81294819D02*
X157710476Y-81294819D01*
X157996190Y-81294819D02*
X157996190Y-80294819D01*
X157996190Y-80294819D02*
X157900952Y-80437676D01*
X157900952Y-80437676D02*
X157805714Y-80532914D01*
X157805714Y-80532914D02*
X157710476Y-80580533D01*
X148699580Y-88166666D02*
X148747200Y-88214285D01*
X148747200Y-88214285D02*
X148794819Y-88357142D01*
X148794819Y-88357142D02*
X148794819Y-88452380D01*
X148794819Y-88452380D02*
X148747200Y-88595237D01*
X148747200Y-88595237D02*
X148651961Y-88690475D01*
X148651961Y-88690475D02*
X148556723Y-88738094D01*
X148556723Y-88738094D02*
X148366247Y-88785713D01*
X148366247Y-88785713D02*
X148223390Y-88785713D01*
X148223390Y-88785713D02*
X148032914Y-88738094D01*
X148032914Y-88738094D02*
X147937676Y-88690475D01*
X147937676Y-88690475D02*
X147842438Y-88595237D01*
X147842438Y-88595237D02*
X147794819Y-88452380D01*
X147794819Y-88452380D02*
X147794819Y-88357142D01*
X147794819Y-88357142D02*
X147842438Y-88214285D01*
X147842438Y-88214285D02*
X147890057Y-88166666D01*
X148794819Y-87690475D02*
X148794819Y-87499999D01*
X148794819Y-87499999D02*
X148747200Y-87404761D01*
X148747200Y-87404761D02*
X148699580Y-87357142D01*
X148699580Y-87357142D02*
X148556723Y-87261904D01*
X148556723Y-87261904D02*
X148366247Y-87214285D01*
X148366247Y-87214285D02*
X147985295Y-87214285D01*
X147985295Y-87214285D02*
X147890057Y-87261904D01*
X147890057Y-87261904D02*
X147842438Y-87309523D01*
X147842438Y-87309523D02*
X147794819Y-87404761D01*
X147794819Y-87404761D02*
X147794819Y-87595237D01*
X147794819Y-87595237D02*
X147842438Y-87690475D01*
X147842438Y-87690475D02*
X147890057Y-87738094D01*
X147890057Y-87738094D02*
X147985295Y-87785713D01*
X147985295Y-87785713D02*
X148223390Y-87785713D01*
X148223390Y-87785713D02*
X148318628Y-87738094D01*
X148318628Y-87738094D02*
X148366247Y-87690475D01*
X148366247Y-87690475D02*
X148413866Y-87595237D01*
X148413866Y-87595237D02*
X148413866Y-87404761D01*
X148413866Y-87404761D02*
X148366247Y-87309523D01*
X148366247Y-87309523D02*
X148318628Y-87261904D01*
X148318628Y-87261904D02*
X148223390Y-87214285D01*
X155539580Y-83692857D02*
X155587200Y-83740476D01*
X155587200Y-83740476D02*
X155634819Y-83883333D01*
X155634819Y-83883333D02*
X155634819Y-83978571D01*
X155634819Y-83978571D02*
X155587200Y-84121428D01*
X155587200Y-84121428D02*
X155491961Y-84216666D01*
X155491961Y-84216666D02*
X155396723Y-84264285D01*
X155396723Y-84264285D02*
X155206247Y-84311904D01*
X155206247Y-84311904D02*
X155063390Y-84311904D01*
X155063390Y-84311904D02*
X154872914Y-84264285D01*
X154872914Y-84264285D02*
X154777676Y-84216666D01*
X154777676Y-84216666D02*
X154682438Y-84121428D01*
X154682438Y-84121428D02*
X154634819Y-83978571D01*
X154634819Y-83978571D02*
X154634819Y-83883333D01*
X154634819Y-83883333D02*
X154682438Y-83740476D01*
X154682438Y-83740476D02*
X154730057Y-83692857D01*
X155634819Y-82740476D02*
X155634819Y-83311904D01*
X155634819Y-83026190D02*
X154634819Y-83026190D01*
X154634819Y-83026190D02*
X154777676Y-83121428D01*
X154777676Y-83121428D02*
X154872914Y-83216666D01*
X154872914Y-83216666D02*
X154920533Y-83311904D01*
X154634819Y-81883333D02*
X154634819Y-82073809D01*
X154634819Y-82073809D02*
X154682438Y-82169047D01*
X154682438Y-82169047D02*
X154730057Y-82216666D01*
X154730057Y-82216666D02*
X154872914Y-82311904D01*
X154872914Y-82311904D02*
X155063390Y-82359523D01*
X155063390Y-82359523D02*
X155444342Y-82359523D01*
X155444342Y-82359523D02*
X155539580Y-82311904D01*
X155539580Y-82311904D02*
X155587200Y-82264285D01*
X155587200Y-82264285D02*
X155634819Y-82169047D01*
X155634819Y-82169047D02*
X155634819Y-81978571D01*
X155634819Y-81978571D02*
X155587200Y-81883333D01*
X155587200Y-81883333D02*
X155539580Y-81835714D01*
X155539580Y-81835714D02*
X155444342Y-81788095D01*
X155444342Y-81788095D02*
X155206247Y-81788095D01*
X155206247Y-81788095D02*
X155111009Y-81835714D01*
X155111009Y-81835714D02*
X155063390Y-81883333D01*
X155063390Y-81883333D02*
X155015771Y-81978571D01*
X155015771Y-81978571D02*
X155015771Y-82169047D01*
X155015771Y-82169047D02*
X155063390Y-82264285D01*
X155063390Y-82264285D02*
X155111009Y-82311904D01*
X155111009Y-82311904D02*
X155206247Y-82359523D01*
X152679580Y-80142857D02*
X152727200Y-80190476D01*
X152727200Y-80190476D02*
X152774819Y-80333333D01*
X152774819Y-80333333D02*
X152774819Y-80428571D01*
X152774819Y-80428571D02*
X152727200Y-80571428D01*
X152727200Y-80571428D02*
X152631961Y-80666666D01*
X152631961Y-80666666D02*
X152536723Y-80714285D01*
X152536723Y-80714285D02*
X152346247Y-80761904D01*
X152346247Y-80761904D02*
X152203390Y-80761904D01*
X152203390Y-80761904D02*
X152012914Y-80714285D01*
X152012914Y-80714285D02*
X151917676Y-80666666D01*
X151917676Y-80666666D02*
X151822438Y-80571428D01*
X151822438Y-80571428D02*
X151774819Y-80428571D01*
X151774819Y-80428571D02*
X151774819Y-80333333D01*
X151774819Y-80333333D02*
X151822438Y-80190476D01*
X151822438Y-80190476D02*
X151870057Y-80142857D01*
X152774819Y-79190476D02*
X152774819Y-79761904D01*
X152774819Y-79476190D02*
X151774819Y-79476190D01*
X151774819Y-79476190D02*
X151917676Y-79571428D01*
X151917676Y-79571428D02*
X152012914Y-79666666D01*
X152012914Y-79666666D02*
X152060533Y-79761904D01*
X151774819Y-78285714D02*
X151774819Y-78761904D01*
X151774819Y-78761904D02*
X152251009Y-78809523D01*
X152251009Y-78809523D02*
X152203390Y-78761904D01*
X152203390Y-78761904D02*
X152155771Y-78666666D01*
X152155771Y-78666666D02*
X152155771Y-78428571D01*
X152155771Y-78428571D02*
X152203390Y-78333333D01*
X152203390Y-78333333D02*
X152251009Y-78285714D01*
X152251009Y-78285714D02*
X152346247Y-78238095D01*
X152346247Y-78238095D02*
X152584342Y-78238095D01*
X152584342Y-78238095D02*
X152679580Y-78285714D01*
X152679580Y-78285714D02*
X152727200Y-78333333D01*
X152727200Y-78333333D02*
X152774819Y-78428571D01*
X152774819Y-78428571D02*
X152774819Y-78666666D01*
X152774819Y-78666666D02*
X152727200Y-78761904D01*
X152727200Y-78761904D02*
X152679580Y-78809523D01*
X148519580Y-93166666D02*
X148567200Y-93214285D01*
X148567200Y-93214285D02*
X148614819Y-93357142D01*
X148614819Y-93357142D02*
X148614819Y-93452380D01*
X148614819Y-93452380D02*
X148567200Y-93595237D01*
X148567200Y-93595237D02*
X148471961Y-93690475D01*
X148471961Y-93690475D02*
X148376723Y-93738094D01*
X148376723Y-93738094D02*
X148186247Y-93785713D01*
X148186247Y-93785713D02*
X148043390Y-93785713D01*
X148043390Y-93785713D02*
X147852914Y-93738094D01*
X147852914Y-93738094D02*
X147757676Y-93690475D01*
X147757676Y-93690475D02*
X147662438Y-93595237D01*
X147662438Y-93595237D02*
X147614819Y-93452380D01*
X147614819Y-93452380D02*
X147614819Y-93357142D01*
X147614819Y-93357142D02*
X147662438Y-93214285D01*
X147662438Y-93214285D02*
X147710057Y-93166666D01*
X147948152Y-92309523D02*
X148614819Y-92309523D01*
X147567200Y-92547618D02*
X148281485Y-92785713D01*
X148281485Y-92785713D02*
X148281485Y-92166666D01*
X160333333Y-76699580D02*
X160285714Y-76747200D01*
X160285714Y-76747200D02*
X160142857Y-76794819D01*
X160142857Y-76794819D02*
X160047619Y-76794819D01*
X160047619Y-76794819D02*
X159904762Y-76747200D01*
X159904762Y-76747200D02*
X159809524Y-76651961D01*
X159809524Y-76651961D02*
X159761905Y-76556723D01*
X159761905Y-76556723D02*
X159714286Y-76366247D01*
X159714286Y-76366247D02*
X159714286Y-76223390D01*
X159714286Y-76223390D02*
X159761905Y-76032914D01*
X159761905Y-76032914D02*
X159809524Y-75937676D01*
X159809524Y-75937676D02*
X159904762Y-75842438D01*
X159904762Y-75842438D02*
X160047619Y-75794819D01*
X160047619Y-75794819D02*
X160142857Y-75794819D01*
X160142857Y-75794819D02*
X160285714Y-75842438D01*
X160285714Y-75842438D02*
X160333333Y-75890057D01*
X161190476Y-75794819D02*
X161000000Y-75794819D01*
X161000000Y-75794819D02*
X160904762Y-75842438D01*
X160904762Y-75842438D02*
X160857143Y-75890057D01*
X160857143Y-75890057D02*
X160761905Y-76032914D01*
X160761905Y-76032914D02*
X160714286Y-76223390D01*
X160714286Y-76223390D02*
X160714286Y-76604342D01*
X160714286Y-76604342D02*
X160761905Y-76699580D01*
X160761905Y-76699580D02*
X160809524Y-76747200D01*
X160809524Y-76747200D02*
X160904762Y-76794819D01*
X160904762Y-76794819D02*
X161095238Y-76794819D01*
X161095238Y-76794819D02*
X161190476Y-76747200D01*
X161190476Y-76747200D02*
X161238095Y-76699580D01*
X161238095Y-76699580D02*
X161285714Y-76604342D01*
X161285714Y-76604342D02*
X161285714Y-76366247D01*
X161285714Y-76366247D02*
X161238095Y-76271009D01*
X161238095Y-76271009D02*
X161190476Y-76223390D01*
X161190476Y-76223390D02*
X161095238Y-76175771D01*
X161095238Y-76175771D02*
X160904762Y-76175771D01*
X160904762Y-76175771D02*
X160809524Y-76223390D01*
X160809524Y-76223390D02*
X160761905Y-76271009D01*
X160761905Y-76271009D02*
X160714286Y-76366247D01*
X161579580Y-95622857D02*
X161627200Y-95670476D01*
X161627200Y-95670476D02*
X161674819Y-95813333D01*
X161674819Y-95813333D02*
X161674819Y-95908571D01*
X161674819Y-95908571D02*
X161627200Y-96051428D01*
X161627200Y-96051428D02*
X161531961Y-96146666D01*
X161531961Y-96146666D02*
X161436723Y-96194285D01*
X161436723Y-96194285D02*
X161246247Y-96241904D01*
X161246247Y-96241904D02*
X161103390Y-96241904D01*
X161103390Y-96241904D02*
X160912914Y-96194285D01*
X160912914Y-96194285D02*
X160817676Y-96146666D01*
X160817676Y-96146666D02*
X160722438Y-96051428D01*
X160722438Y-96051428D02*
X160674819Y-95908571D01*
X160674819Y-95908571D02*
X160674819Y-95813333D01*
X160674819Y-95813333D02*
X160722438Y-95670476D01*
X160722438Y-95670476D02*
X160770057Y-95622857D01*
X161674819Y-94670476D02*
X161674819Y-95241904D01*
X161674819Y-94956190D02*
X160674819Y-94956190D01*
X160674819Y-94956190D02*
X160817676Y-95051428D01*
X160817676Y-95051428D02*
X160912914Y-95146666D01*
X160912914Y-95146666D02*
X160960533Y-95241904D01*
X161008152Y-93813333D02*
X161674819Y-93813333D01*
X160627200Y-94051428D02*
X161341485Y-94289523D01*
X161341485Y-94289523D02*
X161341485Y-93670476D01*
X156114819Y-93176666D02*
X155638628Y-93509999D01*
X156114819Y-93748094D02*
X155114819Y-93748094D01*
X155114819Y-93748094D02*
X155114819Y-93367142D01*
X155114819Y-93367142D02*
X155162438Y-93271904D01*
X155162438Y-93271904D02*
X155210057Y-93224285D01*
X155210057Y-93224285D02*
X155305295Y-93176666D01*
X155305295Y-93176666D02*
X155448152Y-93176666D01*
X155448152Y-93176666D02*
X155543390Y-93224285D01*
X155543390Y-93224285D02*
X155591009Y-93271904D01*
X155591009Y-93271904D02*
X155638628Y-93367142D01*
X155638628Y-93367142D02*
X155638628Y-93748094D01*
X156114819Y-92224285D02*
X156114819Y-92795713D01*
X156114819Y-92509999D02*
X155114819Y-92509999D01*
X155114819Y-92509999D02*
X155257676Y-92605237D01*
X155257676Y-92605237D02*
X155352914Y-92700475D01*
X155352914Y-92700475D02*
X155400533Y-92795713D01*
X151699580Y-88186666D02*
X151747200Y-88234285D01*
X151747200Y-88234285D02*
X151794819Y-88377142D01*
X151794819Y-88377142D02*
X151794819Y-88472380D01*
X151794819Y-88472380D02*
X151747200Y-88615237D01*
X151747200Y-88615237D02*
X151651961Y-88710475D01*
X151651961Y-88710475D02*
X151556723Y-88758094D01*
X151556723Y-88758094D02*
X151366247Y-88805713D01*
X151366247Y-88805713D02*
X151223390Y-88805713D01*
X151223390Y-88805713D02*
X151032914Y-88758094D01*
X151032914Y-88758094D02*
X150937676Y-88710475D01*
X150937676Y-88710475D02*
X150842438Y-88615237D01*
X150842438Y-88615237D02*
X150794819Y-88472380D01*
X150794819Y-88472380D02*
X150794819Y-88377142D01*
X150794819Y-88377142D02*
X150842438Y-88234285D01*
X150842438Y-88234285D02*
X150890057Y-88186666D01*
X151223390Y-87615237D02*
X151175771Y-87710475D01*
X151175771Y-87710475D02*
X151128152Y-87758094D01*
X151128152Y-87758094D02*
X151032914Y-87805713D01*
X151032914Y-87805713D02*
X150985295Y-87805713D01*
X150985295Y-87805713D02*
X150890057Y-87758094D01*
X150890057Y-87758094D02*
X150842438Y-87710475D01*
X150842438Y-87710475D02*
X150794819Y-87615237D01*
X150794819Y-87615237D02*
X150794819Y-87424761D01*
X150794819Y-87424761D02*
X150842438Y-87329523D01*
X150842438Y-87329523D02*
X150890057Y-87281904D01*
X150890057Y-87281904D02*
X150985295Y-87234285D01*
X150985295Y-87234285D02*
X151032914Y-87234285D01*
X151032914Y-87234285D02*
X151128152Y-87281904D01*
X151128152Y-87281904D02*
X151175771Y-87329523D01*
X151175771Y-87329523D02*
X151223390Y-87424761D01*
X151223390Y-87424761D02*
X151223390Y-87615237D01*
X151223390Y-87615237D02*
X151271009Y-87710475D01*
X151271009Y-87710475D02*
X151318628Y-87758094D01*
X151318628Y-87758094D02*
X151413866Y-87805713D01*
X151413866Y-87805713D02*
X151604342Y-87805713D01*
X151604342Y-87805713D02*
X151699580Y-87758094D01*
X151699580Y-87758094D02*
X151747200Y-87710475D01*
X151747200Y-87710475D02*
X151794819Y-87615237D01*
X151794819Y-87615237D02*
X151794819Y-87424761D01*
X151794819Y-87424761D02*
X151747200Y-87329523D01*
X151747200Y-87329523D02*
X151699580Y-87281904D01*
X151699580Y-87281904D02*
X151604342Y-87234285D01*
X151604342Y-87234285D02*
X151413866Y-87234285D01*
X151413866Y-87234285D02*
X151318628Y-87281904D01*
X151318628Y-87281904D02*
X151271009Y-87329523D01*
X151271009Y-87329523D02*
X151223390Y-87424761D01*
X149699580Y-88206666D02*
X149747200Y-88254285D01*
X149747200Y-88254285D02*
X149794819Y-88397142D01*
X149794819Y-88397142D02*
X149794819Y-88492380D01*
X149794819Y-88492380D02*
X149747200Y-88635237D01*
X149747200Y-88635237D02*
X149651961Y-88730475D01*
X149651961Y-88730475D02*
X149556723Y-88778094D01*
X149556723Y-88778094D02*
X149366247Y-88825713D01*
X149366247Y-88825713D02*
X149223390Y-88825713D01*
X149223390Y-88825713D02*
X149032914Y-88778094D01*
X149032914Y-88778094D02*
X148937676Y-88730475D01*
X148937676Y-88730475D02*
X148842438Y-88635237D01*
X148842438Y-88635237D02*
X148794819Y-88492380D01*
X148794819Y-88492380D02*
X148794819Y-88397142D01*
X148794819Y-88397142D02*
X148842438Y-88254285D01*
X148842438Y-88254285D02*
X148890057Y-88206666D01*
X148794819Y-87873332D02*
X148794819Y-87254285D01*
X148794819Y-87254285D02*
X149175771Y-87587618D01*
X149175771Y-87587618D02*
X149175771Y-87444761D01*
X149175771Y-87444761D02*
X149223390Y-87349523D01*
X149223390Y-87349523D02*
X149271009Y-87301904D01*
X149271009Y-87301904D02*
X149366247Y-87254285D01*
X149366247Y-87254285D02*
X149604342Y-87254285D01*
X149604342Y-87254285D02*
X149699580Y-87301904D01*
X149699580Y-87301904D02*
X149747200Y-87349523D01*
X149747200Y-87349523D02*
X149794819Y-87444761D01*
X149794819Y-87444761D02*
X149794819Y-87730475D01*
X149794819Y-87730475D02*
X149747200Y-87825713D01*
X149747200Y-87825713D02*
X149699580Y-87873332D01*
X145238095Y-69054819D02*
X145238095Y-69864342D01*
X145238095Y-69864342D02*
X145285714Y-69959580D01*
X145285714Y-69959580D02*
X145333333Y-70007200D01*
X145333333Y-70007200D02*
X145428571Y-70054819D01*
X145428571Y-70054819D02*
X145619047Y-70054819D01*
X145619047Y-70054819D02*
X145714285Y-70007200D01*
X145714285Y-70007200D02*
X145761904Y-69959580D01*
X145761904Y-69959580D02*
X145809523Y-69864342D01*
X145809523Y-69864342D02*
X145809523Y-69054819D01*
X146761904Y-69054819D02*
X146285714Y-69054819D01*
X146285714Y-69054819D02*
X146238095Y-69531009D01*
X146238095Y-69531009D02*
X146285714Y-69483390D01*
X146285714Y-69483390D02*
X146380952Y-69435771D01*
X146380952Y-69435771D02*
X146619047Y-69435771D01*
X146619047Y-69435771D02*
X146714285Y-69483390D01*
X146714285Y-69483390D02*
X146761904Y-69531009D01*
X146761904Y-69531009D02*
X146809523Y-69626247D01*
X146809523Y-69626247D02*
X146809523Y-69864342D01*
X146809523Y-69864342D02*
X146761904Y-69959580D01*
X146761904Y-69959580D02*
X146714285Y-70007200D01*
X146714285Y-70007200D02*
X146619047Y-70054819D01*
X146619047Y-70054819D02*
X146380952Y-70054819D01*
X146380952Y-70054819D02*
X146285714Y-70007200D01*
X146285714Y-70007200D02*
X146238095Y-69959580D01*
X150833333Y-79699580D02*
X150785714Y-79747200D01*
X150785714Y-79747200D02*
X150642857Y-79794819D01*
X150642857Y-79794819D02*
X150547619Y-79794819D01*
X150547619Y-79794819D02*
X150404762Y-79747200D01*
X150404762Y-79747200D02*
X150309524Y-79651961D01*
X150309524Y-79651961D02*
X150261905Y-79556723D01*
X150261905Y-79556723D02*
X150214286Y-79366247D01*
X150214286Y-79366247D02*
X150214286Y-79223390D01*
X150214286Y-79223390D02*
X150261905Y-79032914D01*
X150261905Y-79032914D02*
X150309524Y-78937676D01*
X150309524Y-78937676D02*
X150404762Y-78842438D01*
X150404762Y-78842438D02*
X150547619Y-78794819D01*
X150547619Y-78794819D02*
X150642857Y-78794819D01*
X150642857Y-78794819D02*
X150785714Y-78842438D01*
X150785714Y-78842438D02*
X150833333Y-78890057D01*
X151785714Y-79794819D02*
X151214286Y-79794819D01*
X151500000Y-79794819D02*
X151500000Y-78794819D01*
X151500000Y-78794819D02*
X151404762Y-78937676D01*
X151404762Y-78937676D02*
X151309524Y-79032914D01*
X151309524Y-79032914D02*
X151214286Y-79080533D01*
X169759819Y-76153333D02*
X170474104Y-76153333D01*
X170474104Y-76153333D02*
X170616961Y-76200952D01*
X170616961Y-76200952D02*
X170712200Y-76296190D01*
X170712200Y-76296190D02*
X170759819Y-76439047D01*
X170759819Y-76439047D02*
X170759819Y-76534285D01*
X170759819Y-75153333D02*
X170759819Y-75724761D01*
X170759819Y-75439047D02*
X169759819Y-75439047D01*
X169759819Y-75439047D02*
X169902676Y-75534285D01*
X169902676Y-75534285D02*
X169997914Y-75629523D01*
X169997914Y-75629523D02*
X170045533Y-75724761D01*
X142907142Y-95039580D02*
X142859523Y-95087200D01*
X142859523Y-95087200D02*
X142716666Y-95134819D01*
X142716666Y-95134819D02*
X142621428Y-95134819D01*
X142621428Y-95134819D02*
X142478571Y-95087200D01*
X142478571Y-95087200D02*
X142383333Y-94991961D01*
X142383333Y-94991961D02*
X142335714Y-94896723D01*
X142335714Y-94896723D02*
X142288095Y-94706247D01*
X142288095Y-94706247D02*
X142288095Y-94563390D01*
X142288095Y-94563390D02*
X142335714Y-94372914D01*
X142335714Y-94372914D02*
X142383333Y-94277676D01*
X142383333Y-94277676D02*
X142478571Y-94182438D01*
X142478571Y-94182438D02*
X142621428Y-94134819D01*
X142621428Y-94134819D02*
X142716666Y-94134819D01*
X142716666Y-94134819D02*
X142859523Y-94182438D01*
X142859523Y-94182438D02*
X142907142Y-94230057D01*
X143859523Y-95134819D02*
X143288095Y-95134819D01*
X143573809Y-95134819D02*
X143573809Y-94134819D01*
X143573809Y-94134819D02*
X143478571Y-94277676D01*
X143478571Y-94277676D02*
X143383333Y-94372914D01*
X143383333Y-94372914D02*
X143288095Y-94420533D01*
X144430952Y-94563390D02*
X144335714Y-94515771D01*
X144335714Y-94515771D02*
X144288095Y-94468152D01*
X144288095Y-94468152D02*
X144240476Y-94372914D01*
X144240476Y-94372914D02*
X144240476Y-94325295D01*
X144240476Y-94325295D02*
X144288095Y-94230057D01*
X144288095Y-94230057D02*
X144335714Y-94182438D01*
X144335714Y-94182438D02*
X144430952Y-94134819D01*
X144430952Y-94134819D02*
X144621428Y-94134819D01*
X144621428Y-94134819D02*
X144716666Y-94182438D01*
X144716666Y-94182438D02*
X144764285Y-94230057D01*
X144764285Y-94230057D02*
X144811904Y-94325295D01*
X144811904Y-94325295D02*
X144811904Y-94372914D01*
X144811904Y-94372914D02*
X144764285Y-94468152D01*
X144764285Y-94468152D02*
X144716666Y-94515771D01*
X144716666Y-94515771D02*
X144621428Y-94563390D01*
X144621428Y-94563390D02*
X144430952Y-94563390D01*
X144430952Y-94563390D02*
X144335714Y-94611009D01*
X144335714Y-94611009D02*
X144288095Y-94658628D01*
X144288095Y-94658628D02*
X144240476Y-94753866D01*
X144240476Y-94753866D02*
X144240476Y-94944342D01*
X144240476Y-94944342D02*
X144288095Y-95039580D01*
X144288095Y-95039580D02*
X144335714Y-95087200D01*
X144335714Y-95087200D02*
X144430952Y-95134819D01*
X144430952Y-95134819D02*
X144621428Y-95134819D01*
X144621428Y-95134819D02*
X144716666Y-95087200D01*
X144716666Y-95087200D02*
X144764285Y-95039580D01*
X144764285Y-95039580D02*
X144811904Y-94944342D01*
X144811904Y-94944342D02*
X144811904Y-94753866D01*
X144811904Y-94753866D02*
X144764285Y-94658628D01*
X144764285Y-94658628D02*
X144716666Y-94611009D01*
X144716666Y-94611009D02*
X144621428Y-94563390D01*
X163549580Y-95622857D02*
X163597200Y-95670476D01*
X163597200Y-95670476D02*
X163644819Y-95813333D01*
X163644819Y-95813333D02*
X163644819Y-95908571D01*
X163644819Y-95908571D02*
X163597200Y-96051428D01*
X163597200Y-96051428D02*
X163501961Y-96146666D01*
X163501961Y-96146666D02*
X163406723Y-96194285D01*
X163406723Y-96194285D02*
X163216247Y-96241904D01*
X163216247Y-96241904D02*
X163073390Y-96241904D01*
X163073390Y-96241904D02*
X162882914Y-96194285D01*
X162882914Y-96194285D02*
X162787676Y-96146666D01*
X162787676Y-96146666D02*
X162692438Y-96051428D01*
X162692438Y-96051428D02*
X162644819Y-95908571D01*
X162644819Y-95908571D02*
X162644819Y-95813333D01*
X162644819Y-95813333D02*
X162692438Y-95670476D01*
X162692438Y-95670476D02*
X162740057Y-95622857D01*
X163644819Y-94670476D02*
X163644819Y-95241904D01*
X163644819Y-94956190D02*
X162644819Y-94956190D01*
X162644819Y-94956190D02*
X162787676Y-95051428D01*
X162787676Y-95051428D02*
X162882914Y-95146666D01*
X162882914Y-95146666D02*
X162930533Y-95241904D01*
X162644819Y-94337142D02*
X162644819Y-93718095D01*
X162644819Y-93718095D02*
X163025771Y-94051428D01*
X163025771Y-94051428D02*
X163025771Y-93908571D01*
X163025771Y-93908571D02*
X163073390Y-93813333D01*
X163073390Y-93813333D02*
X163121009Y-93765714D01*
X163121009Y-93765714D02*
X163216247Y-93718095D01*
X163216247Y-93718095D02*
X163454342Y-93718095D01*
X163454342Y-93718095D02*
X163549580Y-93765714D01*
X163549580Y-93765714D02*
X163597200Y-93813333D01*
X163597200Y-93813333D02*
X163644819Y-93908571D01*
X163644819Y-93908571D02*
X163644819Y-94194285D01*
X163644819Y-94194285D02*
X163597200Y-94289523D01*
X163597200Y-94289523D02*
X163549580Y-94337142D01*
X174377200Y-66333332D02*
X174424819Y-66190475D01*
X174424819Y-66190475D02*
X174424819Y-65952380D01*
X174424819Y-65952380D02*
X174377200Y-65857142D01*
X174377200Y-65857142D02*
X174329580Y-65809523D01*
X174329580Y-65809523D02*
X174234342Y-65761904D01*
X174234342Y-65761904D02*
X174139104Y-65761904D01*
X174139104Y-65761904D02*
X174043866Y-65809523D01*
X174043866Y-65809523D02*
X173996247Y-65857142D01*
X173996247Y-65857142D02*
X173948628Y-65952380D01*
X173948628Y-65952380D02*
X173901009Y-66142856D01*
X173901009Y-66142856D02*
X173853390Y-66238094D01*
X173853390Y-66238094D02*
X173805771Y-66285713D01*
X173805771Y-66285713D02*
X173710533Y-66333332D01*
X173710533Y-66333332D02*
X173615295Y-66333332D01*
X173615295Y-66333332D02*
X173520057Y-66285713D01*
X173520057Y-66285713D02*
X173472438Y-66238094D01*
X173472438Y-66238094D02*
X173424819Y-66142856D01*
X173424819Y-66142856D02*
X173424819Y-65904761D01*
X173424819Y-65904761D02*
X173472438Y-65761904D01*
X173424819Y-65428570D02*
X174424819Y-65190475D01*
X174424819Y-65190475D02*
X173710533Y-64999999D01*
X173710533Y-64999999D02*
X174424819Y-64809523D01*
X174424819Y-64809523D02*
X173424819Y-64571428D01*
X174424819Y-63666666D02*
X174424819Y-64238094D01*
X174424819Y-63952380D02*
X173424819Y-63952380D01*
X173424819Y-63952380D02*
X173567676Y-64047618D01*
X173567676Y-64047618D02*
X173662914Y-64142856D01*
X173662914Y-64142856D02*
X173710533Y-64238094D01*
X157264819Y-93186666D02*
X156788628Y-93519999D01*
X157264819Y-93758094D02*
X156264819Y-93758094D01*
X156264819Y-93758094D02*
X156264819Y-93377142D01*
X156264819Y-93377142D02*
X156312438Y-93281904D01*
X156312438Y-93281904D02*
X156360057Y-93234285D01*
X156360057Y-93234285D02*
X156455295Y-93186666D01*
X156455295Y-93186666D02*
X156598152Y-93186666D01*
X156598152Y-93186666D02*
X156693390Y-93234285D01*
X156693390Y-93234285D02*
X156741009Y-93281904D01*
X156741009Y-93281904D02*
X156788628Y-93377142D01*
X156788628Y-93377142D02*
X156788628Y-93758094D01*
X157264819Y-92710475D02*
X157264819Y-92519999D01*
X157264819Y-92519999D02*
X157217200Y-92424761D01*
X157217200Y-92424761D02*
X157169580Y-92377142D01*
X157169580Y-92377142D02*
X157026723Y-92281904D01*
X157026723Y-92281904D02*
X156836247Y-92234285D01*
X156836247Y-92234285D02*
X156455295Y-92234285D01*
X156455295Y-92234285D02*
X156360057Y-92281904D01*
X156360057Y-92281904D02*
X156312438Y-92329523D01*
X156312438Y-92329523D02*
X156264819Y-92424761D01*
X156264819Y-92424761D02*
X156264819Y-92615237D01*
X156264819Y-92615237D02*
X156312438Y-92710475D01*
X156312438Y-92710475D02*
X156360057Y-92758094D01*
X156360057Y-92758094D02*
X156455295Y-92805713D01*
X156455295Y-92805713D02*
X156693390Y-92805713D01*
X156693390Y-92805713D02*
X156788628Y-92758094D01*
X156788628Y-92758094D02*
X156836247Y-92710475D01*
X156836247Y-92710475D02*
X156883866Y-92615237D01*
X156883866Y-92615237D02*
X156883866Y-92424761D01*
X156883866Y-92424761D02*
X156836247Y-92329523D01*
X156836247Y-92329523D02*
X156788628Y-92281904D01*
X156788628Y-92281904D02*
X156693390Y-92234285D01*
X163284819Y-92166666D02*
X162808628Y-92499999D01*
X163284819Y-92738094D02*
X162284819Y-92738094D01*
X162284819Y-92738094D02*
X162284819Y-92357142D01*
X162284819Y-92357142D02*
X162332438Y-92261904D01*
X162332438Y-92261904D02*
X162380057Y-92214285D01*
X162380057Y-92214285D02*
X162475295Y-92166666D01*
X162475295Y-92166666D02*
X162618152Y-92166666D01*
X162618152Y-92166666D02*
X162713390Y-92214285D01*
X162713390Y-92214285D02*
X162761009Y-92261904D01*
X162761009Y-92261904D02*
X162808628Y-92357142D01*
X162808628Y-92357142D02*
X162808628Y-92738094D01*
X162618152Y-91309523D02*
X163284819Y-91309523D01*
X162237200Y-91547618D02*
X162951485Y-91785713D01*
X162951485Y-91785713D02*
X162951485Y-91166666D01*
X161263095Y-90354819D02*
X161263095Y-91164342D01*
X161263095Y-91164342D02*
X161310714Y-91259580D01*
X161310714Y-91259580D02*
X161358333Y-91307200D01*
X161358333Y-91307200D02*
X161453571Y-91354819D01*
X161453571Y-91354819D02*
X161644047Y-91354819D01*
X161644047Y-91354819D02*
X161739285Y-91307200D01*
X161739285Y-91307200D02*
X161786904Y-91259580D01*
X161786904Y-91259580D02*
X161834523Y-91164342D01*
X161834523Y-91164342D02*
X161834523Y-90354819D01*
X162263095Y-90450057D02*
X162310714Y-90402438D01*
X162310714Y-90402438D02*
X162405952Y-90354819D01*
X162405952Y-90354819D02*
X162644047Y-90354819D01*
X162644047Y-90354819D02*
X162739285Y-90402438D01*
X162739285Y-90402438D02*
X162786904Y-90450057D01*
X162786904Y-90450057D02*
X162834523Y-90545295D01*
X162834523Y-90545295D02*
X162834523Y-90640533D01*
X162834523Y-90640533D02*
X162786904Y-90783390D01*
X162786904Y-90783390D02*
X162215476Y-91354819D01*
X162215476Y-91354819D02*
X162834523Y-91354819D01*
X149377142Y-95359580D02*
X149329523Y-95407200D01*
X149329523Y-95407200D02*
X149186666Y-95454819D01*
X149186666Y-95454819D02*
X149091428Y-95454819D01*
X149091428Y-95454819D02*
X148948571Y-95407200D01*
X148948571Y-95407200D02*
X148853333Y-95311961D01*
X148853333Y-95311961D02*
X148805714Y-95216723D01*
X148805714Y-95216723D02*
X148758095Y-95026247D01*
X148758095Y-95026247D02*
X148758095Y-94883390D01*
X148758095Y-94883390D02*
X148805714Y-94692914D01*
X148805714Y-94692914D02*
X148853333Y-94597676D01*
X148853333Y-94597676D02*
X148948571Y-94502438D01*
X148948571Y-94502438D02*
X149091428Y-94454819D01*
X149091428Y-94454819D02*
X149186666Y-94454819D01*
X149186666Y-94454819D02*
X149329523Y-94502438D01*
X149329523Y-94502438D02*
X149377142Y-94550057D01*
X150329523Y-95454819D02*
X149758095Y-95454819D01*
X150043809Y-95454819D02*
X150043809Y-94454819D01*
X150043809Y-94454819D02*
X149948571Y-94597676D01*
X149948571Y-94597676D02*
X149853333Y-94692914D01*
X149853333Y-94692914D02*
X149758095Y-94740533D01*
X150710476Y-94550057D02*
X150758095Y-94502438D01*
X150758095Y-94502438D02*
X150853333Y-94454819D01*
X150853333Y-94454819D02*
X151091428Y-94454819D01*
X151091428Y-94454819D02*
X151186666Y-94502438D01*
X151186666Y-94502438D02*
X151234285Y-94550057D01*
X151234285Y-94550057D02*
X151281904Y-94645295D01*
X151281904Y-94645295D02*
X151281904Y-94740533D01*
X151281904Y-94740533D02*
X151234285Y-94883390D01*
X151234285Y-94883390D02*
X150662857Y-95454819D01*
X150662857Y-95454819D02*
X151281904Y-95454819D01*
X169624819Y-91166666D02*
X169148628Y-91499999D01*
X169624819Y-91738094D02*
X168624819Y-91738094D01*
X168624819Y-91738094D02*
X168624819Y-91357142D01*
X168624819Y-91357142D02*
X168672438Y-91261904D01*
X168672438Y-91261904D02*
X168720057Y-91214285D01*
X168720057Y-91214285D02*
X168815295Y-91166666D01*
X168815295Y-91166666D02*
X168958152Y-91166666D01*
X168958152Y-91166666D02*
X169053390Y-91214285D01*
X169053390Y-91214285D02*
X169101009Y-91261904D01*
X169101009Y-91261904D02*
X169148628Y-91357142D01*
X169148628Y-91357142D02*
X169148628Y-91738094D01*
X168624819Y-90261904D02*
X168624819Y-90738094D01*
X168624819Y-90738094D02*
X169101009Y-90785713D01*
X169101009Y-90785713D02*
X169053390Y-90738094D01*
X169053390Y-90738094D02*
X169005771Y-90642856D01*
X169005771Y-90642856D02*
X169005771Y-90404761D01*
X169005771Y-90404761D02*
X169053390Y-90309523D01*
X169053390Y-90309523D02*
X169101009Y-90261904D01*
X169101009Y-90261904D02*
X169196247Y-90214285D01*
X169196247Y-90214285D02*
X169434342Y-90214285D01*
X169434342Y-90214285D02*
X169529580Y-90261904D01*
X169529580Y-90261904D02*
X169577200Y-90309523D01*
X169577200Y-90309523D02*
X169624819Y-90404761D01*
X169624819Y-90404761D02*
X169624819Y-90642856D01*
X169624819Y-90642856D02*
X169577200Y-90738094D01*
X169577200Y-90738094D02*
X169529580Y-90785713D01*
X164549580Y-95642857D02*
X164597200Y-95690476D01*
X164597200Y-95690476D02*
X164644819Y-95833333D01*
X164644819Y-95833333D02*
X164644819Y-95928571D01*
X164644819Y-95928571D02*
X164597200Y-96071428D01*
X164597200Y-96071428D02*
X164501961Y-96166666D01*
X164501961Y-96166666D02*
X164406723Y-96214285D01*
X164406723Y-96214285D02*
X164216247Y-96261904D01*
X164216247Y-96261904D02*
X164073390Y-96261904D01*
X164073390Y-96261904D02*
X163882914Y-96214285D01*
X163882914Y-96214285D02*
X163787676Y-96166666D01*
X163787676Y-96166666D02*
X163692438Y-96071428D01*
X163692438Y-96071428D02*
X163644819Y-95928571D01*
X163644819Y-95928571D02*
X163644819Y-95833333D01*
X163644819Y-95833333D02*
X163692438Y-95690476D01*
X163692438Y-95690476D02*
X163740057Y-95642857D01*
X163740057Y-95261904D02*
X163692438Y-95214285D01*
X163692438Y-95214285D02*
X163644819Y-95119047D01*
X163644819Y-95119047D02*
X163644819Y-94880952D01*
X163644819Y-94880952D02*
X163692438Y-94785714D01*
X163692438Y-94785714D02*
X163740057Y-94738095D01*
X163740057Y-94738095D02*
X163835295Y-94690476D01*
X163835295Y-94690476D02*
X163930533Y-94690476D01*
X163930533Y-94690476D02*
X164073390Y-94738095D01*
X164073390Y-94738095D02*
X164644819Y-95309523D01*
X164644819Y-95309523D02*
X164644819Y-94690476D01*
X163644819Y-94071428D02*
X163644819Y-93976190D01*
X163644819Y-93976190D02*
X163692438Y-93880952D01*
X163692438Y-93880952D02*
X163740057Y-93833333D01*
X163740057Y-93833333D02*
X163835295Y-93785714D01*
X163835295Y-93785714D02*
X164025771Y-93738095D01*
X164025771Y-93738095D02*
X164263866Y-93738095D01*
X164263866Y-93738095D02*
X164454342Y-93785714D01*
X164454342Y-93785714D02*
X164549580Y-93833333D01*
X164549580Y-93833333D02*
X164597200Y-93880952D01*
X164597200Y-93880952D02*
X164644819Y-93976190D01*
X164644819Y-93976190D02*
X164644819Y-94071428D01*
X164644819Y-94071428D02*
X164597200Y-94166666D01*
X164597200Y-94166666D02*
X164549580Y-94214285D01*
X164549580Y-94214285D02*
X164454342Y-94261904D01*
X164454342Y-94261904D02*
X164263866Y-94309523D01*
X164263866Y-94309523D02*
X164025771Y-94309523D01*
X164025771Y-94309523D02*
X163835295Y-94261904D01*
X163835295Y-94261904D02*
X163740057Y-94214285D01*
X163740057Y-94214285D02*
X163692438Y-94166666D01*
X163692438Y-94166666D02*
X163644819Y-94071428D01*
X150699580Y-88166666D02*
X150747200Y-88214285D01*
X150747200Y-88214285D02*
X150794819Y-88357142D01*
X150794819Y-88357142D02*
X150794819Y-88452380D01*
X150794819Y-88452380D02*
X150747200Y-88595237D01*
X150747200Y-88595237D02*
X150651961Y-88690475D01*
X150651961Y-88690475D02*
X150556723Y-88738094D01*
X150556723Y-88738094D02*
X150366247Y-88785713D01*
X150366247Y-88785713D02*
X150223390Y-88785713D01*
X150223390Y-88785713D02*
X150032914Y-88738094D01*
X150032914Y-88738094D02*
X149937676Y-88690475D01*
X149937676Y-88690475D02*
X149842438Y-88595237D01*
X149842438Y-88595237D02*
X149794819Y-88452380D01*
X149794819Y-88452380D02*
X149794819Y-88357142D01*
X149794819Y-88357142D02*
X149842438Y-88214285D01*
X149842438Y-88214285D02*
X149890057Y-88166666D01*
X149794819Y-87833332D02*
X149794819Y-87166666D01*
X149794819Y-87166666D02*
X150794819Y-87595237D01*
X154124819Y-93176666D02*
X153648628Y-93509999D01*
X154124819Y-93748094D02*
X153124819Y-93748094D01*
X153124819Y-93748094D02*
X153124819Y-93367142D01*
X153124819Y-93367142D02*
X153172438Y-93271904D01*
X153172438Y-93271904D02*
X153220057Y-93224285D01*
X153220057Y-93224285D02*
X153315295Y-93176666D01*
X153315295Y-93176666D02*
X153458152Y-93176666D01*
X153458152Y-93176666D02*
X153553390Y-93224285D01*
X153553390Y-93224285D02*
X153601009Y-93271904D01*
X153601009Y-93271904D02*
X153648628Y-93367142D01*
X153648628Y-93367142D02*
X153648628Y-93748094D01*
X153220057Y-92795713D02*
X153172438Y-92748094D01*
X153172438Y-92748094D02*
X153124819Y-92652856D01*
X153124819Y-92652856D02*
X153124819Y-92414761D01*
X153124819Y-92414761D02*
X153172438Y-92319523D01*
X153172438Y-92319523D02*
X153220057Y-92271904D01*
X153220057Y-92271904D02*
X153315295Y-92224285D01*
X153315295Y-92224285D02*
X153410533Y-92224285D01*
X153410533Y-92224285D02*
X153553390Y-92271904D01*
X153553390Y-92271904D02*
X154124819Y-92843332D01*
X154124819Y-92843332D02*
X154124819Y-92224285D01*
X164784819Y-93176666D02*
X164308628Y-93509999D01*
X164784819Y-93748094D02*
X163784819Y-93748094D01*
X163784819Y-93748094D02*
X163784819Y-93367142D01*
X163784819Y-93367142D02*
X163832438Y-93271904D01*
X163832438Y-93271904D02*
X163880057Y-93224285D01*
X163880057Y-93224285D02*
X163975295Y-93176666D01*
X163975295Y-93176666D02*
X164118152Y-93176666D01*
X164118152Y-93176666D02*
X164213390Y-93224285D01*
X164213390Y-93224285D02*
X164261009Y-93271904D01*
X164261009Y-93271904D02*
X164308628Y-93367142D01*
X164308628Y-93367142D02*
X164308628Y-93748094D01*
X163784819Y-92843332D02*
X163784819Y-92224285D01*
X163784819Y-92224285D02*
X164165771Y-92557618D01*
X164165771Y-92557618D02*
X164165771Y-92414761D01*
X164165771Y-92414761D02*
X164213390Y-92319523D01*
X164213390Y-92319523D02*
X164261009Y-92271904D01*
X164261009Y-92271904D02*
X164356247Y-92224285D01*
X164356247Y-92224285D02*
X164594342Y-92224285D01*
X164594342Y-92224285D02*
X164689580Y-92271904D01*
X164689580Y-92271904D02*
X164737200Y-92319523D01*
X164737200Y-92319523D02*
X164784819Y-92414761D01*
X164784819Y-92414761D02*
X164784819Y-92700475D01*
X164784819Y-92700475D02*
X164737200Y-92795713D01*
X164737200Y-92795713D02*
X164689580Y-92843332D01*
X156738095Y-83154819D02*
X156738095Y-83964342D01*
X156738095Y-83964342D02*
X156785714Y-84059580D01*
X156785714Y-84059580D02*
X156833333Y-84107200D01*
X156833333Y-84107200D02*
X156928571Y-84154819D01*
X156928571Y-84154819D02*
X157119047Y-84154819D01*
X157119047Y-84154819D02*
X157214285Y-84107200D01*
X157214285Y-84107200D02*
X157261904Y-84059580D01*
X157261904Y-84059580D02*
X157309523Y-83964342D01*
X157309523Y-83964342D02*
X157309523Y-83154819D01*
X158214285Y-83488152D02*
X158214285Y-84154819D01*
X157976190Y-83107200D02*
X157738095Y-83821485D01*
X157738095Y-83821485D02*
X158357142Y-83821485D01*
X147699580Y-93646666D02*
X147747200Y-93694285D01*
X147747200Y-93694285D02*
X147794819Y-93837142D01*
X147794819Y-93837142D02*
X147794819Y-93932380D01*
X147794819Y-93932380D02*
X147747200Y-94075237D01*
X147747200Y-94075237D02*
X147651961Y-94170475D01*
X147651961Y-94170475D02*
X147556723Y-94218094D01*
X147556723Y-94218094D02*
X147366247Y-94265713D01*
X147366247Y-94265713D02*
X147223390Y-94265713D01*
X147223390Y-94265713D02*
X147032914Y-94218094D01*
X147032914Y-94218094D02*
X146937676Y-94170475D01*
X146937676Y-94170475D02*
X146842438Y-94075237D01*
X146842438Y-94075237D02*
X146794819Y-93932380D01*
X146794819Y-93932380D02*
X146794819Y-93837142D01*
X146794819Y-93837142D02*
X146842438Y-93694285D01*
X146842438Y-93694285D02*
X146890057Y-93646666D01*
X146794819Y-92741904D02*
X146794819Y-93218094D01*
X146794819Y-93218094D02*
X147271009Y-93265713D01*
X147271009Y-93265713D02*
X147223390Y-93218094D01*
X147223390Y-93218094D02*
X147175771Y-93122856D01*
X147175771Y-93122856D02*
X147175771Y-92884761D01*
X147175771Y-92884761D02*
X147223390Y-92789523D01*
X147223390Y-92789523D02*
X147271009Y-92741904D01*
X147271009Y-92741904D02*
X147366247Y-92694285D01*
X147366247Y-92694285D02*
X147604342Y-92694285D01*
X147604342Y-92694285D02*
X147699580Y-92741904D01*
X147699580Y-92741904D02*
X147747200Y-92789523D01*
X147747200Y-92789523D02*
X147794819Y-92884761D01*
X147794819Y-92884761D02*
X147794819Y-93122856D01*
X147794819Y-93122856D02*
X147747200Y-93218094D01*
X147747200Y-93218094D02*
X147699580Y-93265713D01*
X165288095Y-79329819D02*
X165288095Y-80139342D01*
X165288095Y-80139342D02*
X165335714Y-80234580D01*
X165335714Y-80234580D02*
X165383333Y-80282200D01*
X165383333Y-80282200D02*
X165478571Y-80329819D01*
X165478571Y-80329819D02*
X165669047Y-80329819D01*
X165669047Y-80329819D02*
X165764285Y-80282200D01*
X165764285Y-80282200D02*
X165811904Y-80234580D01*
X165811904Y-80234580D02*
X165859523Y-80139342D01*
X165859523Y-80139342D02*
X165859523Y-79329819D01*
X166859523Y-80329819D02*
X166288095Y-80329819D01*
X166573809Y-80329819D02*
X166573809Y-79329819D01*
X166573809Y-79329819D02*
X166478571Y-79472676D01*
X166478571Y-79472676D02*
X166383333Y-79567914D01*
X166383333Y-79567914D02*
X166288095Y-79615533D01*
X161784819Y-78652857D02*
X161308628Y-78986190D01*
X161784819Y-79224285D02*
X160784819Y-79224285D01*
X160784819Y-79224285D02*
X160784819Y-78843333D01*
X160784819Y-78843333D02*
X160832438Y-78748095D01*
X160832438Y-78748095D02*
X160880057Y-78700476D01*
X160880057Y-78700476D02*
X160975295Y-78652857D01*
X160975295Y-78652857D02*
X161118152Y-78652857D01*
X161118152Y-78652857D02*
X161213390Y-78700476D01*
X161213390Y-78700476D02*
X161261009Y-78748095D01*
X161261009Y-78748095D02*
X161308628Y-78843333D01*
X161308628Y-78843333D02*
X161308628Y-79224285D01*
X161784819Y-77700476D02*
X161784819Y-78271904D01*
X161784819Y-77986190D02*
X160784819Y-77986190D01*
X160784819Y-77986190D02*
X160927676Y-78081428D01*
X160927676Y-78081428D02*
X161022914Y-78176666D01*
X161022914Y-78176666D02*
X161070533Y-78271904D01*
X161784819Y-76748095D02*
X161784819Y-77319523D01*
X161784819Y-77033809D02*
X160784819Y-77033809D01*
X160784819Y-77033809D02*
X160927676Y-77129047D01*
X160927676Y-77129047D02*
X161022914Y-77224285D01*
X161022914Y-77224285D02*
X161070533Y-77319523D01*
X142907142Y-88679580D02*
X142859523Y-88727200D01*
X142859523Y-88727200D02*
X142716666Y-88774819D01*
X142716666Y-88774819D02*
X142621428Y-88774819D01*
X142621428Y-88774819D02*
X142478571Y-88727200D01*
X142478571Y-88727200D02*
X142383333Y-88631961D01*
X142383333Y-88631961D02*
X142335714Y-88536723D01*
X142335714Y-88536723D02*
X142288095Y-88346247D01*
X142288095Y-88346247D02*
X142288095Y-88203390D01*
X142288095Y-88203390D02*
X142335714Y-88012914D01*
X142335714Y-88012914D02*
X142383333Y-87917676D01*
X142383333Y-87917676D02*
X142478571Y-87822438D01*
X142478571Y-87822438D02*
X142621428Y-87774819D01*
X142621428Y-87774819D02*
X142716666Y-87774819D01*
X142716666Y-87774819D02*
X142859523Y-87822438D01*
X142859523Y-87822438D02*
X142907142Y-87870057D01*
X143859523Y-88774819D02*
X143288095Y-88774819D01*
X143573809Y-88774819D02*
X143573809Y-87774819D01*
X143573809Y-87774819D02*
X143478571Y-87917676D01*
X143478571Y-87917676D02*
X143383333Y-88012914D01*
X143383333Y-88012914D02*
X143288095Y-88060533D01*
X144192857Y-87774819D02*
X144859523Y-87774819D01*
X144859523Y-87774819D02*
X144430952Y-88774819D01*
X169600595Y-64604819D02*
X169600595Y-65414342D01*
X169600595Y-65414342D02*
X169648214Y-65509580D01*
X169648214Y-65509580D02*
X169695833Y-65557200D01*
X169695833Y-65557200D02*
X169791071Y-65604819D01*
X169791071Y-65604819D02*
X169981547Y-65604819D01*
X169981547Y-65604819D02*
X170076785Y-65557200D01*
X170076785Y-65557200D02*
X170124404Y-65509580D01*
X170124404Y-65509580D02*
X170172023Y-65414342D01*
X170172023Y-65414342D02*
X170172023Y-64604819D01*
X171076785Y-64604819D02*
X170886309Y-64604819D01*
X170886309Y-64604819D02*
X170791071Y-64652438D01*
X170791071Y-64652438D02*
X170743452Y-64700057D01*
X170743452Y-64700057D02*
X170648214Y-64842914D01*
X170648214Y-64842914D02*
X170600595Y-65033390D01*
X170600595Y-65033390D02*
X170600595Y-65414342D01*
X170600595Y-65414342D02*
X170648214Y-65509580D01*
X170648214Y-65509580D02*
X170695833Y-65557200D01*
X170695833Y-65557200D02*
X170791071Y-65604819D01*
X170791071Y-65604819D02*
X170981547Y-65604819D01*
X170981547Y-65604819D02*
X171076785Y-65557200D01*
X171076785Y-65557200D02*
X171124404Y-65509580D01*
X171124404Y-65509580D02*
X171172023Y-65414342D01*
X171172023Y-65414342D02*
X171172023Y-65176247D01*
X171172023Y-65176247D02*
X171124404Y-65081009D01*
X171124404Y-65081009D02*
X171076785Y-65033390D01*
X171076785Y-65033390D02*
X170981547Y-64985771D01*
X170981547Y-64985771D02*
X170791071Y-64985771D01*
X170791071Y-64985771D02*
X170695833Y-65033390D01*
X170695833Y-65033390D02*
X170648214Y-65081009D01*
X170648214Y-65081009D02*
X170600595Y-65176247D01*
X170357142Y-85954819D02*
X170023809Y-85478628D01*
X169785714Y-85954819D02*
X169785714Y-84954819D01*
X169785714Y-84954819D02*
X170166666Y-84954819D01*
X170166666Y-84954819D02*
X170261904Y-85002438D01*
X170261904Y-85002438D02*
X170309523Y-85050057D01*
X170309523Y-85050057D02*
X170357142Y-85145295D01*
X170357142Y-85145295D02*
X170357142Y-85288152D01*
X170357142Y-85288152D02*
X170309523Y-85383390D01*
X170309523Y-85383390D02*
X170261904Y-85431009D01*
X170261904Y-85431009D02*
X170166666Y-85478628D01*
X170166666Y-85478628D02*
X169785714Y-85478628D01*
X171309523Y-85954819D02*
X170738095Y-85954819D01*
X171023809Y-85954819D02*
X171023809Y-84954819D01*
X171023809Y-84954819D02*
X170928571Y-85097676D01*
X170928571Y-85097676D02*
X170833333Y-85192914D01*
X170833333Y-85192914D02*
X170738095Y-85240533D01*
X171690476Y-85050057D02*
X171738095Y-85002438D01*
X171738095Y-85002438D02*
X171833333Y-84954819D01*
X171833333Y-84954819D02*
X172071428Y-84954819D01*
X172071428Y-84954819D02*
X172166666Y-85002438D01*
X172166666Y-85002438D02*
X172214285Y-85050057D01*
X172214285Y-85050057D02*
X172261904Y-85145295D01*
X172261904Y-85145295D02*
X172261904Y-85240533D01*
X172261904Y-85240533D02*
X172214285Y-85383390D01*
X172214285Y-85383390D02*
X171642857Y-85954819D01*
X171642857Y-85954819D02*
X172261904Y-85954819D01*
X168353333Y-109554819D02*
X167877143Y-109554819D01*
X167877143Y-109554819D02*
X167877143Y-108554819D01*
X168639048Y-108650057D02*
X168686667Y-108602438D01*
X168686667Y-108602438D02*
X168781905Y-108554819D01*
X168781905Y-108554819D02*
X169020000Y-108554819D01*
X169020000Y-108554819D02*
X169115238Y-108602438D01*
X169115238Y-108602438D02*
X169162857Y-108650057D01*
X169162857Y-108650057D02*
X169210476Y-108745295D01*
X169210476Y-108745295D02*
X169210476Y-108840533D01*
X169210476Y-108840533D02*
X169162857Y-108983390D01*
X169162857Y-108983390D02*
X168591429Y-109554819D01*
X168591429Y-109554819D02*
X169210476Y-109554819D01*
X170357142Y-83284819D02*
X170023809Y-82808628D01*
X169785714Y-83284819D02*
X169785714Y-82284819D01*
X169785714Y-82284819D02*
X170166666Y-82284819D01*
X170166666Y-82284819D02*
X170261904Y-82332438D01*
X170261904Y-82332438D02*
X170309523Y-82380057D01*
X170309523Y-82380057D02*
X170357142Y-82475295D01*
X170357142Y-82475295D02*
X170357142Y-82618152D01*
X170357142Y-82618152D02*
X170309523Y-82713390D01*
X170309523Y-82713390D02*
X170261904Y-82761009D01*
X170261904Y-82761009D02*
X170166666Y-82808628D01*
X170166666Y-82808628D02*
X169785714Y-82808628D01*
X171309523Y-83284819D02*
X170738095Y-83284819D01*
X171023809Y-83284819D02*
X171023809Y-82284819D01*
X171023809Y-82284819D02*
X170928571Y-82427676D01*
X170928571Y-82427676D02*
X170833333Y-82522914D01*
X170833333Y-82522914D02*
X170738095Y-82570533D01*
X172166666Y-82618152D02*
X172166666Y-83284819D01*
X171928571Y-82237200D02*
X171690476Y-82951485D01*
X171690476Y-82951485D02*
X172309523Y-82951485D01*
X174166666Y-83034819D02*
X174166666Y-83749104D01*
X174166666Y-83749104D02*
X174119047Y-83891961D01*
X174119047Y-83891961D02*
X174023809Y-83987200D01*
X174023809Y-83987200D02*
X173880952Y-84034819D01*
X173880952Y-84034819D02*
X173785714Y-84034819D01*
X175119047Y-83034819D02*
X174642857Y-83034819D01*
X174642857Y-83034819D02*
X174595238Y-83511009D01*
X174595238Y-83511009D02*
X174642857Y-83463390D01*
X174642857Y-83463390D02*
X174738095Y-83415771D01*
X174738095Y-83415771D02*
X174976190Y-83415771D01*
X174976190Y-83415771D02*
X175071428Y-83463390D01*
X175071428Y-83463390D02*
X175119047Y-83511009D01*
X175119047Y-83511009D02*
X175166666Y-83606247D01*
X175166666Y-83606247D02*
X175166666Y-83844342D01*
X175166666Y-83844342D02*
X175119047Y-83939580D01*
X175119047Y-83939580D02*
X175071428Y-83987200D01*
X175071428Y-83987200D02*
X174976190Y-84034819D01*
X174976190Y-84034819D02*
X174738095Y-84034819D01*
X174738095Y-84034819D02*
X174642857Y-83987200D01*
X174642857Y-83987200D02*
X174595238Y-83939580D01*
X173857142Y-97189580D02*
X173809523Y-97237200D01*
X173809523Y-97237200D02*
X173666666Y-97284819D01*
X173666666Y-97284819D02*
X173571428Y-97284819D01*
X173571428Y-97284819D02*
X173428571Y-97237200D01*
X173428571Y-97237200D02*
X173333333Y-97141961D01*
X173333333Y-97141961D02*
X173285714Y-97046723D01*
X173285714Y-97046723D02*
X173238095Y-96856247D01*
X173238095Y-96856247D02*
X173238095Y-96713390D01*
X173238095Y-96713390D02*
X173285714Y-96522914D01*
X173285714Y-96522914D02*
X173333333Y-96427676D01*
X173333333Y-96427676D02*
X173428571Y-96332438D01*
X173428571Y-96332438D02*
X173571428Y-96284819D01*
X173571428Y-96284819D02*
X173666666Y-96284819D01*
X173666666Y-96284819D02*
X173809523Y-96332438D01*
X173809523Y-96332438D02*
X173857142Y-96380057D01*
X174238095Y-96380057D02*
X174285714Y-96332438D01*
X174285714Y-96332438D02*
X174380952Y-96284819D01*
X174380952Y-96284819D02*
X174619047Y-96284819D01*
X174619047Y-96284819D02*
X174714285Y-96332438D01*
X174714285Y-96332438D02*
X174761904Y-96380057D01*
X174761904Y-96380057D02*
X174809523Y-96475295D01*
X174809523Y-96475295D02*
X174809523Y-96570533D01*
X174809523Y-96570533D02*
X174761904Y-96713390D01*
X174761904Y-96713390D02*
X174190476Y-97284819D01*
X174190476Y-97284819D02*
X174809523Y-97284819D01*
X175142857Y-96284819D02*
X175761904Y-96284819D01*
X175761904Y-96284819D02*
X175428571Y-96665771D01*
X175428571Y-96665771D02*
X175571428Y-96665771D01*
X175571428Y-96665771D02*
X175666666Y-96713390D01*
X175666666Y-96713390D02*
X175714285Y-96761009D01*
X175714285Y-96761009D02*
X175761904Y-96856247D01*
X175761904Y-96856247D02*
X175761904Y-97094342D01*
X175761904Y-97094342D02*
X175714285Y-97189580D01*
X175714285Y-97189580D02*
X175666666Y-97237200D01*
X175666666Y-97237200D02*
X175571428Y-97284819D01*
X175571428Y-97284819D02*
X175285714Y-97284819D01*
X175285714Y-97284819D02*
X175190476Y-97237200D01*
X175190476Y-97237200D02*
X175142857Y-97189580D01*
X173857142Y-94179580D02*
X173809523Y-94227200D01*
X173809523Y-94227200D02*
X173666666Y-94274819D01*
X173666666Y-94274819D02*
X173571428Y-94274819D01*
X173571428Y-94274819D02*
X173428571Y-94227200D01*
X173428571Y-94227200D02*
X173333333Y-94131961D01*
X173333333Y-94131961D02*
X173285714Y-94036723D01*
X173285714Y-94036723D02*
X173238095Y-93846247D01*
X173238095Y-93846247D02*
X173238095Y-93703390D01*
X173238095Y-93703390D02*
X173285714Y-93512914D01*
X173285714Y-93512914D02*
X173333333Y-93417676D01*
X173333333Y-93417676D02*
X173428571Y-93322438D01*
X173428571Y-93322438D02*
X173571428Y-93274819D01*
X173571428Y-93274819D02*
X173666666Y-93274819D01*
X173666666Y-93274819D02*
X173809523Y-93322438D01*
X173809523Y-93322438D02*
X173857142Y-93370057D01*
X174238095Y-93370057D02*
X174285714Y-93322438D01*
X174285714Y-93322438D02*
X174380952Y-93274819D01*
X174380952Y-93274819D02*
X174619047Y-93274819D01*
X174619047Y-93274819D02*
X174714285Y-93322438D01*
X174714285Y-93322438D02*
X174761904Y-93370057D01*
X174761904Y-93370057D02*
X174809523Y-93465295D01*
X174809523Y-93465295D02*
X174809523Y-93560533D01*
X174809523Y-93560533D02*
X174761904Y-93703390D01*
X174761904Y-93703390D02*
X174190476Y-94274819D01*
X174190476Y-94274819D02*
X174809523Y-94274819D01*
X175190476Y-93370057D02*
X175238095Y-93322438D01*
X175238095Y-93322438D02*
X175333333Y-93274819D01*
X175333333Y-93274819D02*
X175571428Y-93274819D01*
X175571428Y-93274819D02*
X175666666Y-93322438D01*
X175666666Y-93322438D02*
X175714285Y-93370057D01*
X175714285Y-93370057D02*
X175761904Y-93465295D01*
X175761904Y-93465295D02*
X175761904Y-93560533D01*
X175761904Y-93560533D02*
X175714285Y-93703390D01*
X175714285Y-93703390D02*
X175142857Y-94274819D01*
X175142857Y-94274819D02*
X175761904Y-94274819D01*
X164197142Y-109459580D02*
X164149523Y-109507200D01*
X164149523Y-109507200D02*
X164006666Y-109554819D01*
X164006666Y-109554819D02*
X163911428Y-109554819D01*
X163911428Y-109554819D02*
X163768571Y-109507200D01*
X163768571Y-109507200D02*
X163673333Y-109411961D01*
X163673333Y-109411961D02*
X163625714Y-109316723D01*
X163625714Y-109316723D02*
X163578095Y-109126247D01*
X163578095Y-109126247D02*
X163578095Y-108983390D01*
X163578095Y-108983390D02*
X163625714Y-108792914D01*
X163625714Y-108792914D02*
X163673333Y-108697676D01*
X163673333Y-108697676D02*
X163768571Y-108602438D01*
X163768571Y-108602438D02*
X163911428Y-108554819D01*
X163911428Y-108554819D02*
X164006666Y-108554819D01*
X164006666Y-108554819D02*
X164149523Y-108602438D01*
X164149523Y-108602438D02*
X164197142Y-108650057D01*
X164578095Y-108650057D02*
X164625714Y-108602438D01*
X164625714Y-108602438D02*
X164720952Y-108554819D01*
X164720952Y-108554819D02*
X164959047Y-108554819D01*
X164959047Y-108554819D02*
X165054285Y-108602438D01*
X165054285Y-108602438D02*
X165101904Y-108650057D01*
X165101904Y-108650057D02*
X165149523Y-108745295D01*
X165149523Y-108745295D02*
X165149523Y-108840533D01*
X165149523Y-108840533D02*
X165101904Y-108983390D01*
X165101904Y-108983390D02*
X164530476Y-109554819D01*
X164530476Y-109554819D02*
X165149523Y-109554819D01*
X166101904Y-109554819D02*
X165530476Y-109554819D01*
X165816190Y-109554819D02*
X165816190Y-108554819D01*
X165816190Y-108554819D02*
X165720952Y-108697676D01*
X165720952Y-108697676D02*
X165625714Y-108792914D01*
X165625714Y-108792914D02*
X165530476Y-108840533D01*
X165619047Y-109431009D02*
X165761904Y-109478628D01*
X165761904Y-109478628D02*
X165809523Y-109526247D01*
X165809523Y-109526247D02*
X165857142Y-109621485D01*
X165857142Y-109621485D02*
X165857142Y-109764342D01*
X165857142Y-109764342D02*
X165809523Y-109859580D01*
X165809523Y-109859580D02*
X165761904Y-109907200D01*
X165761904Y-109907200D02*
X165666666Y-109954819D01*
X165666666Y-109954819D02*
X165285714Y-109954819D01*
X165285714Y-109954819D02*
X165285714Y-108954819D01*
X165285714Y-108954819D02*
X165619047Y-108954819D01*
X165619047Y-108954819D02*
X165714285Y-109002438D01*
X165714285Y-109002438D02*
X165761904Y-109050057D01*
X165761904Y-109050057D02*
X165809523Y-109145295D01*
X165809523Y-109145295D02*
X165809523Y-109240533D01*
X165809523Y-109240533D02*
X165761904Y-109335771D01*
X165761904Y-109335771D02*
X165714285Y-109383390D01*
X165714285Y-109383390D02*
X165619047Y-109431009D01*
X165619047Y-109431009D02*
X165285714Y-109431009D01*
X166190476Y-108954819D02*
X166857142Y-108954819D01*
X166857142Y-108954819D02*
X166190476Y-109954819D01*
X166190476Y-109954819D02*
X166857142Y-109954819D01*
X167761904Y-109954819D02*
X167190476Y-109954819D01*
X167476190Y-109954819D02*
X167476190Y-108954819D01*
X167476190Y-108954819D02*
X167380952Y-109097676D01*
X167380952Y-109097676D02*
X167285714Y-109192914D01*
X167285714Y-109192914D02*
X167190476Y-109240533D01*
X169776905Y-61784819D02*
X169776905Y-60784819D01*
X169776905Y-60784819D02*
X170015000Y-60784819D01*
X170015000Y-60784819D02*
X170157857Y-60832438D01*
X170157857Y-60832438D02*
X170253095Y-60927676D01*
X170253095Y-60927676D02*
X170300714Y-61022914D01*
X170300714Y-61022914D02*
X170348333Y-61213390D01*
X170348333Y-61213390D02*
X170348333Y-61356247D01*
X170348333Y-61356247D02*
X170300714Y-61546723D01*
X170300714Y-61546723D02*
X170253095Y-61641961D01*
X170253095Y-61641961D02*
X170157857Y-61737200D01*
X170157857Y-61737200D02*
X170015000Y-61784819D01*
X170015000Y-61784819D02*
X169776905Y-61784819D01*
X171300714Y-61784819D02*
X170729286Y-61784819D01*
X171015000Y-61784819D02*
X171015000Y-60784819D01*
X171015000Y-60784819D02*
X170919762Y-60927676D01*
X170919762Y-60927676D02*
X170824524Y-61022914D01*
X170824524Y-61022914D02*
X170729286Y-61070533D01*
X170357142Y-81784819D02*
X170023809Y-81308628D01*
X169785714Y-81784819D02*
X169785714Y-80784819D01*
X169785714Y-80784819D02*
X170166666Y-80784819D01*
X170166666Y-80784819D02*
X170261904Y-80832438D01*
X170261904Y-80832438D02*
X170309523Y-80880057D01*
X170309523Y-80880057D02*
X170357142Y-80975295D01*
X170357142Y-80975295D02*
X170357142Y-81118152D01*
X170357142Y-81118152D02*
X170309523Y-81213390D01*
X170309523Y-81213390D02*
X170261904Y-81261009D01*
X170261904Y-81261009D02*
X170166666Y-81308628D01*
X170166666Y-81308628D02*
X169785714Y-81308628D01*
X171309523Y-81784819D02*
X170738095Y-81784819D01*
X171023809Y-81784819D02*
X171023809Y-80784819D01*
X171023809Y-80784819D02*
X170928571Y-80927676D01*
X170928571Y-80927676D02*
X170833333Y-81022914D01*
X170833333Y-81022914D02*
X170738095Y-81070533D01*
X171642857Y-80784819D02*
X172261904Y-80784819D01*
X172261904Y-80784819D02*
X171928571Y-81165771D01*
X171928571Y-81165771D02*
X172071428Y-81165771D01*
X172071428Y-81165771D02*
X172166666Y-81213390D01*
X172166666Y-81213390D02*
X172214285Y-81261009D01*
X172214285Y-81261009D02*
X172261904Y-81356247D01*
X172261904Y-81356247D02*
X172261904Y-81594342D01*
X172261904Y-81594342D02*
X172214285Y-81689580D01*
X172214285Y-81689580D02*
X172166666Y-81737200D01*
X172166666Y-81737200D02*
X172071428Y-81784819D01*
X172071428Y-81784819D02*
X171785714Y-81784819D01*
X171785714Y-81784819D02*
X171690476Y-81737200D01*
X171690476Y-81737200D02*
X171642857Y-81689580D01*
D13*
%TO.C,J4*%
X161120000Y-53540000D02*
X162500000Y-53540000D01*
X161120000Y-54920000D02*
X161120000Y-53540000D01*
X161120000Y-56190000D02*
X161120000Y-63920000D01*
X161120000Y-56190000D02*
X163880000Y-56190000D01*
X161120000Y-63920000D02*
X163880000Y-63920000D01*
X163880000Y-56190000D02*
X163880000Y-63920000D01*
%TO.C,J3*%
X158385000Y-67995000D02*
X144375000Y-67995000D01*
X158385000Y-66075000D02*
X158385000Y-67995000D01*
X158385000Y-54475000D02*
X158385000Y-54025000D01*
X158385000Y-54025000D02*
X154775000Y-54025000D01*
X153075000Y-54025000D02*
X148375000Y-54025000D01*
X147075000Y-54025000D02*
X145275000Y-54025000D01*
X142465000Y-57125000D02*
X142465000Y-63495000D01*
X142465000Y-57125000D02*
X142315000Y-57125000D01*
X142315000Y-66515000D02*
X142315000Y-66775000D01*
X142115000Y-66315000D02*
X142315000Y-66515000D01*
X142115000Y-66315000D02*
X142115000Y-64005000D01*
X142115000Y-64005000D02*
X142465000Y-63495000D01*
X142115000Y-56915000D02*
X142315000Y-57125000D01*
X142115000Y-55055000D02*
X142315000Y-54855000D01*
X142115000Y-55055000D02*
X142115000Y-56915000D01*
%TO.C,AE1*%
X145640000Y-86360000D02*
X148360000Y-86360000D01*
X148360000Y-86360000D02*
X148360000Y-79650000D01*
X145640000Y-79650000D02*
X145640000Y-86360000D01*
%TO.C,R7*%
X170856359Y-87380000D02*
X171163641Y-87380000D01*
X170856359Y-86620000D02*
X171163641Y-86620000D01*
%TO.C,R10*%
X159380000Y-82163641D02*
X159380000Y-81856359D01*
X158620000Y-82163641D02*
X158620000Y-81856359D01*
%TO.C,C2*%
X151127836Y-82860000D02*
X150912164Y-82860000D01*
X151127836Y-82140000D02*
X150912164Y-82140000D01*
%TO.C,J2*%
X172940000Y-53690000D02*
X179060000Y-53690000D01*
X179060000Y-58410000D01*
X172940000Y-58410000D01*
X172940000Y-53690000D01*
X179060000Y-56300000D02*
X178450000Y-56300000D01*
X179060000Y-55000000D02*
X178450000Y-55000000D01*
X178450000Y-57800000D02*
X178450000Y-54300000D01*
X178450000Y-54300000D02*
X176500000Y-54300000D01*
X176500000Y-54300000D02*
X176500000Y-53690000D01*
X176100000Y-57300000D02*
X176100000Y-57800000D01*
X176000000Y-57800000D02*
X176000000Y-57300000D01*
X175900000Y-57800000D02*
X175900000Y-57300000D01*
X175900000Y-57300000D02*
X176100000Y-57300000D01*
X175500000Y-54300000D02*
X173550000Y-54300000D01*
X175500000Y-53690000D02*
X175500000Y-54300000D01*
X174700000Y-53690000D02*
X174700000Y-53490000D01*
X174700000Y-53590000D02*
X174400000Y-53590000D01*
X174700000Y-53490000D02*
X174400000Y-53490000D01*
X174400000Y-53490000D02*
X174400000Y-53690000D01*
X173890000Y-53390000D02*
X172640000Y-53390000D01*
X173550000Y-57800000D02*
X178450000Y-57800000D01*
X173550000Y-54300000D02*
X173550000Y-57800000D01*
X172940000Y-56300000D02*
X173550000Y-56300000D01*
X172940000Y-55000000D02*
X173550000Y-55000000D01*
X172640000Y-53390000D02*
X172640000Y-54640000D01*
%TO.C,U3*%
X154720000Y-69690000D02*
X154480000Y-69360000D01*
X154960000Y-69360000D01*
X154720000Y-69690000D01*
G36*
X154720000Y-69690000D02*
G01*
X154480000Y-69360000D01*
X154960000Y-69360000D01*
X154720000Y-69690000D01*
G37*
X159760000Y-76410000D02*
X159760000Y-75150000D01*
X159760000Y-69590000D02*
X159760000Y-70850000D01*
X156000000Y-76410000D02*
X159760000Y-76410000D01*
X156000000Y-69590000D02*
X159760000Y-69590000D01*
%TO.C,R8*%
X155610000Y-93173641D02*
X155610000Y-92866359D01*
X156370000Y-93173641D02*
X156370000Y-92866359D01*
%TO.C,C19*%
X164640000Y-94892164D02*
X164640000Y-95107836D01*
X165360000Y-94892164D02*
X165360000Y-95107836D01*
%TO.C,Y1*%
X162060000Y-93360000D02*
X162060000Y-91640000D01*
X162060000Y-91640000D02*
X159540000Y-91640000D01*
X159540000Y-93360000D02*
X162060000Y-93360000D01*
%TO.C,R6*%
X166390000Y-90846359D02*
X166390000Y-91153641D01*
X165630000Y-90846359D02*
X165630000Y-91153641D01*
%TO.C,C10*%
X148860000Y-88107836D02*
X148860000Y-87892164D01*
X148140000Y-88107836D02*
X148140000Y-87892164D01*
%TO.C,C11*%
X156912164Y-82360000D02*
X157127836Y-82360000D01*
X156912164Y-81640000D02*
X157127836Y-81640000D01*
%TO.C,C9*%
X149860000Y-88107836D02*
X149860000Y-87892164D01*
X149140000Y-88107836D02*
X149140000Y-87892164D01*
%TO.C,C16*%
X154235000Y-82788748D02*
X154235000Y-83311252D01*
X152765000Y-82788748D02*
X152765000Y-83311252D01*
%TO.C,C15*%
X154735000Y-79761252D02*
X154735000Y-79238748D01*
X153265000Y-79761252D02*
X153265000Y-79238748D01*
%TO.C,C4*%
X147360000Y-92892164D02*
X147360000Y-93107836D01*
X146640000Y-92892164D02*
X146640000Y-93107836D01*
%TO.C,C6*%
X160392164Y-77860000D02*
X160607836Y-77860000D01*
X160392164Y-77140000D02*
X160607836Y-77140000D01*
%TO.C,C14*%
X159700000Y-94872164D02*
X159700000Y-95087836D01*
X160420000Y-94872164D02*
X160420000Y-95087836D01*
%TO.C,R1*%
X154110000Y-92856359D02*
X154110000Y-93163641D01*
X154870000Y-92856359D02*
X154870000Y-93163641D01*
%TO.C,C8*%
X152860000Y-88127836D02*
X152860000Y-87912164D01*
X152140000Y-88127836D02*
X152140000Y-87912164D01*
%TO.C,C3*%
X150860000Y-88147836D02*
X150860000Y-87932164D01*
X150140000Y-88147836D02*
X150140000Y-87932164D01*
%TO.C,U5*%
X143400000Y-70530000D02*
X143160000Y-70200000D01*
X143640000Y-70200000D01*
X143400000Y-70530000D01*
G36*
X143400000Y-70530000D02*
G01*
X143160000Y-70200000D01*
X143640000Y-70200000D01*
X143400000Y-70530000D01*
G37*
X148060000Y-75560000D02*
X143940000Y-75560000D01*
X148060000Y-75465000D02*
X148060000Y-75560000D01*
X148060000Y-70440000D02*
X148060000Y-70535000D01*
X143940000Y-75560000D02*
X143940000Y-75465000D01*
X143940000Y-70535000D02*
X143940000Y-70440000D01*
X143940000Y-70440000D02*
X148060000Y-70440000D01*
%TO.C,C1*%
X150892164Y-80860000D02*
X151107836Y-80860000D01*
X150892164Y-80140000D02*
X151107836Y-80140000D01*
%TO.C,J1*%
X177950000Y-71120000D02*
X179850000Y-71120000D01*
X174050000Y-71120000D02*
X176050000Y-71120000D01*
X179850000Y-80520000D02*
X179850000Y-71120000D01*
X177950000Y-80520000D02*
X179850000Y-80520000D01*
X174050000Y-80520000D02*
X176050000Y-80520000D01*
%TO.C,C18*%
X143811252Y-93735000D02*
X143288748Y-93735000D01*
X143811252Y-92265000D02*
X143288748Y-92265000D01*
%TO.C,C13*%
X161670000Y-94872164D02*
X161670000Y-95087836D01*
X162390000Y-94872164D02*
X162390000Y-95087836D01*
%TO.C,SW1*%
X180400000Y-66200000D02*
X180400000Y-65300000D01*
X180190000Y-66400000D02*
X180400000Y-66200000D01*
X180190000Y-65100000D02*
X180400000Y-65300000D01*
X180190000Y-65100000D02*
X178900000Y-65100000D01*
X178900000Y-67850000D02*
X178900000Y-62150000D01*
X178900000Y-66400000D02*
X180190000Y-66400000D01*
X177890000Y-61550000D02*
X177100000Y-61550000D01*
X177100000Y-68450000D02*
X177890000Y-68450000D01*
X176050000Y-66600000D02*
X176050000Y-64900000D01*
X176050000Y-63600000D02*
X176050000Y-63400000D01*
%TO.C,R9*%
X157600000Y-93173641D02*
X157600000Y-92866359D01*
X158360000Y-93173641D02*
X158360000Y-92866359D01*
%TO.C,R4*%
X164380000Y-92153641D02*
X164380000Y-91846359D01*
X163620000Y-92153641D02*
X163620000Y-91846359D01*
D14*
%TO.C,U2*%
X165875000Y-90160000D02*
X165875000Y-89800000D01*
X166235000Y-89800000D01*
X165875000Y-90160000D01*
G36*
X165875000Y-90160000D02*
G01*
X165875000Y-89800000D01*
X166235000Y-89800000D01*
X165875000Y-90160000D01*
G37*
X165875000Y-89160000D02*
X165875000Y-89600000D01*
X165875000Y-87600000D02*
X165875000Y-88240000D01*
X165875000Y-87600000D02*
X165725000Y-87600000D01*
X163450000Y-87625000D02*
X163300000Y-87625000D01*
X163325000Y-89800000D02*
X163175000Y-89800000D01*
X163175000Y-89160000D02*
X163175000Y-89800000D01*
X163175000Y-87600000D02*
X163175000Y-88240000D01*
D13*
%TO.C,C12*%
X149912164Y-95360000D02*
X150127836Y-95360000D01*
X149912164Y-94640000D02*
X150127836Y-94640000D01*
%TO.C,R5*%
X168380000Y-90846359D02*
X168380000Y-91153641D01*
X167620000Y-90846359D02*
X167620000Y-91153641D01*
%TO.C,C20*%
X162670000Y-94892164D02*
X162670000Y-95107836D01*
X163390000Y-94892164D02*
X163390000Y-95107836D01*
%TO.C,C7*%
X151860000Y-88107836D02*
X151860000Y-87892164D01*
X151140000Y-88107836D02*
X151140000Y-87892164D01*
%TO.C,R2*%
X152120000Y-92856359D02*
X152120000Y-93163641D01*
X152880000Y-92856359D02*
X152880000Y-93163641D01*
%TO.C,R3*%
X165880000Y-93163641D02*
X165880000Y-92856359D01*
X165120000Y-93163641D02*
X165120000Y-92856359D01*
%TO.C,U4*%
X154390000Y-85750000D02*
X154060000Y-85990000D01*
X154060000Y-85510000D01*
X154390000Y-85750000D01*
G36*
X154390000Y-85750000D02*
G01*
X154060000Y-85990000D01*
X154060000Y-85510000D01*
X154390000Y-85750000D01*
G37*
X160110000Y-90110000D02*
X159635000Y-90110000D01*
X160110000Y-89635000D02*
X160110000Y-90110000D01*
X160110000Y-84890000D02*
X160110000Y-85365000D01*
X159635000Y-84890000D02*
X160110000Y-84890000D01*
X155365000Y-90110000D02*
X154890000Y-90110000D01*
X154890000Y-90110000D02*
X154890000Y-89635000D01*
X154890000Y-85365000D02*
X154890000Y-84890000D01*
X154890000Y-84890000D02*
X155365000Y-84890000D01*
%TO.C,C5*%
X148860000Y-93587836D02*
X148860000Y-93372164D01*
X148140000Y-93587836D02*
X148140000Y-93372164D01*
%TO.C,U1*%
X163900000Y-81100000D02*
X163660000Y-80770000D01*
X164140000Y-80770000D01*
X163900000Y-81100000D01*
G36*
X163900000Y-81100000D02*
G01*
X163660000Y-80770000D01*
X164140000Y-80770000D01*
X163900000Y-81100000D01*
G37*
X168200000Y-85400000D02*
X168200000Y-84875000D01*
X168200000Y-85400000D02*
X167675000Y-85400000D01*
X168200000Y-81100000D02*
X168200000Y-81625000D01*
X168200000Y-81100000D02*
X167675000Y-81100000D01*
X164425000Y-81100000D02*
X164200000Y-81100000D01*
X163900000Y-85400000D02*
X164425000Y-85400000D01*
X163900000Y-85400000D02*
X163900000Y-84875000D01*
X163900000Y-81565000D02*
X163900000Y-81340000D01*
%TO.C,R11*%
X162880000Y-78163641D02*
X162880000Y-77856359D01*
X162120000Y-78163641D02*
X162120000Y-77856359D01*
%TO.C,C17*%
X143288748Y-90735000D02*
X143811252Y-90735000D01*
X143288748Y-89265000D02*
X143811252Y-89265000D01*
%TO.C,U6*%
X169452500Y-65990000D02*
X171272500Y-65990000D01*
X169452500Y-66040000D02*
X169452500Y-65990000D01*
X169452500Y-69110000D02*
X169452500Y-69060000D01*
X171272500Y-65990000D02*
X171272500Y-66040000D01*
X171272500Y-69060000D02*
X171272500Y-69110000D01*
X171272500Y-69110000D02*
X169452500Y-69110000D01*
X168912500Y-66040000D02*
X168672500Y-65710000D01*
X169152500Y-65710000D01*
X168912500Y-66040000D01*
G36*
X168912500Y-66040000D02*
G01*
X168672500Y-65710000D01*
X169152500Y-65710000D01*
X168912500Y-66040000D01*
G37*
%TO.C,R12*%
X170846359Y-85120000D02*
X171153641Y-85120000D01*
X170846359Y-85880000D02*
X171153641Y-85880000D01*
%TO.C,R14*%
X170846359Y-83620000D02*
X171153641Y-83620000D01*
X170846359Y-84380000D02*
X171153641Y-84380000D01*
%TO.C,J5*%
X173120000Y-84580000D02*
X174500000Y-84580000D01*
X173120000Y-85960000D02*
X173120000Y-84580000D01*
X173120000Y-87230000D02*
X173120000Y-92420000D01*
X173120000Y-87230000D02*
X175880000Y-87230000D01*
X173120000Y-92420000D02*
X175880000Y-92420000D01*
X175880000Y-87230000D02*
X175880000Y-92420000D01*
%TO.C,C23*%
X174238748Y-97775000D02*
X174761252Y-97775000D01*
X174238748Y-99245000D02*
X174761252Y-99245000D01*
%TO.C,C22*%
X174238748Y-94765000D02*
X174761252Y-94765000D01*
X174238748Y-96235000D02*
X174761252Y-96235000D01*
%TO.C,C21*%
X164578748Y-110045000D02*
X165101252Y-110045000D01*
X164578748Y-111515000D02*
X165101252Y-111515000D01*
%TO.C,BZ1*%
X160900000Y-99400000D02*
X172100000Y-99400000D01*
X160900000Y-102650000D02*
X160900000Y-99400000D01*
X160900000Y-108600000D02*
X160900000Y-105350000D01*
X172100000Y-99400000D02*
X172100000Y-102650000D01*
X172100000Y-105350000D02*
X172100000Y-108600000D01*
X172100000Y-108600000D02*
X160900000Y-108600000D01*
D14*
%TO.C,D1*%
X169475000Y-62500000D02*
G75*
G02*
X169375000Y-62500000I-50000J0D01*
G01*
X169375000Y-62500000D02*
G75*
G02*
X169475000Y-62500000I50000J0D01*
G01*
D13*
%TO.C,R13*%
X170846359Y-82120000D02*
X171153641Y-82120000D01*
X170846359Y-82880000D02*
X171153641Y-82880000D01*
%TD*%
M02*
