%TF.GenerationSoftware,KiCad,Pcbnew,9.0.7*%
%TF.CreationDate,2026-07-10T19:39:02+01:00*%
%TF.ProjectId,rocket flight computer v1.0,726f636b-6574-4206-966c-696768742063,rev?*%
%TF.SameCoordinates,Original*%
%TF.FileFunction,Copper,L4,Bot*%
%TF.FilePolarity,Positive*%
%FSLAX46Y46*%
G04 Gerber Fmt 4.6, Leading zero omitted, Abs format (unit mm)*
G04 Created by KiCad (PCBNEW 9.0.7) date 2026-07-10 19:39:02*
%MOMM*%
%LPD*%
G01*
G04 APERTURE LIST*
G04 Aperture macros list*
%AMRoundRect*
0 Rectangle with rounded corners*
0 $1 Rounding radius*
0 $2 $3 $4 $5 $6 $7 $8 $9 X,Y pos of 4 corners*
0 Add a 4 corners polygon primitive as box body*
4,1,4,$2,$3,$4,$5,$6,$7,$8,$9,$2,$3,0*
0 Add four circle primitives for the rounded corners*
1,1,$1+$1,$2,$3*
1,1,$1+$1,$4,$5*
1,1,$1+$1,$6,$7*
1,1,$1+$1,$8,$9*
0 Add four rect primitives between the rounded corners*
20,1,$1+$1,$2,$3,$4,$5,0*
20,1,$1+$1,$4,$5,$6,$7,0*
20,1,$1+$1,$6,$7,$8,$9,0*
20,1,$1+$1,$8,$9,$2,$3,0*%
G04 Aperture macros list end*
%TA.AperFunction,ComponentPad*%
%ADD10R,1.700000X1.700000*%
%TD*%
%TA.AperFunction,ComponentPad*%
%ADD11C,1.700000*%
%TD*%
%TA.AperFunction,ComponentPad*%
%ADD12O,1.200000X1.750000*%
%TD*%
%TA.AperFunction,ComponentPad*%
%ADD13RoundRect,0.250000X-0.350000X-0.625000X0.350000X-0.625000X0.350000X0.625000X-0.350000X0.625000X0*%
%TD*%
%TA.AperFunction,HeatsinkPad*%
%ADD14C,0.500000*%
%TD*%
%TA.AperFunction,HeatsinkPad*%
%ADD15R,1.900000X2.900000*%
%TD*%
%TA.AperFunction,HeatsinkPad*%
%ADD16O,1.600000X1.000000*%
%TD*%
%TA.AperFunction,HeatsinkPad*%
%ADD17O,2.100000X1.000000*%
%TD*%
%TA.AperFunction,ViaPad*%
%ADD18C,0.500000*%
%TD*%
%TA.AperFunction,ViaPad*%
%ADD19C,0.300000*%
%TD*%
%TA.AperFunction,ViaPad*%
%ADD20C,0.450000*%
%TD*%
%TA.AperFunction,Conductor*%
%ADD21C,0.100000*%
%TD*%
G04 APERTURE END LIST*
D10*
%TO.P,J4,1,Pin_1*%
%TO.N,+3.3V*%
X162500000Y-54920000D03*
D11*
%TO.P,J4,2,Pin_2*%
%TO.N,GND*%
X162500000Y-57460000D03*
%TO.P,J4,3,Pin_3*%
%TO.N,Net-(J4-Pin_3)*%
X162500000Y-60000000D03*
%TO.P,J4,4,Pin_4*%
%TO.N,Net-(J4-Pin_4)*%
X162500000Y-62540000D03*
%TD*%
D12*
%TO.P,J2,2,Pin_2*%
%TO.N,GND*%
X177000000Y-55500000D03*
D13*
%TO.P,J2,1,Pin_1*%
%TO.N,Net-(J2-Pin_1)*%
X175000000Y-55500000D03*
%TD*%
D14*
%TO.P,U5,9,EPAD*%
%TO.N,GND*%
X146700000Y-74200000D03*
X146700000Y-73000000D03*
X146700000Y-71800000D03*
D15*
X146000000Y-73000000D03*
D14*
X145300000Y-74200000D03*
X145300000Y-73000000D03*
X145300000Y-71800000D03*
%TD*%
D16*
%TO.P,J1,S1,SHIELD*%
%TO.N,GND*%
X177000000Y-71500000D03*
D17*
X172820000Y-71500000D03*
D16*
X177000000Y-80140000D03*
D17*
X172820000Y-80140000D03*
%TD*%
D10*
%TO.P,J5,1,Pin_1*%
%TO.N,GND*%
X174500000Y-85960000D03*
D11*
%TO.P,J5,2,Pin_2*%
%TO.N,+5V*%
X174500000Y-88500000D03*
%TO.P,J5,3,Pin_3*%
%TO.N,Net-(J5-Pin_3)*%
X174500000Y-91040000D03*
%TD*%
D18*
%TO.N,Net-(AE1-A)*%
X151100000Y-81400000D03*
X158200000Y-80900000D03*
X162200000Y-92600000D03*
X160500000Y-84900000D03*
%TO.N,Net-(U6-V_{FB})*%
X170700000Y-83300000D03*
X171500000Y-82500000D03*
X172400000Y-82400000D03*
%TO.N,Net-(J2-Pin_1)*%
X175800000Y-65300000D03*
X175800000Y-67099999D03*
%TO.N,Net-(SW1-B)*%
X164600000Y-69000000D03*
X156400000Y-73600000D03*
X154700000Y-77300000D03*
X155300000Y-77900000D03*
%TO.N,+5V*%
X169700000Y-66800000D03*
X170600000Y-67300000D03*
X170500000Y-82500000D03*
X172200000Y-83000000D03*
X175200000Y-92200000D03*
%TO.N,VBUS*%
X173300000Y-76100000D03*
X173300000Y-74900000D03*
X142700000Y-74400000D03*
X141900000Y-74400000D03*
X169500000Y-71200000D03*
X169300000Y-70300000D03*
X158900000Y-68200000D03*
X156500000Y-68200000D03*
%TO.N,Net-(U4-XTAL_P)*%
X153700000Y-87700000D03*
X154100000Y-90300000D03*
%TO.N,Net-(U4-GPIO19)*%
X158700000Y-83800000D03*
X164300000Y-78200000D03*
%TO.N,Net-(U4-GPIO18)*%
X159200000Y-84300000D03*
X164800000Y-78700000D03*
%TO.N,+3.3V*%
X153900000Y-81100000D03*
X151600000Y-83400000D03*
X164200000Y-87900000D03*
X170200000Y-85500000D03*
X169000000Y-85500000D03*
X166200000Y-86300000D03*
X165400000Y-86600000D03*
X165500000Y-88200000D03*
X165000000Y-93400000D03*
X147100000Y-92600000D03*
X151100000Y-93400000D03*
X153300000Y-92100000D03*
X160300000Y-102800000D03*
X160900000Y-102200000D03*
X155800000Y-92400000D03*
X152100000Y-87100000D03*
X164000000Y-92400000D03*
X164800000Y-89500000D03*
D19*
X159850000Y-89150000D03*
D20*
X156750000Y-89950000D03*
D18*
X155200000Y-86400000D03*
X155600000Y-85200000D03*
X156500000Y-73000000D03*
X158600000Y-73000000D03*
X160200000Y-83900000D03*
X162400000Y-78400000D03*
X162000000Y-76500000D03*
X162900000Y-71200000D03*
X164300000Y-70000000D03*
%TO.N,GND*%
X169400000Y-67800000D03*
X156400000Y-81800000D03*
X158600000Y-77500000D03*
X156500000Y-77500000D03*
X153200000Y-71500000D03*
X153200000Y-72400000D03*
X152100000Y-84500000D03*
X152500000Y-88700000D03*
X155900000Y-87500000D03*
X159100000Y-87900000D03*
X161400000Y-87900000D03*
X166300000Y-92500000D03*
X166300000Y-93400000D03*
X163900000Y-104400000D03*
X163900000Y-103500000D03*
%TO.N,Net-(U5-PROG)*%
X152400000Y-81400000D03*
X168200000Y-88900000D03*
%TO.N,Net-(J1-CC2)*%
X170900000Y-81000000D03*
X169300000Y-82600000D03*
%TO.N,Net-(U1-SCL)*%
X161500000Y-84000000D03*
X163400000Y-89500000D03*
X156200000Y-93300000D03*
X156227000Y-90200000D03*
%TO.N,Net-(U1-SDA)*%
X158100000Y-92400000D03*
X161400000Y-84700000D03*
X161000000Y-89500000D03*
X155684000Y-89890000D03*
%TO.N,Net-(J3-DAT3{slash}CD)*%
X163600000Y-71200000D03*
X163600000Y-70000000D03*
%TO.N,Net-(J3-CMD)*%
X157500000Y-90800000D03*
X159800000Y-81200000D03*
X158500000Y-71600000D03*
X158500000Y-70300000D03*
%TO.N,Net-(J4-Pin_3)*%
X158200000Y-83400000D03*
X163300000Y-77500000D03*
X165000000Y-71200000D03*
X165000000Y-70000000D03*
%TO.N,Net-(U4-LNA_IN)*%
X157300000Y-81200000D03*
X159900000Y-91500000D03*
X155100000Y-85700000D03*
%TO.N,Net-(J5-Pin_3)*%
X160100000Y-93500000D03*
X153500000Y-86000000D03*
X153000000Y-89600000D03*
X153700000Y-91600000D03*
X160700000Y-91400000D03*
%TO.N,Net-(J3-DAT0)*%
X155100000Y-89300000D03*
X157900000Y-80000000D03*
X156800000Y-79600000D03*
X156500000Y-71300000D03*
X156500000Y-70200000D03*
%TO.N,Net-(U1-REGOUT)*%
X164900000Y-84000000D03*
X154600000Y-82900000D03*
%TO.N,Net-(D1-K)*%
X170000000Y-70300000D03*
X170000000Y-78900000D03*
%TO.N,Net-(J4-Pin_4)*%
X158000000Y-71200000D03*
X158600000Y-69400000D03*
%TO.N,Net-(J3-CLK)*%
X154300000Y-89700000D03*
X153200000Y-88100000D03*
X157100000Y-71200000D03*
X157100000Y-70300000D03*
%TD*%
D21*
%TO.N,Net-(AE1-A)*%
X161800000Y-92200000D02*
X162200000Y-92600000D01*
X161800000Y-89100000D02*
X161800000Y-92200000D01*
X160500000Y-87800000D02*
X161800000Y-89100000D01*
X160500000Y-84900000D02*
X160500000Y-87800000D01*
%TO.N,Net-(U6-V_{FB})*%
X171500000Y-82500000D02*
X170700000Y-83300000D01*
%TO.N,Net-(J2-Pin_1)*%
X175800000Y-67099999D02*
X175800000Y-65300000D01*
%TO.N,Net-(SW1-B)*%
X155300000Y-77900000D02*
X154700000Y-77300000D01*
%TO.N,+5V*%
X175600000Y-89600000D02*
X174500000Y-88500000D01*
X175600000Y-91500000D02*
X175600000Y-89600000D01*
X175200000Y-91900000D02*
X175600000Y-91500000D01*
X175200000Y-92200000D02*
X175200000Y-91900000D01*
%TO.N,VBUS*%
X173300000Y-74900000D02*
X173300000Y-76100000D01*
X169300000Y-71000000D02*
X169500000Y-71200000D01*
X169300000Y-70300000D02*
X169300000Y-71000000D01*
%TO.N,Net-(U4-GPIO19)*%
X164300000Y-78200000D02*
X158700000Y-83800000D01*
%TO.N,Net-(U4-GPIO18)*%
X164800000Y-78700000D02*
X159200000Y-84300000D01*
%TO.N,+3.3V*%
X151600000Y-83400000D02*
X153900000Y-81100000D01*
X151600000Y-84700000D02*
X151600000Y-83400000D01*
X152100000Y-85200000D02*
X151600000Y-84700000D01*
X152100000Y-87100000D02*
X152100000Y-85200000D01*
X164600000Y-87500000D02*
X164200000Y-87900000D01*
X165500000Y-87500000D02*
X164600000Y-87500000D01*
X165800000Y-86700000D02*
X166200000Y-86300000D01*
X165500000Y-86700000D02*
X165800000Y-86700000D01*
X165500000Y-86700000D02*
X165400000Y-86600000D01*
X165500000Y-88200000D02*
X165500000Y-86700000D01*
X164000000Y-92400000D02*
X165000000Y-93400000D01*
X160900000Y-102200000D02*
X160300000Y-102800000D01*
X159900000Y-89200000D02*
X159950000Y-89250000D01*
X159900000Y-88000000D02*
X159900000Y-89200000D01*
X159000000Y-87100000D02*
X159900000Y-88000000D01*
X159000000Y-85200000D02*
X159000000Y-87100000D01*
X156800000Y-90000000D02*
X156750000Y-89950000D01*
X155200000Y-88400000D02*
X156800000Y-90000000D01*
X155200000Y-86400000D02*
X155200000Y-88400000D01*
X159000000Y-85200000D02*
X155600000Y-85200000D01*
X160200000Y-84000000D02*
X159000000Y-85200000D01*
X160200000Y-83900000D02*
X160200000Y-84000000D01*
X162000000Y-78000000D02*
X162400000Y-78400000D01*
X162000000Y-76500000D02*
X162000000Y-78000000D01*
%TO.N,GND*%
X172800000Y-71200000D02*
X169400000Y-67800000D01*
X172800000Y-71500000D02*
X172800000Y-71200000D01*
X172820000Y-71500000D02*
X172800000Y-71500000D01*
X156400000Y-79800000D02*
X156400000Y-81800000D01*
X156300000Y-79700000D02*
X156400000Y-79800000D01*
X156300000Y-77700000D02*
X156300000Y-79700000D01*
X156500000Y-77500000D02*
X156300000Y-77700000D01*
X153200000Y-72400000D02*
X153200000Y-71500000D01*
X152500000Y-84900000D02*
X152100000Y-84500000D01*
X152500000Y-88700000D02*
X152500000Y-84900000D01*
X166300000Y-93400000D02*
X166300000Y-92500000D01*
X163900000Y-103500000D02*
X163900000Y-104400000D01*
%TO.N,Net-(J1-CC2)*%
X169300000Y-82600000D02*
X170900000Y-81000000D01*
%TO.N,Net-(J3-DAT3{slash}CD)*%
X163600000Y-70000000D02*
X163600000Y-71200000D01*
%TO.N,Net-(J3-CMD)*%
X158500000Y-70300000D02*
X158500000Y-71600000D01*
%TO.N,Net-(J4-Pin_3)*%
X163300000Y-78300000D02*
X158200000Y-83400000D01*
X163300000Y-77500000D02*
X163300000Y-78300000D01*
X165000000Y-70000000D02*
X165000000Y-71200000D01*
%TO.N,Net-(U4-LNA_IN)*%
X157300000Y-81700000D02*
X157300000Y-81200000D01*
X155100000Y-83900000D02*
X157300000Y-81700000D01*
X155100000Y-85700000D02*
X155100000Y-83900000D01*
X156300000Y-88000000D02*
X159800000Y-91500000D01*
X156300000Y-86900000D02*
X156300000Y-88000000D01*
X155100000Y-85700000D02*
X156300000Y-86900000D01*
%TO.N,Net-(J5-Pin_3)*%
X160100000Y-92000000D02*
X160100000Y-93500000D01*
X152700000Y-86800000D02*
X153500000Y-86000000D01*
X152700000Y-88300000D02*
X152700000Y-86800000D01*
X153000000Y-88600000D02*
X152700000Y-88300000D01*
X153000000Y-89600000D02*
X153000000Y-88600000D01*
X157800000Y-91600000D02*
X153700000Y-91600000D01*
X158200000Y-92000000D02*
X157800000Y-91600000D01*
X160100000Y-92000000D02*
X158200000Y-92000000D01*
X160700000Y-91400000D02*
X160100000Y-92000000D01*
%TO.N,Net-(J3-DAT0)*%
X156500000Y-70200000D02*
X156500000Y-71300000D01*
%TO.N,Net-(D1-K)*%
X170000000Y-78900000D02*
X170000000Y-70300000D01*
%TO.N,Net-(J3-CLK)*%
X153200000Y-88600000D02*
X154300000Y-89700000D01*
X153200000Y-88100000D02*
X153200000Y-88600000D01*
X157100000Y-70300000D02*
X157100000Y-71200000D01*
%TD*%
%TA.AperFunction,Conductor*%
%TO.N,GND*%
G36*
X158392539Y-85770185D02*
G01*
X158438294Y-85822989D01*
X158449500Y-85874500D01*
X158449500Y-87172475D01*
X158484320Y-87302422D01*
X158487016Y-87312485D01*
X158559489Y-87438013D01*
X158559491Y-87438016D01*
X159313181Y-88191706D01*
X159346666Y-88253029D01*
X159349500Y-88279387D01*
X159349500Y-88690567D01*
X159329815Y-88757606D01*
X159328602Y-88759457D01*
X159273541Y-88841861D01*
X159273533Y-88841875D01*
X159224499Y-88960255D01*
X159224497Y-88960261D01*
X159199500Y-89085928D01*
X159199500Y-89085931D01*
X159199500Y-89214069D01*
X159199500Y-89214071D01*
X159199499Y-89214071D01*
X159224497Y-89339738D01*
X159224499Y-89339744D01*
X159273533Y-89458124D01*
X159273538Y-89458133D01*
X159344723Y-89564668D01*
X159344726Y-89564672D01*
X159435327Y-89655273D01*
X159435331Y-89655276D01*
X159541866Y-89726461D01*
X159541872Y-89726464D01*
X159541873Y-89726465D01*
X159660256Y-89775501D01*
X159660260Y-89775501D01*
X159660261Y-89775502D01*
X159785928Y-89800500D01*
X159785931Y-89800500D01*
X160022471Y-89800500D01*
X160022474Y-89800500D01*
X160162485Y-89762984D01*
X160162486Y-89762982D01*
X160170335Y-89760880D01*
X160170670Y-89762132D01*
X160231858Y-89755551D01*
X160294339Y-89786824D01*
X160324407Y-89830127D01*
X160334913Y-89855489D01*
X160334919Y-89855501D01*
X160417048Y-89978415D01*
X160417051Y-89978419D01*
X160521580Y-90082948D01*
X160521584Y-90082951D01*
X160644498Y-90165080D01*
X160644511Y-90165087D01*
X160781082Y-90221656D01*
X160781087Y-90221658D01*
X160781091Y-90221658D01*
X160781092Y-90221659D01*
X160926079Y-90250500D01*
X160926082Y-90250500D01*
X161073919Y-90250500D01*
X161101308Y-90245052D01*
X161170899Y-90251279D01*
X161226077Y-90294141D01*
X161249322Y-90360031D01*
X161249500Y-90366669D01*
X161249500Y-90632557D01*
X161229815Y-90699596D01*
X161177011Y-90745351D01*
X161107853Y-90755295D01*
X161061089Y-90737377D01*
X161060870Y-90737789D01*
X161057595Y-90736039D01*
X161056617Y-90735664D01*
X161055508Y-90734923D01*
X161055488Y-90734912D01*
X160918917Y-90678343D01*
X160918907Y-90678340D01*
X160773920Y-90649500D01*
X160773918Y-90649500D01*
X160626082Y-90649500D01*
X160626080Y-90649500D01*
X160481092Y-90678340D01*
X160481082Y-90678343D01*
X160344511Y-90734912D01*
X160344500Y-90734918D01*
X160273162Y-90782585D01*
X160206485Y-90803462D01*
X160156821Y-90794044D01*
X160118913Y-90778342D01*
X160118909Y-90778341D01*
X160118906Y-90778340D01*
X159973920Y-90749500D01*
X159973918Y-90749500D01*
X159879387Y-90749500D01*
X159812348Y-90729815D01*
X159791706Y-90713181D01*
X156886819Y-87808294D01*
X156853334Y-87746971D01*
X156850500Y-87720613D01*
X156850500Y-86827527D01*
X156850500Y-86827525D01*
X156812984Y-86687515D01*
X156804300Y-86672474D01*
X156740510Y-86561985D01*
X156140706Y-85962181D01*
X156107221Y-85900858D01*
X156112205Y-85831166D01*
X156154077Y-85775233D01*
X156219541Y-85750816D01*
X156228387Y-85750500D01*
X158325500Y-85750500D01*
X158392539Y-85770185D01*
G37*
%TD.AperFunction*%
%TA.AperFunction,Conductor*%
G36*
X180442539Y-52520185D02*
G01*
X180488294Y-52572989D01*
X180499500Y-52624500D01*
X180499500Y-112874414D01*
X180479815Y-112941453D01*
X180427011Y-112987208D01*
X180373931Y-112998404D01*
X141121415Y-112501536D01*
X141054630Y-112481005D01*
X141009547Y-112427626D01*
X140998988Y-112378579D01*
X140919783Y-102873920D01*
X159549499Y-102873920D01*
X159578340Y-103018907D01*
X159578343Y-103018917D01*
X159634912Y-103155488D01*
X159634919Y-103155501D01*
X159717048Y-103278415D01*
X159717051Y-103278419D01*
X159821580Y-103382948D01*
X159821584Y-103382951D01*
X159944498Y-103465080D01*
X159944511Y-103465087D01*
X160081082Y-103521656D01*
X160081087Y-103521658D01*
X160081091Y-103521658D01*
X160081092Y-103521659D01*
X160226079Y-103550500D01*
X160226082Y-103550500D01*
X160373920Y-103550500D01*
X160471462Y-103531096D01*
X160518913Y-103521658D01*
X160655495Y-103465084D01*
X160778416Y-103382951D01*
X160882951Y-103278416D01*
X160965084Y-103155495D01*
X161021658Y-103018913D01*
X161021660Y-103018902D01*
X161023427Y-103013080D01*
X161024576Y-103013428D01*
X161053999Y-102957159D01*
X161113099Y-102923491D01*
X161113080Y-102923427D01*
X161113363Y-102923341D01*
X161114708Y-102922575D01*
X161118889Y-102921664D01*
X161118901Y-102921660D01*
X161118913Y-102921658D01*
X161255495Y-102865084D01*
X161378416Y-102782951D01*
X161482951Y-102678416D01*
X161565084Y-102555495D01*
X161621658Y-102418913D01*
X161631096Y-102371462D01*
X161650500Y-102273920D01*
X161650500Y-102126079D01*
X161621659Y-101981092D01*
X161621658Y-101981091D01*
X161621658Y-101981087D01*
X161621656Y-101981082D01*
X161565087Y-101844511D01*
X161565080Y-101844498D01*
X161482951Y-101721584D01*
X161482948Y-101721580D01*
X161378419Y-101617051D01*
X161378415Y-101617048D01*
X161255501Y-101534919D01*
X161255488Y-101534912D01*
X161118917Y-101478343D01*
X161118907Y-101478340D01*
X160973920Y-101449500D01*
X160973918Y-101449500D01*
X160826082Y-101449500D01*
X160826080Y-101449500D01*
X160681092Y-101478340D01*
X160681082Y-101478343D01*
X160544511Y-101534912D01*
X160544498Y-101534919D01*
X160421584Y-101617048D01*
X160421580Y-101617051D01*
X160317051Y-101721580D01*
X160317048Y-101721584D01*
X160234919Y-101844498D01*
X160234912Y-101844511D01*
X160178343Y-101981082D01*
X160176573Y-101986919D01*
X160175430Y-101986572D01*
X160145968Y-102042871D01*
X160086895Y-102076495D01*
X160086919Y-102076573D01*
X160086575Y-102076677D01*
X160085246Y-102077434D01*
X160081128Y-102078329D01*
X160081082Y-102078343D01*
X159944511Y-102134912D01*
X159944498Y-102134919D01*
X159821584Y-102217048D01*
X159821580Y-102217051D01*
X159717051Y-102321580D01*
X159717048Y-102321584D01*
X159634919Y-102444498D01*
X159634912Y-102444511D01*
X159578343Y-102581082D01*
X159578340Y-102581092D01*
X159549500Y-102726079D01*
X159549500Y-102726082D01*
X159549500Y-102873918D01*
X159549500Y-102873920D01*
X159549499Y-102873920D01*
X140919783Y-102873920D01*
X140918509Y-102721023D01*
X140841450Y-93473920D01*
X150349499Y-93473920D01*
X150378340Y-93618907D01*
X150378343Y-93618917D01*
X150434912Y-93755488D01*
X150434919Y-93755501D01*
X150517048Y-93878415D01*
X150517051Y-93878419D01*
X150621580Y-93982948D01*
X150621584Y-93982951D01*
X150744498Y-94065080D01*
X150744511Y-94065087D01*
X150881082Y-94121656D01*
X150881087Y-94121658D01*
X150881091Y-94121658D01*
X150881092Y-94121659D01*
X151026079Y-94150500D01*
X151026082Y-94150500D01*
X151173920Y-94150500D01*
X151271462Y-94131096D01*
X151318913Y-94121658D01*
X151455495Y-94065084D01*
X151578416Y-93982951D01*
X151682951Y-93878416D01*
X151765084Y-93755495D01*
X151821658Y-93618913D01*
X151850500Y-93473918D01*
X151850500Y-93326082D01*
X151850500Y-93326079D01*
X151821659Y-93181092D01*
X151821658Y-93181091D01*
X151821658Y-93181087D01*
X151809236Y-93151097D01*
X151765087Y-93044511D01*
X151765080Y-93044498D01*
X151682951Y-92921584D01*
X151682948Y-92921580D01*
X151578419Y-92817051D01*
X151578415Y-92817048D01*
X151455501Y-92734919D01*
X151455488Y-92734912D01*
X151318917Y-92678343D01*
X151318907Y-92678340D01*
X151173920Y-92649500D01*
X151173918Y-92649500D01*
X151026082Y-92649500D01*
X151026080Y-92649500D01*
X150881092Y-92678340D01*
X150881082Y-92678343D01*
X150744511Y-92734912D01*
X150744498Y-92734919D01*
X150621584Y-92817048D01*
X150621580Y-92817051D01*
X150517051Y-92921580D01*
X150517048Y-92921584D01*
X150434919Y-93044498D01*
X150434912Y-93044511D01*
X150378343Y-93181082D01*
X150378340Y-93181092D01*
X150349500Y-93326079D01*
X150349500Y-93326082D01*
X150349500Y-93473918D01*
X150349500Y-93473920D01*
X150349499Y-93473920D01*
X140841450Y-93473920D01*
X140834783Y-92673920D01*
X146349499Y-92673920D01*
X146378340Y-92818907D01*
X146378343Y-92818917D01*
X146434912Y-92955488D01*
X146434919Y-92955501D01*
X146517048Y-93078415D01*
X146517051Y-93078419D01*
X146621580Y-93182948D01*
X146621584Y-93182951D01*
X146744498Y-93265080D01*
X146744511Y-93265087D01*
X146881082Y-93321656D01*
X146881087Y-93321658D01*
X146881091Y-93321658D01*
X146881092Y-93321659D01*
X147026079Y-93350500D01*
X147026082Y-93350500D01*
X147173920Y-93350500D01*
X147271462Y-93331096D01*
X147318913Y-93321658D01*
X147455495Y-93265084D01*
X147513866Y-93226082D01*
X147527626Y-93216888D01*
X147578416Y-93182951D01*
X147682948Y-93078419D01*
X147682951Y-93078416D01*
X147765084Y-92955495D01*
X147821658Y-92818913D01*
X147838366Y-92734919D01*
X147850500Y-92673920D01*
X147850500Y-92526079D01*
X147821659Y-92381092D01*
X147821658Y-92381091D01*
X147821658Y-92381087D01*
X147807527Y-92346971D01*
X147765087Y-92244511D01*
X147765080Y-92244498D01*
X147682951Y-92121584D01*
X147682948Y-92121580D01*
X147578419Y-92017051D01*
X147578415Y-92017048D01*
X147455501Y-91934919D01*
X147455488Y-91934912D01*
X147318917Y-91878343D01*
X147318907Y-91878340D01*
X147173920Y-91849500D01*
X147173918Y-91849500D01*
X147026082Y-91849500D01*
X147026080Y-91849500D01*
X146881092Y-91878340D01*
X146881082Y-91878343D01*
X146744511Y-91934912D01*
X146744498Y-91934919D01*
X146621584Y-92017048D01*
X146621580Y-92017051D01*
X146517051Y-92121580D01*
X146517048Y-92121584D01*
X146434919Y-92244498D01*
X146434912Y-92244511D01*
X146378343Y-92381082D01*
X146378340Y-92381092D01*
X146349500Y-92526079D01*
X146349500Y-92526082D01*
X146349500Y-92673918D01*
X146349500Y-92673920D01*
X146349499Y-92673920D01*
X140834783Y-92673920D01*
X140833509Y-92521023D01*
X140765597Y-84371592D01*
X140741450Y-81473920D01*
X150349499Y-81473920D01*
X150378340Y-81618907D01*
X150378343Y-81618917D01*
X150434912Y-81755488D01*
X150434919Y-81755501D01*
X150517048Y-81878415D01*
X150517051Y-81878419D01*
X150621580Y-81982948D01*
X150621584Y-81982951D01*
X150744498Y-82065080D01*
X150744511Y-82065087D01*
X150879781Y-82121117D01*
X150881087Y-82121658D01*
X150881091Y-82121658D01*
X150881092Y-82121659D01*
X151026079Y-82150500D01*
X151026082Y-82150500D01*
X151173920Y-82150500D01*
X151271462Y-82131096D01*
X151318913Y-82121658D01*
X151455495Y-82065084D01*
X151578416Y-81982951D01*
X151578419Y-81982948D01*
X151662319Y-81899049D01*
X151665862Y-81897114D01*
X151668017Y-81893699D01*
X151696275Y-81880507D01*
X151723642Y-81865564D01*
X151727669Y-81865852D01*
X151731328Y-81864144D01*
X151762228Y-81868323D01*
X151793334Y-81870548D01*
X151797716Y-81873123D01*
X151800567Y-81873509D01*
X151813409Y-81882346D01*
X151830417Y-81892342D01*
X151834186Y-81895553D01*
X151921584Y-81982951D01*
X151991964Y-82029977D01*
X151997471Y-82034669D01*
X152012800Y-82058089D01*
X152030749Y-82079566D01*
X152031673Y-82086923D01*
X152035735Y-82093129D01*
X152035968Y-82121117D01*
X152039458Y-82148891D01*
X152036257Y-82155581D01*
X152036319Y-82162997D01*
X152021383Y-82186670D01*
X152009303Y-82211919D01*
X152004735Y-82216738D01*
X151608294Y-82613181D01*
X151546971Y-82646666D01*
X151532079Y-82648267D01*
X151532142Y-82648903D01*
X151526079Y-82649499D01*
X151381092Y-82678340D01*
X151381082Y-82678343D01*
X151244511Y-82734912D01*
X151244498Y-82734919D01*
X151121584Y-82817048D01*
X151121580Y-82817051D01*
X151017051Y-82921580D01*
X151017048Y-82921584D01*
X150934919Y-83044498D01*
X150934912Y-83044511D01*
X150878343Y-83181082D01*
X150878340Y-83181092D01*
X150849500Y-83326079D01*
X150849500Y-83326082D01*
X150849500Y-83473918D01*
X150849500Y-83473920D01*
X150849499Y-83473920D01*
X150878340Y-83618907D01*
X150878343Y-83618917D01*
X150934912Y-83755488D01*
X150934919Y-83755501D01*
X151017048Y-83878415D01*
X151020914Y-83883126D01*
X151018787Y-83884870D01*
X151046636Y-83935733D01*
X151049500Y-83962229D01*
X151049500Y-84772475D01*
X151081493Y-84891873D01*
X151087016Y-84912485D01*
X151128556Y-84984436D01*
X151159489Y-85038013D01*
X151159491Y-85038016D01*
X151513181Y-85391706D01*
X151546666Y-85453029D01*
X151549500Y-85479387D01*
X151549500Y-86537770D01*
X151529815Y-86604809D01*
X151520419Y-86616468D01*
X151520914Y-86616874D01*
X151517048Y-86621584D01*
X151434919Y-86744498D01*
X151434912Y-86744511D01*
X151378343Y-86881082D01*
X151378340Y-86881092D01*
X151349500Y-87026079D01*
X151349500Y-87026082D01*
X151349500Y-87173918D01*
X151349500Y-87173920D01*
X151349499Y-87173920D01*
X151378340Y-87318907D01*
X151378343Y-87318917D01*
X151434912Y-87455488D01*
X151434919Y-87455501D01*
X151517048Y-87578415D01*
X151517051Y-87578419D01*
X151621580Y-87682948D01*
X151621584Y-87682951D01*
X151744498Y-87765080D01*
X151744511Y-87765087D01*
X151809918Y-87792179D01*
X151881087Y-87821658D01*
X151881091Y-87821658D01*
X151881092Y-87821659D01*
X152026079Y-87850500D01*
X152032142Y-87851097D01*
X152032012Y-87852412D01*
X152092539Y-87870185D01*
X152138294Y-87922989D01*
X152149500Y-87974500D01*
X152149500Y-88372474D01*
X152176294Y-88472473D01*
X152187014Y-88512480D01*
X152187016Y-88512485D01*
X152250046Y-88621658D01*
X152259489Y-88638013D01*
X152259491Y-88638016D01*
X152413181Y-88791706D01*
X152427884Y-88818633D01*
X152444477Y-88844452D01*
X152445368Y-88850652D01*
X152446666Y-88853029D01*
X152449500Y-88879387D01*
X152449500Y-89037770D01*
X152429815Y-89104809D01*
X152420419Y-89116468D01*
X152420914Y-89116874D01*
X152417048Y-89121584D01*
X152334919Y-89244498D01*
X152334912Y-89244511D01*
X152278343Y-89381082D01*
X152278340Y-89381092D01*
X152249500Y-89526079D01*
X152249500Y-89526082D01*
X152249500Y-89673918D01*
X152249500Y-89673920D01*
X152249499Y-89673920D01*
X152278340Y-89818907D01*
X152278343Y-89818917D01*
X152334912Y-89955488D01*
X152334919Y-89955501D01*
X152417048Y-90078415D01*
X152417051Y-90078419D01*
X152521580Y-90182948D01*
X152521584Y-90182951D01*
X152644498Y-90265080D01*
X152644511Y-90265087D01*
X152758794Y-90312424D01*
X152781087Y-90321658D01*
X152781091Y-90321658D01*
X152781092Y-90321659D01*
X152926079Y-90350500D01*
X152926082Y-90350500D01*
X153073920Y-90350500D01*
X153212912Y-90322852D01*
X153282504Y-90329079D01*
X153337681Y-90371942D01*
X153358721Y-90420277D01*
X153378340Y-90518907D01*
X153378343Y-90518917D01*
X153434912Y-90655488D01*
X153434919Y-90655501D01*
X153477604Y-90719383D01*
X153498482Y-90786061D01*
X153479997Y-90853441D01*
X153428019Y-90900131D01*
X153421955Y-90902835D01*
X153344507Y-90934914D01*
X153344498Y-90934919D01*
X153221584Y-91017048D01*
X153221580Y-91017051D01*
X153117051Y-91121580D01*
X153117048Y-91121584D01*
X153034919Y-91244498D01*
X153034912Y-91244511D01*
X152976011Y-91386714D01*
X152974039Y-91385897D01*
X152941006Y-91436257D01*
X152929573Y-91444892D01*
X152821584Y-91517048D01*
X152821580Y-91517051D01*
X152717051Y-91621580D01*
X152717048Y-91621584D01*
X152634919Y-91744498D01*
X152634912Y-91744511D01*
X152578343Y-91881082D01*
X152578340Y-91881092D01*
X152549500Y-92026079D01*
X152549500Y-92026082D01*
X152549500Y-92173918D01*
X152549500Y-92173920D01*
X152549499Y-92173920D01*
X152578340Y-92318907D01*
X152578343Y-92318917D01*
X152634912Y-92455488D01*
X152634919Y-92455501D01*
X152717048Y-92578415D01*
X152717051Y-92578419D01*
X152821580Y-92682948D01*
X152821584Y-92682951D01*
X152944498Y-92765080D01*
X152944511Y-92765087D01*
X153080899Y-92821580D01*
X153081087Y-92821658D01*
X153081091Y-92821658D01*
X153081092Y-92821659D01*
X153226079Y-92850500D01*
X153226082Y-92850500D01*
X153373920Y-92850500D01*
X153471462Y-92831096D01*
X153518913Y-92821658D01*
X153655495Y-92765084D01*
X153778416Y-92682951D01*
X153882951Y-92578416D01*
X153965084Y-92455495D01*
X154021658Y-92318913D01*
X154021658Y-92318912D01*
X154023989Y-92313285D01*
X154025976Y-92314108D01*
X154033964Y-92301910D01*
X154043470Y-92279536D01*
X154056134Y-92268058D01*
X154058923Y-92263800D01*
X154069517Y-92255720D01*
X154069919Y-92255445D01*
X154178416Y-92182951D01*
X154182790Y-92178576D01*
X154192431Y-92172011D01*
X154215029Y-92164714D01*
X154235872Y-92153334D01*
X154257473Y-92151011D01*
X154258921Y-92150544D01*
X154259758Y-92150765D01*
X154262230Y-92150500D01*
X154933331Y-92150500D01*
X155000370Y-92170185D01*
X155046125Y-92222989D01*
X155056069Y-92292147D01*
X155054948Y-92298692D01*
X155049500Y-92326079D01*
X155049500Y-92326082D01*
X155049500Y-92473918D01*
X155049500Y-92473920D01*
X155049499Y-92473920D01*
X155078340Y-92618907D01*
X155078343Y-92618917D01*
X155134912Y-92755488D01*
X155134919Y-92755501D01*
X155217048Y-92878415D01*
X155217051Y-92878419D01*
X155321581Y-92982949D01*
X155321584Y-92982951D01*
X155408291Y-93040887D01*
X155453095Y-93094497D01*
X155461803Y-93163822D01*
X155461017Y-93168179D01*
X155449500Y-93226077D01*
X155449500Y-93226082D01*
X155449500Y-93373918D01*
X155449500Y-93373920D01*
X155449499Y-93373920D01*
X155478340Y-93518907D01*
X155478343Y-93518917D01*
X155534912Y-93655488D01*
X155534919Y-93655501D01*
X155617048Y-93778415D01*
X155617051Y-93778419D01*
X155721580Y-93882948D01*
X155721584Y-93882951D01*
X155844498Y-93965080D01*
X155844511Y-93965087D01*
X155981082Y-94021656D01*
X155981087Y-94021658D01*
X155981091Y-94021658D01*
X155981092Y-94021659D01*
X156126079Y-94050500D01*
X156126082Y-94050500D01*
X156273920Y-94050500D01*
X156371462Y-94031096D01*
X156418913Y-94021658D01*
X156555495Y-93965084D01*
X156678416Y-93882951D01*
X156782951Y-93778416D01*
X156865084Y-93655495D01*
X156921658Y-93518913D01*
X156934764Y-93453028D01*
X156950500Y-93373920D01*
X156950500Y-93226079D01*
X156921659Y-93081092D01*
X156921658Y-93081091D01*
X156921658Y-93081087D01*
X156906505Y-93044505D01*
X156865087Y-92944511D01*
X156865080Y-92944498D01*
X156782951Y-92821584D01*
X156782948Y-92821580D01*
X156678419Y-92717051D01*
X156678415Y-92717048D01*
X156591708Y-92659112D01*
X156546903Y-92605500D01*
X156538196Y-92536175D01*
X156538971Y-92531874D01*
X156550500Y-92473918D01*
X156550500Y-92326082D01*
X156550500Y-92326079D01*
X156545052Y-92298692D01*
X156551279Y-92229101D01*
X156594141Y-92173923D01*
X156660031Y-92150678D01*
X156666669Y-92150500D01*
X157233331Y-92150500D01*
X157300370Y-92170185D01*
X157346125Y-92222989D01*
X157356069Y-92292147D01*
X157354948Y-92298692D01*
X157349500Y-92326079D01*
X157349500Y-92326082D01*
X157349500Y-92473918D01*
X157349500Y-92473920D01*
X157349499Y-92473920D01*
X157378340Y-92618907D01*
X157378343Y-92618917D01*
X157434912Y-92755488D01*
X157434919Y-92755501D01*
X157517048Y-92878415D01*
X157517051Y-92878419D01*
X157621580Y-92982948D01*
X157621584Y-92982951D01*
X157744498Y-93065080D01*
X157744511Y-93065087D01*
X157815514Y-93094497D01*
X157881087Y-93121658D01*
X157881091Y-93121658D01*
X157881092Y-93121659D01*
X158026079Y-93150500D01*
X158026082Y-93150500D01*
X158173920Y-93150500D01*
X158271462Y-93131096D01*
X158318913Y-93121658D01*
X158455495Y-93065084D01*
X158578416Y-92982951D01*
X158682951Y-92878416D01*
X158765084Y-92755495D01*
X158807527Y-92653029D01*
X158818289Y-92627047D01*
X158862130Y-92572644D01*
X158928424Y-92550579D01*
X158932850Y-92550500D01*
X159425500Y-92550500D01*
X159492539Y-92570185D01*
X159538294Y-92622989D01*
X159549500Y-92674500D01*
X159549500Y-92937770D01*
X159529815Y-93004809D01*
X159520419Y-93016468D01*
X159520914Y-93016874D01*
X159517048Y-93021584D01*
X159434919Y-93144498D01*
X159434912Y-93144511D01*
X159378343Y-93281082D01*
X159378340Y-93281092D01*
X159349500Y-93426079D01*
X159349500Y-93426082D01*
X159349500Y-93573918D01*
X159349500Y-93573920D01*
X159349499Y-93573920D01*
X159378340Y-93718907D01*
X159378343Y-93718917D01*
X159434912Y-93855488D01*
X159434919Y-93855501D01*
X159517048Y-93978415D01*
X159517051Y-93978419D01*
X159621580Y-94082948D01*
X159621584Y-94082951D01*
X159744498Y-94165080D01*
X159744511Y-94165087D01*
X159881082Y-94221656D01*
X159881087Y-94221658D01*
X159881091Y-94221658D01*
X159881092Y-94221659D01*
X160026079Y-94250500D01*
X160026082Y-94250500D01*
X160173920Y-94250500D01*
X160271462Y-94231096D01*
X160318913Y-94221658D01*
X160455495Y-94165084D01*
X160578416Y-94082951D01*
X160682951Y-93978416D01*
X160765084Y-93855495D01*
X160821658Y-93718913D01*
X160850500Y-93573918D01*
X160850500Y-93426082D01*
X160850500Y-93426079D01*
X160821659Y-93281092D01*
X160821658Y-93281091D01*
X160821658Y-93281087D01*
X160775721Y-93170185D01*
X160765087Y-93144511D01*
X160765080Y-93144498D01*
X160682951Y-93021584D01*
X160679086Y-93016874D01*
X160681191Y-93015145D01*
X160653334Y-92964128D01*
X160650500Y-92937770D01*
X160650500Y-92279387D01*
X160659144Y-92249946D01*
X160665668Y-92219960D01*
X160669422Y-92214944D01*
X160670185Y-92212348D01*
X160686819Y-92191706D01*
X160691706Y-92186819D01*
X160753029Y-92153334D01*
X160767920Y-92151732D01*
X160767858Y-92151097D01*
X160773920Y-92150500D01*
X160871462Y-92131096D01*
X160918913Y-92121658D01*
X161055495Y-92065084D01*
X161056038Y-92064721D01*
X161056606Y-92064342D01*
X161057274Y-92064132D01*
X161060870Y-92062211D01*
X161061234Y-92062892D01*
X161123282Y-92043462D01*
X161190663Y-92061944D01*
X161237355Y-92113921D01*
X161249500Y-92167442D01*
X161249500Y-92272474D01*
X161281124Y-92390498D01*
X161287015Y-92412482D01*
X161287016Y-92412485D01*
X161359489Y-92538013D01*
X161359491Y-92538016D01*
X161413181Y-92591706D01*
X161446666Y-92653029D01*
X161448267Y-92667920D01*
X161448903Y-92667858D01*
X161449499Y-92673920D01*
X161478340Y-92818907D01*
X161478343Y-92818917D01*
X161534912Y-92955488D01*
X161534919Y-92955501D01*
X161617048Y-93078415D01*
X161617051Y-93078419D01*
X161721580Y-93182948D01*
X161721584Y-93182951D01*
X161844498Y-93265080D01*
X161844511Y-93265087D01*
X161981082Y-93321656D01*
X161981087Y-93321658D01*
X161981091Y-93321658D01*
X161981092Y-93321659D01*
X162126079Y-93350500D01*
X162126082Y-93350500D01*
X162273920Y-93350500D01*
X162371462Y-93331096D01*
X162418913Y-93321658D01*
X162555495Y-93265084D01*
X162678416Y-93182951D01*
X162782951Y-93078416D01*
X162865084Y-92955495D01*
X162921658Y-92818913D01*
X162938366Y-92734919D01*
X162950500Y-92673920D01*
X162950500Y-92526079D01*
X162940124Y-92473920D01*
X163249499Y-92473920D01*
X163278340Y-92618907D01*
X163278343Y-92618917D01*
X163334912Y-92755488D01*
X163334919Y-92755501D01*
X163417048Y-92878415D01*
X163417051Y-92878419D01*
X163521580Y-92982948D01*
X163521584Y-92982951D01*
X163644498Y-93065080D01*
X163644511Y-93065087D01*
X163715514Y-93094497D01*
X163781087Y-93121658D01*
X163781091Y-93121658D01*
X163781092Y-93121659D01*
X163926079Y-93150500D01*
X163932142Y-93151097D01*
X163931875Y-93153806D01*
X163987652Y-93170185D01*
X164008294Y-93186819D01*
X164213181Y-93391705D01*
X164246666Y-93453028D01*
X164248267Y-93467920D01*
X164248903Y-93467858D01*
X164249499Y-93473920D01*
X164278340Y-93618907D01*
X164278343Y-93618917D01*
X164334912Y-93755488D01*
X164334919Y-93755501D01*
X164417048Y-93878415D01*
X164417051Y-93878419D01*
X164521580Y-93982948D01*
X164521584Y-93982951D01*
X164644498Y-94065080D01*
X164644511Y-94065087D01*
X164781082Y-94121656D01*
X164781087Y-94121658D01*
X164781091Y-94121658D01*
X164781092Y-94121659D01*
X164926079Y-94150500D01*
X164926082Y-94150500D01*
X165073920Y-94150500D01*
X165171462Y-94131096D01*
X165218913Y-94121658D01*
X165355495Y-94065084D01*
X165478416Y-93982951D01*
X165582951Y-93878416D01*
X165665084Y-93755495D01*
X165721658Y-93618913D01*
X165750500Y-93473918D01*
X165750500Y-93326082D01*
X165750500Y-93326079D01*
X165721659Y-93181092D01*
X165721658Y-93181091D01*
X165721658Y-93181087D01*
X165709236Y-93151097D01*
X165665087Y-93044511D01*
X165665080Y-93044498D01*
X165582951Y-92921584D01*
X165582948Y-92921580D01*
X165478419Y-92817051D01*
X165478415Y-92817048D01*
X165355501Y-92734919D01*
X165355488Y-92734912D01*
X165218917Y-92678343D01*
X165218907Y-92678340D01*
X165073920Y-92649499D01*
X165067858Y-92648903D01*
X165068124Y-92646193D01*
X165012347Y-92629815D01*
X164991705Y-92613181D01*
X164786819Y-92408294D01*
X164753334Y-92346971D01*
X164751732Y-92332079D01*
X164751097Y-92332142D01*
X164750500Y-92326079D01*
X164721659Y-92181092D01*
X164721658Y-92181091D01*
X164721658Y-92181087D01*
X164714876Y-92164714D01*
X164665087Y-92044511D01*
X164665080Y-92044498D01*
X164582951Y-91921584D01*
X164582948Y-91921580D01*
X164478419Y-91817051D01*
X164478415Y-91817048D01*
X164355501Y-91734919D01*
X164355488Y-91734912D01*
X164218917Y-91678343D01*
X164218907Y-91678340D01*
X164073920Y-91649500D01*
X164073918Y-91649500D01*
X163926082Y-91649500D01*
X163926080Y-91649500D01*
X163781092Y-91678340D01*
X163781082Y-91678343D01*
X163644511Y-91734912D01*
X163644498Y-91734919D01*
X163521584Y-91817048D01*
X163521580Y-91817051D01*
X163417051Y-91921580D01*
X163417048Y-91921584D01*
X163334919Y-92044498D01*
X163334912Y-92044511D01*
X163278343Y-92181082D01*
X163278340Y-92181092D01*
X163249500Y-92326079D01*
X163249500Y-92326082D01*
X163249500Y-92473918D01*
X163249500Y-92473920D01*
X163249499Y-92473920D01*
X162940124Y-92473920D01*
X162921659Y-92381092D01*
X162921656Y-92381081D01*
X162916007Y-92367444D01*
X162916006Y-92367442D01*
X162865087Y-92244511D01*
X162865080Y-92244498D01*
X162782951Y-92121584D01*
X162782948Y-92121580D01*
X162678419Y-92017051D01*
X162678415Y-92017048D01*
X162555501Y-91934919D01*
X162555492Y-91934914D01*
X162427047Y-91881711D01*
X162372644Y-91837870D01*
X162350579Y-91771576D01*
X162350500Y-91767150D01*
X162350500Y-89573920D01*
X162649499Y-89573920D01*
X162678340Y-89718907D01*
X162678343Y-89718917D01*
X162734912Y-89855488D01*
X162734919Y-89855501D01*
X162817048Y-89978415D01*
X162817051Y-89978419D01*
X162921580Y-90082948D01*
X162921584Y-90082951D01*
X163044498Y-90165080D01*
X163044511Y-90165087D01*
X163181082Y-90221656D01*
X163181087Y-90221658D01*
X163181091Y-90221658D01*
X163181092Y-90221659D01*
X163326079Y-90250500D01*
X163326082Y-90250500D01*
X163473920Y-90250500D01*
X163571462Y-90231096D01*
X163618913Y-90221658D01*
X163755495Y-90165084D01*
X163878416Y-90082951D01*
X163982951Y-89978416D01*
X163996897Y-89957543D01*
X164050509Y-89912738D01*
X164119834Y-89904031D01*
X164182862Y-89934185D01*
X164203103Y-89957544D01*
X164217050Y-89978418D01*
X164321580Y-90082948D01*
X164321584Y-90082951D01*
X164444498Y-90165080D01*
X164444511Y-90165087D01*
X164581082Y-90221656D01*
X164581087Y-90221658D01*
X164581091Y-90221658D01*
X164581092Y-90221659D01*
X164726079Y-90250500D01*
X164726082Y-90250500D01*
X164873920Y-90250500D01*
X164971462Y-90231096D01*
X165018913Y-90221658D01*
X165155495Y-90165084D01*
X165278416Y-90082951D01*
X165382951Y-89978416D01*
X165465084Y-89855495D01*
X165521658Y-89718913D01*
X165533473Y-89659516D01*
X165550500Y-89573920D01*
X165550500Y-89426079D01*
X165521659Y-89281092D01*
X165521658Y-89281091D01*
X165521658Y-89281087D01*
X165511060Y-89255501D01*
X165465087Y-89144511D01*
X165465081Y-89144500D01*
X165464342Y-89143394D01*
X165464132Y-89142725D01*
X165462211Y-89139130D01*
X165462892Y-89138765D01*
X165443462Y-89076718D01*
X165461944Y-89009337D01*
X165501370Y-88973920D01*
X167449499Y-88973920D01*
X167478340Y-89118907D01*
X167478343Y-89118917D01*
X167534912Y-89255488D01*
X167534919Y-89255501D01*
X167617048Y-89378415D01*
X167617051Y-89378419D01*
X167721580Y-89482948D01*
X167721584Y-89482951D01*
X167844498Y-89565080D01*
X167844511Y-89565087D01*
X167981082Y-89621656D01*
X167981087Y-89621658D01*
X167981091Y-89621658D01*
X167981092Y-89621659D01*
X168126079Y-89650500D01*
X168126082Y-89650500D01*
X168273920Y-89650500D01*
X168371462Y-89631096D01*
X168418913Y-89621658D01*
X168555495Y-89565084D01*
X168678416Y-89482951D01*
X168782951Y-89378416D01*
X168865084Y-89255495D01*
X168921658Y-89118913D01*
X168932221Y-89065813D01*
X168950500Y-88973920D01*
X168950500Y-88826079D01*
X168921659Y-88681092D01*
X168921658Y-88681091D01*
X168921658Y-88681087D01*
X168909552Y-88651860D01*
X168865087Y-88544511D01*
X168865080Y-88544498D01*
X168807105Y-88457732D01*
X168782951Y-88421584D01*
X168782948Y-88421580D01*
X168755081Y-88393713D01*
X173149500Y-88393713D01*
X173149500Y-88606286D01*
X173182752Y-88816235D01*
X173182754Y-88816243D01*
X173245494Y-89009337D01*
X173248444Y-89018414D01*
X173344951Y-89207820D01*
X173469890Y-89379786D01*
X173620213Y-89530109D01*
X173792182Y-89655050D01*
X173800946Y-89659516D01*
X173851742Y-89707491D01*
X173868536Y-89775312D01*
X173845998Y-89841447D01*
X173800946Y-89880484D01*
X173792182Y-89884949D01*
X173620213Y-90009890D01*
X173469890Y-90160213D01*
X173344951Y-90332179D01*
X173248444Y-90521585D01*
X173182753Y-90723760D01*
X173151409Y-90921658D01*
X173149500Y-90933713D01*
X173149500Y-91146287D01*
X173153908Y-91174116D01*
X173180679Y-91343147D01*
X173182754Y-91356243D01*
X173235003Y-91517049D01*
X173248444Y-91558414D01*
X173344951Y-91747820D01*
X173469890Y-91919786D01*
X173620213Y-92070109D01*
X173792179Y-92195048D01*
X173792181Y-92195049D01*
X173792184Y-92195051D01*
X173981588Y-92291557D01*
X174183757Y-92357246D01*
X174393713Y-92390500D01*
X174393714Y-92390500D01*
X174398525Y-92391262D01*
X174398345Y-92392396D01*
X174458568Y-92415353D01*
X174498107Y-92466631D01*
X174534912Y-92555488D01*
X174534919Y-92555501D01*
X174617048Y-92678415D01*
X174617051Y-92678419D01*
X174721580Y-92782948D01*
X174721584Y-92782951D01*
X174844498Y-92865080D01*
X174844511Y-92865087D01*
X174980899Y-92921580D01*
X174981087Y-92921658D01*
X174981091Y-92921658D01*
X174981092Y-92921659D01*
X175126079Y-92950500D01*
X175126082Y-92950500D01*
X175273920Y-92950500D01*
X175371462Y-92931096D01*
X175418913Y-92921658D01*
X175555495Y-92865084D01*
X175678416Y-92782951D01*
X175782951Y-92678416D01*
X175865084Y-92555495D01*
X175921658Y-92418913D01*
X175946874Y-92292147D01*
X175950500Y-92273920D01*
X175950500Y-92126080D01*
X175934273Y-92044505D01*
X175930570Y-92025890D01*
X175936797Y-91956300D01*
X175964503Y-91914021D01*
X176040510Y-91838015D01*
X176112984Y-91712485D01*
X176117743Y-91694724D01*
X176122133Y-91678343D01*
X176137342Y-91621580D01*
X176150500Y-91572475D01*
X176150500Y-89527525D01*
X176112984Y-89387515D01*
X176112982Y-89387512D01*
X176112983Y-89387512D01*
X176104104Y-89372134D01*
X176104102Y-89372132D01*
X176040510Y-89261985D01*
X175816416Y-89037891D01*
X175782931Y-88976568D01*
X175786165Y-88911895D01*
X175817246Y-88816243D01*
X175850500Y-88606287D01*
X175850500Y-88393713D01*
X175817246Y-88183757D01*
X175751557Y-87981588D01*
X175655051Y-87792184D01*
X175655049Y-87792181D01*
X175655048Y-87792179D01*
X175530109Y-87620213D01*
X175416181Y-87506285D01*
X175382696Y-87444962D01*
X175387680Y-87375270D01*
X175429552Y-87319337D01*
X175460529Y-87302422D01*
X175592086Y-87253354D01*
X175592093Y-87253350D01*
X175707187Y-87167190D01*
X175707190Y-87167187D01*
X175793350Y-87052093D01*
X175793354Y-87052086D01*
X175843596Y-86917379D01*
X175843598Y-86917372D01*
X175849999Y-86857844D01*
X175850000Y-86857827D01*
X175850000Y-86210000D01*
X174933012Y-86210000D01*
X174965925Y-86152993D01*
X175000000Y-86025826D01*
X175000000Y-85894174D01*
X174965925Y-85767007D01*
X174933012Y-85710000D01*
X175850000Y-85710000D01*
X175850000Y-85062172D01*
X175849999Y-85062155D01*
X175843598Y-85002627D01*
X175843596Y-85002620D01*
X175793354Y-84867913D01*
X175793350Y-84867906D01*
X175707190Y-84752812D01*
X175707187Y-84752809D01*
X175592093Y-84666649D01*
X175592086Y-84666645D01*
X175457379Y-84616403D01*
X175457372Y-84616401D01*
X175397844Y-84610000D01*
X174750000Y-84610000D01*
X174750000Y-85526988D01*
X174692993Y-85494075D01*
X174565826Y-85460000D01*
X174434174Y-85460000D01*
X174307007Y-85494075D01*
X174250000Y-85526988D01*
X174250000Y-84610000D01*
X173602155Y-84610000D01*
X173542627Y-84616401D01*
X173542620Y-84616403D01*
X173407913Y-84666645D01*
X173407906Y-84666649D01*
X173292812Y-84752809D01*
X173292809Y-84752812D01*
X173206649Y-84867906D01*
X173206645Y-84867913D01*
X173156403Y-85002620D01*
X173156401Y-85002627D01*
X173150000Y-85062155D01*
X173150000Y-85710000D01*
X174066988Y-85710000D01*
X174034075Y-85767007D01*
X174000000Y-85894174D01*
X174000000Y-86025826D01*
X174034075Y-86152993D01*
X174066988Y-86210000D01*
X173150000Y-86210000D01*
X173150000Y-86857844D01*
X173156401Y-86917372D01*
X173156403Y-86917379D01*
X173206645Y-87052086D01*
X173206649Y-87052093D01*
X173292809Y-87167187D01*
X173292812Y-87167190D01*
X173407906Y-87253350D01*
X173407913Y-87253354D01*
X173539470Y-87302422D01*
X173595404Y-87344293D01*
X173619821Y-87409758D01*
X173604969Y-87478031D01*
X173583819Y-87506285D01*
X173469889Y-87620215D01*
X173344951Y-87792179D01*
X173248444Y-87981585D01*
X173182753Y-88183760D01*
X173149500Y-88393713D01*
X168755081Y-88393713D01*
X168678419Y-88317051D01*
X168678415Y-88317048D01*
X168555501Y-88234919D01*
X168555488Y-88234912D01*
X168418917Y-88178343D01*
X168418907Y-88178340D01*
X168273920Y-88149500D01*
X168273918Y-88149500D01*
X168126082Y-88149500D01*
X168126080Y-88149500D01*
X167981092Y-88178340D01*
X167981082Y-88178343D01*
X167844511Y-88234912D01*
X167844498Y-88234919D01*
X167721584Y-88317048D01*
X167721580Y-88317051D01*
X167617051Y-88421580D01*
X167617048Y-88421584D01*
X167534919Y-88544498D01*
X167534912Y-88544511D01*
X167478343Y-88681082D01*
X167478340Y-88681092D01*
X167449500Y-88826079D01*
X167449500Y-88826082D01*
X167449500Y-88973918D01*
X167449500Y-88973920D01*
X167449499Y-88973920D01*
X165501370Y-88973920D01*
X165513921Y-88962645D01*
X165567442Y-88950500D01*
X165573920Y-88950500D01*
X165673206Y-88930750D01*
X165718913Y-88921658D01*
X165855495Y-88865084D01*
X165978416Y-88782951D01*
X166001910Y-88759457D01*
X166029059Y-88732309D01*
X166082948Y-88678419D01*
X166082951Y-88678416D01*
X166165084Y-88555495D01*
X166221658Y-88418913D01*
X166241921Y-88317048D01*
X166250500Y-88273920D01*
X166250500Y-88126079D01*
X166221659Y-87981092D01*
X166221658Y-87981091D01*
X166221658Y-87981087D01*
X166184089Y-87890387D01*
X166165087Y-87844511D01*
X166165080Y-87844498D01*
X166082951Y-87721584D01*
X166079086Y-87716874D01*
X166081191Y-87715145D01*
X166053334Y-87664128D01*
X166050500Y-87637770D01*
X166050500Y-87262628D01*
X166070185Y-87195589D01*
X166094732Y-87167691D01*
X166103070Y-87160685D01*
X166138015Y-87140510D01*
X166195507Y-87083017D01*
X166199619Y-87079563D01*
X166226893Y-87067605D01*
X166253029Y-87053334D01*
X166261528Y-87052420D01*
X166263609Y-87051508D01*
X166266188Y-87051919D01*
X166267920Y-87051732D01*
X166267858Y-87051097D01*
X166273920Y-87050500D01*
X166371462Y-87031096D01*
X166418913Y-87021658D01*
X166555495Y-86965084D01*
X166678416Y-86882951D01*
X166782951Y-86778416D01*
X166865084Y-86655495D01*
X166921658Y-86518913D01*
X166950500Y-86373918D01*
X166950500Y-86226082D01*
X166950500Y-86226079D01*
X166921659Y-86081092D01*
X166921658Y-86081091D01*
X166921658Y-86081087D01*
X166918689Y-86073918D01*
X166865087Y-85944511D01*
X166865080Y-85944498D01*
X166782951Y-85821584D01*
X166782948Y-85821580D01*
X166678419Y-85717051D01*
X166678415Y-85717048D01*
X166555501Y-85634919D01*
X166555488Y-85634912D01*
X166418917Y-85578343D01*
X166418907Y-85578340D01*
X166396686Y-85573920D01*
X168249499Y-85573920D01*
X168278340Y-85718907D01*
X168278343Y-85718917D01*
X168334912Y-85855488D01*
X168334919Y-85855501D01*
X168417048Y-85978415D01*
X168417051Y-85978419D01*
X168521580Y-86082948D01*
X168521584Y-86082951D01*
X168644498Y-86165080D01*
X168644511Y-86165087D01*
X168774460Y-86218913D01*
X168781087Y-86221658D01*
X168781091Y-86221658D01*
X168781092Y-86221659D01*
X168926079Y-86250500D01*
X168926082Y-86250500D01*
X169073920Y-86250500D01*
X169171462Y-86231096D01*
X169218913Y-86221658D01*
X169355495Y-86165084D01*
X169478416Y-86082951D01*
X169490392Y-86070975D01*
X169512319Y-86049049D01*
X169573642Y-86015564D01*
X169643334Y-86020548D01*
X169687681Y-86049049D01*
X169721580Y-86082948D01*
X169721584Y-86082951D01*
X169844498Y-86165080D01*
X169844511Y-86165087D01*
X169974460Y-86218913D01*
X169981087Y-86221658D01*
X169981091Y-86221658D01*
X169981092Y-86221659D01*
X170126079Y-86250500D01*
X170126082Y-86250500D01*
X170273920Y-86250500D01*
X170371462Y-86231096D01*
X170418913Y-86221658D01*
X170555495Y-86165084D01*
X170678416Y-86082951D01*
X170782951Y-85978416D01*
X170865084Y-85855495D01*
X170921658Y-85718913D01*
X170938366Y-85634919D01*
X170950500Y-85573920D01*
X170950500Y-85426079D01*
X170921659Y-85281092D01*
X170921658Y-85281091D01*
X170921658Y-85281087D01*
X170915725Y-85266763D01*
X170865087Y-85144511D01*
X170865080Y-85144498D01*
X170853884Y-85127742D01*
X170782951Y-85021584D01*
X170782948Y-85021580D01*
X170678419Y-84917051D01*
X170678415Y-84917048D01*
X170555501Y-84834919D01*
X170555488Y-84834912D01*
X170418917Y-84778343D01*
X170418907Y-84778340D01*
X170273920Y-84749500D01*
X170273918Y-84749500D01*
X170126082Y-84749500D01*
X170126080Y-84749500D01*
X169981092Y-84778340D01*
X169981082Y-84778343D01*
X169844511Y-84834912D01*
X169844498Y-84834919D01*
X169721584Y-84917048D01*
X169721580Y-84917051D01*
X169687681Y-84950951D01*
X169626358Y-84984436D01*
X169556666Y-84979452D01*
X169512319Y-84950951D01*
X169478419Y-84917051D01*
X169478415Y-84917048D01*
X169355501Y-84834919D01*
X169355488Y-84834912D01*
X169218917Y-84778343D01*
X169218907Y-84778340D01*
X169073920Y-84749500D01*
X169073918Y-84749500D01*
X168926082Y-84749500D01*
X168926080Y-84749500D01*
X168781092Y-84778340D01*
X168781082Y-84778343D01*
X168644511Y-84834912D01*
X168644498Y-84834919D01*
X168521584Y-84917048D01*
X168521580Y-84917051D01*
X168417051Y-85021580D01*
X168417048Y-85021584D01*
X168334919Y-85144498D01*
X168334912Y-85144511D01*
X168278343Y-85281082D01*
X168278340Y-85281092D01*
X168249500Y-85426079D01*
X168249500Y-85426082D01*
X168249500Y-85573918D01*
X168249500Y-85573920D01*
X168249499Y-85573920D01*
X166396686Y-85573920D01*
X166273920Y-85549500D01*
X166273918Y-85549500D01*
X166126082Y-85549500D01*
X166126080Y-85549500D01*
X165981092Y-85578340D01*
X165981082Y-85578343D01*
X165844511Y-85634912D01*
X165844498Y-85634919D01*
X165721584Y-85717048D01*
X165721580Y-85717051D01*
X165616884Y-85821748D01*
X165555561Y-85855233D01*
X165505013Y-85855685D01*
X165504087Y-85855501D01*
X165494898Y-85853673D01*
X165473918Y-85849500D01*
X165326082Y-85849500D01*
X165326080Y-85849500D01*
X165181092Y-85878340D01*
X165181082Y-85878343D01*
X165044511Y-85934912D01*
X165044498Y-85934919D01*
X164921584Y-86017048D01*
X164921580Y-86017051D01*
X164817051Y-86121580D01*
X164817048Y-86121584D01*
X164734919Y-86244498D01*
X164734912Y-86244511D01*
X164678343Y-86381082D01*
X164678340Y-86381092D01*
X164649500Y-86526079D01*
X164649500Y-86526082D01*
X164649500Y-86673918D01*
X164649500Y-86673920D01*
X164649499Y-86673920D01*
X164674840Y-86801308D01*
X164668613Y-86870900D01*
X164625751Y-86926077D01*
X164559861Y-86949322D01*
X164553223Y-86949500D01*
X164527525Y-86949500D01*
X164402685Y-86982951D01*
X164402684Y-86982950D01*
X164387517Y-86987015D01*
X164387514Y-86987016D01*
X164261986Y-87059489D01*
X164261983Y-87059491D01*
X164208294Y-87113181D01*
X164146971Y-87146666D01*
X164132079Y-87148267D01*
X164132142Y-87148903D01*
X164126079Y-87149499D01*
X163981092Y-87178340D01*
X163981082Y-87178343D01*
X163844511Y-87234912D01*
X163844498Y-87234919D01*
X163721584Y-87317048D01*
X163721580Y-87317051D01*
X163617051Y-87421580D01*
X163617048Y-87421584D01*
X163534919Y-87544498D01*
X163534912Y-87544511D01*
X163478343Y-87681082D01*
X163478340Y-87681092D01*
X163449500Y-87826079D01*
X163449500Y-87826082D01*
X163449500Y-87973918D01*
X163449500Y-87973920D01*
X163449499Y-87973920D01*
X163478340Y-88118907D01*
X163478343Y-88118917D01*
X163534912Y-88255488D01*
X163534919Y-88255501D01*
X163617048Y-88378415D01*
X163617051Y-88378419D01*
X163721580Y-88482948D01*
X163721584Y-88482951D01*
X163844498Y-88565080D01*
X163844511Y-88565087D01*
X163943978Y-88606287D01*
X163981087Y-88621658D01*
X163981091Y-88621658D01*
X163981092Y-88621659D01*
X164126079Y-88650500D01*
X164126082Y-88650500D01*
X164273919Y-88650500D01*
X164298387Y-88645633D01*
X164367978Y-88651860D01*
X164423156Y-88694722D01*
X164446401Y-88760612D01*
X164430334Y-88828609D01*
X164391470Y-88870352D01*
X164321584Y-88917048D01*
X164321580Y-88917051D01*
X164217051Y-89021580D01*
X164217046Y-89021586D01*
X164203101Y-89042457D01*
X164149489Y-89087261D01*
X164080164Y-89095968D01*
X164017136Y-89065813D01*
X163996899Y-89042457D01*
X163982953Y-89021586D01*
X163982948Y-89021580D01*
X163878419Y-88917051D01*
X163878415Y-88917048D01*
X163755501Y-88834919D01*
X163755488Y-88834912D01*
X163618917Y-88778343D01*
X163618907Y-88778340D01*
X163473920Y-88749500D01*
X163473918Y-88749500D01*
X163326082Y-88749500D01*
X163326080Y-88749500D01*
X163181092Y-88778340D01*
X163181082Y-88778343D01*
X163044511Y-88834912D01*
X163044498Y-88834919D01*
X162921584Y-88917048D01*
X162921580Y-88917051D01*
X162817051Y-89021580D01*
X162817048Y-89021584D01*
X162734919Y-89144498D01*
X162734912Y-89144511D01*
X162678343Y-89281082D01*
X162678340Y-89281092D01*
X162649500Y-89426079D01*
X162649500Y-89426082D01*
X162649500Y-89573918D01*
X162649500Y-89573920D01*
X162649499Y-89573920D01*
X162350500Y-89573920D01*
X162350500Y-89027527D01*
X162350500Y-89027525D01*
X162312984Y-88887515D01*
X162312982Y-88887512D01*
X162312982Y-88887510D01*
X162312981Y-88887509D01*
X162291037Y-88849501D01*
X162291036Y-88849499D01*
X162240514Y-88761992D01*
X162240508Y-88761984D01*
X161086819Y-87608294D01*
X161053334Y-87546971D01*
X161050500Y-87520613D01*
X161050500Y-85546777D01*
X161070185Y-85479738D01*
X161122989Y-85433983D01*
X161192147Y-85424039D01*
X161198692Y-85425160D01*
X161326079Y-85450500D01*
X161326082Y-85450500D01*
X161473920Y-85450500D01*
X161571462Y-85431096D01*
X161618913Y-85421658D01*
X161755495Y-85365084D01*
X161878416Y-85282951D01*
X161982951Y-85178416D01*
X162065084Y-85055495D01*
X162121658Y-84918913D01*
X162138366Y-84834919D01*
X162150500Y-84773920D01*
X162150500Y-84626079D01*
X162132366Y-84534919D01*
X162122389Y-84484762D01*
X162128616Y-84415173D01*
X162140902Y-84391684D01*
X162165084Y-84355495D01*
X162221658Y-84218913D01*
X162250500Y-84073920D01*
X164149499Y-84073920D01*
X164178340Y-84218907D01*
X164178343Y-84218917D01*
X164234912Y-84355488D01*
X164234919Y-84355501D01*
X164317048Y-84478415D01*
X164317051Y-84478419D01*
X164421580Y-84582948D01*
X164421584Y-84582951D01*
X164544498Y-84665080D01*
X164544511Y-84665087D01*
X164681082Y-84721656D01*
X164681087Y-84721658D01*
X164681091Y-84721658D01*
X164681092Y-84721659D01*
X164826079Y-84750500D01*
X164826082Y-84750500D01*
X164973920Y-84750500D01*
X165071462Y-84731096D01*
X165118913Y-84721658D01*
X165251717Y-84666649D01*
X165255488Y-84665087D01*
X165255488Y-84665086D01*
X165255495Y-84665084D01*
X165378416Y-84582951D01*
X165482951Y-84478416D01*
X165565084Y-84355495D01*
X165621658Y-84218913D01*
X165650500Y-84073918D01*
X165650500Y-83926082D01*
X165650500Y-83926079D01*
X165621659Y-83781092D01*
X165621658Y-83781091D01*
X165621658Y-83781087D01*
X165611060Y-83755501D01*
X165565087Y-83644511D01*
X165565080Y-83644498D01*
X165482951Y-83521584D01*
X165482948Y-83521580D01*
X165378419Y-83417051D01*
X165378415Y-83417048D01*
X165255501Y-83334919D01*
X165255488Y-83334912D01*
X165118917Y-83278343D01*
X165118907Y-83278340D01*
X164973920Y-83249500D01*
X164973918Y-83249500D01*
X164826082Y-83249500D01*
X164826080Y-83249500D01*
X164681092Y-83278340D01*
X164681082Y-83278343D01*
X164544511Y-83334912D01*
X164544498Y-83334919D01*
X164421584Y-83417048D01*
X164421580Y-83417051D01*
X164317051Y-83521580D01*
X164317048Y-83521584D01*
X164234919Y-83644498D01*
X164234912Y-83644511D01*
X164178343Y-83781082D01*
X164178340Y-83781092D01*
X164149500Y-83926079D01*
X164149500Y-83926082D01*
X164149500Y-84073918D01*
X164149500Y-84073920D01*
X164149499Y-84073920D01*
X162250500Y-84073920D01*
X162250500Y-84073918D01*
X162250500Y-83926082D01*
X162250500Y-83926079D01*
X162221659Y-83781092D01*
X162221658Y-83781091D01*
X162221658Y-83781087D01*
X162211060Y-83755501D01*
X162165087Y-83644511D01*
X162165080Y-83644498D01*
X162082951Y-83521584D01*
X162082948Y-83521580D01*
X161978419Y-83417051D01*
X161978415Y-83417048D01*
X161855501Y-83334919D01*
X161855488Y-83334912D01*
X161718917Y-83278343D01*
X161718907Y-83278340D01*
X161573920Y-83249500D01*
X161573918Y-83249500D01*
X161426082Y-83249500D01*
X161426080Y-83249500D01*
X161331352Y-83268343D01*
X161261760Y-83262116D01*
X161206583Y-83219253D01*
X161183338Y-83153364D01*
X161199406Y-83085367D01*
X161219479Y-83059045D01*
X161604604Y-82673920D01*
X168549499Y-82673920D01*
X168578340Y-82818907D01*
X168578343Y-82818917D01*
X168634912Y-82955488D01*
X168634919Y-82955501D01*
X168717048Y-83078415D01*
X168717051Y-83078419D01*
X168821580Y-83182948D01*
X168821584Y-83182951D01*
X168944498Y-83265080D01*
X168944511Y-83265087D01*
X169030306Y-83300624D01*
X169081087Y-83321658D01*
X169081091Y-83321658D01*
X169081092Y-83321659D01*
X169226079Y-83350500D01*
X169226082Y-83350500D01*
X169373920Y-83350500D01*
X169471462Y-83331096D01*
X169518913Y-83321658D01*
X169655495Y-83265084D01*
X169756609Y-83197522D01*
X169823286Y-83176644D01*
X169890667Y-83195128D01*
X169937357Y-83247107D01*
X169949500Y-83300624D01*
X169949500Y-83373918D01*
X169949500Y-83373920D01*
X169949499Y-83373920D01*
X169978340Y-83518907D01*
X169978343Y-83518917D01*
X170034912Y-83655488D01*
X170034919Y-83655501D01*
X170117048Y-83778415D01*
X170117051Y-83778419D01*
X170221580Y-83882948D01*
X170221584Y-83882951D01*
X170344498Y-83965080D01*
X170344511Y-83965087D01*
X170481082Y-84021656D01*
X170481087Y-84021658D01*
X170481091Y-84021658D01*
X170481092Y-84021659D01*
X170626079Y-84050500D01*
X170626082Y-84050500D01*
X170773920Y-84050500D01*
X170871462Y-84031096D01*
X170918913Y-84021658D01*
X171055495Y-83965084D01*
X171178416Y-83882951D01*
X171282951Y-83778416D01*
X171365084Y-83655495D01*
X171419731Y-83523563D01*
X171463569Y-83469165D01*
X171529863Y-83447099D01*
X171597562Y-83464378D01*
X171621971Y-83483339D01*
X171721580Y-83582948D01*
X171721584Y-83582951D01*
X171844498Y-83665080D01*
X171844511Y-83665087D01*
X171898658Y-83687515D01*
X171981087Y-83721658D01*
X171981091Y-83721658D01*
X171981092Y-83721659D01*
X172126079Y-83750500D01*
X172126082Y-83750500D01*
X172273920Y-83750500D01*
X172371462Y-83731096D01*
X172418913Y-83721658D01*
X172555495Y-83665084D01*
X172678416Y-83582951D01*
X172782951Y-83478416D01*
X172865084Y-83355495D01*
X172921658Y-83218913D01*
X172949605Y-83078419D01*
X172950500Y-83073920D01*
X172950500Y-82962229D01*
X172970185Y-82895190D01*
X172979586Y-82883536D01*
X172979086Y-82883126D01*
X172982945Y-82878421D01*
X172982951Y-82878416D01*
X173065084Y-82755495D01*
X173121658Y-82618913D01*
X173136459Y-82544505D01*
X173150500Y-82473920D01*
X173150500Y-82326079D01*
X173121659Y-82181092D01*
X173121658Y-82181091D01*
X173121658Y-82181087D01*
X173111093Y-82155581D01*
X173065087Y-82044511D01*
X173065080Y-82044498D01*
X172982951Y-81921584D01*
X172982948Y-81921580D01*
X172878419Y-81817051D01*
X172878415Y-81817048D01*
X172755501Y-81734919D01*
X172755488Y-81734912D01*
X172618917Y-81678343D01*
X172618907Y-81678340D01*
X172473920Y-81649500D01*
X172473918Y-81649500D01*
X172326082Y-81649500D01*
X172326080Y-81649500D01*
X172181092Y-81678340D01*
X172181082Y-81678343D01*
X172044511Y-81734912D01*
X172044493Y-81734922D01*
X171934894Y-81808154D01*
X171868217Y-81829032D01*
X171818552Y-81819613D01*
X171718917Y-81778343D01*
X171718907Y-81778340D01*
X171573920Y-81749500D01*
X171573918Y-81749500D01*
X171511230Y-81749500D01*
X171444191Y-81729815D01*
X171398436Y-81677011D01*
X171388492Y-81607853D01*
X171417517Y-81544297D01*
X171423549Y-81537819D01*
X171482948Y-81478419D01*
X171482951Y-81478416D01*
X171565084Y-81355495D01*
X171621658Y-81218913D01*
X171640124Y-81126079D01*
X171640894Y-81122210D01*
X171673279Y-81060299D01*
X171733994Y-81025725D01*
X171803764Y-81029464D01*
X171809963Y-81031840D01*
X171978306Y-81101569D01*
X171978318Y-81101572D01*
X172171504Y-81139999D01*
X172171508Y-81140000D01*
X172570000Y-81140000D01*
X172570000Y-80440000D01*
X173070000Y-80440000D01*
X173070000Y-81140000D01*
X173468492Y-81140000D01*
X173468495Y-81139999D01*
X173661681Y-81101572D01*
X173661693Y-81101569D01*
X173843671Y-81026192D01*
X173843684Y-81026185D01*
X174007462Y-80916751D01*
X174007466Y-80916748D01*
X174146748Y-80777466D01*
X174146751Y-80777462D01*
X174256185Y-80613684D01*
X174256192Y-80613671D01*
X174331569Y-80431692D01*
X174331569Y-80431690D01*
X174339862Y-80390000D01*
X173536988Y-80390000D01*
X173554205Y-80380060D01*
X173610060Y-80324205D01*
X173649556Y-80255796D01*
X173670000Y-80179496D01*
X173670000Y-80100504D01*
X173649556Y-80024204D01*
X173610060Y-79955795D01*
X173554205Y-79899940D01*
X173536988Y-79890000D01*
X174339862Y-79890000D01*
X175730138Y-79890000D01*
X176533012Y-79890000D01*
X176515795Y-79899940D01*
X176459940Y-79955795D01*
X176420444Y-80024204D01*
X176400000Y-80100504D01*
X176400000Y-80179496D01*
X176420444Y-80255796D01*
X176459940Y-80324205D01*
X176515795Y-80380060D01*
X176533012Y-80390000D01*
X175730138Y-80390000D01*
X175738430Y-80431690D01*
X175738430Y-80431692D01*
X175813807Y-80613671D01*
X175813814Y-80613684D01*
X175923248Y-80777462D01*
X175923251Y-80777466D01*
X176062533Y-80916748D01*
X176062537Y-80916751D01*
X176226315Y-81026185D01*
X176226328Y-81026192D01*
X176408306Y-81101569D01*
X176408318Y-81101572D01*
X176601504Y-81139999D01*
X176601508Y-81140000D01*
X176750000Y-81140000D01*
X176750000Y-80440000D01*
X177250000Y-80440000D01*
X177250000Y-81140000D01*
X177398492Y-81140000D01*
X177398495Y-81139999D01*
X177591681Y-81101572D01*
X177591693Y-81101569D01*
X177773671Y-81026192D01*
X177773684Y-81026185D01*
X177937462Y-80916751D01*
X177937466Y-80916748D01*
X178076748Y-80777466D01*
X178076751Y-80777462D01*
X178186185Y-80613684D01*
X178186192Y-80613671D01*
X178261569Y-80431692D01*
X178261569Y-80431690D01*
X178269862Y-80390000D01*
X177466988Y-80390000D01*
X177484205Y-80380060D01*
X177540060Y-80324205D01*
X177579556Y-80255796D01*
X177600000Y-80179496D01*
X177600000Y-80100504D01*
X177579556Y-80024204D01*
X177540060Y-79955795D01*
X177484205Y-79899940D01*
X177466988Y-79890000D01*
X178269862Y-79890000D01*
X178261569Y-79848309D01*
X178261569Y-79848307D01*
X178186192Y-79666328D01*
X178186185Y-79666315D01*
X178076751Y-79502537D01*
X178076748Y-79502533D01*
X177937466Y-79363251D01*
X177937462Y-79363248D01*
X177773684Y-79253814D01*
X177773671Y-79253807D01*
X177591693Y-79178430D01*
X177591681Y-79178427D01*
X177398495Y-79140000D01*
X177250000Y-79140000D01*
X177250000Y-79840000D01*
X176750000Y-79840000D01*
X176750000Y-79140000D01*
X176601504Y-79140000D01*
X176408318Y-79178427D01*
X176408306Y-79178430D01*
X176226328Y-79253807D01*
X176226315Y-79253814D01*
X176062537Y-79363248D01*
X176062533Y-79363251D01*
X175923251Y-79502533D01*
X175923248Y-79502537D01*
X175813814Y-79666315D01*
X175813807Y-79666328D01*
X175738430Y-79848307D01*
X175738430Y-79848309D01*
X175730138Y-79890000D01*
X174339862Y-79890000D01*
X174331569Y-79848309D01*
X174331569Y-79848307D01*
X174256192Y-79666328D01*
X174256185Y-79666315D01*
X174146751Y-79502537D01*
X174146748Y-79502533D01*
X174007466Y-79363251D01*
X174007462Y-79363248D01*
X173843684Y-79253814D01*
X173843675Y-79253809D01*
X173707014Y-79197203D01*
X173652611Y-79153362D01*
X173630546Y-79087068D01*
X173647825Y-79019369D01*
X173666780Y-78994967D01*
X173690485Y-78971263D01*
X173746503Y-78874237D01*
X173775500Y-78766018D01*
X173775500Y-78653982D01*
X173746503Y-78545763D01*
X173690485Y-78448737D01*
X173611263Y-78369515D01*
X173514237Y-78313497D01*
X173406018Y-78284500D01*
X173293982Y-78284500D01*
X173185763Y-78313497D01*
X173185760Y-78313498D01*
X173088740Y-78369513D01*
X173088734Y-78369517D01*
X173009517Y-78448734D01*
X173009513Y-78448740D01*
X172953498Y-78545760D01*
X172953497Y-78545763D01*
X172924500Y-78653982D01*
X172924500Y-78766018D01*
X172926618Y-78773920D01*
X172953497Y-78874236D01*
X172953498Y-78874239D01*
X172955910Y-78878416D01*
X173009515Y-78971263D01*
X173009517Y-78971265D01*
X173036445Y-78998193D01*
X173069930Y-79059516D01*
X173067847Y-79088638D01*
X173070000Y-79088638D01*
X173070000Y-79840000D01*
X172570000Y-79840000D01*
X172570000Y-79140000D01*
X172171504Y-79140000D01*
X171978318Y-79178427D01*
X171978306Y-79178430D01*
X171796328Y-79253807D01*
X171796315Y-79253814D01*
X171632537Y-79363248D01*
X171632533Y-79363251D01*
X171493251Y-79502533D01*
X171493248Y-79502537D01*
X171383814Y-79666315D01*
X171383807Y-79666328D01*
X171308430Y-79848307D01*
X171308430Y-79848309D01*
X171300138Y-79890000D01*
X172103012Y-79890000D01*
X172085795Y-79899940D01*
X172029940Y-79955795D01*
X171990444Y-80024204D01*
X171970000Y-80100504D01*
X171970000Y-80179496D01*
X171990444Y-80255796D01*
X172029940Y-80324205D01*
X172085795Y-80380060D01*
X172103012Y-80390000D01*
X171375549Y-80390000D01*
X171308510Y-80370315D01*
X171306710Y-80369136D01*
X171255495Y-80334916D01*
X171255488Y-80334912D01*
X171118917Y-80278343D01*
X171118907Y-80278340D01*
X170973920Y-80249500D01*
X170973918Y-80249500D01*
X170826082Y-80249500D01*
X170826080Y-80249500D01*
X170681092Y-80278340D01*
X170681082Y-80278343D01*
X170544511Y-80334912D01*
X170544498Y-80334919D01*
X170421584Y-80417048D01*
X170421580Y-80417051D01*
X170317051Y-80521580D01*
X170317048Y-80521584D01*
X170234919Y-80644498D01*
X170234912Y-80644511D01*
X170178343Y-80781082D01*
X170178340Y-80781092D01*
X170149499Y-80926079D01*
X170148903Y-80932142D01*
X170146193Y-80931875D01*
X170129815Y-80987652D01*
X170113181Y-81008294D01*
X169308294Y-81813181D01*
X169246971Y-81846666D01*
X169232079Y-81848267D01*
X169232142Y-81848903D01*
X169226079Y-81849499D01*
X169081092Y-81878340D01*
X169081082Y-81878343D01*
X168944511Y-81934912D01*
X168944498Y-81934919D01*
X168821584Y-82017048D01*
X168821580Y-82017051D01*
X168717051Y-82121580D01*
X168717048Y-82121584D01*
X168634919Y-82244498D01*
X168634912Y-82244511D01*
X168578343Y-82381082D01*
X168578340Y-82381092D01*
X168549500Y-82526079D01*
X168549500Y-82526082D01*
X168549500Y-82673918D01*
X168549500Y-82673920D01*
X168549499Y-82673920D01*
X161604604Y-82673920D01*
X161846215Y-82432309D01*
X162823024Y-81455501D01*
X164791706Y-79486819D01*
X164853029Y-79453334D01*
X164867920Y-79451732D01*
X164867858Y-79451097D01*
X164873920Y-79450500D01*
X164971462Y-79431096D01*
X165018913Y-79421658D01*
X165155495Y-79365084D01*
X165278416Y-79282951D01*
X165382951Y-79178416D01*
X165465084Y-79055495D01*
X165521658Y-78918913D01*
X165531519Y-78869339D01*
X165550500Y-78773920D01*
X165550500Y-78626079D01*
X165521659Y-78481092D01*
X165521658Y-78481091D01*
X165521658Y-78481087D01*
X165510036Y-78453029D01*
X165465087Y-78344511D01*
X165465080Y-78344498D01*
X165382951Y-78221584D01*
X165382948Y-78221580D01*
X165278419Y-78117051D01*
X165278415Y-78117048D01*
X165155501Y-78034919D01*
X165155496Y-78034917D01*
X165155495Y-78034916D01*
X165068305Y-77998800D01*
X165013902Y-77954958D01*
X165001198Y-77931692D01*
X164965085Y-77844507D01*
X164965080Y-77844498D01*
X164882951Y-77721584D01*
X164882948Y-77721580D01*
X164778419Y-77617051D01*
X164778415Y-77617048D01*
X164655501Y-77534919D01*
X164655488Y-77534912D01*
X164518917Y-77478343D01*
X164518907Y-77478340D01*
X164373920Y-77449500D01*
X164373918Y-77449500D01*
X164226082Y-77449500D01*
X164226077Y-77449500D01*
X164183280Y-77458013D01*
X164113688Y-77451786D01*
X164058511Y-77408922D01*
X164037472Y-77360587D01*
X164021659Y-77281094D01*
X164021658Y-77281087D01*
X164002535Y-77234919D01*
X163965087Y-77144511D01*
X163965080Y-77144498D01*
X163882951Y-77021584D01*
X163882948Y-77021580D01*
X163778419Y-76917051D01*
X163778415Y-76917048D01*
X163655501Y-76834919D01*
X163655488Y-76834912D01*
X163518917Y-76778343D01*
X163518907Y-76778340D01*
X163373920Y-76749500D01*
X163373918Y-76749500D01*
X163226082Y-76749500D01*
X163226080Y-76749500D01*
X163081092Y-76778340D01*
X163081082Y-76778343D01*
X162944511Y-76834912D01*
X162944500Y-76834918D01*
X162909022Y-76858624D01*
X162842344Y-76879501D01*
X162774964Y-76861016D01*
X162728274Y-76809036D01*
X162717099Y-76740066D01*
X162721476Y-76719512D01*
X162721656Y-76718917D01*
X162721658Y-76718913D01*
X162738366Y-76634919D01*
X162750500Y-76573920D01*
X162750500Y-76426079D01*
X162721659Y-76281092D01*
X162721658Y-76281091D01*
X162721658Y-76281087D01*
X162677268Y-76173920D01*
X162665087Y-76144511D01*
X162665080Y-76144498D01*
X162582951Y-76021584D01*
X162582948Y-76021580D01*
X162478419Y-75917051D01*
X162478415Y-75917048D01*
X162355501Y-75834919D01*
X162355488Y-75834912D01*
X162218917Y-75778343D01*
X162218907Y-75778340D01*
X162073920Y-75749500D01*
X162073918Y-75749500D01*
X161926082Y-75749500D01*
X161926080Y-75749500D01*
X161781092Y-75778340D01*
X161781082Y-75778343D01*
X161644511Y-75834912D01*
X161644498Y-75834919D01*
X161521584Y-75917048D01*
X161521580Y-75917051D01*
X161417051Y-76021580D01*
X161417048Y-76021584D01*
X161334919Y-76144498D01*
X161334912Y-76144511D01*
X161278343Y-76281082D01*
X161278340Y-76281092D01*
X161249500Y-76426079D01*
X161249500Y-76426082D01*
X161249500Y-76573918D01*
X161249500Y-76573920D01*
X161249499Y-76573920D01*
X161278340Y-76718907D01*
X161278343Y-76718917D01*
X161334912Y-76855488D01*
X161334919Y-76855501D01*
X161417048Y-76978415D01*
X161420914Y-76983126D01*
X161418787Y-76984870D01*
X161446636Y-77035733D01*
X161449500Y-77062229D01*
X161449500Y-78072476D01*
X161463863Y-78126081D01*
X161487014Y-78212480D01*
X161487016Y-78212485D01*
X161528593Y-78284500D01*
X161559489Y-78338013D01*
X161559491Y-78338016D01*
X161613181Y-78391706D01*
X161646666Y-78453029D01*
X161648267Y-78467920D01*
X161648903Y-78467858D01*
X161649499Y-78473920D01*
X161678340Y-78618907D01*
X161678343Y-78618917D01*
X161734912Y-78755488D01*
X161734919Y-78755501D01*
X161810984Y-78869339D01*
X161831862Y-78936016D01*
X161813378Y-79003397D01*
X161795563Y-79025911D01*
X160305934Y-80515539D01*
X160244611Y-80549024D01*
X160174919Y-80544040D01*
X160159804Y-80537218D01*
X160155498Y-80534916D01*
X160018917Y-80478343D01*
X160018907Y-80478340D01*
X159873920Y-80449500D01*
X159873918Y-80449500D01*
X159726082Y-80449500D01*
X159726080Y-80449500D01*
X159581092Y-80478340D01*
X159581082Y-80478343D01*
X159444511Y-80534912D01*
X159444498Y-80534919D01*
X159321584Y-80617048D01*
X159321580Y-80617051D01*
X159217051Y-80721580D01*
X159161945Y-80804052D01*
X159108332Y-80848856D01*
X159039007Y-80857563D01*
X158975980Y-80827408D01*
X158939261Y-80767965D01*
X158937226Y-80759351D01*
X158934273Y-80744505D01*
X158921658Y-80681087D01*
X158906505Y-80644505D01*
X158865087Y-80544511D01*
X158865080Y-80544498D01*
X158782951Y-80421584D01*
X158782948Y-80421580D01*
X158678419Y-80317051D01*
X158673708Y-80313185D01*
X158674780Y-80311878D01*
X158635165Y-80264463D01*
X158626467Y-80195137D01*
X158627251Y-80190797D01*
X158650500Y-80073920D01*
X158650500Y-79926079D01*
X158621659Y-79781092D01*
X158621658Y-79781091D01*
X158621658Y-79781087D01*
X158577268Y-79673920D01*
X158565087Y-79644511D01*
X158565080Y-79644498D01*
X158482951Y-79521584D01*
X158482948Y-79521580D01*
X158378419Y-79417051D01*
X158378415Y-79417048D01*
X158255501Y-79334919D01*
X158255488Y-79334912D01*
X158118917Y-79278343D01*
X158118907Y-79278340D01*
X157973920Y-79249500D01*
X157973918Y-79249500D01*
X157826082Y-79249500D01*
X157826080Y-79249500D01*
X157681092Y-79278340D01*
X157681087Y-79278342D01*
X157622876Y-79302453D01*
X157553407Y-79309920D01*
X157490928Y-79278645D01*
X157468522Y-79249534D01*
X157468469Y-79249570D01*
X157467935Y-79248771D01*
X157466064Y-79246340D01*
X157465086Y-79244511D01*
X157465084Y-79244505D01*
X157420934Y-79178430D01*
X157382954Y-79121588D01*
X157382948Y-79121580D01*
X157278419Y-79017051D01*
X157278415Y-79017048D01*
X157155501Y-78934919D01*
X157155488Y-78934912D01*
X157018917Y-78878343D01*
X157018907Y-78878340D01*
X156873920Y-78849500D01*
X156873918Y-78849500D01*
X156726082Y-78849500D01*
X156726080Y-78849500D01*
X156581092Y-78878340D01*
X156581082Y-78878343D01*
X156444511Y-78934912D01*
X156444498Y-78934919D01*
X156321584Y-79017048D01*
X156321580Y-79017051D01*
X156217051Y-79121580D01*
X156217048Y-79121584D01*
X156134919Y-79244498D01*
X156134912Y-79244511D01*
X156078343Y-79381082D01*
X156078340Y-79381092D01*
X156049500Y-79526079D01*
X156049500Y-79526082D01*
X156049500Y-79673918D01*
X156049500Y-79673920D01*
X156049499Y-79673920D01*
X156078340Y-79818907D01*
X156078343Y-79818917D01*
X156134912Y-79955488D01*
X156134919Y-79955501D01*
X156217048Y-80078415D01*
X156217051Y-80078419D01*
X156321580Y-80182948D01*
X156321584Y-80182951D01*
X156444498Y-80265080D01*
X156444511Y-80265087D01*
X156581082Y-80321656D01*
X156581087Y-80321658D01*
X156581091Y-80321658D01*
X156581092Y-80321659D01*
X156726079Y-80350500D01*
X156811729Y-80350500D01*
X156878768Y-80370185D01*
X156924523Y-80422989D01*
X156934467Y-80492147D01*
X156905442Y-80555703D01*
X156880620Y-80577602D01*
X156821584Y-80617048D01*
X156821580Y-80617051D01*
X156717051Y-80721580D01*
X156717048Y-80721584D01*
X156634919Y-80844498D01*
X156634912Y-80844511D01*
X156578343Y-80981082D01*
X156578340Y-80981092D01*
X156549500Y-81126079D01*
X156549500Y-81126082D01*
X156549500Y-81273918D01*
X156549500Y-81273920D01*
X156549499Y-81273920D01*
X156578340Y-81418907D01*
X156578343Y-81418917D01*
X156612307Y-81500913D01*
X156619776Y-81570382D01*
X156588501Y-81632861D01*
X156585427Y-81636046D01*
X155516946Y-82704528D01*
X155455623Y-82738013D01*
X155385931Y-82733029D01*
X155329998Y-82691157D01*
X155314704Y-82664299D01*
X155308063Y-82648267D01*
X155295902Y-82618907D01*
X155265087Y-82544511D01*
X155265080Y-82544498D01*
X155182951Y-82421584D01*
X155182948Y-82421580D01*
X155078419Y-82317051D01*
X155078415Y-82317048D01*
X154955501Y-82234919D01*
X154955488Y-82234912D01*
X154818917Y-82178343D01*
X154818907Y-82178340D01*
X154673920Y-82149500D01*
X154673918Y-82149500D01*
X154526082Y-82149500D01*
X154526080Y-82149500D01*
X154381092Y-82178340D01*
X154381082Y-82178343D01*
X154244511Y-82234912D01*
X154244498Y-82234919D01*
X154121584Y-82317048D01*
X154121580Y-82317051D01*
X154017051Y-82421580D01*
X154017048Y-82421584D01*
X153934919Y-82544498D01*
X153934912Y-82544511D01*
X153878343Y-82681082D01*
X153878340Y-82681092D01*
X153849500Y-82826079D01*
X153849500Y-82826082D01*
X153849500Y-82973918D01*
X153849500Y-82973920D01*
X153849499Y-82973920D01*
X153878340Y-83118907D01*
X153878343Y-83118917D01*
X153934912Y-83255488D01*
X153934919Y-83255501D01*
X154017048Y-83378415D01*
X154017051Y-83378419D01*
X154121580Y-83482948D01*
X154121584Y-83482951D01*
X154244498Y-83565080D01*
X154244511Y-83565087D01*
X154381082Y-83621656D01*
X154381087Y-83621658D01*
X154463499Y-83638051D01*
X154525410Y-83670435D01*
X154559984Y-83731151D01*
X154559083Y-83791761D01*
X154549500Y-83827525D01*
X154549500Y-85137770D01*
X154529815Y-85204809D01*
X154520419Y-85216468D01*
X154520914Y-85216874D01*
X154517048Y-85221584D01*
X154434919Y-85344498D01*
X154434912Y-85344511D01*
X154378343Y-85481082D01*
X154378340Y-85481092D01*
X154362773Y-85559352D01*
X154330387Y-85621263D01*
X154269671Y-85655837D01*
X154199902Y-85652096D01*
X154143230Y-85611229D01*
X154138054Y-85604051D01*
X154082951Y-85521584D01*
X154082948Y-85521580D01*
X153978419Y-85417051D01*
X153978415Y-85417048D01*
X153855501Y-85334919D01*
X153855488Y-85334912D01*
X153718917Y-85278343D01*
X153718907Y-85278340D01*
X153573920Y-85249500D01*
X153573918Y-85249500D01*
X153426082Y-85249500D01*
X153426080Y-85249500D01*
X153281092Y-85278340D01*
X153281082Y-85278343D01*
X153144511Y-85334912D01*
X153144498Y-85334919D01*
X153021584Y-85417048D01*
X153021580Y-85417051D01*
X152917051Y-85521580D01*
X152917048Y-85521584D01*
X152877602Y-85580620D01*
X152823990Y-85625425D01*
X152754665Y-85634132D01*
X152691637Y-85603978D01*
X152654918Y-85544535D01*
X152650500Y-85511729D01*
X152650500Y-85127527D01*
X152650500Y-85127525D01*
X152612984Y-84987515D01*
X152605134Y-84973918D01*
X152605132Y-84973914D01*
X152605132Y-84973913D01*
X152540512Y-84861988D01*
X152540508Y-84861983D01*
X152186819Y-84508294D01*
X152153334Y-84446971D01*
X152150500Y-84420613D01*
X152150500Y-83962229D01*
X152170185Y-83895190D01*
X152179586Y-83883536D01*
X152179086Y-83883126D01*
X152182948Y-83878419D01*
X152182951Y-83878416D01*
X152265084Y-83755495D01*
X152321658Y-83618913D01*
X152340624Y-83523568D01*
X152350500Y-83473920D01*
X152351097Y-83467858D01*
X152353806Y-83468124D01*
X152370185Y-83412348D01*
X152386819Y-83391706D01*
X153891706Y-81886819D01*
X153953029Y-81853334D01*
X153967920Y-81851732D01*
X153967858Y-81851097D01*
X153973920Y-81850500D01*
X154081842Y-81829032D01*
X154118913Y-81821658D01*
X154255495Y-81765084D01*
X154378416Y-81682951D01*
X154482951Y-81578416D01*
X154565084Y-81455495D01*
X154621658Y-81318913D01*
X154641550Y-81218913D01*
X154650500Y-81173920D01*
X154650500Y-81026079D01*
X154621659Y-80881092D01*
X154621658Y-80881091D01*
X154621658Y-80881087D01*
X154606505Y-80844505D01*
X154565087Y-80744511D01*
X154565080Y-80744498D01*
X154482951Y-80621584D01*
X154482948Y-80621580D01*
X154378419Y-80517051D01*
X154378415Y-80517048D01*
X154255501Y-80434919D01*
X154255488Y-80434912D01*
X154118917Y-80378343D01*
X154118907Y-80378340D01*
X153973920Y-80349500D01*
X153973918Y-80349500D01*
X153826082Y-80349500D01*
X153826080Y-80349500D01*
X153681092Y-80378340D01*
X153681082Y-80378343D01*
X153544511Y-80434912D01*
X153544498Y-80434919D01*
X153421584Y-80517048D01*
X153421580Y-80517051D01*
X153317051Y-80621580D01*
X153317048Y-80621584D01*
X153234919Y-80744498D01*
X153234914Y-80744507D01*
X153180270Y-80876432D01*
X153136429Y-80930835D01*
X153070135Y-80952900D01*
X153002436Y-80935621D01*
X152978028Y-80916660D01*
X152878419Y-80817051D01*
X152878415Y-80817048D01*
X152755501Y-80734919D01*
X152755488Y-80734912D01*
X152618917Y-80678343D01*
X152618907Y-80678340D01*
X152473920Y-80649500D01*
X152473918Y-80649500D01*
X152326082Y-80649500D01*
X152326080Y-80649500D01*
X152181092Y-80678340D01*
X152181082Y-80678343D01*
X152044511Y-80734912D01*
X152044498Y-80734919D01*
X151921584Y-80817048D01*
X151921580Y-80817051D01*
X151837681Y-80900951D01*
X151776358Y-80934436D01*
X151706666Y-80929452D01*
X151662319Y-80900951D01*
X151578419Y-80817051D01*
X151578415Y-80817048D01*
X151455501Y-80734919D01*
X151455488Y-80734912D01*
X151318917Y-80678343D01*
X151318907Y-80678340D01*
X151173920Y-80649500D01*
X151173918Y-80649500D01*
X151026082Y-80649500D01*
X151026080Y-80649500D01*
X150881092Y-80678340D01*
X150881082Y-80678343D01*
X150744511Y-80734912D01*
X150744498Y-80734919D01*
X150621584Y-80817048D01*
X150621580Y-80817051D01*
X150517051Y-80921580D01*
X150517048Y-80921584D01*
X150434919Y-81044498D01*
X150434912Y-81044511D01*
X150378343Y-81181082D01*
X150378340Y-81181092D01*
X150349500Y-81326079D01*
X150349500Y-81326082D01*
X150349500Y-81473918D01*
X150349500Y-81473920D01*
X150349499Y-81473920D01*
X140741450Y-81473920D01*
X140724598Y-79451732D01*
X140707283Y-77373920D01*
X153949499Y-77373920D01*
X153978340Y-77518907D01*
X153978343Y-77518917D01*
X154034912Y-77655488D01*
X154034919Y-77655501D01*
X154117048Y-77778415D01*
X154117051Y-77778419D01*
X154221580Y-77882948D01*
X154221584Y-77882951D01*
X154344498Y-77965080D01*
X154344511Y-77965087D01*
X154378451Y-77979145D01*
X154481087Y-78021658D01*
X154481094Y-78021659D01*
X154486920Y-78023427D01*
X154486571Y-78024576D01*
X154542845Y-78054004D01*
X154576505Y-78113101D01*
X154576573Y-78113081D01*
X154576663Y-78113378D01*
X154577425Y-78114716D01*
X154578328Y-78118867D01*
X154578343Y-78118917D01*
X154634912Y-78255488D01*
X154634919Y-78255501D01*
X154717048Y-78378415D01*
X154717051Y-78378419D01*
X154821580Y-78482948D01*
X154821584Y-78482951D01*
X154944498Y-78565080D01*
X154944511Y-78565087D01*
X155081082Y-78621656D01*
X155081087Y-78621658D01*
X155081091Y-78621658D01*
X155081092Y-78621659D01*
X155226079Y-78650500D01*
X155226082Y-78650500D01*
X155373920Y-78650500D01*
X155471462Y-78631096D01*
X155518913Y-78621658D01*
X155655495Y-78565084D01*
X155778416Y-78482951D01*
X155882951Y-78378416D01*
X155965084Y-78255495D01*
X156021658Y-78118913D01*
X156038366Y-78034919D01*
X156050500Y-77973920D01*
X156050500Y-77826079D01*
X156021659Y-77681092D01*
X156021658Y-77681091D01*
X156021658Y-77681087D01*
X156011060Y-77655501D01*
X155965087Y-77544511D01*
X155965080Y-77544498D01*
X155882951Y-77421584D01*
X155882948Y-77421580D01*
X155778419Y-77317051D01*
X155778415Y-77317048D01*
X155655501Y-77234919D01*
X155655488Y-77234912D01*
X155518917Y-77178343D01*
X155513081Y-77176573D01*
X155513427Y-77175429D01*
X155457133Y-77145974D01*
X155423501Y-77086897D01*
X155423427Y-77086920D01*
X155423327Y-77086591D01*
X155422566Y-77085254D01*
X155421666Y-77081118D01*
X155421659Y-77081092D01*
X155421658Y-77081087D01*
X155381804Y-76984870D01*
X155365087Y-76944511D01*
X155365080Y-76944498D01*
X155282951Y-76821584D01*
X155282948Y-76821580D01*
X155178419Y-76717051D01*
X155178415Y-76717048D01*
X155055501Y-76634919D01*
X155055488Y-76634912D01*
X154918917Y-76578343D01*
X154918907Y-76578340D01*
X154773920Y-76549500D01*
X154773918Y-76549500D01*
X154626082Y-76549500D01*
X154626080Y-76549500D01*
X154481092Y-76578340D01*
X154481082Y-76578343D01*
X154344511Y-76634912D01*
X154344498Y-76634919D01*
X154221584Y-76717048D01*
X154221580Y-76717051D01*
X154117051Y-76821580D01*
X154117048Y-76821584D01*
X154034919Y-76944498D01*
X154034912Y-76944511D01*
X153978343Y-77081082D01*
X153978340Y-77081092D01*
X153949500Y-77226079D01*
X153949500Y-77226082D01*
X153949500Y-77373918D01*
X153949500Y-77373920D01*
X153949499Y-77373920D01*
X140707283Y-77373920D01*
X140706009Y-77221023D01*
X140683116Y-74473920D01*
X141149499Y-74473920D01*
X141178340Y-74618907D01*
X141178343Y-74618917D01*
X141234912Y-74755488D01*
X141234919Y-74755501D01*
X141317048Y-74878415D01*
X141317051Y-74878419D01*
X141421580Y-74982948D01*
X141421584Y-74982951D01*
X141544498Y-75065080D01*
X141544511Y-75065087D01*
X141681082Y-75121656D01*
X141681087Y-75121658D01*
X141681091Y-75121658D01*
X141681092Y-75121659D01*
X141826079Y-75150500D01*
X141826082Y-75150500D01*
X141973920Y-75150500D01*
X142071462Y-75131096D01*
X142118913Y-75121658D01*
X142252547Y-75066304D01*
X142322017Y-75058836D01*
X142347452Y-75066304D01*
X142481087Y-75121658D01*
X142481091Y-75121658D01*
X142481092Y-75121659D01*
X142626079Y-75150500D01*
X142626082Y-75150500D01*
X142773920Y-75150500D01*
X142871462Y-75131096D01*
X142918913Y-75121658D01*
X143055495Y-75065084D01*
X143178416Y-74982951D01*
X143282951Y-74878416D01*
X143283512Y-74877577D01*
X144975975Y-74877577D01*
X145081236Y-74921178D01*
X145081240Y-74921179D01*
X145226126Y-74949999D01*
X145226129Y-74950000D01*
X145373871Y-74950000D01*
X145373873Y-74949999D01*
X145518760Y-74921179D01*
X145518775Y-74921175D01*
X145624024Y-74877578D01*
X145624024Y-74877577D01*
X146375975Y-74877577D01*
X146481236Y-74921178D01*
X146481240Y-74921179D01*
X146626126Y-74949999D01*
X146626129Y-74950000D01*
X146773871Y-74950000D01*
X146773873Y-74949999D01*
X146918760Y-74921179D01*
X146918775Y-74921175D01*
X147024024Y-74877578D01*
X147024024Y-74877577D01*
X146700001Y-74553554D01*
X146700000Y-74553554D01*
X146375975Y-74877577D01*
X145624024Y-74877577D01*
X145300001Y-74553554D01*
X145300000Y-74553554D01*
X144975975Y-74877577D01*
X143283512Y-74877577D01*
X143312044Y-74834874D01*
X143356815Y-74767872D01*
X143356815Y-74767871D01*
X143365078Y-74755504D01*
X143365080Y-74755501D01*
X143365084Y-74755495D01*
X143421658Y-74618913D01*
X143436459Y-74544505D01*
X143450500Y-74473920D01*
X143450500Y-74326079D01*
X143421659Y-74181092D01*
X143421658Y-74181091D01*
X143421658Y-74181087D01*
X143398892Y-74126126D01*
X144550000Y-74126126D01*
X144550000Y-74273873D01*
X144578820Y-74418759D01*
X144578822Y-74418767D01*
X144622421Y-74524024D01*
X144946446Y-74200000D01*
X144946446Y-74199999D01*
X144926556Y-74180109D01*
X145200000Y-74180109D01*
X145200000Y-74219891D01*
X145215224Y-74256645D01*
X145243355Y-74284776D01*
X145280109Y-74300000D01*
X145319891Y-74300000D01*
X145356645Y-74284776D01*
X145384776Y-74256645D01*
X145400000Y-74219891D01*
X145400000Y-74199999D01*
X145653554Y-74199999D01*
X145653554Y-74200001D01*
X145977929Y-74524376D01*
X146022069Y-74524376D01*
X146346446Y-74200000D01*
X146326555Y-74180109D01*
X146600000Y-74180109D01*
X146600000Y-74219891D01*
X146615224Y-74256645D01*
X146643355Y-74284776D01*
X146680109Y-74300000D01*
X146719891Y-74300000D01*
X146756645Y-74284776D01*
X146784776Y-74256645D01*
X146800000Y-74219891D01*
X146800000Y-74199999D01*
X147053554Y-74199999D01*
X147053554Y-74200001D01*
X147377577Y-74524024D01*
X147377578Y-74524024D01*
X147421175Y-74418775D01*
X147421179Y-74418760D01*
X147449999Y-74273873D01*
X147450000Y-74273871D01*
X147450000Y-74126128D01*
X147449999Y-74126126D01*
X147421179Y-73981240D01*
X147421178Y-73981236D01*
X147377577Y-73875975D01*
X147053554Y-74199999D01*
X146800000Y-74199999D01*
X146800000Y-74180109D01*
X146784776Y-74143355D01*
X146756645Y-74115224D01*
X146719891Y-74100000D01*
X146680109Y-74100000D01*
X146643355Y-74115224D01*
X146615224Y-74143355D01*
X146600000Y-74180109D01*
X146326555Y-74180109D01*
X146022068Y-73875622D01*
X145977930Y-73875622D01*
X145653554Y-74199999D01*
X145400000Y-74199999D01*
X145400000Y-74180109D01*
X145384776Y-74143355D01*
X145356645Y-74115224D01*
X145319891Y-74100000D01*
X145280109Y-74100000D01*
X145243355Y-74115224D01*
X145215224Y-74143355D01*
X145200000Y-74180109D01*
X144926556Y-74180109D01*
X144622421Y-73875974D01*
X144622420Y-73875974D01*
X144578823Y-73981228D01*
X144578820Y-73981240D01*
X144550000Y-74126126D01*
X143398892Y-74126126D01*
X143377443Y-74074344D01*
X143365085Y-74044507D01*
X143365080Y-74044498D01*
X143282951Y-73921584D01*
X143282948Y-73921580D01*
X143178419Y-73817051D01*
X143178415Y-73817048D01*
X143055501Y-73734919D01*
X143055488Y-73734912D01*
X142918917Y-73678343D01*
X142918907Y-73678340D01*
X142878260Y-73670255D01*
X142773920Y-73649500D01*
X142773918Y-73649500D01*
X142626082Y-73649500D01*
X142626080Y-73649500D01*
X142481092Y-73678340D01*
X142481082Y-73678343D01*
X142347452Y-73733694D01*
X142277982Y-73741163D01*
X142252548Y-73733694D01*
X142118917Y-73678343D01*
X142118907Y-73678340D01*
X141973920Y-73649500D01*
X141973918Y-73649500D01*
X141826082Y-73649500D01*
X141826080Y-73649500D01*
X141681092Y-73678340D01*
X141681082Y-73678343D01*
X141544511Y-73734912D01*
X141544498Y-73734919D01*
X141421584Y-73817048D01*
X141421580Y-73817051D01*
X141317051Y-73921580D01*
X141317048Y-73921584D01*
X141234919Y-74044498D01*
X141234912Y-74044511D01*
X141178343Y-74181082D01*
X141178340Y-74181092D01*
X141149500Y-74326079D01*
X141149500Y-74326082D01*
X141149500Y-74473918D01*
X141149500Y-74473920D01*
X141149499Y-74473920D01*
X140683116Y-74473920D01*
X140681842Y-74321023D01*
X140675834Y-73600000D01*
X145053554Y-73600000D01*
X145300000Y-73846446D01*
X145546446Y-73600000D01*
X146453554Y-73600000D01*
X146700000Y-73846446D01*
X146872526Y-73673920D01*
X155649499Y-73673920D01*
X155678340Y-73818907D01*
X155678343Y-73818917D01*
X155734912Y-73955488D01*
X155734919Y-73955501D01*
X155817048Y-74078415D01*
X155817051Y-74078419D01*
X155921580Y-74182948D01*
X155921584Y-74182951D01*
X156044498Y-74265080D01*
X156044511Y-74265087D01*
X156179554Y-74321023D01*
X156181087Y-74321658D01*
X156181091Y-74321658D01*
X156181092Y-74321659D01*
X156326079Y-74350500D01*
X156326082Y-74350500D01*
X156473920Y-74350500D01*
X156571462Y-74331096D01*
X156618913Y-74321658D01*
X156724547Y-74277902D01*
X156755488Y-74265087D01*
X156755488Y-74265086D01*
X156755495Y-74265084D01*
X156878416Y-74182951D01*
X156982951Y-74078416D01*
X157065084Y-73955495D01*
X157121658Y-73818913D01*
X157138366Y-73734919D01*
X157150500Y-73673920D01*
X157150500Y-73526082D01*
X157150499Y-73526079D01*
X157137717Y-73461821D01*
X157143943Y-73392233D01*
X157156229Y-73368747D01*
X157165084Y-73355495D01*
X157221658Y-73218913D01*
X157246458Y-73094239D01*
X157250500Y-73073920D01*
X157250500Y-72926079D01*
X157221659Y-72781092D01*
X157221658Y-72781091D01*
X157221658Y-72781087D01*
X157215309Y-72765760D01*
X157165087Y-72644511D01*
X157165080Y-72644498D01*
X157082951Y-72521584D01*
X157082948Y-72521580D01*
X156978419Y-72417051D01*
X156978415Y-72417048D01*
X156855501Y-72334919D01*
X156855488Y-72334912D01*
X156718917Y-72278343D01*
X156718905Y-72278340D01*
X156685107Y-72271617D01*
X156623196Y-72239232D01*
X156588622Y-72178516D01*
X156592361Y-72108747D01*
X156633228Y-72052075D01*
X156663536Y-72034753D01*
X156674030Y-72030585D01*
X156718913Y-72021658D01*
X156855495Y-71965084D01*
X156879668Y-71948931D01*
X156891869Y-71944087D01*
X156914103Y-71942026D01*
X156935410Y-71935354D01*
X156961212Y-71937662D01*
X156961438Y-71937641D01*
X156961442Y-71937641D01*
X156961537Y-71937691D01*
X156961815Y-71937716D01*
X157026082Y-71950500D01*
X157173920Y-71950500D01*
X157275528Y-71930288D01*
X157318913Y-71921658D01*
X157455495Y-71865084D01*
X157481110Y-71847967D01*
X157547784Y-71827090D01*
X157601831Y-71838422D01*
X157610732Y-71842517D01*
X157644505Y-71865084D01*
X157781087Y-71921658D01*
X157783985Y-71922234D01*
X157793621Y-71926668D01*
X157813807Y-71944260D01*
X157836208Y-71958934D01*
X157844892Y-71970426D01*
X157917045Y-72078411D01*
X157917051Y-72078419D01*
X158021583Y-72182951D01*
X158096230Y-72232828D01*
X158141035Y-72286440D01*
X158149742Y-72355765D01*
X158119588Y-72418792D01*
X158115021Y-72423611D01*
X158017048Y-72521584D01*
X157934919Y-72644498D01*
X157934912Y-72644511D01*
X157878343Y-72781082D01*
X157878340Y-72781092D01*
X157849500Y-72926079D01*
X157849500Y-72926082D01*
X157849500Y-73073918D01*
X157849500Y-73073920D01*
X157849499Y-73073920D01*
X157878340Y-73218907D01*
X157878343Y-73218917D01*
X157934912Y-73355488D01*
X157934919Y-73355500D01*
X158017048Y-73478415D01*
X158017051Y-73478419D01*
X158121580Y-73582948D01*
X158121584Y-73582951D01*
X158244498Y-73665080D01*
X158244511Y-73665087D01*
X158381082Y-73721656D01*
X158381087Y-73721658D01*
X158381091Y-73721658D01*
X158381092Y-73721659D01*
X158526079Y-73750500D01*
X158526082Y-73750500D01*
X158673920Y-73750500D01*
X158771462Y-73731096D01*
X158818913Y-73721658D01*
X158955495Y-73665084D01*
X159078416Y-73582951D01*
X159182951Y-73478416D01*
X159265084Y-73355495D01*
X159265086Y-73355489D01*
X159265087Y-73355488D01*
X159311057Y-73244505D01*
X159321658Y-73218913D01*
X159346458Y-73094239D01*
X159350500Y-73073920D01*
X159350500Y-72926079D01*
X159321659Y-72781092D01*
X159321658Y-72781091D01*
X159321658Y-72781087D01*
X159315309Y-72765760D01*
X159265087Y-72644511D01*
X159265080Y-72644498D01*
X159182951Y-72521584D01*
X159182948Y-72521580D01*
X159078419Y-72417051D01*
X159078415Y-72417048D01*
X159003769Y-72367171D01*
X158958964Y-72313559D01*
X158950257Y-72244234D01*
X158980411Y-72181206D01*
X158984960Y-72176406D01*
X159082951Y-72078416D01*
X159165084Y-71955495D01*
X159221658Y-71818913D01*
X159249605Y-71678418D01*
X159250500Y-71673920D01*
X159250500Y-71526079D01*
X159221659Y-71381092D01*
X159221658Y-71381091D01*
X159221658Y-71381087D01*
X159218689Y-71373918D01*
X159177269Y-71273920D01*
X162149499Y-71273920D01*
X162178340Y-71418907D01*
X162178343Y-71418917D01*
X162234912Y-71555488D01*
X162234919Y-71555501D01*
X162317048Y-71678415D01*
X162317051Y-71678419D01*
X162421580Y-71782948D01*
X162421584Y-71782951D01*
X162544498Y-71865080D01*
X162544511Y-71865087D01*
X162681082Y-71921656D01*
X162681087Y-71921658D01*
X162681091Y-71921658D01*
X162681092Y-71921659D01*
X162826079Y-71950500D01*
X162826082Y-71950500D01*
X162973920Y-71950500D01*
X163075528Y-71930288D01*
X163118913Y-71921658D01*
X163202549Y-71887014D01*
X163272016Y-71879546D01*
X163297447Y-71887013D01*
X163381087Y-71921658D01*
X163381091Y-71921658D01*
X163381092Y-71921659D01*
X163526079Y-71950500D01*
X163526082Y-71950500D01*
X163673920Y-71950500D01*
X163775528Y-71930288D01*
X163818913Y-71921658D01*
X163924547Y-71877902D01*
X163955488Y-71865087D01*
X163955488Y-71865086D01*
X163955495Y-71865084D01*
X164078416Y-71782951D01*
X164182951Y-71678416D01*
X164196897Y-71657543D01*
X164250509Y-71612738D01*
X164319834Y-71604031D01*
X164382862Y-71634185D01*
X164403103Y-71657544D01*
X164417050Y-71678418D01*
X164521580Y-71782948D01*
X164521584Y-71782951D01*
X164644498Y-71865080D01*
X164644511Y-71865087D01*
X164781082Y-71921656D01*
X164781087Y-71921658D01*
X164781091Y-71921658D01*
X164781092Y-71921659D01*
X164926079Y-71950500D01*
X164926082Y-71950500D01*
X165073920Y-71950500D01*
X165175528Y-71930288D01*
X165218913Y-71921658D01*
X165324547Y-71877902D01*
X165355488Y-71865087D01*
X165355488Y-71865086D01*
X165355495Y-71865084D01*
X165478416Y-71782951D01*
X165582951Y-71678416D01*
X165665084Y-71555495D01*
X165721658Y-71418913D01*
X165750500Y-71273918D01*
X165750500Y-71126082D01*
X165750500Y-71126079D01*
X165721659Y-70981092D01*
X165721658Y-70981091D01*
X165721658Y-70981087D01*
X165706505Y-70944505D01*
X165665087Y-70844511D01*
X165665080Y-70844498D01*
X165582951Y-70721584D01*
X165579086Y-70716874D01*
X165581191Y-70715145D01*
X165572115Y-70698523D01*
X165555523Y-70672705D01*
X165554631Y-70666504D01*
X165553334Y-70664128D01*
X165550500Y-70637770D01*
X165550500Y-70562229D01*
X165570185Y-70495190D01*
X165579586Y-70483536D01*
X165579086Y-70483126D01*
X165582946Y-70478420D01*
X165582951Y-70478416D01*
X165652773Y-70373920D01*
X168549499Y-70373920D01*
X168578340Y-70518907D01*
X168578343Y-70518917D01*
X168634912Y-70655488D01*
X168634919Y-70655501D01*
X168717048Y-70778415D01*
X168720914Y-70783126D01*
X168718787Y-70784870D01*
X168727505Y-70800792D01*
X168744047Y-70825862D01*
X168745108Y-70832943D01*
X168746636Y-70835733D01*
X168749491Y-70860733D01*
X168749500Y-70861479D01*
X168749500Y-70927526D01*
X168749500Y-71072474D01*
X168752165Y-71082420D01*
X168752353Y-71097983D01*
X168749475Y-71108240D01*
X168749859Y-71119995D01*
X168750097Y-71120019D01*
X168749919Y-71121820D01*
X168749980Y-71123666D01*
X168749500Y-71126078D01*
X168749500Y-71126082D01*
X168749500Y-71273918D01*
X168749500Y-71273920D01*
X168749499Y-71273920D01*
X168778340Y-71418907D01*
X168778343Y-71418917D01*
X168834912Y-71555488D01*
X168834919Y-71555501D01*
X168917048Y-71678415D01*
X168917051Y-71678419D01*
X169021580Y-71782948D01*
X169021584Y-71782951D01*
X169144498Y-71865080D01*
X169144511Y-71865087D01*
X169281082Y-71921656D01*
X169281087Y-71921658D01*
X169281091Y-71921658D01*
X169281092Y-71921659D01*
X169349692Y-71935305D01*
X169411603Y-71967690D01*
X169446177Y-72028406D01*
X169449500Y-72056922D01*
X169449500Y-78337770D01*
X169429815Y-78404809D01*
X169420419Y-78416468D01*
X169420914Y-78416874D01*
X169417048Y-78421584D01*
X169334919Y-78544498D01*
X169334912Y-78544511D01*
X169278343Y-78681082D01*
X169278340Y-78681092D01*
X169249500Y-78826079D01*
X169249500Y-78826082D01*
X169249500Y-78973918D01*
X169249500Y-78973920D01*
X169249499Y-78973920D01*
X169278340Y-79118907D01*
X169278343Y-79118917D01*
X169334912Y-79255488D01*
X169334919Y-79255501D01*
X169417048Y-79378415D01*
X169417051Y-79378419D01*
X169521580Y-79482948D01*
X169521584Y-79482951D01*
X169644498Y-79565080D01*
X169644511Y-79565087D01*
X169781082Y-79621656D01*
X169781087Y-79621658D01*
X169781091Y-79621658D01*
X169781092Y-79621659D01*
X169926079Y-79650500D01*
X169926082Y-79650500D01*
X170073920Y-79650500D01*
X170171462Y-79631096D01*
X170218913Y-79621658D01*
X170355495Y-79565084D01*
X170478416Y-79482951D01*
X170582951Y-79378416D01*
X170665084Y-79255495D01*
X170721658Y-79118913D01*
X170744636Y-79003397D01*
X170750500Y-78973920D01*
X170750500Y-78826079D01*
X170721658Y-78681087D01*
X170721658Y-78681086D01*
X170665087Y-78544511D01*
X170665080Y-78544498D01*
X170582951Y-78421584D01*
X170579086Y-78416874D01*
X170581191Y-78415145D01*
X170553334Y-78364128D01*
X170550500Y-78337770D01*
X170550500Y-74973920D01*
X172549499Y-74973920D01*
X172578340Y-75118907D01*
X172578343Y-75118917D01*
X172634912Y-75255488D01*
X172634919Y-75255501D01*
X172717048Y-75378415D01*
X172720914Y-75383126D01*
X172718787Y-75384870D01*
X172727848Y-75401418D01*
X172744477Y-75427294D01*
X172745353Y-75433390D01*
X172746636Y-75435733D01*
X172749500Y-75462229D01*
X172749500Y-75537770D01*
X172729815Y-75604809D01*
X172720419Y-75616468D01*
X172720914Y-75616874D01*
X172717048Y-75621584D01*
X172634919Y-75744498D01*
X172634912Y-75744511D01*
X172578343Y-75881082D01*
X172578340Y-75881092D01*
X172549500Y-76026079D01*
X172549500Y-76026082D01*
X172549500Y-76173918D01*
X172549500Y-76173920D01*
X172549499Y-76173920D01*
X172578340Y-76318907D01*
X172578343Y-76318917D01*
X172634912Y-76455488D01*
X172634919Y-76455501D01*
X172717048Y-76578415D01*
X172717051Y-76578419D01*
X172821580Y-76682948D01*
X172821584Y-76682951D01*
X172944498Y-76765080D01*
X172944511Y-76765087D01*
X173080899Y-76821580D01*
X173081087Y-76821658D01*
X173081091Y-76821658D01*
X173081092Y-76821659D01*
X173226079Y-76850500D01*
X173226082Y-76850500D01*
X173373920Y-76850500D01*
X173471462Y-76831096D01*
X173518913Y-76821658D01*
X173655495Y-76765084D01*
X173778416Y-76682951D01*
X173882951Y-76578416D01*
X173965084Y-76455495D01*
X174021658Y-76318913D01*
X174050500Y-76173918D01*
X174050500Y-76026082D01*
X174050500Y-76026079D01*
X174021659Y-75881092D01*
X174021658Y-75881091D01*
X174021658Y-75881087D01*
X174002535Y-75834919D01*
X173965087Y-75744511D01*
X173965080Y-75744498D01*
X173882951Y-75621584D01*
X173879086Y-75616874D01*
X173881191Y-75615145D01*
X173872115Y-75598523D01*
X173855523Y-75572705D01*
X173854631Y-75566504D01*
X173853334Y-75564128D01*
X173850500Y-75537770D01*
X173850500Y-75462229D01*
X173870185Y-75395190D01*
X173879586Y-75383536D01*
X173879086Y-75383126D01*
X173882946Y-75378420D01*
X173882951Y-75378416D01*
X173965084Y-75255495D01*
X174021658Y-75118913D01*
X174038281Y-75035346D01*
X174050500Y-74973920D01*
X174050500Y-74826079D01*
X174021659Y-74681092D01*
X174021658Y-74681091D01*
X174021658Y-74681087D01*
X174021656Y-74681082D01*
X173965087Y-74544511D01*
X173965080Y-74544498D01*
X173882951Y-74421584D01*
X173882948Y-74421580D01*
X173778419Y-74317051D01*
X173778415Y-74317048D01*
X173655501Y-74234919D01*
X173655488Y-74234912D01*
X173518917Y-74178343D01*
X173518907Y-74178340D01*
X173373920Y-74149500D01*
X173373918Y-74149500D01*
X173226082Y-74149500D01*
X173226080Y-74149500D01*
X173081092Y-74178340D01*
X173081082Y-74178343D01*
X172944511Y-74234912D01*
X172944498Y-74234919D01*
X172821584Y-74317048D01*
X172821580Y-74317051D01*
X172717051Y-74421580D01*
X172717048Y-74421584D01*
X172634919Y-74544498D01*
X172634912Y-74544511D01*
X172578343Y-74681082D01*
X172578340Y-74681092D01*
X172549500Y-74826079D01*
X172549500Y-74826082D01*
X172549500Y-74973918D01*
X172549500Y-74973920D01*
X172549499Y-74973920D01*
X170550500Y-74973920D01*
X170550500Y-71250000D01*
X171300138Y-71250000D01*
X172103012Y-71250000D01*
X172085795Y-71259940D01*
X172029940Y-71315795D01*
X171990444Y-71384204D01*
X171970000Y-71460504D01*
X171970000Y-71539496D01*
X171990444Y-71615796D01*
X172029940Y-71684205D01*
X172085795Y-71740060D01*
X172103012Y-71750000D01*
X171300138Y-71750000D01*
X171308430Y-71791690D01*
X171308430Y-71791692D01*
X171383807Y-71973671D01*
X171383814Y-71973684D01*
X171493248Y-72137462D01*
X171493251Y-72137466D01*
X171632533Y-72276748D01*
X171632537Y-72276751D01*
X171796315Y-72386185D01*
X171796328Y-72386192D01*
X171978306Y-72461569D01*
X171978318Y-72461572D01*
X172171504Y-72499999D01*
X172171508Y-72500000D01*
X172570000Y-72500000D01*
X172570000Y-71800000D01*
X173070000Y-71800000D01*
X173070000Y-72551362D01*
X173068243Y-72551362D01*
X173064946Y-72597460D01*
X173036445Y-72641807D01*
X173009517Y-72668734D01*
X173009513Y-72668740D01*
X172953498Y-72765760D01*
X172953497Y-72765763D01*
X172924500Y-72873982D01*
X172924500Y-72986018D01*
X172953497Y-73094237D01*
X173009515Y-73191263D01*
X173088737Y-73270485D01*
X173185763Y-73326503D01*
X173293982Y-73355500D01*
X173293984Y-73355500D01*
X173406016Y-73355500D01*
X173406018Y-73355500D01*
X173514237Y-73326503D01*
X173611263Y-73270485D01*
X173690485Y-73191263D01*
X173746503Y-73094237D01*
X173775500Y-72986018D01*
X173775500Y-72873982D01*
X173746503Y-72765763D01*
X173690485Y-72668737D01*
X173666786Y-72645038D01*
X173633301Y-72583715D01*
X173638285Y-72514023D01*
X173680157Y-72458090D01*
X173707015Y-72442796D01*
X173843672Y-72386192D01*
X173843684Y-72386185D01*
X174007462Y-72276751D01*
X174007466Y-72276748D01*
X174146748Y-72137466D01*
X174146751Y-72137462D01*
X174256185Y-71973684D01*
X174256192Y-71973671D01*
X174331569Y-71791692D01*
X174331569Y-71791690D01*
X174339862Y-71750000D01*
X173536988Y-71750000D01*
X173554205Y-71740060D01*
X173610060Y-71684205D01*
X173649556Y-71615796D01*
X173670000Y-71539496D01*
X173670000Y-71460504D01*
X173649556Y-71384204D01*
X173610060Y-71315795D01*
X173554205Y-71259940D01*
X173536988Y-71250000D01*
X174339862Y-71250000D01*
X175730138Y-71250000D01*
X176533012Y-71250000D01*
X176515795Y-71259940D01*
X176459940Y-71315795D01*
X176420444Y-71384204D01*
X176400000Y-71460504D01*
X176400000Y-71539496D01*
X176420444Y-71615796D01*
X176459940Y-71684205D01*
X176515795Y-71740060D01*
X176533012Y-71750000D01*
X175730138Y-71750000D01*
X175738430Y-71791690D01*
X175738430Y-71791692D01*
X175813807Y-71973671D01*
X175813814Y-71973684D01*
X175923248Y-72137462D01*
X175923251Y-72137466D01*
X176062533Y-72276748D01*
X176062537Y-72276751D01*
X176226315Y-72386185D01*
X176226328Y-72386192D01*
X176408306Y-72461569D01*
X176408318Y-72461572D01*
X176601504Y-72499999D01*
X176601508Y-72500000D01*
X176750000Y-72500000D01*
X176750000Y-71800000D01*
X177250000Y-71800000D01*
X177250000Y-72500000D01*
X177398492Y-72500000D01*
X177398495Y-72499999D01*
X177591681Y-72461572D01*
X177591693Y-72461569D01*
X177773671Y-72386192D01*
X177773684Y-72386185D01*
X177937462Y-72276751D01*
X177937466Y-72276748D01*
X178076748Y-72137466D01*
X178076751Y-72137462D01*
X178186185Y-71973684D01*
X178186192Y-71973671D01*
X178261569Y-71791692D01*
X178261569Y-71791690D01*
X178269862Y-71750000D01*
X177466988Y-71750000D01*
X177484205Y-71740060D01*
X177540060Y-71684205D01*
X177579556Y-71615796D01*
X177600000Y-71539496D01*
X177600000Y-71460504D01*
X177579556Y-71384204D01*
X177540060Y-71315795D01*
X177484205Y-71259940D01*
X177466988Y-71250000D01*
X178269862Y-71250000D01*
X178261569Y-71208309D01*
X178261569Y-71208307D01*
X178186192Y-71026328D01*
X178186185Y-71026315D01*
X178076751Y-70862537D01*
X178076748Y-70862533D01*
X177937466Y-70723251D01*
X177937462Y-70723248D01*
X177773684Y-70613814D01*
X177773671Y-70613807D01*
X177591693Y-70538430D01*
X177591681Y-70538427D01*
X177398495Y-70500000D01*
X177250000Y-70500000D01*
X177250000Y-71200000D01*
X176750000Y-71200000D01*
X176750000Y-70500000D01*
X176601504Y-70500000D01*
X176408318Y-70538427D01*
X176408306Y-70538430D01*
X176226328Y-70613807D01*
X176226315Y-70613814D01*
X176062537Y-70723248D01*
X176062533Y-70723251D01*
X175923251Y-70862533D01*
X175923248Y-70862537D01*
X175813814Y-71026315D01*
X175813807Y-71026328D01*
X175738430Y-71208307D01*
X175738430Y-71208309D01*
X175730138Y-71250000D01*
X174339862Y-71250000D01*
X174331569Y-71208309D01*
X174331569Y-71208307D01*
X174256192Y-71026328D01*
X174256185Y-71026315D01*
X174146751Y-70862537D01*
X174146748Y-70862533D01*
X174007466Y-70723251D01*
X174007462Y-70723248D01*
X173843684Y-70613814D01*
X173843671Y-70613807D01*
X173661693Y-70538430D01*
X173661681Y-70538427D01*
X173468495Y-70500000D01*
X173070000Y-70500000D01*
X173070000Y-71200000D01*
X172570000Y-71200000D01*
X172570000Y-70500000D01*
X172171504Y-70500000D01*
X171978318Y-70538427D01*
X171978306Y-70538430D01*
X171796328Y-70613807D01*
X171796315Y-70613814D01*
X171632537Y-70723248D01*
X171632533Y-70723251D01*
X171493251Y-70862533D01*
X171493248Y-70862537D01*
X171383814Y-71026315D01*
X171383807Y-71026328D01*
X171308430Y-71208307D01*
X171308430Y-71208309D01*
X171300138Y-71250000D01*
X170550500Y-71250000D01*
X170550500Y-70862229D01*
X170570185Y-70795190D01*
X170579586Y-70783536D01*
X170579086Y-70783126D01*
X170582946Y-70778420D01*
X170582951Y-70778416D01*
X170665084Y-70655495D01*
X170721658Y-70518913D01*
X170735296Y-70450351D01*
X170750500Y-70373920D01*
X170750500Y-70226079D01*
X170721659Y-70081092D01*
X170721658Y-70081091D01*
X170721658Y-70081087D01*
X170680235Y-69981082D01*
X170665087Y-69944511D01*
X170665080Y-69944498D01*
X170582951Y-69821584D01*
X170582948Y-69821580D01*
X170478419Y-69717051D01*
X170478415Y-69717048D01*
X170355501Y-69634919D01*
X170355488Y-69634912D01*
X170218917Y-69578343D01*
X170218907Y-69578340D01*
X170073920Y-69549500D01*
X170073918Y-69549500D01*
X169926082Y-69549500D01*
X169926080Y-69549500D01*
X169781093Y-69578340D01*
X169781085Y-69578342D01*
X169697452Y-69612984D01*
X169627982Y-69620453D01*
X169602548Y-69612984D01*
X169518914Y-69578342D01*
X169518906Y-69578340D01*
X169373920Y-69549500D01*
X169373918Y-69549500D01*
X169226082Y-69549500D01*
X169226080Y-69549500D01*
X169081092Y-69578340D01*
X169081082Y-69578343D01*
X168944511Y-69634912D01*
X168944498Y-69634919D01*
X168821584Y-69717048D01*
X168821580Y-69717051D01*
X168717051Y-69821580D01*
X168717048Y-69821584D01*
X168634919Y-69944498D01*
X168634912Y-69944511D01*
X168578343Y-70081082D01*
X168578340Y-70081092D01*
X168549500Y-70226079D01*
X168549500Y-70226082D01*
X168549500Y-70373918D01*
X168549500Y-70373920D01*
X168549499Y-70373920D01*
X165652773Y-70373920D01*
X165665084Y-70355495D01*
X165721658Y-70218913D01*
X165749074Y-70081087D01*
X165750500Y-70073920D01*
X165750500Y-69926079D01*
X165721659Y-69781092D01*
X165721658Y-69781091D01*
X165721658Y-69781087D01*
X165711060Y-69755501D01*
X165665087Y-69644511D01*
X165665080Y-69644498D01*
X165582951Y-69521584D01*
X165582948Y-69521580D01*
X165478419Y-69417051D01*
X165478415Y-69417048D01*
X165374150Y-69347380D01*
X165329345Y-69293768D01*
X165320638Y-69224443D01*
X165321424Y-69220085D01*
X165321656Y-69218916D01*
X165321658Y-69218913D01*
X165350500Y-69073918D01*
X165350500Y-68926082D01*
X165350500Y-68926079D01*
X165321659Y-68781092D01*
X165321658Y-68781091D01*
X165321658Y-68781087D01*
X165321656Y-68781082D01*
X165265087Y-68644511D01*
X165265080Y-68644498D01*
X165182951Y-68521584D01*
X165182948Y-68521580D01*
X165078419Y-68417051D01*
X165078415Y-68417048D01*
X164955501Y-68334919D01*
X164955488Y-68334912D01*
X164818917Y-68278343D01*
X164818907Y-68278340D01*
X164673920Y-68249500D01*
X164673918Y-68249500D01*
X164526082Y-68249500D01*
X164526080Y-68249500D01*
X164381092Y-68278340D01*
X164381082Y-68278343D01*
X164244511Y-68334912D01*
X164244498Y-68334919D01*
X164121584Y-68417048D01*
X164121580Y-68417051D01*
X164017051Y-68521580D01*
X164017048Y-68521584D01*
X163934919Y-68644498D01*
X163934912Y-68644511D01*
X163878343Y-68781082D01*
X163878340Y-68781092D01*
X163849500Y-68926079D01*
X163849500Y-69073922D01*
X163856892Y-69111084D01*
X163850665Y-69180676D01*
X163807802Y-69235853D01*
X163741912Y-69259097D01*
X163711084Y-69256892D01*
X163673922Y-69249500D01*
X163673918Y-69249500D01*
X163526082Y-69249500D01*
X163526080Y-69249500D01*
X163381092Y-69278340D01*
X163381082Y-69278343D01*
X163244511Y-69334912D01*
X163244498Y-69334919D01*
X163121584Y-69417048D01*
X163121580Y-69417051D01*
X163017051Y-69521580D01*
X163017048Y-69521584D01*
X162934919Y-69644498D01*
X162934912Y-69644511D01*
X162878343Y-69781082D01*
X162878340Y-69781092D01*
X162849500Y-69926079D01*
X162849500Y-69926082D01*
X162849500Y-70073918D01*
X162849500Y-70073920D01*
X162849499Y-70073920D01*
X162878340Y-70218907D01*
X162878343Y-70218917D01*
X162904784Y-70282751D01*
X162912253Y-70352220D01*
X162880978Y-70414699D01*
X162820888Y-70450351D01*
X162814415Y-70451820D01*
X162681092Y-70478340D01*
X162681082Y-70478343D01*
X162544511Y-70534912D01*
X162544498Y-70534919D01*
X162421584Y-70617048D01*
X162421580Y-70617051D01*
X162317051Y-70721580D01*
X162317048Y-70721584D01*
X162234919Y-70844498D01*
X162234912Y-70844511D01*
X162178343Y-70981082D01*
X162178340Y-70981092D01*
X162149500Y-71126079D01*
X162149500Y-71126082D01*
X162149500Y-71273918D01*
X162149500Y-71273920D01*
X162149499Y-71273920D01*
X159177269Y-71273920D01*
X159165087Y-71244511D01*
X159165080Y-71244498D01*
X159128372Y-71189560D01*
X159128336Y-71189508D01*
X159082951Y-71121584D01*
X159078767Y-71117400D01*
X159072315Y-71108014D01*
X159064839Y-71085198D01*
X159053334Y-71064128D01*
X159051086Y-71043224D01*
X159050560Y-71041618D01*
X159050810Y-71040656D01*
X159050500Y-71037770D01*
X159050500Y-70862229D01*
X159070185Y-70795190D01*
X159079586Y-70783536D01*
X159079086Y-70783126D01*
X159082946Y-70778420D01*
X159082951Y-70778416D01*
X159165084Y-70655495D01*
X159221658Y-70518913D01*
X159235296Y-70450351D01*
X159250500Y-70373920D01*
X159250500Y-70226079D01*
X159221659Y-70081092D01*
X159221658Y-70081091D01*
X159221658Y-70081087D01*
X159180385Y-69981446D01*
X159172917Y-69911980D01*
X159191845Y-69865105D01*
X159205606Y-69844511D01*
X159265084Y-69755495D01*
X159321658Y-69618913D01*
X159334162Y-69556054D01*
X159350500Y-69473920D01*
X159350500Y-69326079D01*
X159321659Y-69181092D01*
X159321658Y-69181091D01*
X159321658Y-69181087D01*
X159277268Y-69073919D01*
X159265087Y-69044511D01*
X159265079Y-69044497D01*
X159248134Y-69019137D01*
X159227255Y-68952460D01*
X159245739Y-68885080D01*
X159282341Y-68847146D01*
X159378416Y-68782951D01*
X159482951Y-68678416D01*
X159565084Y-68555495D01*
X159621658Y-68418913D01*
X159638366Y-68334919D01*
X159650500Y-68273920D01*
X159650500Y-68126079D01*
X159621659Y-67981092D01*
X159621658Y-67981091D01*
X159621658Y-67981087D01*
X159567567Y-67850499D01*
X159565087Y-67844511D01*
X159565080Y-67844498D01*
X159482951Y-67721584D01*
X159482948Y-67721580D01*
X159378419Y-67617051D01*
X159378415Y-67617048D01*
X159255501Y-67534919D01*
X159255488Y-67534912D01*
X159118917Y-67478343D01*
X159118907Y-67478340D01*
X158973920Y-67449500D01*
X158973918Y-67449500D01*
X158826082Y-67449500D01*
X158826080Y-67449500D01*
X158681092Y-67478340D01*
X158681082Y-67478343D01*
X158544511Y-67534912D01*
X158544498Y-67534919D01*
X158421584Y-67617048D01*
X158421580Y-67617051D01*
X158317051Y-67721580D01*
X158317048Y-67721584D01*
X158234919Y-67844498D01*
X158234912Y-67844511D01*
X158178343Y-67981082D01*
X158178340Y-67981092D01*
X158149500Y-68126079D01*
X158149500Y-68126082D01*
X158149500Y-68273918D01*
X158149500Y-68273920D01*
X158149499Y-68273920D01*
X158178340Y-68418907D01*
X158178343Y-68418917D01*
X158234912Y-68555488D01*
X158234919Y-68555500D01*
X158251866Y-68580863D01*
X158272744Y-68647540D01*
X158254260Y-68714920D01*
X158217655Y-68752856D01*
X158121584Y-68817048D01*
X158121580Y-68817051D01*
X158017051Y-68921580D01*
X158017048Y-68921584D01*
X157934919Y-69044498D01*
X157934912Y-69044511D01*
X157878343Y-69181082D01*
X157878340Y-69181092D01*
X157849500Y-69326079D01*
X157849500Y-69326082D01*
X157849500Y-69473918D01*
X157849500Y-69473920D01*
X157849499Y-69473920D01*
X157878340Y-69618907D01*
X157878343Y-69618917D01*
X157919613Y-69718552D01*
X157920461Y-69726440D01*
X157924631Y-69733190D01*
X157924142Y-69760678D01*
X157927082Y-69788021D01*
X157923498Y-69796896D01*
X157923389Y-69803049D01*
X157908159Y-69834887D01*
X157903107Y-69842449D01*
X157849498Y-69887258D01*
X157780174Y-69895971D01*
X157717144Y-69865820D01*
X157696897Y-69842456D01*
X157696892Y-69842449D01*
X157682951Y-69821584D01*
X157682949Y-69821581D01*
X157578419Y-69717051D01*
X157578415Y-69717048D01*
X157455501Y-69634919D01*
X157455488Y-69634912D01*
X157318917Y-69578343D01*
X157318907Y-69578340D01*
X157173920Y-69549500D01*
X157173918Y-69549500D01*
X157026082Y-69549500D01*
X156961822Y-69562281D01*
X156892231Y-69556054D01*
X156868744Y-69543768D01*
X156855501Y-69534920D01*
X156855500Y-69534919D01*
X156855495Y-69534916D01*
X156855492Y-69534915D01*
X156855491Y-69534914D01*
X156718913Y-69478342D01*
X156718907Y-69478340D01*
X156573920Y-69449500D01*
X156573918Y-69449500D01*
X156426082Y-69449500D01*
X156426080Y-69449500D01*
X156281092Y-69478340D01*
X156281082Y-69478343D01*
X156144511Y-69534912D01*
X156144498Y-69534919D01*
X156021584Y-69617048D01*
X156021580Y-69617051D01*
X155917051Y-69721580D01*
X155917048Y-69721584D01*
X155834919Y-69844498D01*
X155834912Y-69844511D01*
X155778343Y-69981082D01*
X155778340Y-69981092D01*
X155749500Y-70126079D01*
X155749500Y-70126082D01*
X155749500Y-70273918D01*
X155749500Y-70273920D01*
X155749499Y-70273920D01*
X155778340Y-70418907D01*
X155778343Y-70418917D01*
X155834912Y-70555488D01*
X155834919Y-70555501D01*
X155918848Y-70681109D01*
X155939726Y-70747787D01*
X155921241Y-70815167D01*
X155918848Y-70818891D01*
X155834919Y-70944498D01*
X155834912Y-70944511D01*
X155778343Y-71081082D01*
X155778340Y-71081092D01*
X155749500Y-71226079D01*
X155749500Y-71226082D01*
X155749500Y-71373918D01*
X155749500Y-71373920D01*
X155749499Y-71373920D01*
X155778340Y-71518907D01*
X155778343Y-71518917D01*
X155834912Y-71655488D01*
X155834919Y-71655501D01*
X155917048Y-71778415D01*
X155917051Y-71778419D01*
X156021580Y-71882948D01*
X156021584Y-71882951D01*
X156144498Y-71965080D01*
X156144511Y-71965087D01*
X156274107Y-72018767D01*
X156281087Y-72021658D01*
X156281091Y-72021658D01*
X156281092Y-72021659D01*
X156314893Y-72028383D01*
X156376804Y-72060768D01*
X156411378Y-72121484D01*
X156407637Y-72191254D01*
X156366771Y-72247925D01*
X156314893Y-72271617D01*
X156281092Y-72278340D01*
X156281082Y-72278343D01*
X156144511Y-72334912D01*
X156144498Y-72334919D01*
X156021584Y-72417048D01*
X156021580Y-72417051D01*
X155917051Y-72521580D01*
X155917048Y-72521584D01*
X155834919Y-72644498D01*
X155834912Y-72644511D01*
X155778343Y-72781082D01*
X155778340Y-72781092D01*
X155749500Y-72926079D01*
X155749500Y-73073922D01*
X155762281Y-73138177D01*
X155756054Y-73207769D01*
X155743770Y-73231253D01*
X155734916Y-73244505D01*
X155678342Y-73381086D01*
X155678340Y-73381092D01*
X155649500Y-73526079D01*
X155649500Y-73526082D01*
X155649500Y-73673918D01*
X155649500Y-73673920D01*
X155649499Y-73673920D01*
X146872526Y-73673920D01*
X146946446Y-73600000D01*
X146700000Y-73353554D01*
X146453554Y-73600000D01*
X145546446Y-73600000D01*
X145300000Y-73353554D01*
X145053554Y-73600000D01*
X140675834Y-73600000D01*
X140670218Y-72926126D01*
X144550000Y-72926126D01*
X144550000Y-73073873D01*
X144578820Y-73218759D01*
X144578822Y-73218767D01*
X144622421Y-73324024D01*
X144946446Y-73000000D01*
X144946446Y-72999999D01*
X144926556Y-72980109D01*
X145200000Y-72980109D01*
X145200000Y-73019891D01*
X145215224Y-73056645D01*
X145243355Y-73084776D01*
X145280109Y-73100000D01*
X145319891Y-73100000D01*
X145356645Y-73084776D01*
X145384776Y-73056645D01*
X145400000Y-73019891D01*
X145400000Y-72999999D01*
X145653554Y-72999999D01*
X145653554Y-73000001D01*
X145977929Y-73324376D01*
X146022069Y-73324376D01*
X146346446Y-73000000D01*
X146326555Y-72980109D01*
X146600000Y-72980109D01*
X146600000Y-73019891D01*
X146615224Y-73056645D01*
X146643355Y-73084776D01*
X146680109Y-73100000D01*
X146719891Y-73100000D01*
X146756645Y-73084776D01*
X146784776Y-73056645D01*
X146800000Y-73019891D01*
X146800000Y-72999999D01*
X147053554Y-72999999D01*
X147053554Y-73000001D01*
X147377577Y-73324024D01*
X147377578Y-73324024D01*
X147421175Y-73218775D01*
X147421179Y-73218760D01*
X147449999Y-73073873D01*
X147450000Y-73073871D01*
X147450000Y-72926128D01*
X147449999Y-72926126D01*
X147421179Y-72781240D01*
X147421178Y-72781236D01*
X147377577Y-72675975D01*
X147053554Y-72999999D01*
X146800000Y-72999999D01*
X146800000Y-72980109D01*
X146784776Y-72943355D01*
X146756645Y-72915224D01*
X146719891Y-72900000D01*
X146680109Y-72900000D01*
X146643355Y-72915224D01*
X146615224Y-72943355D01*
X146600000Y-72980109D01*
X146326555Y-72980109D01*
X146022068Y-72675622D01*
X145977930Y-72675622D01*
X145653554Y-72999999D01*
X145400000Y-72999999D01*
X145400000Y-72980109D01*
X145384776Y-72943355D01*
X145356645Y-72915224D01*
X145319891Y-72900000D01*
X145280109Y-72900000D01*
X145243355Y-72915224D01*
X145215224Y-72943355D01*
X145200000Y-72980109D01*
X144926556Y-72980109D01*
X144622421Y-72675974D01*
X144622420Y-72675974D01*
X144578823Y-72781228D01*
X144578820Y-72781240D01*
X144550000Y-72926126D01*
X140670218Y-72926126D01*
X140670176Y-72921072D01*
X140665833Y-72400000D01*
X145053554Y-72400000D01*
X145300000Y-72646446D01*
X145546446Y-72400000D01*
X146453554Y-72400000D01*
X146700000Y-72646446D01*
X146946446Y-72400000D01*
X146700000Y-72153554D01*
X146453554Y-72400000D01*
X145546446Y-72400000D01*
X145300000Y-72153554D01*
X145053554Y-72400000D01*
X140665833Y-72400000D01*
X140665414Y-72349671D01*
X140660218Y-71726126D01*
X144550000Y-71726126D01*
X144550000Y-71873873D01*
X144578820Y-72018759D01*
X144578822Y-72018767D01*
X144622421Y-72124024D01*
X144946446Y-71800000D01*
X144946446Y-71799999D01*
X144926556Y-71780109D01*
X145200000Y-71780109D01*
X145200000Y-71819891D01*
X145215224Y-71856645D01*
X145243355Y-71884776D01*
X145280109Y-71900000D01*
X145319891Y-71900000D01*
X145356645Y-71884776D01*
X145384776Y-71856645D01*
X145400000Y-71819891D01*
X145400000Y-71799999D01*
X145653554Y-71799999D01*
X145653554Y-71800001D01*
X145977929Y-72124376D01*
X146022069Y-72124376D01*
X146346446Y-71800000D01*
X146326555Y-71780109D01*
X146600000Y-71780109D01*
X146600000Y-71819891D01*
X146615224Y-71856645D01*
X146643355Y-71884776D01*
X146680109Y-71900000D01*
X146719891Y-71900000D01*
X146756645Y-71884776D01*
X146784776Y-71856645D01*
X146800000Y-71819891D01*
X146800000Y-71799999D01*
X147053554Y-71799999D01*
X147053554Y-71800001D01*
X147377577Y-72124024D01*
X147377578Y-72124024D01*
X147421175Y-72018775D01*
X147421179Y-72018760D01*
X147449999Y-71873873D01*
X147450000Y-71873871D01*
X147450000Y-71726128D01*
X147449999Y-71726126D01*
X147421179Y-71581240D01*
X147421178Y-71581236D01*
X147377577Y-71475975D01*
X147053554Y-71799999D01*
X146800000Y-71799999D01*
X146800000Y-71780109D01*
X146784776Y-71743355D01*
X146756645Y-71715224D01*
X146719891Y-71700000D01*
X146680109Y-71700000D01*
X146643355Y-71715224D01*
X146615224Y-71743355D01*
X146600000Y-71780109D01*
X146326555Y-71780109D01*
X146022068Y-71475622D01*
X145977930Y-71475622D01*
X145653554Y-71799999D01*
X145400000Y-71799999D01*
X145400000Y-71780109D01*
X145384776Y-71743355D01*
X145356645Y-71715224D01*
X145319891Y-71700000D01*
X145280109Y-71700000D01*
X145243355Y-71715224D01*
X145215224Y-71743355D01*
X145200000Y-71780109D01*
X144926556Y-71780109D01*
X144622421Y-71475974D01*
X144622420Y-71475974D01*
X144578823Y-71581228D01*
X144578820Y-71581240D01*
X144550000Y-71726126D01*
X140660218Y-71726126D01*
X140660176Y-71721072D01*
X140655536Y-71164269D01*
X140655187Y-71122420D01*
X144975974Y-71122420D01*
X144975974Y-71122421D01*
X145300000Y-71446446D01*
X145300001Y-71446446D01*
X145624024Y-71122421D01*
X145624022Y-71122420D01*
X146375974Y-71122420D01*
X146375974Y-71122421D01*
X146700000Y-71446446D01*
X146700001Y-71446446D01*
X147024024Y-71122421D01*
X146918767Y-71078822D01*
X146918759Y-71078820D01*
X146773872Y-71050000D01*
X146626128Y-71050000D01*
X146481240Y-71078820D01*
X146481228Y-71078823D01*
X146375974Y-71122420D01*
X145624022Y-71122420D01*
X145518767Y-71078822D01*
X145518759Y-71078820D01*
X145373872Y-71050000D01*
X145226128Y-71050000D01*
X145081240Y-71078820D01*
X145081228Y-71078823D01*
X144975974Y-71122420D01*
X140655187Y-71122420D01*
X140631450Y-68273920D01*
X155749499Y-68273920D01*
X155778340Y-68418907D01*
X155778343Y-68418917D01*
X155834912Y-68555488D01*
X155834919Y-68555501D01*
X155917048Y-68678415D01*
X155917051Y-68678419D01*
X156021580Y-68782948D01*
X156021584Y-68782951D01*
X156144498Y-68865080D01*
X156144511Y-68865087D01*
X156280899Y-68921580D01*
X156281087Y-68921658D01*
X156281091Y-68921658D01*
X156281092Y-68921659D01*
X156426079Y-68950500D01*
X156426082Y-68950500D01*
X156573920Y-68950500D01*
X156671462Y-68931096D01*
X156718913Y-68921658D01*
X156855495Y-68865084D01*
X156978416Y-68782951D01*
X157082951Y-68678416D01*
X157165084Y-68555495D01*
X157221658Y-68418913D01*
X157238366Y-68334919D01*
X157250500Y-68273920D01*
X157250500Y-68126079D01*
X157221659Y-67981092D01*
X157221658Y-67981091D01*
X157221658Y-67981087D01*
X157167567Y-67850499D01*
X157165087Y-67844511D01*
X157165080Y-67844498D01*
X157082951Y-67721584D01*
X157082948Y-67721580D01*
X156978419Y-67617051D01*
X156978415Y-67617048D01*
X156855501Y-67534919D01*
X156855488Y-67534912D01*
X156718917Y-67478343D01*
X156718907Y-67478340D01*
X156573920Y-67449500D01*
X156573918Y-67449500D01*
X156426082Y-67449500D01*
X156426080Y-67449500D01*
X156281092Y-67478340D01*
X156281082Y-67478343D01*
X156144511Y-67534912D01*
X156144498Y-67534919D01*
X156021584Y-67617048D01*
X156021580Y-67617051D01*
X155917051Y-67721580D01*
X155917048Y-67721584D01*
X155834919Y-67844498D01*
X155834912Y-67844511D01*
X155778343Y-67981082D01*
X155778340Y-67981092D01*
X155749500Y-68126079D01*
X155749500Y-68126082D01*
X155749500Y-68273918D01*
X155749500Y-68273920D01*
X155749499Y-68273920D01*
X140631450Y-68273920D01*
X140630176Y-68121023D01*
X140619783Y-66873920D01*
X168949499Y-66873920D01*
X168978340Y-67018907D01*
X168978343Y-67018917D01*
X169034912Y-67155488D01*
X169034919Y-67155501D01*
X169117048Y-67278415D01*
X169117051Y-67278419D01*
X169221580Y-67382948D01*
X169221584Y-67382951D01*
X169344498Y-67465080D01*
X169344511Y-67465087D01*
X169481082Y-67521656D01*
X169481087Y-67521658D01*
X169481091Y-67521658D01*
X169481092Y-67521659D01*
X169626079Y-67550500D01*
X169626082Y-67550500D01*
X169773921Y-67550500D01*
X169782667Y-67548760D01*
X169852259Y-67554984D01*
X169907438Y-67597845D01*
X169921424Y-67622923D01*
X169934914Y-67655491D01*
X169934919Y-67655501D01*
X170017048Y-67778415D01*
X170017051Y-67778419D01*
X170121580Y-67882948D01*
X170121584Y-67882951D01*
X170244498Y-67965080D01*
X170244511Y-67965087D01*
X170381082Y-68021656D01*
X170381087Y-68021658D01*
X170381091Y-68021658D01*
X170381092Y-68021659D01*
X170526079Y-68050500D01*
X170526082Y-68050500D01*
X170673920Y-68050500D01*
X170771462Y-68031096D01*
X170818913Y-68021658D01*
X170955495Y-67965084D01*
X171078416Y-67882951D01*
X171182951Y-67778416D01*
X171265084Y-67655495D01*
X171321658Y-67518913D01*
X171334275Y-67455487D01*
X171350500Y-67373920D01*
X171350500Y-67226079D01*
X171321659Y-67081092D01*
X171321658Y-67081091D01*
X171321658Y-67081087D01*
X171321656Y-67081082D01*
X171265087Y-66944511D01*
X171265080Y-66944498D01*
X171182951Y-66821584D01*
X171182948Y-66821580D01*
X171078419Y-66717051D01*
X171078415Y-66717048D01*
X170955501Y-66634919D01*
X170955488Y-66634912D01*
X170818917Y-66578343D01*
X170818907Y-66578340D01*
X170673920Y-66549500D01*
X170673918Y-66549500D01*
X170526082Y-66549500D01*
X170526081Y-66549500D01*
X170517321Y-66551242D01*
X170447730Y-66545010D01*
X170392555Y-66502145D01*
X170378574Y-66477074D01*
X170365086Y-66444511D01*
X170365084Y-66444505D01*
X170282951Y-66321584D01*
X170282948Y-66321580D01*
X170178419Y-66217051D01*
X170178415Y-66217048D01*
X170055501Y-66134919D01*
X170055488Y-66134912D01*
X169918917Y-66078343D01*
X169918907Y-66078340D01*
X169773920Y-66049500D01*
X169773918Y-66049500D01*
X169626082Y-66049500D01*
X169626080Y-66049500D01*
X169481092Y-66078340D01*
X169481082Y-66078343D01*
X169344511Y-66134912D01*
X169344498Y-66134919D01*
X169221584Y-66217048D01*
X169221580Y-66217051D01*
X169117051Y-66321580D01*
X169117048Y-66321584D01*
X169034919Y-66444498D01*
X169034912Y-66444511D01*
X168978343Y-66581082D01*
X168978340Y-66581092D01*
X168949500Y-66726079D01*
X168949500Y-66726082D01*
X168949500Y-66873918D01*
X168949500Y-66873920D01*
X168949499Y-66873920D01*
X140619783Y-66873920D01*
X140618509Y-66721023D01*
X140607283Y-65373920D01*
X175049499Y-65373920D01*
X175078340Y-65518907D01*
X175078343Y-65518917D01*
X175134912Y-65655488D01*
X175134919Y-65655501D01*
X175217048Y-65778415D01*
X175220914Y-65783126D01*
X175218787Y-65784870D01*
X175246636Y-65835733D01*
X175249500Y-65862229D01*
X175249500Y-66537769D01*
X175229815Y-66604808D01*
X175220419Y-66616467D01*
X175220914Y-66616873D01*
X175217048Y-66621583D01*
X175134919Y-66744497D01*
X175134912Y-66744510D01*
X175078343Y-66881081D01*
X175078340Y-66881091D01*
X175049500Y-67026078D01*
X175049500Y-67026081D01*
X175049500Y-67173917D01*
X175049500Y-67173919D01*
X175049499Y-67173919D01*
X175078340Y-67318906D01*
X175078343Y-67318916D01*
X175134912Y-67455487D01*
X175134919Y-67455500D01*
X175217048Y-67578414D01*
X175217051Y-67578418D01*
X175321580Y-67682947D01*
X175321584Y-67682950D01*
X175444498Y-67765079D01*
X175444511Y-67765086D01*
X175581082Y-67821655D01*
X175581087Y-67821657D01*
X175581091Y-67821657D01*
X175581092Y-67821658D01*
X175726079Y-67850499D01*
X175726082Y-67850499D01*
X175873920Y-67850499D01*
X175971462Y-67831095D01*
X176018913Y-67821657D01*
X176155495Y-67765083D01*
X176278416Y-67682950D01*
X176382951Y-67578415D01*
X176465084Y-67455494D01*
X176521658Y-67318912D01*
X176531096Y-67271461D01*
X176550500Y-67173919D01*
X176550500Y-67026078D01*
X176521659Y-66881091D01*
X176521658Y-66881090D01*
X176521658Y-66881086D01*
X176503818Y-66838017D01*
X176465087Y-66744510D01*
X176465080Y-66744497D01*
X176382951Y-66621583D01*
X176379086Y-66616873D01*
X176381191Y-66615144D01*
X176372115Y-66598522D01*
X176355523Y-66572704D01*
X176354631Y-66566503D01*
X176353334Y-66564127D01*
X176350500Y-66537769D01*
X176350500Y-66427525D01*
X176949500Y-66427525D01*
X176949500Y-66572475D01*
X176987016Y-66712485D01*
X176987017Y-66712488D01*
X177059488Y-66838011D01*
X177059490Y-66838013D01*
X177059491Y-66838015D01*
X177161985Y-66940509D01*
X177161986Y-66940510D01*
X177161988Y-66940511D01*
X177287511Y-67012982D01*
X177287512Y-67012982D01*
X177287515Y-67012984D01*
X177427525Y-67050500D01*
X177427528Y-67050500D01*
X177572472Y-67050500D01*
X177572475Y-67050500D01*
X177712485Y-67012984D01*
X177838015Y-66940509D01*
X177940509Y-66838015D01*
X178012984Y-66712485D01*
X178050500Y-66572475D01*
X178050500Y-66427525D01*
X178012984Y-66287515D01*
X177972301Y-66217051D01*
X177940511Y-66161988D01*
X177940506Y-66161982D01*
X177838017Y-66059493D01*
X177838011Y-66059488D01*
X177712488Y-65987017D01*
X177712489Y-65987017D01*
X177701006Y-65983940D01*
X177572475Y-65949500D01*
X177427525Y-65949500D01*
X177298993Y-65983940D01*
X177287511Y-65987017D01*
X177161988Y-66059488D01*
X177161982Y-66059493D01*
X177059493Y-66161982D01*
X177059488Y-66161988D01*
X176987017Y-66287511D01*
X176987016Y-66287515D01*
X176949500Y-66427525D01*
X176350500Y-66427525D01*
X176350500Y-65862229D01*
X176370185Y-65795190D01*
X176379586Y-65783536D01*
X176379086Y-65783126D01*
X176382946Y-65778420D01*
X176382951Y-65778416D01*
X176465084Y-65655495D01*
X176521658Y-65518913D01*
X176550500Y-65373918D01*
X176550500Y-65226082D01*
X176550500Y-65226079D01*
X176521659Y-65081092D01*
X176521658Y-65081091D01*
X176521658Y-65081087D01*
X176521656Y-65081082D01*
X176465087Y-64944511D01*
X176465080Y-64944498D01*
X176382951Y-64821584D01*
X176382948Y-64821580D01*
X176278419Y-64717051D01*
X176278415Y-64717048D01*
X176155501Y-64634919D01*
X176155488Y-64634912D01*
X176018917Y-64578343D01*
X176018907Y-64578340D01*
X175873920Y-64549500D01*
X175873918Y-64549500D01*
X175726082Y-64549500D01*
X175726080Y-64549500D01*
X175581092Y-64578340D01*
X175581082Y-64578343D01*
X175444511Y-64634912D01*
X175444498Y-64634919D01*
X175321584Y-64717048D01*
X175321580Y-64717051D01*
X175217051Y-64821580D01*
X175217048Y-64821584D01*
X175134919Y-64944498D01*
X175134912Y-64944511D01*
X175078343Y-65081082D01*
X175078340Y-65081092D01*
X175049500Y-65226079D01*
X175049500Y-65226082D01*
X175049500Y-65373918D01*
X175049500Y-65373920D01*
X175049499Y-65373920D01*
X140607283Y-65373920D01*
X140606009Y-65221023D01*
X140571084Y-61030109D01*
X140512684Y-54022135D01*
X161149500Y-54022135D01*
X161149500Y-55817870D01*
X161149501Y-55817876D01*
X161155908Y-55877483D01*
X161206202Y-56012328D01*
X161206206Y-56012335D01*
X161292452Y-56127544D01*
X161292455Y-56127547D01*
X161407664Y-56213793D01*
X161407671Y-56213797D01*
X161452618Y-56230561D01*
X161542517Y-56264091D01*
X161602127Y-56270500D01*
X161612685Y-56270499D01*
X161679723Y-56290179D01*
X161700372Y-56306818D01*
X162370591Y-56977037D01*
X162307007Y-56994075D01*
X162192993Y-57059901D01*
X162099901Y-57152993D01*
X162034075Y-57267007D01*
X162017037Y-57330591D01*
X161384728Y-56698282D01*
X161384727Y-56698282D01*
X161345380Y-56752439D01*
X161248904Y-56941782D01*
X161183242Y-57143869D01*
X161183242Y-57143872D01*
X161150000Y-57353753D01*
X161150000Y-57566246D01*
X161183242Y-57776127D01*
X161183242Y-57776130D01*
X161248904Y-57978217D01*
X161345375Y-58167550D01*
X161384728Y-58221716D01*
X162017037Y-57589408D01*
X162034075Y-57652993D01*
X162099901Y-57767007D01*
X162192993Y-57860099D01*
X162307007Y-57925925D01*
X162370590Y-57942962D01*
X161738282Y-58575269D01*
X161738282Y-58575270D01*
X161792452Y-58614626D01*
X161792451Y-58614626D01*
X161801495Y-58619234D01*
X161852292Y-58667208D01*
X161869087Y-58735029D01*
X161846550Y-58801164D01*
X161801499Y-58840202D01*
X161792182Y-58844949D01*
X161620213Y-58969890D01*
X161469890Y-59120213D01*
X161344951Y-59292179D01*
X161248444Y-59481585D01*
X161182753Y-59683760D01*
X161149500Y-59893713D01*
X161149500Y-60106286D01*
X161182753Y-60316239D01*
X161248444Y-60518414D01*
X161344951Y-60707820D01*
X161469890Y-60879786D01*
X161620213Y-61030109D01*
X161792182Y-61155050D01*
X161800946Y-61159516D01*
X161851742Y-61207491D01*
X161868536Y-61275312D01*
X161845998Y-61341447D01*
X161800946Y-61380484D01*
X161792182Y-61384949D01*
X161620213Y-61509890D01*
X161469890Y-61660213D01*
X161344951Y-61832179D01*
X161248444Y-62021585D01*
X161182753Y-62223760D01*
X161149500Y-62433713D01*
X161149500Y-62646287D01*
X161182754Y-62856243D01*
X161225245Y-62987017D01*
X161248444Y-63058414D01*
X161344951Y-63247820D01*
X161469890Y-63419786D01*
X161620213Y-63570109D01*
X161792179Y-63695048D01*
X161792181Y-63695049D01*
X161792184Y-63695051D01*
X161981588Y-63791557D01*
X162183757Y-63857246D01*
X162393713Y-63890500D01*
X162393714Y-63890500D01*
X162606286Y-63890500D01*
X162606287Y-63890500D01*
X162816243Y-63857246D01*
X163018412Y-63791557D01*
X163207816Y-63695051D01*
X163376529Y-63572475D01*
X163379786Y-63570109D01*
X163379788Y-63570106D01*
X163379792Y-63570104D01*
X163522371Y-63427525D01*
X176949500Y-63427525D01*
X176949500Y-63572475D01*
X176982344Y-63695048D01*
X176987017Y-63712488D01*
X177059488Y-63838011D01*
X177059490Y-63838013D01*
X177059491Y-63838015D01*
X177161985Y-63940509D01*
X177161986Y-63940510D01*
X177161988Y-63940511D01*
X177287511Y-64012982D01*
X177287512Y-64012982D01*
X177287515Y-64012984D01*
X177427525Y-64050500D01*
X177427528Y-64050500D01*
X177572472Y-64050500D01*
X177572475Y-64050500D01*
X177712485Y-64012984D01*
X177838015Y-63940509D01*
X177940509Y-63838015D01*
X178012984Y-63712485D01*
X178050500Y-63572475D01*
X178050500Y-63427525D01*
X178012984Y-63287515D01*
X177940509Y-63161985D01*
X177838015Y-63059491D01*
X177838013Y-63059490D01*
X177838011Y-63059488D01*
X177712488Y-62987017D01*
X177712489Y-62987017D01*
X177701006Y-62983940D01*
X177572475Y-62949500D01*
X177427525Y-62949500D01*
X177298993Y-62983940D01*
X177287511Y-62987017D01*
X177161988Y-63059488D01*
X177161982Y-63059493D01*
X177059493Y-63161982D01*
X177059488Y-63161988D01*
X176987017Y-63287511D01*
X176987016Y-63287515D01*
X176949500Y-63427525D01*
X163522371Y-63427525D01*
X163530104Y-63419792D01*
X163655051Y-63247816D01*
X163751557Y-63058412D01*
X163817246Y-62856243D01*
X163850500Y-62646287D01*
X163850500Y-62433713D01*
X163817246Y-62223757D01*
X163751557Y-62021588D01*
X163655051Y-61832184D01*
X163655049Y-61832181D01*
X163655048Y-61832179D01*
X163530109Y-61660213D01*
X163379786Y-61509890D01*
X163207820Y-61384951D01*
X163207115Y-61384591D01*
X163199054Y-61380485D01*
X163148259Y-61332512D01*
X163131463Y-61264692D01*
X163153999Y-61198556D01*
X163199054Y-61159515D01*
X163207816Y-61155051D01*
X163229789Y-61139086D01*
X163379786Y-61030109D01*
X163379788Y-61030106D01*
X163379792Y-61030104D01*
X163530104Y-60879792D01*
X163530106Y-60879788D01*
X163530109Y-60879786D01*
X163655048Y-60707820D01*
X163655047Y-60707820D01*
X163655051Y-60707816D01*
X163751557Y-60518412D01*
X163817246Y-60316243D01*
X163850500Y-60106287D01*
X163850500Y-59893713D01*
X163817246Y-59683757D01*
X163751557Y-59481588D01*
X163655051Y-59292184D01*
X163655049Y-59292181D01*
X163655048Y-59292179D01*
X163530109Y-59120213D01*
X163379786Y-58969890D01*
X163207817Y-58844949D01*
X163198504Y-58840204D01*
X163147707Y-58792230D01*
X163130912Y-58724409D01*
X163153449Y-58658274D01*
X163198507Y-58619232D01*
X163207555Y-58614622D01*
X163261716Y-58575270D01*
X163261717Y-58575270D01*
X162629408Y-57942962D01*
X162692993Y-57925925D01*
X162807007Y-57860099D01*
X162900099Y-57767007D01*
X162965925Y-57652993D01*
X162982962Y-57589408D01*
X163615270Y-58221717D01*
X163615270Y-58221716D01*
X163654622Y-58167554D01*
X163751095Y-57978217D01*
X163816757Y-57776130D01*
X163816757Y-57776127D01*
X163850000Y-57566246D01*
X163850000Y-57353753D01*
X163816757Y-57143872D01*
X163816757Y-57143869D01*
X163751095Y-56941782D01*
X163654624Y-56752449D01*
X163615270Y-56698282D01*
X163615269Y-56698282D01*
X162982962Y-57330590D01*
X162965925Y-57267007D01*
X162900099Y-57152993D01*
X162807007Y-57059901D01*
X162692993Y-56994075D01*
X162629409Y-56977037D01*
X163299627Y-56306818D01*
X163360950Y-56273333D01*
X163387307Y-56270499D01*
X163397872Y-56270499D01*
X163457483Y-56264091D01*
X163592331Y-56213796D01*
X163707546Y-56127546D01*
X163793796Y-56012331D01*
X163844091Y-55877483D01*
X163850500Y-55817873D01*
X163850499Y-54824983D01*
X173899500Y-54824983D01*
X173899500Y-56175001D01*
X173899501Y-56175018D01*
X173910000Y-56277796D01*
X173910001Y-56277799D01*
X173965185Y-56444331D01*
X173965186Y-56444334D01*
X174057288Y-56593656D01*
X174181344Y-56717712D01*
X174330666Y-56809814D01*
X174497203Y-56864999D01*
X174599991Y-56875500D01*
X175400008Y-56875499D01*
X175400016Y-56875498D01*
X175400019Y-56875498D01*
X175456302Y-56869748D01*
X175502797Y-56864999D01*
X175669334Y-56809814D01*
X175818656Y-56717712D01*
X175942712Y-56593656D01*
X175982581Y-56529016D01*
X176034525Y-56482294D01*
X176103488Y-56471071D01*
X176167570Y-56498914D01*
X176175799Y-56506434D01*
X176283397Y-56614032D01*
X176423475Y-56715804D01*
X176577744Y-56794408D01*
X176742415Y-56847914D01*
X176742414Y-56847914D01*
X176749999Y-56849115D01*
X176750000Y-56849114D01*
X176750000Y-55780330D01*
X176769745Y-55800075D01*
X176855255Y-55849444D01*
X176950630Y-55875000D01*
X177049370Y-55875000D01*
X177144745Y-55849444D01*
X177230255Y-55800075D01*
X177250000Y-55780330D01*
X177250000Y-56849115D01*
X177257584Y-56847914D01*
X177422255Y-56794408D01*
X177576524Y-56715804D01*
X177716602Y-56614032D01*
X177839032Y-56491602D01*
X177940804Y-56351524D01*
X178019408Y-56197257D01*
X178072914Y-56032584D01*
X178100000Y-55861571D01*
X178100000Y-55750000D01*
X177280330Y-55750000D01*
X177300075Y-55730255D01*
X177349444Y-55644745D01*
X177375000Y-55549370D01*
X177375000Y-55450630D01*
X177349444Y-55355255D01*
X177300075Y-55269745D01*
X177280330Y-55250000D01*
X178100000Y-55250000D01*
X178100000Y-55138428D01*
X178072914Y-54967415D01*
X178019408Y-54802742D01*
X177940804Y-54648475D01*
X177839032Y-54508397D01*
X177716602Y-54385967D01*
X177576524Y-54284195D01*
X177422257Y-54205591D01*
X177257589Y-54152087D01*
X177257581Y-54152085D01*
X177250000Y-54150884D01*
X177250000Y-55219670D01*
X177230255Y-55199925D01*
X177144745Y-55150556D01*
X177049370Y-55125000D01*
X176950630Y-55125000D01*
X176855255Y-55150556D01*
X176769745Y-55199925D01*
X176750000Y-55219670D01*
X176750000Y-54150884D01*
X176749999Y-54150884D01*
X176742418Y-54152085D01*
X176742410Y-54152087D01*
X176577742Y-54205591D01*
X176423475Y-54284195D01*
X176283401Y-54385964D01*
X176175799Y-54493566D01*
X176114476Y-54527050D01*
X176044784Y-54522066D01*
X175988851Y-54480194D01*
X175982585Y-54470988D01*
X175942712Y-54406344D01*
X175818656Y-54282288D01*
X175669334Y-54190186D01*
X175502797Y-54135001D01*
X175502795Y-54135000D01*
X175400010Y-54124500D01*
X174599998Y-54124500D01*
X174599980Y-54124501D01*
X174497203Y-54135000D01*
X174497200Y-54135001D01*
X174330668Y-54190185D01*
X174330663Y-54190187D01*
X174181342Y-54282289D01*
X174057289Y-54406342D01*
X173965187Y-54555663D01*
X173965186Y-54555666D01*
X173910001Y-54722203D01*
X173910001Y-54722204D01*
X173910000Y-54722204D01*
X173899500Y-54824983D01*
X163850499Y-54824983D01*
X163850499Y-54022128D01*
X163844091Y-53962517D01*
X163793796Y-53827669D01*
X163793795Y-53827668D01*
X163793793Y-53827664D01*
X163707547Y-53712455D01*
X163707544Y-53712452D01*
X163592335Y-53626206D01*
X163592328Y-53626202D01*
X163457482Y-53575908D01*
X163457483Y-53575908D01*
X163397883Y-53569501D01*
X163397881Y-53569500D01*
X163397873Y-53569500D01*
X163397864Y-53569500D01*
X161602129Y-53569500D01*
X161602123Y-53569501D01*
X161542516Y-53575908D01*
X161407671Y-53626202D01*
X161407664Y-53626206D01*
X161292455Y-53712452D01*
X161292452Y-53712455D01*
X161206206Y-53827664D01*
X161206202Y-53827671D01*
X161155908Y-53962517D01*
X161149501Y-54022116D01*
X161149501Y-54022123D01*
X161149500Y-54022135D01*
X140512684Y-54022135D01*
X140501046Y-52625532D01*
X140520172Y-52558332D01*
X140572592Y-52512139D01*
X140625042Y-52500500D01*
X180375500Y-52500500D01*
X180442539Y-52520185D01*
G37*
%TD.AperFunction*%
%TD*%
M02*
