%TF.GenerationSoftware,KiCad,Pcbnew,9.0.7*%
%TF.CreationDate,2026-07-10T19:39:02+01:00*%
%TF.ProjectId,rocket flight computer v1.0,726f636b-6574-4206-966c-696768742063,rev?*%
%TF.SameCoordinates,Original*%
%TF.FileFunction,Copper,L1,Top*%
%TF.FilePolarity,Positive*%
%FSLAX46Y46*%
G04 Gerber Fmt 4.6, Leading zero omitted, Abs format (unit mm)*
G04 Created by KiCad (PCBNEW 9.0.7) date 2026-07-10 19:39:02*
%MOMM*%
%LPD*%
G01*
G04 APERTURE LIST*
G04 Aperture macros list*
%AMRoundRect*
0 Rectangle with rounded corners*
0 $1 Rounding radius*
0 $2 $3 $4 $5 $6 $7 $8 $9 X,Y pos of 4 corners*
0 Add a 4 corners polygon primitive as box body*
4,1,4,$2,$3,$4,$5,$6,$7,$8,$9,$2,$3,0*
0 Add four circle primitives for the rounded corners*
1,1,$1+$1,$2,$3*
1,1,$1+$1,$4,$5*
1,1,$1+$1,$6,$7*
1,1,$1+$1,$8,$9*
0 Add four rect primitives between the rounded corners*
20,1,$1+$1,$2,$3,$4,$5,0*
20,1,$1+$1,$4,$5,$6,$7,0*
20,1,$1+$1,$6,$7,$8,$9,0*
20,1,$1+$1,$8,$9,$2,$3,0*%
G04 Aperture macros list end*
%TA.AperFunction,ComponentPad*%
%ADD10R,1.700000X1.700000*%
%TD*%
%TA.AperFunction,ComponentPad*%
%ADD11C,1.700000*%
%TD*%
%TA.AperFunction,SMDPad,CuDef*%
%ADD12R,1.900000X1.300000*%
%TD*%
%TA.AperFunction,SMDPad,CuDef*%
%ADD13R,1.200000X1.000000*%
%TD*%
%TA.AperFunction,SMDPad,CuDef*%
%ADD14R,2.800000X1.000000*%
%TD*%
%TA.AperFunction,SMDPad,CuDef*%
%ADD15R,0.800000X1.000000*%
%TD*%
%TA.AperFunction,SMDPad,CuDef*%
%ADD16R,1.200000X0.700000*%
%TD*%
%TA.AperFunction,SMDPad,CuDef*%
%ADD17RoundRect,0.250000X0.850000X-0.350000X0.850000X0.350000X-0.850000X0.350000X-0.850000X-0.350000X0*%
%TD*%
%TA.AperFunction,SMDPad,CuDef*%
%ADD18RoundRect,0.135000X-0.135000X-0.185000X0.135000X-0.185000X0.135000X0.185000X-0.135000X0.185000X0*%
%TD*%
%TA.AperFunction,SMDPad,CuDef*%
%ADD19RoundRect,0.135000X0.185000X-0.135000X0.185000X0.135000X-0.185000X0.135000X-0.185000X-0.135000X0*%
%TD*%
%TA.AperFunction,SMDPad,CuDef*%
%ADD20RoundRect,0.140000X0.140000X0.170000X-0.140000X0.170000X-0.140000X-0.170000X0.140000X-0.170000X0*%
%TD*%
%TA.AperFunction,ComponentPad*%
%ADD21O,1.200000X1.750000*%
%TD*%
%TA.AperFunction,ComponentPad*%
%ADD22RoundRect,0.250000X-0.350000X-0.625000X0.350000X-0.625000X0.350000X0.625000X-0.350000X0.625000X0*%
%TD*%
%TA.AperFunction,SMDPad,CuDef*%
%ADD23RoundRect,0.147500X-0.147500X-0.172500X0.147500X-0.172500X0.147500X0.172500X-0.147500X0.172500X0*%
%TD*%
%TA.AperFunction,SMDPad,CuDef*%
%ADD24RoundRect,0.375000X-0.625000X-0.375000X0.625000X-0.375000X0.625000X0.375000X-0.625000X0.375000X0*%
%TD*%
%TA.AperFunction,SMDPad,CuDef*%
%ADD25RoundRect,0.500000X-0.500000X-1.400000X0.500000X-1.400000X0.500000X1.400000X-0.500000X1.400000X0*%
%TD*%
%TA.AperFunction,SMDPad,CuDef*%
%ADD26RoundRect,0.140000X-0.170000X0.140000X-0.170000X-0.140000X0.170000X-0.140000X0.170000X0.140000X0*%
%TD*%
%TA.AperFunction,SMDPad,CuDef*%
%ADD27RoundRect,0.150000X0.150000X0.400000X-0.150000X0.400000X-0.150000X-0.400000X0.150000X-0.400000X0*%
%TD*%
%TA.AperFunction,SMDPad,CuDef*%
%ADD28RoundRect,0.135000X-0.185000X0.135000X-0.185000X-0.135000X0.185000X-0.135000X0.185000X0.135000X0*%
%TD*%
%TA.AperFunction,SMDPad,CuDef*%
%ADD29RoundRect,0.140000X0.170000X-0.140000X0.170000X0.140000X-0.170000X0.140000X-0.170000X-0.140000X0*%
%TD*%
%TA.AperFunction,SMDPad,CuDef*%
%ADD30RoundRect,0.140000X-0.140000X-0.170000X0.140000X-0.170000X0.140000X0.170000X-0.140000X0.170000X0*%
%TD*%
%TA.AperFunction,SMDPad,CuDef*%
%ADD31RoundRect,0.250000X-0.475000X0.250000X-0.475000X-0.250000X0.475000X-0.250000X0.475000X0.250000X0*%
%TD*%
%TA.AperFunction,SMDPad,CuDef*%
%ADD32RoundRect,0.250000X0.475000X-0.250000X0.475000X0.250000X-0.475000X0.250000X-0.475000X-0.250000X0*%
%TD*%
%TA.AperFunction,HeatsinkPad*%
%ADD33C,0.500000*%
%TD*%
%TA.AperFunction,HeatsinkPad*%
%ADD34R,2.410000X3.300000*%
%TD*%
%TA.AperFunction,SMDPad,CuDef*%
%ADD35RoundRect,0.150000X-0.825000X-0.150000X0.825000X-0.150000X0.825000X0.150000X-0.825000X0.150000X0*%
%TD*%
%TA.AperFunction,HeatsinkPad*%
%ADD36O,1.600000X1.000000*%
%TD*%
%TA.AperFunction,HeatsinkPad*%
%ADD37O,2.100000X1.000000*%
%TD*%
%TA.AperFunction,SMDPad,CuDef*%
%ADD38R,1.450000X0.600000*%
%TD*%
%TA.AperFunction,SMDPad,CuDef*%
%ADD39R,1.450000X0.300000*%
%TD*%
%TA.AperFunction,SMDPad,CuDef*%
%ADD40RoundRect,0.250000X0.250000X0.475000X-0.250000X0.475000X-0.250000X-0.475000X0.250000X-0.475000X0*%
%TD*%
%TA.AperFunction,SMDPad,CuDef*%
%ADD41R,1.500000X0.700000*%
%TD*%
%TA.AperFunction,SMDPad,CuDef*%
%ADD42R,0.350000X0.500000*%
%TD*%
%TA.AperFunction,HeatsinkPad*%
%ADD43R,3.700000X3.700000*%
%TD*%
%TA.AperFunction,SMDPad,CuDef*%
%ADD44RoundRect,0.062500X-0.062500X-0.337500X0.062500X-0.337500X0.062500X0.337500X-0.062500X0.337500X0*%
%TD*%
%TA.AperFunction,SMDPad,CuDef*%
%ADD45RoundRect,0.062500X-0.337500X-0.062500X0.337500X-0.062500X0.337500X0.062500X-0.337500X0.062500X0*%
%TD*%
%TA.AperFunction,SMDPad,CuDef*%
%ADD46RoundRect,0.075000X0.075000X-0.350000X0.075000X0.350000X-0.075000X0.350000X-0.075000X-0.350000X0*%
%TD*%
%TA.AperFunction,SMDPad,CuDef*%
%ADD47RoundRect,0.075000X-0.350000X-0.075000X0.350000X-0.075000X0.350000X0.075000X-0.350000X0.075000X0*%
%TD*%
%TA.AperFunction,SMDPad,CuDef*%
%ADD48RoundRect,0.250000X-0.250000X-0.475000X0.250000X-0.475000X0.250000X0.475000X-0.250000X0.475000X0*%
%TD*%
%TA.AperFunction,SMDPad,CuDef*%
%ADD49RoundRect,0.150000X-0.512500X-0.150000X0.512500X-0.150000X0.512500X0.150000X-0.512500X0.150000X0*%
%TD*%
%TA.AperFunction,SMDPad,CuDef*%
%ADD50R,2.200000X2.200000*%
%TD*%
%TA.AperFunction,ViaPad*%
%ADD51C,0.500000*%
%TD*%
%TA.AperFunction,ViaPad*%
%ADD52C,0.300000*%
%TD*%
%TA.AperFunction,ViaPad*%
%ADD53C,0.450000*%
%TD*%
%TA.AperFunction,Conductor*%
%ADD54C,0.100000*%
%TD*%
G04 APERTURE END LIST*
D10*
%TO.P,J4,1,Pin_1*%
%TO.N,+3.3V*%
X162500000Y-54920000D03*
D11*
%TO.P,J4,2,Pin_2*%
%TO.N,GND*%
X162500000Y-57460000D03*
%TO.P,J4,3,Pin_3*%
%TO.N,Net-(J4-Pin_3)*%
X162500000Y-60000000D03*
%TO.P,J4,4,Pin_4*%
%TO.N,Net-(J4-Pin_4)*%
X162500000Y-62540000D03*
%TD*%
D12*
%TO.P,J3,11*%
%TO.N,N/C*%
X143125000Y-67675000D03*
D13*
X158225000Y-65325000D03*
D14*
X143575000Y-54175000D03*
D13*
X153925000Y-54175000D03*
D15*
%TO.P,J3,10*%
X147725000Y-54175000D03*
D16*
%TO.P,J3,9,SHIELD*%
%TO.N,GND*%
X158225000Y-55125000D03*
%TO.P,J3,8,DAT1*%
%TO.N,unconnected-(J3-DAT1-Pad8)*%
X158225000Y-56075000D03*
%TO.P,J3,7,DAT0*%
%TO.N,Net-(J3-DAT0)*%
X158225000Y-57175000D03*
%TO.P,J3,6,VSS*%
%TO.N,GND*%
X158225000Y-58275000D03*
%TO.P,J3,5,CLK*%
%TO.N,Net-(J3-CLK)*%
X158225000Y-59375000D03*
%TO.P,J3,4,VDD*%
%TO.N,+3.3V*%
X158225000Y-60475000D03*
%TO.P,J3,3,CMD*%
%TO.N,Net-(J3-CMD)*%
X158225000Y-61575000D03*
%TO.P,J3,2,DAT3/CD*%
%TO.N,Net-(J3-DAT3{slash}CD)*%
X158225000Y-62675000D03*
%TO.P,J3,1,DAT2*%
%TO.N,unconnected-(J3-DAT2-Pad1)*%
X158225000Y-63775000D03*
%TD*%
D17*
%TO.P,AE1,1,A*%
%TO.N,Net-(AE1-A)*%
X147000000Y-85500000D03*
%TO.P,AE1,2*%
%TO.N,N/C*%
X147000000Y-79800000D03*
%TD*%
D18*
%TO.P,R7,2*%
%TO.N,GND*%
X171520000Y-87000000D03*
%TO.P,R7,1*%
%TO.N,Net-(U5-PROG)*%
X170500000Y-87000000D03*
%TD*%
D19*
%TO.P,R10,2*%
%TO.N,Net-(J3-DAT0)*%
X159000000Y-81500000D03*
%TO.P,R10,1*%
%TO.N,+3.3V*%
X159000000Y-82520000D03*
%TD*%
D20*
%TO.P,C2,2*%
%TO.N,GND*%
X150540000Y-82500000D03*
%TO.P,C2,1*%
%TO.N,+3.3V*%
X151500000Y-82500000D03*
%TD*%
D21*
%TO.P,J2,2,Pin_2*%
%TO.N,GND*%
X177000000Y-55500000D03*
D22*
%TO.P,J2,1,Pin_1*%
%TO.N,Net-(J2-Pin_1)*%
X175000000Y-55500000D03*
%TD*%
D23*
%TO.P,L1,2,2*%
%TO.N,Net-(U4-LNA_IN)*%
X157500000Y-81000000D03*
%TO.P,L1,1,1*%
%TO.N,Net-(AE1-A)*%
X156530000Y-81000000D03*
%TD*%
D24*
%TO.P,U3,3,VI*%
%TO.N,Net-(SW1-B)*%
X154700000Y-75300000D03*
D25*
%TO.P,U3,2,VO*%
%TO.N,+3.3V*%
X161000000Y-73000000D03*
D24*
X154700000Y-73000000D03*
%TO.P,U3,1,GND*%
%TO.N,GND*%
X154700000Y-70700000D03*
%TD*%
D19*
%TO.P,R8,2*%
%TO.N,+3.3V*%
X155990000Y-92510000D03*
%TO.P,R8,1*%
%TO.N,Net-(U1-SCL)*%
X155990000Y-93530000D03*
%TD*%
D26*
%TO.P,C19,2*%
%TO.N,Net-(AE1-A)*%
X165000000Y-95480000D03*
%TO.P,C19,1*%
%TO.N,GND*%
X165000000Y-94520000D03*
%TD*%
D27*
%TO.P,Y1,2,2*%
%TO.N,Net-(U4-XTAL_P)*%
X160100000Y-92500000D03*
%TO.P,Y1,1,1*%
%TO.N,Net-(J5-Pin_3)*%
X161500000Y-92500000D03*
%TD*%
D28*
%TO.P,R6,2*%
%TO.N,GND*%
X166010000Y-91510000D03*
%TO.P,R6,1*%
%TO.N,Net-(J1-CC2)*%
X166010000Y-90490000D03*
%TD*%
D29*
%TO.P,C10,2*%
%TO.N,+3.3V*%
X148500000Y-87520000D03*
%TO.P,C10,1*%
%TO.N,GND*%
X148500000Y-88480000D03*
%TD*%
D30*
%TO.P,C11,2*%
%TO.N,Net-(U4-VDD_SPI)*%
X157500000Y-82000000D03*
%TO.P,C11,1*%
%TO.N,GND*%
X156540000Y-82000000D03*
%TD*%
D29*
%TO.P,C9,2*%
%TO.N,+3.3V*%
X149500000Y-87520000D03*
%TO.P,C9,1*%
%TO.N,GND*%
X149500000Y-88480000D03*
%TD*%
D31*
%TO.P,C16,2*%
%TO.N,Net-(SW1-B)*%
X153500000Y-84000000D03*
%TO.P,C16,1*%
%TO.N,GND*%
X153500000Y-82100000D03*
%TD*%
D32*
%TO.P,C15,2*%
%TO.N,GND*%
X154000000Y-78550000D03*
%TO.P,C15,1*%
%TO.N,+3.3V*%
X154000000Y-80450000D03*
%TD*%
D26*
%TO.P,C4,2*%
%TO.N,GND*%
X147000000Y-93480000D03*
%TO.P,C4,1*%
%TO.N,+3.3V*%
X147000000Y-92520000D03*
%TD*%
D30*
%TO.P,C6,2*%
%TO.N,Net-(U1-CPOUT)*%
X160980000Y-77500000D03*
%TO.P,C6,1*%
%TO.N,GND*%
X160020000Y-77500000D03*
%TD*%
D26*
%TO.P,C14,2*%
%TO.N,Net-(J5-Pin_3)*%
X160060000Y-95460000D03*
%TO.P,C14,1*%
%TO.N,GND*%
X160060000Y-94500000D03*
%TD*%
D28*
%TO.P,R1,2*%
%TO.N,+3.3V*%
X154490000Y-93520000D03*
%TO.P,R1,1*%
%TO.N,Net-(U4-CHIP_EN)*%
X154490000Y-92500000D03*
%TD*%
D29*
%TO.P,C8,2*%
%TO.N,+3.3V*%
X152500000Y-87540000D03*
%TO.P,C8,1*%
%TO.N,GND*%
X152500000Y-88500000D03*
%TD*%
%TO.P,C3,2*%
%TO.N,+3.3V*%
X150500000Y-87560000D03*
%TO.P,C3,1*%
%TO.N,GND*%
X150500000Y-88520000D03*
%TD*%
D33*
%TO.P,U5,9,EPAD*%
%TO.N,GND*%
X146700000Y-74200000D03*
X146700000Y-73000000D03*
X146700000Y-71800000D03*
D34*
X146000000Y-73000000D03*
D33*
X145300000Y-74200000D03*
X145300000Y-73000000D03*
X145300000Y-71800000D03*
D35*
%TO.P,U5,8,CE*%
%TO.N,VBUS*%
X148475000Y-71095000D03*
%TO.P,U5,7,~{CHRG}*%
%TO.N,unconnected-(U5-~{CHRG}-Pad7)*%
X148475000Y-72365000D03*
%TO.P,U5,6,~{STDBY}*%
%TO.N,unconnected-(U5-~{STDBY}-Pad6)*%
X148475000Y-73635000D03*
%TO.P,U5,5,BAT*%
%TO.N,Net-(J2-Pin_1)*%
X148475000Y-74905000D03*
%TO.P,U5,4,V_{CC}*%
%TO.N,VBUS*%
X143525000Y-74905000D03*
%TO.P,U5,3,GND*%
%TO.N,GND*%
X143525000Y-73635000D03*
%TO.P,U5,2,PROG*%
%TO.N,Net-(U5-PROG)*%
X143525000Y-72365000D03*
%TO.P,U5,1,TEMP*%
%TO.N,GND*%
X143525000Y-71095000D03*
%TD*%
D30*
%TO.P,C1,2*%
%TO.N,+3.3V*%
X151480000Y-80500000D03*
%TO.P,C1,1*%
%TO.N,GND*%
X150520000Y-80500000D03*
%TD*%
D36*
%TO.P,J1,S1,SHIELD*%
%TO.N,GND*%
X177000000Y-71500000D03*
D37*
X172820000Y-71500000D03*
D36*
X177000000Y-80140000D03*
D37*
X172820000Y-80140000D03*
D38*
%TO.P,J1,B12,GND*%
X171905000Y-79070000D03*
%TO.P,J1,B9,VBUS*%
%TO.N,VBUS*%
X171905000Y-78270000D03*
D39*
%TO.P,J1,B8,SBU2*%
%TO.N,unconnected-(J1-SBU2-PadB8)*%
X171905000Y-77570000D03*
%TO.P,J1,B7,D-*%
%TO.N,Net-(U4-GPIO18)*%
X171905000Y-76570000D03*
%TO.P,J1,B6,D+*%
%TO.N,Net-(U4-GPIO19)*%
X171905000Y-75070000D03*
%TO.P,J1,B5,CC2*%
%TO.N,Net-(J1-CC2)*%
X171905000Y-74070000D03*
D38*
%TO.P,J1,B4,VBUS*%
%TO.N,VBUS*%
X171905000Y-73370000D03*
%TO.P,J1,B1,GND*%
%TO.N,GND*%
X171905000Y-72570000D03*
%TO.P,J1,A12,GND*%
X171905000Y-72570000D03*
%TO.P,J1,A9,VBUS*%
%TO.N,VBUS*%
X171905000Y-73370000D03*
D39*
%TO.P,J1,A8,SBU1*%
%TO.N,unconnected-(J1-SBU1-PadA8)*%
X171905000Y-74570000D03*
%TO.P,J1,A7,D-*%
%TO.N,Net-(U4-GPIO18)*%
X171905000Y-75570000D03*
%TO.P,J1,A6,D+*%
%TO.N,Net-(U4-GPIO19)*%
X171905000Y-76070000D03*
%TO.P,J1,A5,CC1*%
%TO.N,Net-(J1-CC1)*%
X171905000Y-77070000D03*
D38*
%TO.P,J1,A4,VBUS*%
%TO.N,VBUS*%
X171905000Y-78270000D03*
%TO.P,J1,A1,GND*%
%TO.N,GND*%
X171905000Y-79070000D03*
%TD*%
D40*
%TO.P,C18,2*%
%TO.N,+3.3V*%
X142600000Y-93000000D03*
%TO.P,C18,1*%
%TO.N,GND*%
X144500000Y-93000000D03*
%TD*%
D26*
%TO.P,C13,2*%
%TO.N,GND*%
X162030000Y-95460000D03*
%TO.P,C13,1*%
%TO.N,Net-(U4-XTAL_P)*%
X162030000Y-94500000D03*
%TD*%
D41*
%TO.P,SW1,3,C*%
%TO.N,unconnected-(SW1-C-Pad3)*%
X175740000Y-62750000D03*
%TO.P,SW1,2,B*%
%TO.N,Net-(SW1-B)*%
X175740000Y-64250000D03*
%TO.P,SW1,1,A*%
%TO.N,Net-(J2-Pin_1)*%
X175740000Y-67250000D03*
D15*
%TO.P,SW1,*%
%TO.N,*%
X178600000Y-61350000D03*
X176390000Y-61350000D03*
X178600000Y-68650000D03*
X176390000Y-68650000D03*
%TD*%
D19*
%TO.P,R9,2*%
%TO.N,Net-(U1-SDA)*%
X157980000Y-92510000D03*
%TO.P,R9,1*%
%TO.N,+3.3V*%
X157980000Y-93530000D03*
%TD*%
%TO.P,R4,2*%
%TO.N,Net-(U4-GPIO9)*%
X164000000Y-91490000D03*
%TO.P,R4,1*%
%TO.N,+3.3V*%
X164000000Y-92510000D03*
%TD*%
D42*
%TO.P,U2,8,VDD*%
%TO.N,+3.3V*%
X165500000Y-87900000D03*
%TO.P,U2,7,GND*%
%TO.N,GND*%
X164850000Y-87900000D03*
%TO.P,U2,6,VDDIO*%
%TO.N,+3.3V*%
X164200000Y-87900000D03*
%TO.P,U2,5,SDO*%
%TO.N,GND*%
X163550000Y-87900000D03*
%TO.P,U2,4,SCK*%
%TO.N,Net-(U1-SCL)*%
X163550000Y-89500000D03*
%TO.P,U2,3,SDI*%
%TO.N,Net-(U1-SDA)*%
X164200000Y-89500000D03*
%TO.P,U2,2,CSB*%
%TO.N,+3.3V*%
X164850000Y-89500000D03*
%TO.P,U2,1,GND*%
%TO.N,GND*%
X165500000Y-89500000D03*
%TD*%
D30*
%TO.P,C12,2*%
%TO.N,GND*%
X150500000Y-95000000D03*
%TO.P,C12,1*%
%TO.N,+3.3V*%
X149540000Y-95000000D03*
%TD*%
D28*
%TO.P,R5,2*%
%TO.N,GND*%
X168000000Y-91510000D03*
%TO.P,R5,1*%
%TO.N,Net-(J1-CC1)*%
X168000000Y-90490000D03*
%TD*%
D26*
%TO.P,C20,2*%
%TO.N,GND*%
X163030000Y-95480000D03*
%TO.P,C20,1*%
%TO.N,Net-(U4-LNA_IN)*%
X163030000Y-94520000D03*
%TD*%
D29*
%TO.P,C7,2*%
%TO.N,+3.3V*%
X151500000Y-87520000D03*
%TO.P,C7,1*%
%TO.N,GND*%
X151500000Y-88480000D03*
%TD*%
D28*
%TO.P,R2,2*%
%TO.N,Net-(U4-GPIO2)*%
X152500000Y-93520000D03*
%TO.P,R2,1*%
%TO.N,+3.3V*%
X152500000Y-92500000D03*
%TD*%
D19*
%TO.P,R3,2*%
%TO.N,Net-(U4-GPIO8)*%
X165500000Y-92500000D03*
%TO.P,R3,1*%
%TO.N,+3.3V*%
X165500000Y-93520000D03*
%TD*%
D43*
%TO.P,U4,33,GND*%
%TO.N,GND*%
X157500000Y-87500000D03*
D44*
%TO.P,U4,32,VDDA*%
%TO.N,+3.3V*%
X155750000Y-85050000D03*
%TO.P,U4,31,VDDA*%
X156250000Y-85050000D03*
%TO.P,U4,30,XTAL_P*%
%TO.N,Net-(U4-XTAL_P)*%
X156750000Y-85050000D03*
%TO.P,U4,29,XTAL_N*%
%TO.N,Net-(J5-Pin_3)*%
X157250000Y-85050000D03*
%TO.P,U4,28,U0TXD*%
%TO.N,Net-(J4-Pin_4)*%
X157750000Y-85050000D03*
%TO.P,U4,27,U0RXD*%
%TO.N,Net-(J4-Pin_3)*%
X158250000Y-85050000D03*
%TO.P,U4,26,GPIO19*%
%TO.N,Net-(U4-GPIO19)*%
X158750000Y-85050000D03*
%TO.P,U4,25,GPIO18*%
%TO.N,Net-(U4-GPIO18)*%
X159250000Y-85050000D03*
D45*
%TO.P,U4,24,SPIQ*%
%TO.N,unconnected-(U4-SPIQ-Pad24)*%
X159950000Y-85750000D03*
%TO.P,U4,23,SPID*%
%TO.N,unconnected-(U4-SPID-Pad23)*%
X159950000Y-86250000D03*
%TO.P,U4,22,SPICLK*%
%TO.N,unconnected-(U4-SPICLK-Pad22)*%
X159950000Y-86750000D03*
%TO.P,U4,21,SPICS0*%
%TO.N,unconnected-(U4-SPICS0-Pad21)*%
X159950000Y-87250000D03*
%TO.P,U4,20,SPIWP*%
%TO.N,unconnected-(U4-SPIWP-Pad20)*%
X159950000Y-87750000D03*
%TO.P,U4,19,SPIHD*%
%TO.N,unconnected-(U4-SPIHD-Pad19)*%
X159950000Y-88250000D03*
%TO.P,U4,18,VDD_SPI*%
%TO.N,Net-(U4-VDD_SPI)*%
X159950000Y-88750000D03*
%TO.P,U4,17,VDD3P3_CPU*%
%TO.N,+3.3V*%
X159950000Y-89250000D03*
D44*
%TO.P,U4,16,GPIO10*%
%TO.N,Net-(J3-DAT3{slash}CD)*%
X159250000Y-89950000D03*
%TO.P,U4,15,GPIO9*%
%TO.N,Net-(U4-GPIO9)*%
X158750000Y-89950000D03*
%TO.P,U4,14,GPIO8*%
%TO.N,Net-(U4-GPIO8)*%
X158250000Y-89950000D03*
%TO.P,U4,13,MTDO*%
%TO.N,Net-(J3-CMD)*%
X157750000Y-89950000D03*
%TO.P,U4,12,MTCK*%
%TO.N,Net-(J3-CLK)*%
X157250000Y-89950000D03*
%TO.P,U4,11,VDD3P3_RTC*%
%TO.N,+3.3V*%
X156750000Y-89950000D03*
%TO.P,U4,10,MTDI*%
%TO.N,Net-(U1-SCL)*%
X156250000Y-89950000D03*
%TO.P,U4,9,MTMS*%
%TO.N,Net-(U1-SDA)*%
X155750000Y-89950000D03*
D45*
%TO.P,U4,8,GPIO3*%
%TO.N,Net-(J3-DAT0)*%
X155050000Y-89250000D03*
%TO.P,U4,7,CHIP_EN*%
%TO.N,Net-(U4-CHIP_EN)*%
X155050000Y-88750000D03*
%TO.P,U4,6,GPIO2*%
%TO.N,Net-(U4-GPIO2)*%
X155050000Y-88250000D03*
%TO.P,U4,5,XTAL_32K_N*%
%TO.N,Net-(J5-Pin_3)*%
X155050000Y-87750000D03*
%TO.P,U4,4,XTAL_32K_P*%
%TO.N,Net-(BZ1--)*%
X155050000Y-87250000D03*
%TO.P,U4,3,VDD3P3*%
%TO.N,+3.3V*%
X155050000Y-86750000D03*
%TO.P,U4,2,VDD3P3*%
X155050000Y-86250000D03*
%TO.P,U4,1,LNA_IN*%
%TO.N,Net-(U4-LNA_IN)*%
X155050000Y-85750000D03*
%TD*%
D29*
%TO.P,C5,2*%
%TO.N,GND*%
X148500000Y-93000000D03*
%TO.P,C5,1*%
%TO.N,Net-(U1-REGOUT)*%
X148500000Y-93960000D03*
%TD*%
D46*
%TO.P,U1,24,SDA*%
%TO.N,Net-(U1-SDA)*%
X164800000Y-81300000D03*
%TO.P,U1,23,SCL*%
%TO.N,Net-(U1-SCL)*%
X165300000Y-81300000D03*
%TO.P,U1,22,RESV*%
%TO.N,unconnected-(U1-RESV-Pad22)*%
X165800000Y-81300000D03*
%TO.P,U1,21,RESV*%
%TO.N,unconnected-(U1-RESV-Pad21)*%
X166300000Y-81300000D03*
%TO.P,U1,20,CPOUT*%
%TO.N,Net-(U1-CPOUT)*%
X166800000Y-81300000D03*
%TO.P,U1,19,RESV*%
%TO.N,unconnected-(U1-RESV-Pad19)*%
X167300000Y-81300000D03*
D47*
%TO.P,U1,18,GND*%
%TO.N,GND*%
X168000000Y-82000000D03*
%TO.P,U1,17,NC*%
%TO.N,unconnected-(U1-NC-Pad17)*%
X168000000Y-82500000D03*
%TO.P,U1,16,NC*%
%TO.N,unconnected-(U1-NC-Pad16)*%
X168000000Y-83000000D03*
%TO.P,U1,15,NC*%
%TO.N,unconnected-(U1-NC-Pad15)*%
X168000000Y-83500000D03*
%TO.P,U1,14,NC*%
%TO.N,unconnected-(U1-NC-Pad14)*%
X168000000Y-84000000D03*
%TO.P,U1,13,VDD*%
%TO.N,+3.3V*%
X168000000Y-84500000D03*
D46*
%TO.P,U1,12,INT*%
%TO.N,unconnected-(U1-INT-Pad12)*%
X167300000Y-85200000D03*
%TO.P,U1,11,FSYNC*%
%TO.N,GND*%
X166800000Y-85200000D03*
%TO.P,U1,10,REGOUT*%
%TO.N,Net-(U1-REGOUT)*%
X166300000Y-85200000D03*
%TO.P,U1,9,AD0*%
%TO.N,GND*%
X165800000Y-85200000D03*
%TO.P,U1,8,VLOGIC*%
%TO.N,+3.3V*%
X165300000Y-85200000D03*
%TO.P,U1,7,AUX_CL*%
%TO.N,unconnected-(U1-AUX_CL-Pad7)*%
X164800000Y-85200000D03*
D47*
%TO.P,U1,6,AUX_DA*%
%TO.N,unconnected-(U1-AUX_DA-Pad6)*%
X164100000Y-84500000D03*
%TO.P,U1,5,NC*%
%TO.N,unconnected-(U1-NC-Pad5)*%
X164100000Y-84000000D03*
%TO.P,U1,4,NC*%
%TO.N,unconnected-(U1-NC-Pad4)*%
X164100000Y-83500000D03*
%TO.P,U1,3,NC*%
%TO.N,unconnected-(U1-NC-Pad3)*%
X164100000Y-83000000D03*
%TO.P,U1,2,NC*%
%TO.N,unconnected-(U1-NC-Pad2)*%
X164100000Y-82500000D03*
%TO.P,U1,1,CLKIN*%
%TO.N,GND*%
X164100000Y-82000000D03*
%TD*%
D19*
%TO.P,R11,2*%
%TO.N,Net-(J3-DAT3{slash}CD)*%
X162500000Y-77500000D03*
%TO.P,R11,1*%
%TO.N,+3.3V*%
X162500000Y-78520000D03*
%TD*%
D48*
%TO.P,C17,2*%
%TO.N,GND*%
X144500000Y-90000000D03*
%TO.P,C17,1*%
%TO.N,+3.3V*%
X142600000Y-90000000D03*
%TD*%
D49*
%TO.P,U6,1,SW*%
%TO.N,+5V*%
X169225000Y-66600000D03*
%TO.P,U6,2,GND*%
%TO.N,GND*%
X169225000Y-67550000D03*
%TO.P,U6,3,EN*%
%TO.N,Net-(SW1-B)*%
X169225000Y-68500000D03*
%TO.P,U6,4,V_{FB}*%
%TO.N,Net-(U6-V_{FB})*%
X171500000Y-68500000D03*
%TO.P,U6,5,V_{OUT}*%
%TO.N,+5V*%
X171500000Y-67550000D03*
%TO.P,U6,6,V_{IN}*%
%TO.N,Net-(SW1-B)*%
X171500000Y-66600000D03*
%TD*%
D18*
%TO.P,R12,1*%
%TO.N,+3.3V*%
X170490000Y-85500000D03*
%TO.P,R12,2*%
%TO.N,Net-(D1-K)*%
X171510000Y-85500000D03*
%TD*%
D23*
%TO.P,L2,1,1*%
%TO.N,Net-(SW1-B)*%
X168035000Y-110270000D03*
%TO.P,L2,2,2*%
%TO.N,+5V*%
X169005000Y-110270000D03*
%TD*%
D18*
%TO.P,R14,1*%
%TO.N,Net-(U6-V_{FB})*%
X170490000Y-84000000D03*
%TO.P,R14,2*%
%TO.N,GND*%
X171510000Y-84000000D03*
%TD*%
D10*
%TO.P,J5,1,Pin_1*%
%TO.N,GND*%
X174500000Y-85960000D03*
D11*
%TO.P,J5,2,Pin_2*%
%TO.N,+5V*%
X174500000Y-88500000D03*
%TO.P,J5,3,Pin_3*%
%TO.N,Net-(J5-Pin_3)*%
X174500000Y-91040000D03*
%TD*%
D48*
%TO.P,C23,1*%
%TO.N,+5V*%
X173550000Y-98510000D03*
%TO.P,C23,2*%
%TO.N,GND*%
X175450000Y-98510000D03*
%TD*%
%TO.P,C22,1*%
%TO.N,+5V*%
X173550000Y-95500000D03*
%TO.P,C22,2*%
%TO.N,GND*%
X175450000Y-95500000D03*
%TD*%
%TO.P,C21,1*%
%TO.N,GND*%
X163890000Y-110780000D03*
%TO.P,C21,2*%
%TO.N,Net-(SW1-B)*%
X165790000Y-110780000D03*
%TD*%
D50*
%TO.P,BZ1,1,+*%
%TO.N,+3.3V*%
X159900000Y-104000000D03*
%TO.P,BZ1,2,-*%
%TO.N,Net-(BZ1--)*%
X173100000Y-104000000D03*
%TD*%
D23*
%TO.P,D1,1,K*%
%TO.N,Net-(D1-K)*%
X170030000Y-62500000D03*
%TO.P,D1,2,A*%
%TO.N,GND*%
X171000000Y-62500000D03*
%TD*%
D18*
%TO.P,R13,1*%
%TO.N,+5V*%
X170490000Y-82500000D03*
%TO.P,R13,2*%
%TO.N,Net-(U6-V_{FB})*%
X171510000Y-82500000D03*
%TD*%
D51*
%TO.N,Net-(AE1-A)*%
X151100000Y-81400000D03*
X158200000Y-80900000D03*
X162200000Y-92600000D03*
X160500000Y-84900000D03*
%TO.N,Net-(U6-V_{FB})*%
X170700000Y-83300000D03*
X171500000Y-82500000D03*
X172400000Y-82400000D03*
%TO.N,Net-(J2-Pin_1)*%
X175800000Y-65300000D03*
X175800000Y-67099999D03*
%TO.N,Net-(SW1-B)*%
X164600000Y-69000000D03*
X156400000Y-73600000D03*
X154700000Y-77300000D03*
X155300000Y-77900000D03*
%TO.N,+5V*%
X169700000Y-66800000D03*
X170600000Y-67300000D03*
X170500000Y-82500000D03*
X172200000Y-83000000D03*
X175200000Y-92200000D03*
%TO.N,VBUS*%
X173300000Y-76100000D03*
X173300000Y-74900000D03*
X142700000Y-74400000D03*
X141900000Y-74400000D03*
X169500000Y-71200000D03*
X169300000Y-70300000D03*
X158900000Y-68200000D03*
X156500000Y-68200000D03*
%TO.N,Net-(U4-XTAL_P)*%
X153700000Y-87700000D03*
X154100000Y-90300000D03*
%TO.N,Net-(U4-GPIO19)*%
X158700000Y-83800000D03*
X164300000Y-78200000D03*
%TO.N,Net-(U4-GPIO18)*%
X159200000Y-84300000D03*
X164800000Y-78700000D03*
%TO.N,+3.3V*%
X153900000Y-81100000D03*
X151600000Y-83400000D03*
X164200000Y-87900000D03*
X170200000Y-85500000D03*
X169000000Y-85500000D03*
X166200000Y-86300000D03*
X165400000Y-86600000D03*
X165500000Y-88200000D03*
X165000000Y-93400000D03*
X147100000Y-92600000D03*
X151100000Y-93400000D03*
X153300000Y-92100000D03*
X160300000Y-102800000D03*
X160900000Y-102200000D03*
X155800000Y-92400000D03*
X152100000Y-87100000D03*
X164000000Y-92400000D03*
X164800000Y-89500000D03*
D52*
X159850000Y-89150000D03*
D53*
X156750000Y-89950000D03*
D51*
X155200000Y-86400000D03*
X155600000Y-85200000D03*
X156500000Y-73000000D03*
X158600000Y-73000000D03*
X160200000Y-83900000D03*
X162400000Y-78400000D03*
X162000000Y-76500000D03*
X162900000Y-71200000D03*
X164300000Y-70000000D03*
%TO.N,GND*%
X169400000Y-67800000D03*
X156400000Y-81800000D03*
X158600000Y-77500000D03*
X156500000Y-77500000D03*
X153200000Y-71500000D03*
X153200000Y-72400000D03*
X152100000Y-84500000D03*
X152500000Y-88700000D03*
X155900000Y-87500000D03*
X159100000Y-87900000D03*
X161400000Y-87900000D03*
X166300000Y-92500000D03*
X166300000Y-93400000D03*
X163900000Y-104400000D03*
X163900000Y-103500000D03*
%TO.N,Net-(U5-PROG)*%
X152400000Y-81400000D03*
X168200000Y-88900000D03*
%TO.N,Net-(J1-CC2)*%
X170900000Y-81000000D03*
X169300000Y-82600000D03*
%TO.N,Net-(U1-SCL)*%
X161500000Y-84000000D03*
X163400000Y-89500000D03*
X156200000Y-93300000D03*
X156227000Y-90200000D03*
%TO.N,Net-(U1-SDA)*%
X158100000Y-92400000D03*
X161400000Y-84700000D03*
X161000000Y-89500000D03*
X155684000Y-89890000D03*
%TO.N,Net-(J3-DAT3{slash}CD)*%
X163600000Y-71200000D03*
X163600000Y-70000000D03*
%TO.N,Net-(J3-CMD)*%
X157500000Y-90800000D03*
X159800000Y-81200000D03*
X158500000Y-71600000D03*
X158500000Y-70300000D03*
%TO.N,Net-(J4-Pin_3)*%
X158200000Y-83400000D03*
X163300000Y-77500000D03*
X165000000Y-71200000D03*
X165000000Y-70000000D03*
%TO.N,Net-(U4-LNA_IN)*%
X157300000Y-81200000D03*
X159900000Y-91500000D03*
X155100000Y-85700000D03*
%TO.N,Net-(J5-Pin_3)*%
X160100000Y-93500000D03*
X153500000Y-86000000D03*
X153000000Y-89600000D03*
X153700000Y-91600000D03*
X160700000Y-91400000D03*
%TO.N,Net-(J3-DAT0)*%
X155100000Y-89300000D03*
X157900000Y-80000000D03*
X156800000Y-79600000D03*
X156500000Y-71300000D03*
X156500000Y-70200000D03*
%TO.N,Net-(U1-REGOUT)*%
X164900000Y-84000000D03*
X154600000Y-82900000D03*
%TO.N,Net-(D1-K)*%
X170000000Y-70300000D03*
X170000000Y-78900000D03*
%TO.N,Net-(J4-Pin_4)*%
X158000000Y-71200000D03*
X158600000Y-69400000D03*
%TO.N,Net-(J3-CLK)*%
X154300000Y-89700000D03*
X153200000Y-88100000D03*
X157100000Y-71200000D03*
X157100000Y-70300000D03*
%TD*%
D54*
%TO.N,Net-(J5-Pin_3)*%
X153000000Y-89600000D02*
X153100000Y-89700000D01*
%TO.N,+3.3V*%
X170200000Y-85500000D02*
X170220000Y-85500000D01*
X165500000Y-88200000D02*
X165500000Y-88150000D01*
X160300000Y-102800000D02*
X160300000Y-102900000D01*
X155600000Y-85200000D02*
X155625000Y-85200000D01*
%TO.N,Net-(AE1-A)*%
X147000000Y-83200000D02*
X147000000Y-85500000D01*
X150300000Y-79900000D02*
X147000000Y-83200000D01*
X150800000Y-79900000D02*
X150300000Y-79900000D01*
X151000000Y-80100000D02*
X150800000Y-79900000D01*
X151000000Y-80900000D02*
X151000000Y-80100000D01*
X151100000Y-81000000D02*
X151000000Y-80900000D01*
X151100000Y-81400000D02*
X151100000Y-81000000D01*
X165000000Y-95400000D02*
X165000000Y-95500000D01*
X162200000Y-92600000D02*
X165000000Y-95400000D01*
X160600000Y-84800000D02*
X160500000Y-84900000D01*
X160600000Y-83300000D02*
X160600000Y-84800000D01*
X159300000Y-82000000D02*
X160600000Y-83300000D01*
X158700000Y-82000000D02*
X159300000Y-82000000D01*
X158400000Y-81700000D02*
X158700000Y-82000000D01*
X158500000Y-81600000D02*
X158400000Y-81700000D01*
X158500000Y-81400000D02*
X158500000Y-81600000D01*
X158400000Y-81300000D02*
X158500000Y-81400000D01*
X158500000Y-81200000D02*
X158400000Y-81300000D01*
X158500000Y-81100000D02*
X158500000Y-81200000D01*
X157800000Y-80400000D02*
X158500000Y-81100000D01*
X157200000Y-80400000D02*
X157800000Y-80400000D01*
X156600000Y-81000000D02*
X157200000Y-80400000D01*
X156500000Y-81000000D02*
X156600000Y-81000000D01*
X156530000Y-81000000D02*
X156500000Y-81000000D01*
%TO.N,Net-(U6-V_{FB})*%
X170500000Y-83500000D02*
X170500000Y-84000000D01*
X170700000Y-83300000D02*
X170500000Y-83500000D01*
X174400000Y-80400000D02*
X172400000Y-82400000D01*
X174400000Y-76300000D02*
X174400000Y-80400000D01*
X174100000Y-76000000D02*
X174400000Y-76300000D01*
X174100000Y-71200000D02*
X174100000Y-76000000D01*
X173400000Y-70500000D02*
X174100000Y-71200000D01*
X173400000Y-70400000D02*
X173400000Y-70500000D01*
X175900000Y-67900000D02*
X173400000Y-70400000D01*
X176600000Y-67900000D02*
X175900000Y-67900000D01*
X176700000Y-67800000D02*
X176600000Y-67900000D01*
X176700000Y-66800000D02*
X176700000Y-67800000D01*
X176600000Y-66700000D02*
X176700000Y-66800000D01*
X175100000Y-66700000D02*
X176600000Y-66700000D01*
X175000000Y-66599999D02*
X175100000Y-66700000D01*
X173100000Y-68500000D02*
X175000000Y-66599999D01*
X171500000Y-68500000D02*
X173100000Y-68500000D01*
%TO.N,Net-(J2-Pin_1)*%
X175000000Y-61200000D02*
X175000000Y-55500000D01*
X175900000Y-62100000D02*
X175000000Y-61200000D01*
X176500000Y-62100000D02*
X175900000Y-62100000D01*
X176700000Y-62300000D02*
X176500000Y-62100000D01*
X176700000Y-64700000D02*
X176700000Y-62300000D01*
X176600000Y-64800000D02*
X176700000Y-64700000D01*
X176300000Y-64800000D02*
X176600000Y-64800000D01*
X175800000Y-65300000D02*
X176300000Y-64800000D01*
X175700000Y-67200000D02*
X175800000Y-67099999D01*
X148500000Y-74900000D02*
X148475000Y-74905000D01*
X148700000Y-74900000D02*
X148500000Y-74900000D01*
X149700000Y-73900000D02*
X148700000Y-74900000D01*
X149700000Y-73700000D02*
X149700000Y-73900000D01*
X151500000Y-71900000D02*
X149700000Y-73700000D01*
X155400000Y-71900000D02*
X151500000Y-71900000D01*
X156000000Y-71300000D02*
X155400000Y-71900000D01*
X156000000Y-71200000D02*
X156000000Y-71300000D01*
X156400000Y-70800000D02*
X156000000Y-71200000D01*
X172100000Y-70800000D02*
X156400000Y-70800000D01*
X175700000Y-67200000D02*
X172100000Y-70800000D01*
X175740000Y-67250000D02*
X175700000Y-67200000D01*
%TO.N,Net-(SW1-B)*%
X168000000Y-110300000D02*
X168035000Y-110270000D01*
X166200000Y-112100000D02*
X168000000Y-110300000D01*
X164900000Y-112100000D02*
X166200000Y-112100000D01*
X164600000Y-111800000D02*
X164900000Y-112100000D01*
X163500000Y-111800000D02*
X164600000Y-111800000D01*
X163200000Y-111500000D02*
X163500000Y-111800000D01*
X163200000Y-111400000D02*
X163200000Y-111500000D01*
X162500000Y-110700000D02*
X163200000Y-111400000D01*
X163300000Y-109900000D02*
X162500000Y-110700000D01*
X175700000Y-64200000D02*
X175740000Y-64250000D01*
X171500000Y-64200000D02*
X175700000Y-64200000D01*
X171500000Y-62100000D02*
X171500000Y-66599999D01*
X171100000Y-61700000D02*
X171500000Y-62100000D01*
X169700000Y-61700000D02*
X171100000Y-61700000D01*
X167200000Y-64200000D02*
X169700000Y-61700000D01*
X167200000Y-68500000D02*
X167200000Y-64200000D01*
X169200000Y-68500000D02*
X169225000Y-68500000D01*
X165100000Y-68500000D02*
X169200000Y-68500000D01*
X164600000Y-69000000D02*
X165100000Y-68500000D01*
X154700000Y-75300000D02*
X156400000Y-73600000D01*
X154700000Y-77300000D02*
X154700000Y-75300000D01*
X155100000Y-78100000D02*
X155300000Y-77900000D01*
X155100000Y-83100000D02*
X155100000Y-78100000D01*
X154600000Y-83600000D02*
X155100000Y-83100000D01*
X153900000Y-83600000D02*
X154600000Y-83600000D01*
X153500000Y-84000000D02*
X153900000Y-83600000D01*
X165800000Y-110800000D02*
X165790000Y-110780000D01*
X164800000Y-109800000D02*
X165800000Y-110800000D01*
X163500000Y-109800000D02*
X164800000Y-109800000D01*
X163400000Y-109900000D02*
X163500000Y-109800000D01*
X163300000Y-109900000D02*
X163400000Y-109900000D01*
X158500000Y-105100000D02*
X163300000Y-109900000D01*
X158500000Y-103500000D02*
X158500000Y-105100000D01*
X151600000Y-96600000D02*
X158500000Y-103500000D01*
X151600000Y-92400000D02*
X151600000Y-96600000D01*
X147900000Y-88700000D02*
X151600000Y-92400000D01*
X148000000Y-88600000D02*
X147900000Y-88700000D01*
X148000000Y-88400000D02*
X148000000Y-88600000D01*
X147900000Y-88300000D02*
X148000000Y-88400000D01*
X148000000Y-88200000D02*
X147900000Y-88300000D01*
X148000000Y-87800000D02*
X148000000Y-88200000D01*
X147900000Y-87700000D02*
X148000000Y-87800000D01*
X148000000Y-87600000D02*
X147900000Y-87700000D01*
X148000000Y-87400000D02*
X148000000Y-87600000D01*
X147900000Y-87300000D02*
X148000000Y-87400000D01*
X148200000Y-87000000D02*
X147900000Y-87300000D01*
X150500000Y-87000000D02*
X148200000Y-87000000D01*
X153500000Y-84000000D02*
X150500000Y-87000000D01*
%TO.N,+5V*%
X169200000Y-66599999D02*
X169225000Y-66599999D01*
X169500000Y-66900000D02*
X169200000Y-66599999D01*
X169600000Y-66900000D02*
X169500000Y-66900000D01*
X169700000Y-66800000D02*
X169600000Y-66900000D01*
X170900000Y-67600000D02*
X170600000Y-67300000D01*
X171500000Y-67600000D02*
X170900000Y-67600000D01*
X171500000Y-67600000D02*
X171500000Y-67550000D01*
X171700000Y-67600000D02*
X171500000Y-67600000D01*
X172400000Y-66900000D02*
X171700000Y-67600000D01*
X172400000Y-66700000D02*
X172400000Y-66900000D01*
X173300000Y-65800000D02*
X172400000Y-66700000D01*
X177800000Y-65800000D02*
X173300000Y-65800000D01*
X178200000Y-66200000D02*
X177800000Y-65800000D01*
X178200000Y-66800000D02*
X178200000Y-66200000D01*
X178000000Y-67000000D02*
X178200000Y-66800000D01*
X178000000Y-68300000D02*
X178000000Y-67000000D01*
X174600000Y-71700000D02*
X178000000Y-68300000D01*
X174600000Y-80500000D02*
X174600000Y-71700000D01*
X172900000Y-82200000D02*
X174600000Y-80500000D01*
X172900000Y-82400000D02*
X172900000Y-82200000D01*
X173000000Y-82500000D02*
X172900000Y-82400000D01*
X172300000Y-82900000D02*
X172200000Y-83000000D01*
X172600000Y-82900000D02*
X172300000Y-82900000D01*
X173000000Y-82500000D02*
X172600000Y-82900000D01*
X173400000Y-82500000D02*
X173000000Y-82500000D01*
X175900000Y-85000000D02*
X173400000Y-82500000D01*
X175900000Y-86900000D02*
X175900000Y-85000000D01*
X174500000Y-88300000D02*
X175900000Y-86900000D01*
X174500000Y-92900000D02*
X175200000Y-92200000D01*
X174500000Y-94600000D02*
X174500000Y-92900000D01*
X173600000Y-95500000D02*
X174500000Y-94600000D01*
X173600000Y-95500000D02*
X173550000Y-95500000D01*
X173600000Y-98500000D02*
X173600000Y-95500000D01*
X169000000Y-110300000D02*
X169005000Y-110270000D01*
X174400000Y-105200000D02*
X169300000Y-110300000D01*
X174400000Y-102800000D02*
X174400000Y-105200000D01*
X173800000Y-102200000D02*
X174400000Y-102800000D01*
X173700000Y-102200000D02*
X173800000Y-102200000D01*
X173100000Y-101600000D02*
X173700000Y-102200000D01*
X173000000Y-101600000D02*
X173100000Y-101600000D01*
X172400000Y-101000000D02*
X173000000Y-101600000D01*
X172300000Y-101000000D02*
X172400000Y-101000000D01*
X171700000Y-100400000D02*
X172300000Y-101000000D01*
X173600000Y-98500000D02*
X171700000Y-100400000D01*
X173550000Y-98510000D02*
X173600000Y-98500000D01*
%TO.N,VBUS*%
X171900000Y-78300000D02*
X171905000Y-78270000D01*
X172200000Y-78000000D02*
X171900000Y-78300000D01*
X172700000Y-78000000D02*
X172200000Y-78000000D01*
X172900000Y-77800000D02*
X172700000Y-78000000D01*
X172900000Y-76600000D02*
X172900000Y-77800000D01*
X173300000Y-76200000D02*
X172900000Y-76600000D01*
X173100000Y-74700000D02*
X173300000Y-74900000D01*
X173100000Y-74300000D02*
X173100000Y-74700000D01*
X172900000Y-74100000D02*
X173100000Y-74300000D01*
X172900000Y-73900000D02*
X172900000Y-74100000D01*
X172400000Y-73400000D02*
X172900000Y-73900000D01*
X171900000Y-73400000D02*
X172400000Y-73400000D01*
X143500000Y-74900000D02*
X143525000Y-74905000D01*
X143200000Y-74900000D02*
X143500000Y-74900000D01*
X142700000Y-74400000D02*
X143200000Y-74900000D01*
X141900000Y-73400000D02*
X141900000Y-74400000D01*
X142300000Y-73000000D02*
X141900000Y-73400000D01*
X142300000Y-70800000D02*
X142300000Y-73000000D01*
X142600000Y-70500000D02*
X142300000Y-70800000D01*
X147600000Y-70500000D02*
X142600000Y-70500000D01*
X148200000Y-71100000D02*
X147600000Y-70500000D01*
X148500000Y-71100000D02*
X148200000Y-71100000D01*
X171900000Y-73400000D02*
X171905000Y-73370000D01*
X171400000Y-73400000D02*
X171900000Y-73400000D01*
X170900000Y-72900000D02*
X171400000Y-73400000D01*
X170900000Y-72600000D02*
X170900000Y-72900000D01*
X169500000Y-71200000D02*
X170900000Y-72600000D01*
X169100000Y-70500000D02*
X169300000Y-70300000D01*
X161200000Y-70500000D02*
X169100000Y-70500000D01*
X158900000Y-68200000D02*
X161200000Y-70500000D01*
X156200000Y-68500000D02*
X156500000Y-68200000D01*
X156000000Y-68500000D02*
X156200000Y-68500000D01*
X155600000Y-68900000D02*
X156000000Y-68500000D01*
X155400000Y-68900000D02*
X155600000Y-68900000D01*
X155200000Y-69100000D02*
X155400000Y-68900000D01*
X154000000Y-69100000D02*
X155200000Y-69100000D01*
X151300000Y-71800000D02*
X154000000Y-69100000D01*
X149200000Y-71800000D02*
X151300000Y-71800000D01*
X148500000Y-71100000D02*
X149200000Y-71800000D01*
X148475000Y-71095000D02*
X148500000Y-71100000D01*
%TO.N,Net-(U4-XTAL_P)*%
X162000000Y-94500000D02*
X162030000Y-94500000D01*
X162000000Y-94400000D02*
X162000000Y-94500000D01*
X160100000Y-92500000D02*
X162000000Y-94400000D01*
X156800000Y-85000000D02*
X156750000Y-85050000D01*
X156800000Y-84800000D02*
X156800000Y-85000000D01*
X156400000Y-84400000D02*
X156800000Y-84800000D01*
X155600000Y-84400000D02*
X156400000Y-84400000D01*
X153900000Y-86100000D02*
X155600000Y-84400000D01*
X153900000Y-86200000D02*
X153900000Y-86100000D01*
X153700000Y-86400000D02*
X153900000Y-86200000D01*
X153700000Y-87700000D02*
X153700000Y-86400000D01*
X154300000Y-90300000D02*
X154100000Y-90300000D01*
X156000000Y-92000000D02*
X154300000Y-90300000D01*
X159600000Y-92000000D02*
X156000000Y-92000000D01*
X160100000Y-92500000D02*
X159600000Y-92000000D01*
%TO.N,Net-(U4-GPIO19)*%
X171900000Y-75100000D02*
X171905000Y-75070000D01*
X171200000Y-75100000D02*
X171900000Y-75100000D01*
X170800000Y-75500000D02*
X171200000Y-75100000D01*
X170800000Y-76200000D02*
X170800000Y-75500000D01*
X158800000Y-85000000D02*
X158750000Y-85050000D01*
X158700000Y-84900000D02*
X158800000Y-85000000D01*
X158700000Y-84200000D02*
X158700000Y-84900000D01*
X158800000Y-84100000D02*
X158700000Y-84200000D01*
X158800000Y-83900000D02*
X158800000Y-84100000D01*
X158700000Y-83800000D02*
X158800000Y-83900000D01*
X165600000Y-78200000D02*
X164300000Y-78200000D01*
X167600000Y-76200000D02*
X165600000Y-78200000D01*
X171800000Y-76200000D02*
X167600000Y-76200000D01*
X171900000Y-76100000D02*
X171800000Y-76200000D01*
X171905000Y-76070000D02*
X171900000Y-76100000D01*
%TO.N,Net-(U4-GPIO18)*%
X171900000Y-75600000D02*
X171905000Y-75570000D01*
X172600000Y-75600000D02*
X171900000Y-75600000D01*
X172900000Y-75900000D02*
X172600000Y-75600000D01*
X172900000Y-76300000D02*
X172900000Y-75900000D01*
X172700000Y-76500000D02*
X172900000Y-76300000D01*
X172000000Y-76500000D02*
X172700000Y-76500000D01*
X171900000Y-76600000D02*
X172000000Y-76500000D01*
X159200000Y-85000000D02*
X159250000Y-85050000D01*
X159200000Y-84300000D02*
X159200000Y-85000000D01*
X165500000Y-78700000D02*
X164800000Y-78700000D01*
X167600000Y-76600000D02*
X165500000Y-78700000D01*
X171900000Y-76600000D02*
X167600000Y-76600000D01*
X171905000Y-76570000D02*
X171900000Y-76600000D01*
%TO.N,+3.3V*%
X148500000Y-87500000D02*
X148500000Y-87520000D01*
X149500000Y-87500000D02*
X148500000Y-87500000D01*
X149500000Y-87500000D02*
X149500000Y-87520000D01*
X150400000Y-87500000D02*
X149500000Y-87500000D01*
X150500000Y-87600000D02*
X150400000Y-87500000D01*
X150500000Y-87600000D02*
X150500000Y-87560000D01*
X151400000Y-87600000D02*
X150500000Y-87600000D01*
X151500000Y-87500000D02*
X151400000Y-87600000D01*
X154000000Y-80400000D02*
X154000000Y-80450000D01*
X153900000Y-80500000D02*
X154000000Y-80400000D01*
X153900000Y-81100000D02*
X153900000Y-80500000D01*
X151500000Y-80500000D02*
X151480000Y-80500000D01*
X151500000Y-82500000D02*
X151500000Y-80500000D01*
X151500000Y-83300000D02*
X151500000Y-82500000D01*
X151600000Y-83400000D02*
X151500000Y-83300000D01*
X151500000Y-87500000D02*
X151500000Y-87520000D01*
X151700000Y-87500000D02*
X151500000Y-87500000D01*
X152100000Y-87100000D02*
X151700000Y-87500000D01*
X170200000Y-85500000D02*
X170500000Y-85500000D01*
X168100000Y-85500000D02*
X169000000Y-85500000D01*
X168000000Y-85400000D02*
X168100000Y-85500000D01*
X168000000Y-85400000D02*
X168000000Y-84500000D01*
X167600000Y-85800000D02*
X168000000Y-85400000D01*
X167500000Y-85800000D02*
X167600000Y-85800000D01*
X167400000Y-85900000D02*
X167500000Y-85800000D01*
X166800000Y-85900000D02*
X167400000Y-85900000D01*
X166600000Y-86100000D02*
X166800000Y-85900000D01*
X166400000Y-86100000D02*
X166600000Y-86100000D01*
X166200000Y-86300000D02*
X166400000Y-86100000D01*
X165300000Y-86500000D02*
X165300000Y-85200000D01*
X165400000Y-86600000D02*
X165300000Y-86500000D01*
X165500000Y-88200000D02*
X165500000Y-87900000D01*
X165500000Y-93500000D02*
X165500000Y-93520000D01*
X165100000Y-93500000D02*
X165500000Y-93500000D01*
X165000000Y-93400000D02*
X165100000Y-93500000D01*
X142600000Y-93000000D02*
X142600000Y-90000000D01*
X144300000Y-94700000D02*
X142600000Y-93000000D01*
X148900000Y-94700000D02*
X144300000Y-94700000D01*
X149000000Y-94600000D02*
X148900000Y-94700000D01*
X149100000Y-94600000D02*
X149000000Y-94600000D01*
X149500000Y-95000000D02*
X149100000Y-94600000D01*
X147000000Y-92500000D02*
X147000000Y-92520000D01*
X147100000Y-92600000D02*
X147000000Y-92500000D01*
X149500000Y-95000000D02*
X149540000Y-95000000D01*
X149700000Y-95000000D02*
X149500000Y-95000000D01*
X150300000Y-95600000D02*
X149700000Y-95000000D01*
X150400000Y-95500000D02*
X150300000Y-95600000D01*
X150600000Y-95500000D02*
X150400000Y-95500000D01*
X150700000Y-95600000D02*
X150600000Y-95500000D01*
X151000000Y-95300000D02*
X150700000Y-95600000D01*
X151000000Y-93500000D02*
X151000000Y-95300000D01*
X151100000Y-93400000D02*
X151000000Y-93500000D01*
X152700000Y-92500000D02*
X152500000Y-92500000D01*
X153100000Y-92100000D02*
X152700000Y-92500000D01*
X153300000Y-92100000D02*
X153100000Y-92100000D01*
X154500000Y-93500000D02*
X154490000Y-93520000D01*
X154700000Y-93500000D02*
X154500000Y-93500000D01*
X155800000Y-92400000D02*
X154700000Y-93500000D01*
X159900000Y-103200000D02*
X159900000Y-104000000D01*
X160300000Y-102800000D02*
X159900000Y-103200000D01*
X160600000Y-102200000D02*
X160900000Y-102200000D01*
X159200000Y-100800000D02*
X160600000Y-102200000D01*
X159200000Y-95100000D02*
X159200000Y-100800000D01*
X159400000Y-94900000D02*
X159200000Y-95100000D01*
X158000000Y-93500000D02*
X159400000Y-94900000D01*
X158000000Y-93500000D02*
X157980000Y-93530000D01*
X157400000Y-92900000D02*
X158000000Y-93500000D01*
X156400000Y-92900000D02*
X157400000Y-92900000D01*
X156000000Y-92500000D02*
X156400000Y-92900000D01*
X156000000Y-92500000D02*
X155990000Y-92510000D01*
X155900000Y-92500000D02*
X156000000Y-92500000D01*
X155800000Y-92400000D02*
X155900000Y-92500000D01*
X152500000Y-87500000D02*
X152500000Y-87540000D01*
X152100000Y-87100000D02*
X152500000Y-87500000D01*
X164000000Y-92500000D02*
X164000000Y-92510000D01*
X164000000Y-92400000D02*
X164000000Y-92500000D01*
X164800000Y-89500000D02*
X164850000Y-89500000D01*
X155000000Y-86800000D02*
X155050000Y-86750000D01*
X155000000Y-86600000D02*
X155000000Y-86800000D01*
X155200000Y-86400000D02*
X155000000Y-86600000D01*
X155000000Y-86200000D02*
X155050000Y-86250000D01*
X155200000Y-86400000D02*
X155000000Y-86200000D01*
X155800000Y-85000000D02*
X155750000Y-85050000D01*
X156200000Y-85000000D02*
X156250000Y-85050000D01*
X155800000Y-85000000D02*
X156200000Y-85000000D01*
X155600000Y-85200000D02*
X155800000Y-85000000D01*
X156500000Y-73000000D02*
X154700000Y-73000000D01*
X161000000Y-73000000D02*
X158600000Y-73000000D01*
X159000000Y-82500000D02*
X159000000Y-82520000D01*
X160200000Y-83700000D02*
X159000000Y-82500000D01*
X160200000Y-83900000D02*
X160200000Y-83700000D01*
X162500000Y-78500000D02*
X162500000Y-78520000D01*
X162400000Y-78400000D02*
X162500000Y-78500000D01*
X162200000Y-76300000D02*
X162000000Y-76500000D01*
X162200000Y-74100000D02*
X162200000Y-76300000D01*
X161100000Y-73000000D02*
X162200000Y-74100000D01*
X162500000Y-54900000D02*
X162500000Y-54920000D01*
X163600000Y-56000000D02*
X162500000Y-54900000D01*
X163600000Y-57900000D02*
X163600000Y-56000000D01*
X162900000Y-58600000D02*
X163600000Y-57900000D01*
X161600000Y-58600000D02*
X162900000Y-58600000D01*
X161400000Y-58800000D02*
X161600000Y-58600000D01*
X161400000Y-60300000D02*
X161400000Y-58800000D01*
X161500000Y-60400000D02*
X161400000Y-60300000D01*
X161500000Y-60500000D02*
X161500000Y-60400000D01*
X161100000Y-73000000D02*
X161000000Y-73000000D01*
X162900000Y-71200000D02*
X161100000Y-73000000D01*
X163900000Y-69600000D02*
X164300000Y-70000000D01*
X163900000Y-62300000D02*
X163900000Y-69600000D01*
X163700000Y-62100000D02*
X163900000Y-62300000D01*
X163700000Y-61900000D02*
X163700000Y-62100000D01*
X163000000Y-61200000D02*
X163700000Y-61900000D01*
X162200000Y-61200000D02*
X163000000Y-61200000D01*
X161500000Y-60500000D02*
X162200000Y-61200000D01*
X158200000Y-60500000D02*
X161500000Y-60500000D01*
X158225000Y-60475000D02*
X158200000Y-60500000D01*
%TO.N,GND*%
X146600000Y-92100000D02*
X144500000Y-90000000D01*
X146625000Y-92075000D02*
X146600000Y-92100000D01*
X146200000Y-93000000D02*
X144500000Y-93000000D01*
X146400000Y-92800000D02*
X146200000Y-93000000D01*
X147000000Y-93500000D02*
X147000000Y-93480000D01*
X147000000Y-93400000D02*
X147000000Y-93500000D01*
X146967000Y-93367000D02*
X147000000Y-93400000D01*
X150000000Y-94500000D02*
X150500000Y-95000000D01*
X149800000Y-94500000D02*
X150000000Y-94500000D01*
X149700000Y-94400000D02*
X149800000Y-94500000D01*
X149600000Y-94500000D02*
X149700000Y-94400000D01*
X149400000Y-94500000D02*
X149600000Y-94500000D01*
X149100000Y-94200000D02*
X149400000Y-94500000D01*
X149100000Y-93600000D02*
X148500000Y-93000000D01*
X149100000Y-94200000D02*
X149100000Y-93600000D01*
X148800000Y-94500000D02*
X149100000Y-94200000D01*
X148100000Y-94500000D02*
X148800000Y-94500000D01*
X146400000Y-92800000D02*
X148100000Y-94500000D01*
X146400000Y-92300000D02*
X146400000Y-92800000D01*
X147300000Y-91400000D02*
X146400000Y-92300000D01*
X147300000Y-87300000D02*
X147300000Y-91400000D01*
X149600000Y-85000000D02*
X147300000Y-87300000D01*
X151600000Y-85000000D02*
X149600000Y-85000000D01*
X152100000Y-84500000D02*
X151600000Y-85000000D01*
X148500000Y-88500000D02*
X148500000Y-88480000D01*
X149500000Y-88500000D02*
X148500000Y-88500000D01*
X171900000Y-72600000D02*
X171905000Y-72570000D01*
X171900000Y-72400000D02*
X171900000Y-72600000D01*
X172800000Y-71500000D02*
X171900000Y-72400000D01*
X172820000Y-71500000D02*
X172800000Y-71500000D01*
X171900000Y-79100000D02*
X171905000Y-79070000D01*
X171900000Y-79200000D02*
X171900000Y-79100000D01*
X172800000Y-80100000D02*
X171900000Y-79200000D01*
X172820000Y-80140000D02*
X172800000Y-80100000D01*
X143500000Y-73600000D02*
X143525000Y-73635000D01*
X144700000Y-73600000D02*
X143500000Y-73600000D01*
X145300000Y-74200000D02*
X144700000Y-73600000D01*
X143500000Y-71100000D02*
X143525000Y-71095000D01*
X144600000Y-71100000D02*
X143500000Y-71100000D01*
X145300000Y-71800000D02*
X144600000Y-71100000D01*
X175400000Y-98500000D02*
X175450000Y-98510000D01*
X175400000Y-95500000D02*
X175400000Y-98500000D01*
X158200000Y-55100000D02*
X158225000Y-55125000D01*
X158500000Y-55100000D02*
X158200000Y-55100000D01*
X159100000Y-55700000D02*
X158500000Y-55100000D01*
X159100000Y-57600000D02*
X159100000Y-55700000D01*
X158400000Y-58300000D02*
X159100000Y-57600000D01*
X158200000Y-58300000D02*
X158225000Y-58275000D01*
X161700000Y-58300000D02*
X158200000Y-58300000D01*
X162500000Y-57500000D02*
X161700000Y-58300000D01*
X162500000Y-57460000D02*
X162500000Y-57500000D01*
X170500000Y-62000000D02*
X171000000Y-62500000D01*
X170300000Y-62000000D02*
X170500000Y-62000000D01*
X170200000Y-61900000D02*
X170300000Y-62000000D01*
X170100000Y-62000000D02*
X170200000Y-61900000D01*
X169900000Y-62000000D02*
X170100000Y-62000000D01*
X169800000Y-61900000D02*
X169900000Y-62000000D01*
X169500000Y-62200000D02*
X169800000Y-61900000D01*
X169500000Y-64000000D02*
X169500000Y-62200000D01*
X168300000Y-65200000D02*
X169500000Y-64000000D01*
X168300000Y-66900000D02*
X168300000Y-65200000D01*
X168500000Y-67099999D02*
X168300000Y-66900000D01*
X168700000Y-67099999D02*
X168500000Y-67099999D01*
X169200000Y-67600000D02*
X168700000Y-67099999D01*
X169200000Y-67600000D02*
X169225000Y-67550000D01*
X169400000Y-67800000D02*
X169200000Y-67600000D01*
X175400000Y-95500000D02*
X175450000Y-95500000D01*
X175600000Y-95300000D02*
X175400000Y-95500000D01*
X175600000Y-90800000D02*
X175600000Y-95300000D01*
X175500000Y-90700000D02*
X175600000Y-90800000D01*
X175500000Y-90500000D02*
X175500000Y-90700000D01*
X175000000Y-90000000D02*
X175500000Y-90500000D01*
X174700000Y-90000000D02*
X175000000Y-90000000D01*
X174500000Y-89800000D02*
X174700000Y-90000000D01*
X169800000Y-89800000D02*
X174500000Y-89800000D01*
X169000000Y-90600000D02*
X169800000Y-89800000D01*
X169000000Y-90700000D02*
X169000000Y-90600000D01*
X168200000Y-91500000D02*
X169000000Y-90700000D01*
X168000000Y-91500000D02*
X168200000Y-91500000D01*
X174500000Y-86000000D02*
X174500000Y-85960000D01*
X172100000Y-86000000D02*
X174500000Y-86000000D01*
X172000000Y-85900000D02*
X172100000Y-86000000D01*
X171500000Y-87000000D02*
X171520000Y-87000000D01*
X171500000Y-86100000D02*
X171500000Y-87000000D01*
X171480000Y-86100000D02*
X171500000Y-86100000D01*
X165800000Y-82000000D02*
X164100000Y-82000000D01*
X166900000Y-83100000D02*
X165800000Y-82000000D01*
X172000000Y-84500000D02*
X171500000Y-84000000D01*
X172000000Y-85900000D02*
X172000000Y-84500000D01*
X171800000Y-86100000D02*
X172000000Y-85900000D01*
X170200000Y-86100000D02*
X171800000Y-86100000D01*
X169700000Y-85600000D02*
X170200000Y-86100000D01*
X169700000Y-82200000D02*
X169700000Y-85600000D01*
X169600000Y-82100000D02*
X169700000Y-82200000D01*
X168400000Y-82100000D02*
X169600000Y-82100000D01*
X168300000Y-82200000D02*
X168400000Y-82100000D01*
X168200000Y-82200000D02*
X168300000Y-82200000D01*
X168000000Y-82000000D02*
X168200000Y-82200000D01*
X167600000Y-82000000D02*
X168000000Y-82000000D01*
X167400000Y-82200000D02*
X167600000Y-82000000D01*
X167400000Y-82300000D02*
X167400000Y-82200000D01*
X167300000Y-82400000D02*
X167400000Y-82300000D01*
X167300000Y-82700000D02*
X167300000Y-82400000D01*
X166900000Y-83100000D02*
X167300000Y-82700000D01*
X166900000Y-84800000D02*
X166900000Y-83100000D01*
X167000000Y-84900000D02*
X166900000Y-84800000D01*
X167000000Y-85000000D02*
X167000000Y-84900000D01*
X166800000Y-85200000D02*
X167000000Y-85000000D01*
X166800000Y-85600000D02*
X166800000Y-85200000D01*
X166600000Y-85800000D02*
X166800000Y-85600000D01*
X166500000Y-85800000D02*
X166600000Y-85800000D01*
X166400000Y-85900000D02*
X166500000Y-85800000D01*
X166100000Y-85900000D02*
X166400000Y-85900000D01*
X165800000Y-85600000D02*
X166100000Y-85900000D01*
X149500000Y-88500000D02*
X149500000Y-88480000D01*
X150500000Y-88500000D02*
X149500000Y-88500000D01*
X150500000Y-80500000D02*
X150520000Y-80500000D01*
X150500000Y-82500000D02*
X150500000Y-80500000D01*
X156500000Y-82000000D02*
X156540000Y-82000000D01*
X156400000Y-81900000D02*
X156500000Y-82000000D01*
X156400000Y-81800000D02*
X156400000Y-81900000D01*
X160000000Y-77500000D02*
X160020000Y-77500000D01*
X158600000Y-77500000D02*
X160000000Y-77500000D01*
X155100000Y-77500000D02*
X156500000Y-77500000D01*
X154000000Y-78600000D02*
X155100000Y-77500000D01*
X153900000Y-71500000D02*
X154700000Y-70700000D01*
X153200000Y-71500000D02*
X153900000Y-71500000D01*
X153500000Y-72700000D02*
X153200000Y-72400000D01*
X153500000Y-78100000D02*
X153500000Y-72700000D01*
X154000000Y-78600000D02*
X153500000Y-78100000D01*
X154000000Y-78600000D02*
X154000000Y-78550000D01*
X153000000Y-79600000D02*
X154000000Y-78600000D01*
X153000000Y-80900000D02*
X153000000Y-79600000D01*
X153200000Y-81100000D02*
X153000000Y-80900000D01*
X153300000Y-81100000D02*
X153200000Y-81100000D01*
X153900000Y-81700000D02*
X153300000Y-81100000D01*
X153500000Y-82100000D02*
X153900000Y-81700000D01*
X151600000Y-84000000D02*
X153500000Y-82100000D01*
X151591000Y-83991000D02*
X151600000Y-84000000D01*
X150500000Y-82500000D02*
X150540000Y-82500000D01*
X150500000Y-82900000D02*
X150500000Y-82500000D01*
X152100000Y-84500000D02*
X150500000Y-82900000D01*
X150500000Y-88500000D02*
X150500000Y-88520000D01*
X151500000Y-88500000D02*
X150500000Y-88500000D01*
X151500000Y-88500000D02*
X151500000Y-88480000D01*
X152500000Y-88500000D02*
X151500000Y-88500000D01*
X160100000Y-94500000D02*
X160060000Y-94500000D01*
X159500000Y-95100000D02*
X160100000Y-94500000D01*
X159500000Y-95700000D02*
X159500000Y-95100000D01*
X159800000Y-96000000D02*
X159500000Y-95700000D01*
X160500000Y-96000000D02*
X159800000Y-96000000D01*
X161500000Y-95000000D02*
X160500000Y-96000000D01*
X162000000Y-95500000D02*
X161500000Y-95000000D01*
X162000000Y-95500000D02*
X162030000Y-95460000D01*
X163000000Y-95500000D02*
X162000000Y-95500000D01*
X163030000Y-95480000D02*
X163000000Y-95500000D01*
X152500000Y-88700000D02*
X152500000Y-88500000D01*
X157500000Y-87500000D02*
X155900000Y-87500000D01*
X157900000Y-87900000D02*
X157500000Y-87500000D01*
X159100000Y-87900000D02*
X157900000Y-87900000D01*
X163600000Y-87900000D02*
X161400000Y-87900000D01*
X163600000Y-87900000D02*
X163550000Y-87900000D01*
X163600000Y-87700000D02*
X163600000Y-87900000D01*
X163900000Y-87400000D02*
X163600000Y-87700000D01*
X164500000Y-87400000D02*
X163900000Y-87400000D01*
X164600000Y-87500000D02*
X164500000Y-87400000D01*
X164600000Y-87600000D02*
X164600000Y-87500000D01*
X164800000Y-87800000D02*
X164600000Y-87600000D01*
X168000000Y-91500000D02*
X168000000Y-91510000D01*
X167300000Y-91500000D02*
X168000000Y-91500000D01*
X166300000Y-92500000D02*
X167300000Y-91500000D01*
X165800000Y-87400000D02*
X165800000Y-85200000D01*
X164800000Y-87900000D02*
X164850000Y-87900000D01*
X164800000Y-87800000D02*
X164800000Y-87900000D01*
X165200000Y-87400000D02*
X164800000Y-87800000D01*
X165800000Y-87400000D02*
X165200000Y-87400000D01*
X166000000Y-87600000D02*
X165800000Y-87400000D01*
X166000000Y-89000000D02*
X166000000Y-87600000D01*
X165500000Y-89500000D02*
X166000000Y-89000000D01*
X165500000Y-90200000D02*
X165500000Y-89500000D01*
X165400000Y-90300000D02*
X165500000Y-90200000D01*
X165500000Y-90400000D02*
X165400000Y-90300000D01*
X165500000Y-90600000D02*
X165500000Y-90400000D01*
X165400000Y-90700000D02*
X165500000Y-90600000D01*
X165500000Y-90800000D02*
X165400000Y-90700000D01*
X165500000Y-91000000D02*
X165500000Y-90800000D01*
X166000000Y-91500000D02*
X165500000Y-91000000D01*
X166000000Y-91500000D02*
X166010000Y-91510000D01*
X165700000Y-91800000D02*
X166000000Y-91500000D01*
X165700000Y-91900000D02*
X165700000Y-91800000D01*
X166300000Y-92500000D02*
X165700000Y-91900000D01*
X166100000Y-93600000D02*
X166300000Y-93400000D01*
X166100000Y-93800000D02*
X166100000Y-93600000D01*
X165200000Y-94700000D02*
X166100000Y-93800000D01*
X165214000Y-94714000D02*
X165200000Y-94700000D01*
X165000000Y-94500000D02*
X165000000Y-94520000D01*
X165500000Y-95000000D02*
X165000000Y-94500000D01*
X165500000Y-95200000D02*
X165500000Y-95000000D01*
X165600000Y-95300000D02*
X165500000Y-95200000D01*
X165500000Y-95400000D02*
X165600000Y-95300000D01*
X165500000Y-95600000D02*
X165500000Y-95400000D01*
X165600000Y-95700000D02*
X165500000Y-95600000D01*
X165100000Y-96200000D02*
X165600000Y-95700000D01*
X163800000Y-96200000D02*
X165100000Y-96200000D01*
X163750000Y-96250000D02*
X163800000Y-96200000D01*
X163900000Y-110800000D02*
X163890000Y-110780000D01*
X164900000Y-111800000D02*
X163900000Y-110800000D01*
X166200000Y-111800000D02*
X164900000Y-111800000D01*
X166500000Y-111500000D02*
X166200000Y-111800000D01*
X166500000Y-111300000D02*
X166500000Y-111500000D01*
X167000000Y-110800000D02*
X166500000Y-111300000D01*
X167000000Y-107700000D02*
X167000000Y-110800000D01*
X165500000Y-106200000D02*
X167000000Y-107700000D01*
X165500000Y-106000000D02*
X165500000Y-106200000D01*
X163900000Y-104400000D02*
X165500000Y-106000000D01*
X163900000Y-96400000D02*
X163900000Y-103500000D01*
X163000000Y-95500000D02*
X163900000Y-96400000D01*
X163030000Y-95480000D02*
X163000000Y-95500000D01*
%TO.N,Net-(U5-PROG)*%
X143500000Y-72400000D02*
X143525000Y-72365000D01*
X143200000Y-72400000D02*
X143500000Y-72400000D01*
X142300000Y-73300000D02*
X143200000Y-72400000D01*
X142300000Y-75200000D02*
X142300000Y-73300000D01*
X142600000Y-75500000D02*
X142300000Y-75200000D01*
X144400000Y-75500000D02*
X142600000Y-75500000D01*
X145100000Y-74800000D02*
X144400000Y-75500000D01*
X146600000Y-74800000D02*
X145100000Y-74800000D01*
X152000000Y-80200000D02*
X146600000Y-74800000D01*
X152000000Y-81000000D02*
X152000000Y-80200000D01*
X152400000Y-81400000D02*
X152000000Y-81000000D01*
X170300000Y-86800000D02*
X168200000Y-88900000D01*
X170500000Y-87000000D02*
X170300000Y-86800000D01*
%TO.N,Net-(J1-CC2)*%
X171900000Y-74100000D02*
X171905000Y-74070000D01*
X172600000Y-74100000D02*
X171900000Y-74100000D01*
X172900000Y-74400000D02*
X172600000Y-74100000D01*
X172900000Y-75100000D02*
X172900000Y-74400000D01*
X174100000Y-76300000D02*
X172900000Y-75100000D01*
X174100000Y-80400000D02*
X174100000Y-76300000D01*
X173600000Y-80900000D02*
X174100000Y-80400000D01*
X171000000Y-80900000D02*
X173600000Y-80900000D01*
X170900000Y-81000000D02*
X171000000Y-80900000D01*
X169500000Y-82800000D02*
X169300000Y-82600000D01*
X169500000Y-85700000D02*
X169500000Y-82800000D01*
X170100000Y-86300000D02*
X169500000Y-85700000D01*
X170100000Y-86400000D02*
X170100000Y-86300000D01*
X166000000Y-90500000D02*
X170100000Y-86400000D01*
%TO.N,Net-(J1-CC1)*%
X168900000Y-89600000D02*
X168000000Y-90500000D01*
X169800000Y-89600000D02*
X168900000Y-89600000D01*
X172000000Y-87400000D02*
X169800000Y-89600000D01*
X174800000Y-87400000D02*
X172000000Y-87400000D01*
X174900000Y-87500000D02*
X174800000Y-87400000D01*
X175000000Y-87500000D02*
X174900000Y-87500000D01*
X175600000Y-86900000D02*
X175000000Y-87500000D01*
X175600000Y-85000000D02*
X175600000Y-86900000D01*
X174000000Y-83400000D02*
X175600000Y-85000000D01*
X171600000Y-83400000D02*
X174000000Y-83400000D01*
X171000000Y-82800000D02*
X171600000Y-83400000D01*
X171000000Y-82200000D02*
X171000000Y-82800000D01*
X170500000Y-81700000D02*
X171000000Y-82200000D01*
X170500000Y-78700000D02*
X170500000Y-81700000D01*
X170100000Y-78300000D02*
X170500000Y-78700000D01*
X170100000Y-78200000D02*
X170100000Y-78300000D01*
X171100000Y-77200000D02*
X170100000Y-78200000D01*
X171800000Y-77200000D02*
X171100000Y-77200000D01*
X171900000Y-77100000D02*
X171800000Y-77200000D01*
X171905000Y-77070000D02*
X171900000Y-77100000D01*
%TO.N,Net-(U1-SCL)*%
X165300000Y-80900000D02*
X165300000Y-81300000D01*
X165000000Y-80600000D02*
X165300000Y-80900000D01*
X164700000Y-80600000D02*
X165000000Y-80600000D01*
X164600000Y-80700000D02*
X164700000Y-80600000D01*
X164500000Y-80700000D02*
X164600000Y-80700000D01*
X164100000Y-81100000D02*
X164500000Y-80700000D01*
X163800000Y-81100000D02*
X164100000Y-81100000D01*
X163100000Y-81800000D02*
X163800000Y-81100000D01*
X163100000Y-82700000D02*
X163100000Y-81800000D01*
X161800000Y-84000000D02*
X163100000Y-82700000D01*
X161500000Y-84000000D02*
X161800000Y-84000000D01*
X163600000Y-89500000D02*
X163550000Y-89500000D01*
X163400000Y-89500000D02*
X163600000Y-89500000D01*
X156000000Y-93500000D02*
X155990000Y-93530000D01*
X156200000Y-93300000D02*
X156000000Y-93500000D01*
X156200000Y-90000000D02*
X156200000Y-90200000D01*
X156250000Y-89950000D02*
X156200000Y-90000000D01*
%TO.N,Net-(U1-SDA)*%
X158000000Y-92500000D02*
X157980000Y-92510000D01*
X158100000Y-92400000D02*
X158000000Y-92500000D01*
X163900000Y-81300000D02*
X164800000Y-81300000D01*
X163500000Y-81700000D02*
X163900000Y-81300000D01*
X163500000Y-81800000D02*
X163500000Y-81700000D01*
X163400000Y-81900000D02*
X163500000Y-81800000D01*
X163400000Y-82700000D02*
X163400000Y-81900000D01*
X161400000Y-84700000D02*
X163400000Y-82700000D01*
X164200000Y-89600000D02*
X164200000Y-89500000D01*
X163800000Y-90000000D02*
X164200000Y-89600000D01*
X163300000Y-90000000D02*
X163800000Y-90000000D01*
X162800000Y-89500000D02*
X163300000Y-90000000D01*
X161000000Y-89500000D02*
X162800000Y-89500000D01*
X155750000Y-89950000D02*
X155800000Y-90000000D01*
%TO.N,Net-(J3-DAT3{slash}CD)*%
X159200000Y-90000000D02*
X159250000Y-89950000D01*
X159500000Y-89700000D02*
X159200000Y-90000000D01*
X160300000Y-89700000D02*
X159500000Y-89700000D01*
X160600000Y-89400000D02*
X160300000Y-89700000D01*
X160600000Y-88700000D02*
X160600000Y-89400000D01*
X160900000Y-88400000D02*
X160600000Y-88700000D01*
X160900000Y-88300000D02*
X160900000Y-88400000D01*
X161000000Y-88200000D02*
X160900000Y-88300000D01*
X161000000Y-84800000D02*
X161000000Y-88200000D01*
X160900000Y-84700000D02*
X161000000Y-84800000D01*
X160900000Y-83300000D02*
X160900000Y-84700000D01*
X160500000Y-82900000D02*
X160900000Y-83300000D01*
X160500000Y-77100000D02*
X160500000Y-82900000D01*
X160600000Y-77000000D02*
X160500000Y-77100000D01*
X160700000Y-77000000D02*
X160600000Y-77000000D01*
X160800000Y-76900000D02*
X160700000Y-77000000D01*
X162500000Y-76900000D02*
X160800000Y-76900000D01*
X162500000Y-72300000D02*
X162500000Y-77500000D01*
X163600000Y-71200000D02*
X162500000Y-72300000D01*
X163600000Y-62300000D02*
X163600000Y-70000000D01*
X163500000Y-62200000D02*
X163600000Y-62300000D01*
X163500000Y-62000000D02*
X163500000Y-62200000D01*
X162900000Y-61400000D02*
X163500000Y-62000000D01*
X162100000Y-61400000D02*
X162900000Y-61400000D01*
X160800000Y-62700000D02*
X162100000Y-61400000D01*
X158200000Y-62700000D02*
X160800000Y-62700000D01*
X158225000Y-62675000D02*
X158200000Y-62700000D01*
%TO.N,Net-(J3-CMD)*%
X157800000Y-90000000D02*
X157750000Y-89950000D01*
X157800000Y-90500000D02*
X157800000Y-90000000D01*
X157500000Y-90800000D02*
X157800000Y-90500000D01*
X158100000Y-79500000D02*
X159800000Y-81200000D01*
X158100000Y-72000000D02*
X158100000Y-79500000D01*
X158500000Y-71600000D02*
X158100000Y-72000000D01*
X157800000Y-70300000D02*
X158500000Y-70300000D01*
X157400000Y-69900000D02*
X157800000Y-70300000D01*
X157400000Y-62200000D02*
X157400000Y-69900000D01*
X157500000Y-62100000D02*
X157400000Y-62200000D01*
X157700000Y-62100000D02*
X157500000Y-62100000D01*
X158200000Y-61600000D02*
X157700000Y-62100000D01*
X158225000Y-61575000D02*
X158200000Y-61600000D01*
%TO.N,Net-(J4-Pin_3)*%
X158200000Y-85000000D02*
X158250000Y-85050000D01*
X158200000Y-83400000D02*
X158200000Y-85000000D01*
X162700000Y-76900000D02*
X163300000Y-77500000D01*
X162700000Y-73500000D02*
X162700000Y-76900000D01*
X165000000Y-71200000D02*
X162700000Y-73500000D01*
X164100000Y-69100000D02*
X165000000Y-70000000D01*
X164100000Y-62200000D02*
X164100000Y-69100000D01*
X164000000Y-62100000D02*
X164100000Y-62200000D01*
X164000000Y-61900000D02*
X164000000Y-62100000D01*
X162300000Y-60200000D02*
X164000000Y-61900000D01*
%TO.N,Net-(U4-LNA_IN)*%
X157300000Y-81200000D02*
X157500000Y-81000000D01*
X163000000Y-94500000D02*
X163030000Y-94520000D01*
X162500000Y-94000000D02*
X163000000Y-94500000D01*
X161900000Y-94000000D02*
X162500000Y-94000000D01*
X161000000Y-93100000D02*
X161900000Y-94000000D01*
X161000000Y-92300000D02*
X161000000Y-93100000D01*
X160400000Y-91700000D02*
X161000000Y-92300000D01*
X160100000Y-91700000D02*
X160400000Y-91700000D01*
X159900000Y-91500000D02*
X160100000Y-91700000D01*
X155050000Y-85750000D02*
X155000000Y-85800000D01*
%TO.N,Net-(J5-Pin_3)*%
X160100000Y-95500000D02*
X160060000Y-95460000D01*
X160600000Y-95000000D02*
X160100000Y-95500000D01*
X160600000Y-94200000D02*
X160600000Y-95000000D01*
X160100000Y-93700000D02*
X160600000Y-94200000D01*
X160100000Y-93500000D02*
X160100000Y-93700000D01*
X157200000Y-85000000D02*
X157250000Y-85050000D01*
X157200000Y-84700000D02*
X157200000Y-85000000D01*
X156900000Y-84400000D02*
X157200000Y-84700000D01*
X156700000Y-84400000D02*
X156900000Y-84400000D01*
X156500000Y-84200000D02*
X156700000Y-84400000D01*
X155500000Y-84200000D02*
X156500000Y-84200000D01*
X154700000Y-85000000D02*
X155500000Y-84200000D01*
X154500000Y-85000000D02*
X154700000Y-85000000D01*
X153500000Y-86000000D02*
X154500000Y-85000000D01*
X153200000Y-89600000D02*
X153000000Y-89600000D01*
X153171000Y-89629000D02*
X153200000Y-89600000D01*
X155000000Y-87800000D02*
X155050000Y-87750000D01*
X154700000Y-87800000D02*
X155000000Y-87800000D01*
X154400000Y-88100000D02*
X154700000Y-87800000D01*
X154400000Y-88300000D02*
X154400000Y-88100000D01*
X154100000Y-88600000D02*
X154400000Y-88300000D01*
X154100000Y-88700000D02*
X154100000Y-88600000D01*
X153100000Y-89700000D02*
X154100000Y-88700000D01*
X153100000Y-90700000D02*
X153100000Y-89700000D01*
X153800000Y-91400000D02*
X153100000Y-90700000D01*
X153800000Y-91500000D02*
X153800000Y-91400000D01*
X153700000Y-91600000D02*
X153800000Y-91500000D01*
X160700000Y-91700000D02*
X160700000Y-91400000D01*
X161500000Y-92500000D02*
X160700000Y-91700000D01*
X172500000Y-93000000D02*
X174500000Y-91000000D01*
X163600000Y-93000000D02*
X172500000Y-93000000D01*
X163500000Y-92900000D02*
X163600000Y-93000000D01*
X163500000Y-92800000D02*
X163500000Y-92900000D01*
X162900000Y-92200000D02*
X163500000Y-92800000D01*
X162000000Y-92200000D02*
X162900000Y-92200000D01*
X161900000Y-92100000D02*
X162000000Y-92200000D01*
X161500000Y-92500000D02*
X161900000Y-92100000D01*
%TO.N,Net-(J3-DAT0)*%
X155000000Y-89200000D02*
X155050000Y-89250000D01*
X159000000Y-81100000D02*
X159000000Y-81500000D01*
X157900000Y-80000000D02*
X159000000Y-81100000D01*
X157000000Y-79400000D02*
X156800000Y-79600000D01*
X157000000Y-71800000D02*
X157000000Y-79400000D01*
X156500000Y-71300000D02*
X157000000Y-71800000D01*
X156900000Y-69800000D02*
X156500000Y-70200000D01*
X156900000Y-62100000D02*
X156900000Y-69800000D01*
X157000000Y-62000000D02*
X156900000Y-62100000D01*
X157000000Y-60100000D02*
X157000000Y-62000000D01*
X157400000Y-59700000D02*
X157000000Y-60100000D01*
X157400000Y-57800000D02*
X157400000Y-59700000D01*
X158000000Y-57200000D02*
X157400000Y-57800000D01*
X158200000Y-57200000D02*
X158000000Y-57200000D01*
X158225000Y-57175000D02*
X158200000Y-57200000D01*
%TO.N,Net-(U1-REGOUT)*%
X166300000Y-84800000D02*
X166300000Y-85200000D01*
X166000000Y-84500000D02*
X166300000Y-84800000D01*
X165400000Y-84500000D02*
X166000000Y-84500000D01*
X164900000Y-84000000D02*
X165400000Y-84500000D01*
X154200000Y-83300000D02*
X154600000Y-82900000D01*
X152800000Y-83300000D02*
X154200000Y-83300000D01*
X152500000Y-83600000D02*
X152800000Y-83300000D01*
X152500000Y-84700000D02*
X152500000Y-83600000D01*
X152000000Y-85200000D02*
X152500000Y-84700000D01*
X149700000Y-85200000D02*
X152000000Y-85200000D01*
X147600000Y-87300000D02*
X149700000Y-85200000D01*
X147600000Y-92900000D02*
X147600000Y-87300000D01*
X148500000Y-93800000D02*
X147600000Y-92900000D01*
X148500000Y-94000000D02*
X148500000Y-93800000D01*
X148500000Y-93960000D02*
X148500000Y-94000000D01*
%TO.N,Net-(D1-K)*%
X170000000Y-62500000D02*
X170030000Y-62500000D01*
X170100000Y-62600000D02*
X170000000Y-62500000D01*
X170100000Y-68800000D02*
X170100000Y-62600000D01*
X170000000Y-68900000D02*
X170100000Y-68800000D01*
X170000000Y-70300000D02*
X170000000Y-68900000D01*
X170000000Y-84400000D02*
X170000000Y-78900000D01*
X170200000Y-84600000D02*
X170000000Y-84400000D01*
X170600000Y-84600000D02*
X170200000Y-84600000D01*
X171500000Y-85500000D02*
X170600000Y-84600000D01*
%TO.N,Net-(J4-Pin_4)*%
X157800000Y-85000000D02*
X157750000Y-85050000D01*
X157800000Y-84800000D02*
X157800000Y-85000000D01*
X157400000Y-84400000D02*
X157800000Y-84800000D01*
X157200000Y-84400000D02*
X157400000Y-84400000D01*
X156000000Y-83200000D02*
X157200000Y-84400000D01*
X156000000Y-80700000D02*
X156000000Y-83200000D01*
X156300000Y-80400000D02*
X156000000Y-80700000D01*
X156900000Y-80400000D02*
X156300000Y-80400000D01*
X157800000Y-79500000D02*
X156900000Y-80400000D01*
X157800000Y-71400000D02*
X157800000Y-79500000D01*
X158000000Y-71200000D02*
X157800000Y-71400000D01*
X158500000Y-69300000D02*
X158600000Y-69400000D01*
X158500000Y-66500000D02*
X158500000Y-69300000D01*
X162500000Y-62500000D02*
X158500000Y-66500000D01*
%TO.N,Net-(J3-CLK)*%
X157200000Y-90000000D02*
X157250000Y-89950000D01*
X157200000Y-90300000D02*
X157200000Y-90000000D01*
X156600000Y-90900000D02*
X157200000Y-90300000D01*
X155500000Y-90900000D02*
X156600000Y-90900000D01*
X154300000Y-89700000D02*
X155500000Y-90900000D01*
X153100000Y-88000000D02*
X153200000Y-88100000D01*
X153100000Y-85800000D02*
X153100000Y-88000000D01*
X155700000Y-83200000D02*
X153100000Y-85800000D01*
X155700000Y-80700000D02*
X155700000Y-83200000D01*
X156200000Y-80200000D02*
X155700000Y-80700000D01*
X156800000Y-80200000D02*
X156200000Y-80200000D01*
X157200000Y-79800000D02*
X156800000Y-80200000D01*
X157200000Y-71300000D02*
X157200000Y-79800000D01*
X157100000Y-71200000D02*
X157200000Y-71300000D01*
X157100000Y-62200000D02*
X157100000Y-70300000D01*
X157200000Y-62100000D02*
X157100000Y-62200000D01*
X157200000Y-60200000D02*
X157200000Y-62100000D01*
X157500000Y-59900000D02*
X157200000Y-60200000D01*
X157700000Y-59900000D02*
X157500000Y-59900000D01*
X158200000Y-59400000D02*
X157700000Y-59900000D01*
X158225000Y-59375000D02*
X158200000Y-59400000D01*
%TO.N,Net-(BZ1--)*%
X162400000Y-104000000D02*
X173100000Y-104000000D01*
X161000000Y-102600000D02*
X162400000Y-104000000D01*
X160900000Y-102700000D02*
X161000000Y-102600000D01*
X160800000Y-102700000D02*
X160900000Y-102700000D01*
X151900000Y-93800000D02*
X160800000Y-102700000D01*
X151900000Y-90100000D02*
X151900000Y-93800000D01*
X154600000Y-87400000D02*
X151900000Y-90100000D01*
X154800000Y-87400000D02*
X154600000Y-87400000D01*
X155000000Y-87200000D02*
X154800000Y-87400000D01*
X155050000Y-87250000D02*
X155000000Y-87200000D01*
%TO.N,Net-(U4-GPIO8)*%
X158200000Y-90000000D02*
X158250000Y-89950000D01*
X158200000Y-90200000D02*
X158200000Y-90000000D01*
X158600000Y-90600000D02*
X158200000Y-90200000D01*
X158800000Y-90600000D02*
X158600000Y-90600000D01*
X159000000Y-90800000D02*
X158800000Y-90600000D01*
X159500000Y-90800000D02*
X159000000Y-90800000D01*
X160100000Y-90200000D02*
X159500000Y-90800000D01*
X160300000Y-90200000D02*
X160100000Y-90200000D01*
X162100000Y-92000000D02*
X160300000Y-90200000D01*
X164300000Y-92000000D02*
X162100000Y-92000000D01*
X164600000Y-91700000D02*
X164300000Y-92000000D01*
X164700000Y-91700000D02*
X164600000Y-91700000D01*
X165500000Y-92500000D02*
X164700000Y-91700000D01*
%TO.N,Net-(U4-VDD_SPI)*%
X160000000Y-88800000D02*
X159950000Y-88750000D01*
X160200000Y-88800000D02*
X160000000Y-88800000D01*
X160600000Y-88400000D02*
X160200000Y-88800000D01*
X160600000Y-87900000D02*
X160600000Y-88400000D01*
X160500000Y-87800000D02*
X160600000Y-87900000D01*
X160500000Y-87700000D02*
X160500000Y-87800000D01*
X160600000Y-87600000D02*
X160500000Y-87700000D01*
X160500000Y-87500000D02*
X160600000Y-87600000D01*
X160600000Y-87400000D02*
X160500000Y-87500000D01*
X160500000Y-87300000D02*
X160600000Y-87400000D01*
X160500000Y-87200000D02*
X160500000Y-87300000D01*
X160600000Y-87100000D02*
X160500000Y-87200000D01*
X160500000Y-87000000D02*
X160600000Y-87100000D01*
X160600000Y-86900000D02*
X160500000Y-87000000D01*
X160500000Y-86800000D02*
X160600000Y-86900000D01*
X160500000Y-86700000D02*
X160500000Y-86800000D01*
X160600000Y-86600000D02*
X160500000Y-86700000D01*
X160500000Y-86500000D02*
X160600000Y-86600000D01*
X160600000Y-86400000D02*
X160500000Y-86500000D01*
X160500000Y-86300000D02*
X160600000Y-86400000D01*
X160500000Y-86200000D02*
X160500000Y-86300000D01*
X160600000Y-86100000D02*
X160500000Y-86200000D01*
X160500000Y-86000000D02*
X160600000Y-86100000D01*
X160600000Y-85900000D02*
X160500000Y-86000000D01*
X160500000Y-85800000D02*
X160600000Y-85900000D01*
X160500000Y-85700000D02*
X160500000Y-85800000D01*
X160600000Y-85600000D02*
X160500000Y-85700000D01*
X160000000Y-85000000D02*
X160600000Y-85600000D01*
X160000000Y-84500000D02*
X160000000Y-85000000D01*
X157500000Y-82000000D02*
X160000000Y-84500000D01*
%TO.N,Net-(U1-CPOUT)*%
X166800000Y-80900000D02*
X166800000Y-81300000D01*
X166500000Y-80600000D02*
X166800000Y-80900000D01*
X166100000Y-80600000D02*
X166500000Y-80600000D01*
X163500000Y-78000000D02*
X166100000Y-80600000D01*
X162200000Y-78000000D02*
X163500000Y-78000000D01*
X161900000Y-78300000D02*
X162200000Y-78000000D01*
X161800000Y-78300000D02*
X161900000Y-78300000D01*
X161000000Y-77500000D02*
X161800000Y-78300000D01*
X160980000Y-77500000D02*
X161000000Y-77500000D01*
%TO.N,Net-(U4-GPIO2)*%
X155000000Y-88200000D02*
X155050000Y-88250000D01*
X154800000Y-88200000D02*
X155000000Y-88200000D01*
X154400000Y-88600000D02*
X154800000Y-88200000D01*
X154400000Y-88700000D02*
X154400000Y-88600000D01*
X153400000Y-89700000D02*
X154400000Y-88700000D01*
X153400000Y-90700000D02*
X153400000Y-89700000D01*
X154300000Y-91600000D02*
X153400000Y-90700000D01*
X154300000Y-91700000D02*
X154300000Y-91600000D01*
X152500000Y-93500000D02*
X154300000Y-91700000D01*
%TO.N,Net-(U4-GPIO9)*%
X158800000Y-90000000D02*
X158750000Y-89950000D01*
X158800000Y-90300000D02*
X158800000Y-90000000D01*
X159100000Y-90600000D02*
X158800000Y-90300000D01*
X159400000Y-90600000D02*
X159100000Y-90600000D01*
X160000000Y-90000000D02*
X159400000Y-90600000D01*
X162500000Y-90000000D02*
X160000000Y-90000000D01*
X164000000Y-91500000D02*
X162500000Y-90000000D01*
%TO.N,Net-(U4-CHIP_EN)*%
X155000000Y-88800000D02*
X155050000Y-88750000D01*
X154900000Y-88700000D02*
X155000000Y-88800000D01*
X154700000Y-88700000D02*
X154900000Y-88700000D01*
X153600000Y-89800000D02*
X154700000Y-88700000D01*
X153600000Y-90600000D02*
X153600000Y-89800000D01*
X155000000Y-92000000D02*
X153600000Y-90600000D01*
X154500000Y-92500000D02*
X155000000Y-92000000D01*
%TD*%
M02*
