%TF.GenerationSoftware,KiCad,Pcbnew,9.0.7*%
%TF.CreationDate,2026-07-10T19:39:02+01:00*%
%TF.ProjectId,rocket flight computer v1.0,726f636b-6574-4206-966c-696768742063,rev?*%
%TF.SameCoordinates,Original*%
%TF.FileFunction,Paste,Top*%
%TF.FilePolarity,Positive*%
%FSLAX46Y46*%
G04 Gerber Fmt 4.6, Leading zero omitted, Abs format (unit mm)*
G04 Created by KiCad (PCBNEW 9.0.7) date 2026-07-10 19:39:02*
%MOMM*%
%LPD*%
G01*
G04 APERTURE LIST*
G04 Aperture macros list*
%AMRoundRect*
0 Rectangle with rounded corners*
0 $1 Rounding radius*
0 $2 $3 $4 $5 $6 $7 $8 $9 X,Y pos of 4 corners*
0 Add a 4 corners polygon primitive as box body*
4,1,4,$2,$3,$4,$5,$6,$7,$8,$9,$2,$3,0*
0 Add four circle primitives for the rounded corners*
1,1,$1+$1,$2,$3*
1,1,$1+$1,$4,$5*
1,1,$1+$1,$6,$7*
1,1,$1+$1,$8,$9*
0 Add four rect primitives between the rounded corners*
20,1,$1+$1,$2,$3,$4,$5,0*
20,1,$1+$1,$4,$5,$6,$7,0*
20,1,$1+$1,$6,$7,$8,$9,0*
20,1,$1+$1,$8,$9,$2,$3,0*%
G04 Aperture macros list end*
%ADD10R,1.900000X1.300000*%
%ADD11R,1.200000X1.000000*%
%ADD12R,2.800000X1.000000*%
%ADD13R,0.800000X1.000000*%
%ADD14R,1.200000X0.700000*%
%ADD15RoundRect,0.250000X0.850000X-0.350000X0.850000X0.350000X-0.850000X0.350000X-0.850000X-0.350000X0*%
%ADD16RoundRect,0.135000X-0.135000X-0.185000X0.135000X-0.185000X0.135000X0.185000X-0.135000X0.185000X0*%
%ADD17RoundRect,0.135000X0.185000X-0.135000X0.185000X0.135000X-0.185000X0.135000X-0.185000X-0.135000X0*%
%ADD18RoundRect,0.140000X0.140000X0.170000X-0.140000X0.170000X-0.140000X-0.170000X0.140000X-0.170000X0*%
%ADD19RoundRect,0.147500X-0.147500X-0.172500X0.147500X-0.172500X0.147500X0.172500X-0.147500X0.172500X0*%
%ADD20RoundRect,0.375000X-0.625000X-0.375000X0.625000X-0.375000X0.625000X0.375000X-0.625000X0.375000X0*%
%ADD21RoundRect,0.500000X-0.500000X-1.400000X0.500000X-1.400000X0.500000X1.400000X-0.500000X1.400000X0*%
%ADD22RoundRect,0.140000X-0.170000X0.140000X-0.170000X-0.140000X0.170000X-0.140000X0.170000X0.140000X0*%
%ADD23RoundRect,0.150000X0.150000X0.400000X-0.150000X0.400000X-0.150000X-0.400000X0.150000X-0.400000X0*%
%ADD24RoundRect,0.135000X-0.185000X0.135000X-0.185000X-0.135000X0.185000X-0.135000X0.185000X0.135000X0*%
%ADD25RoundRect,0.140000X0.170000X-0.140000X0.170000X0.140000X-0.170000X0.140000X-0.170000X-0.140000X0*%
%ADD26RoundRect,0.140000X-0.140000X-0.170000X0.140000X-0.170000X0.140000X0.170000X-0.140000X0.170000X0*%
%ADD27RoundRect,0.250000X-0.475000X0.250000X-0.475000X-0.250000X0.475000X-0.250000X0.475000X0.250000X0*%
%ADD28RoundRect,0.250000X0.475000X-0.250000X0.475000X0.250000X-0.475000X0.250000X-0.475000X-0.250000X0*%
%ADD29RoundRect,0.150000X-0.825000X-0.150000X0.825000X-0.150000X0.825000X0.150000X-0.825000X0.150000X0*%
%ADD30RoundRect,0.250000X-0.255000X-0.440000X0.255000X-0.440000X0.255000X0.440000X-0.255000X0.440000X0*%
%ADD31R,1.450000X0.600000*%
%ADD32R,1.450000X0.300000*%
%ADD33RoundRect,0.250000X0.250000X0.475000X-0.250000X0.475000X-0.250000X-0.475000X0.250000X-0.475000X0*%
%ADD34R,1.500000X0.700000*%
%ADD35R,0.350000X0.500000*%
%ADD36RoundRect,0.062500X-0.062500X-0.337500X0.062500X-0.337500X0.062500X0.337500X-0.062500X0.337500X0*%
%ADD37RoundRect,0.062500X-0.337500X-0.062500X0.337500X-0.062500X0.337500X0.062500X-0.337500X0.062500X0*%
%ADD38RoundRect,0.250000X-0.495000X-0.495000X0.495000X-0.495000X0.495000X0.495000X-0.495000X0.495000X0*%
%ADD39RoundRect,0.075000X0.075000X-0.350000X0.075000X0.350000X-0.075000X0.350000X-0.075000X-0.350000X0*%
%ADD40RoundRect,0.075000X-0.350000X-0.075000X0.350000X-0.075000X0.350000X0.075000X-0.350000X0.075000X0*%
%ADD41RoundRect,0.250000X-0.250000X-0.475000X0.250000X-0.475000X0.250000X0.475000X-0.250000X0.475000X0*%
%ADD42RoundRect,0.150000X-0.512500X-0.150000X0.512500X-0.150000X0.512500X0.150000X-0.512500X0.150000X0*%
%ADD43R,2.200000X2.200000*%
G04 APERTURE END LIST*
D10*
%TO.C,J3*%
X143125000Y-67675000D03*
D11*
X158225000Y-65325000D03*
D12*
X143575000Y-54175000D03*
D11*
X153925000Y-54175000D03*
D13*
X147725000Y-54175000D03*
D14*
X158225000Y-55125000D03*
X158225000Y-56075000D03*
X158225000Y-57175000D03*
X158225000Y-58275000D03*
X158225000Y-59375000D03*
X158225000Y-60475000D03*
X158225000Y-61575000D03*
X158225000Y-62675000D03*
X158225000Y-63775000D03*
%TD*%
D15*
%TO.C,AE1*%
X147000000Y-85500000D03*
X147000000Y-79800000D03*
%TD*%
D16*
%TO.C,R7*%
X171520000Y-87000000D03*
X170500000Y-87000000D03*
%TD*%
D17*
%TO.C,R10*%
X159000000Y-81500000D03*
X159000000Y-82520000D03*
%TD*%
D18*
%TO.C,C2*%
X150540000Y-82500000D03*
X151500000Y-82500000D03*
%TD*%
D19*
%TO.C,L1*%
X157500000Y-81000000D03*
X156530000Y-81000000D03*
%TD*%
D20*
%TO.C,U3*%
X154700000Y-75300000D03*
D21*
X161000000Y-73000000D03*
D20*
X154700000Y-73000000D03*
X154700000Y-70700000D03*
%TD*%
D17*
%TO.C,R8*%
X155990000Y-92510000D03*
X155990000Y-93530000D03*
%TD*%
D22*
%TO.C,C19*%
X165000000Y-95480000D03*
X165000000Y-94520000D03*
%TD*%
D23*
%TO.C,Y1*%
X160100000Y-92500000D03*
X161500000Y-92500000D03*
%TD*%
D24*
%TO.C,R6*%
X166010000Y-91510000D03*
X166010000Y-90490000D03*
%TD*%
D25*
%TO.C,C10*%
X148500000Y-87520000D03*
X148500000Y-88480000D03*
%TD*%
D26*
%TO.C,C11*%
X157500000Y-82000000D03*
X156540000Y-82000000D03*
%TD*%
D25*
%TO.C,C9*%
X149500000Y-87520000D03*
X149500000Y-88480000D03*
%TD*%
D27*
%TO.C,C16*%
X153500000Y-84000000D03*
X153500000Y-82100000D03*
%TD*%
D28*
%TO.C,C15*%
X154000000Y-78550000D03*
X154000000Y-80450000D03*
%TD*%
D22*
%TO.C,C4*%
X147000000Y-93480000D03*
X147000000Y-92520000D03*
%TD*%
D26*
%TO.C,C6*%
X160980000Y-77500000D03*
X160020000Y-77500000D03*
%TD*%
D22*
%TO.C,C14*%
X160060000Y-95460000D03*
X160060000Y-94500000D03*
%TD*%
D24*
%TO.C,R1*%
X154490000Y-93520000D03*
X154490000Y-92500000D03*
%TD*%
D25*
%TO.C,C8*%
X152500000Y-87540000D03*
X152500000Y-88500000D03*
%TD*%
%TO.C,C3*%
X150500000Y-87560000D03*
X150500000Y-88520000D03*
%TD*%
D29*
%TO.C,U5*%
X148475000Y-71095000D03*
X148475000Y-72365000D03*
X148475000Y-73635000D03*
X148475000Y-74905000D03*
X143525000Y-74905000D03*
X143525000Y-73635000D03*
X143525000Y-72365000D03*
X143525000Y-71095000D03*
D30*
X146600000Y-73825000D03*
X146600000Y-72175000D03*
X145400000Y-73825000D03*
X145400000Y-72175000D03*
%TD*%
D26*
%TO.C,C1*%
X151480000Y-80500000D03*
X150520000Y-80500000D03*
%TD*%
D31*
%TO.C,J1*%
X171905000Y-79070000D03*
X171905000Y-78270000D03*
D32*
X171905000Y-77570000D03*
X171905000Y-76570000D03*
X171905000Y-75070000D03*
X171905000Y-74070000D03*
D31*
X171905000Y-73370000D03*
X171905000Y-72570000D03*
X171905000Y-72570000D03*
X171905000Y-73370000D03*
D32*
X171905000Y-74570000D03*
X171905000Y-75570000D03*
X171905000Y-76070000D03*
X171905000Y-77070000D03*
D31*
X171905000Y-78270000D03*
X171905000Y-79070000D03*
%TD*%
D33*
%TO.C,C18*%
X142600000Y-93000000D03*
X144500000Y-93000000D03*
%TD*%
D22*
%TO.C,C13*%
X162030000Y-95460000D03*
X162030000Y-94500000D03*
%TD*%
D34*
%TO.C,SW1*%
X175740000Y-62750000D03*
X175740000Y-64250000D03*
X175740000Y-67250000D03*
D13*
X178600000Y-61350000D03*
X176390000Y-61350000D03*
X178600000Y-68650000D03*
X176390000Y-68650000D03*
%TD*%
D17*
%TO.C,R9*%
X157980000Y-92510000D03*
X157980000Y-93530000D03*
%TD*%
%TO.C,R4*%
X164000000Y-91490000D03*
X164000000Y-92510000D03*
%TD*%
D35*
%TO.C,U2*%
X165500000Y-87900000D03*
X164850000Y-87900000D03*
X164200000Y-87900000D03*
X163550000Y-87900000D03*
X163550000Y-89500000D03*
X164200000Y-89500000D03*
X164850000Y-89500000D03*
X165500000Y-89500000D03*
%TD*%
D26*
%TO.C,C12*%
X150500000Y-95000000D03*
X149540000Y-95000000D03*
%TD*%
D24*
%TO.C,R5*%
X168000000Y-91510000D03*
X168000000Y-90490000D03*
%TD*%
D22*
%TO.C,C20*%
X163030000Y-95480000D03*
X163030000Y-94520000D03*
%TD*%
D25*
%TO.C,C7*%
X151500000Y-87520000D03*
X151500000Y-88480000D03*
%TD*%
D24*
%TO.C,R2*%
X152500000Y-93520000D03*
X152500000Y-92500000D03*
%TD*%
D17*
%TO.C,R3*%
X165500000Y-92500000D03*
X165500000Y-93520000D03*
%TD*%
D36*
%TO.C,U4*%
X155750000Y-85050000D03*
X156250000Y-85050000D03*
X156750000Y-85050000D03*
X157250000Y-85050000D03*
X157750000Y-85050000D03*
X158250000Y-85050000D03*
X158750000Y-85050000D03*
X159250000Y-85050000D03*
D37*
X159950000Y-85750000D03*
X159950000Y-86250000D03*
X159950000Y-86750000D03*
X159950000Y-87250000D03*
X159950000Y-87750000D03*
X159950000Y-88250000D03*
X159950000Y-88750000D03*
X159950000Y-89250000D03*
D36*
X159250000Y-89950000D03*
X158750000Y-89950000D03*
X158250000Y-89950000D03*
X157750000Y-89950000D03*
X157250000Y-89950000D03*
X156750000Y-89950000D03*
X156250000Y-89950000D03*
X155750000Y-89950000D03*
D37*
X155050000Y-89250000D03*
X155050000Y-88750000D03*
X155050000Y-88250000D03*
X155050000Y-87750000D03*
X155050000Y-87250000D03*
X155050000Y-86750000D03*
X155050000Y-86250000D03*
X155050000Y-85750000D03*
D38*
X158425000Y-88425000D03*
X158425000Y-86575000D03*
X156575000Y-88425000D03*
X156575000Y-86575000D03*
%TD*%
D25*
%TO.C,C5*%
X148500000Y-93000000D03*
X148500000Y-93960000D03*
%TD*%
D39*
%TO.C,U1*%
X164800000Y-81300000D03*
X165300000Y-81300000D03*
X165800000Y-81300000D03*
X166300000Y-81300000D03*
X166800000Y-81300000D03*
X167300000Y-81300000D03*
D40*
X168000000Y-82000000D03*
X168000000Y-82500000D03*
X168000000Y-83000000D03*
X168000000Y-83500000D03*
X168000000Y-84000000D03*
X168000000Y-84500000D03*
D39*
X167300000Y-85200000D03*
X166800000Y-85200000D03*
X166300000Y-85200000D03*
X165800000Y-85200000D03*
X165300000Y-85200000D03*
X164800000Y-85200000D03*
D40*
X164100000Y-84500000D03*
X164100000Y-84000000D03*
X164100000Y-83500000D03*
X164100000Y-83000000D03*
X164100000Y-82500000D03*
X164100000Y-82000000D03*
%TD*%
D17*
%TO.C,R11*%
X162500000Y-77500000D03*
X162500000Y-78520000D03*
%TD*%
D41*
%TO.C,C17*%
X144500000Y-90000000D03*
X142600000Y-90000000D03*
%TD*%
D42*
%TO.C,U6*%
X169225000Y-66600000D03*
X169225000Y-67550000D03*
X169225000Y-68500000D03*
X171500000Y-68500000D03*
X171500000Y-67550000D03*
X171500000Y-66600000D03*
%TD*%
D16*
%TO.C,R12*%
X170490000Y-85500000D03*
X171510000Y-85500000D03*
%TD*%
D19*
%TO.C,L2*%
X168035000Y-110270000D03*
X169005000Y-110270000D03*
%TD*%
D16*
%TO.C,R14*%
X170490000Y-84000000D03*
X171510000Y-84000000D03*
%TD*%
D41*
%TO.C,C23*%
X173550000Y-98510000D03*
X175450000Y-98510000D03*
%TD*%
%TO.C,C22*%
X173550000Y-95500000D03*
X175450000Y-95500000D03*
%TD*%
%TO.C,C21*%
X163890000Y-110780000D03*
X165790000Y-110780000D03*
%TD*%
D43*
%TO.C,BZ1*%
X159900000Y-104000000D03*
X173100000Y-104000000D03*
%TD*%
D19*
%TO.C,D1*%
X170030000Y-62500000D03*
X171000000Y-62500000D03*
%TD*%
D16*
%TO.C,R13*%
X170490000Y-82500000D03*
X171510000Y-82500000D03*
%TD*%
M02*
